<svg width="289" height="258" viewBox="0 0 289 258" fill="none" xmlns="http://www.w3.org/2000/svg">
<mask id="path-1-inside-1_5179_3912" fill="white">
<path fill-rule="evenodd" clip-rule="evenodd" d="M97.9782 94.0519C98.7583 94.7338 101.318 95.7739 102.549 96.0309C101.254 95.4621 99.5434 94.8328 98.6003 94.0448C94.1147 90.2822 96.7644 84.0025 102.555 84.9209C103.612 85.0884 105.416 85.9371 106.862 86.6518C105.893 85.9615 103.049 84.6004 102.022 84.3728C97.1923 83.3004 92.3184 89.1104 97.9782 94.0519Z"/>
</mask>
<path fill-rule="evenodd" clip-rule="evenodd" d="M97.9782 94.0519C98.7583 94.7338 101.318 95.7739 102.549 96.0309C101.254 95.4621 99.5434 94.8328 98.6003 94.0448C94.1147 90.2822 96.7644 84.0025 102.555 84.9209C103.612 85.0884 105.416 85.9371 106.862 86.6518C105.893 85.9615 103.049 84.6004 102.022 84.3728C97.1923 83.3004 92.3184 89.1104 97.9782 94.0519Z" fill="#A98116"/>
<path d="M97.9782 94.0519L98.636 93.2994L98.6355 93.299L97.9782 94.0519ZM102.549 96.0309L102.345 97.0093L102.951 95.1159L102.549 96.0309ZM98.6003 94.0448L97.958 94.8105L97.9594 94.8117L98.6003 94.0448ZM102.555 84.9209L102.712 83.9337L102.712 83.9337L102.555 84.9209ZM106.862 86.6518L106.419 87.5479L107.442 85.8379L106.862 86.6518ZM102.022 84.3728L101.805 85.3485L101.805 85.3486L102.022 84.3728ZM97.3204 94.8043C97.8448 95.2628 98.8183 95.7457 99.7048 96.1211C100.623 96.5098 101.638 96.8618 102.345 97.0093L102.753 95.0526C102.229 94.9431 101.349 94.6465 100.484 94.2804C99.5881 93.901 98.8917 93.5229 98.636 93.2994L97.3204 94.8043ZM102.951 95.1159C102.248 94.8071 101.569 94.5396 100.862 94.2128C100.168 93.8922 99.6061 93.5827 99.2411 93.2778L97.9594 94.8117C98.5376 95.2948 99.3023 95.694 100.024 96.0273C100.731 96.3543 101.555 96.6859 102.147 96.946L102.951 95.1159ZM99.2426 93.279C97.3056 91.6543 97.0067 89.6046 97.6427 88.1213C98.2729 86.6516 99.9164 85.5143 102.399 85.908L102.712 83.9337C99.4034 83.4091 96.8265 84.9525 95.8055 87.3336C94.7903 89.7013 95.4094 92.6727 97.958 94.8105L99.2426 93.279ZM102.399 85.908C102.798 85.9713 103.417 86.1826 104.174 86.5019C104.909 86.8124 105.7 87.1925 106.419 87.5479L107.305 85.7558C106.578 85.3964 105.743 84.9948 104.951 84.6604C104.18 84.3348 103.369 84.038 102.712 83.9337L102.399 85.908ZM107.442 85.8379C106.881 85.4382 105.86 84.8942 104.892 84.4355C103.938 83.9836 102.876 83.5383 102.238 83.397L101.805 85.3486C102.195 85.435 103.069 85.7839 104.036 86.2421C104.989 86.6934 105.874 87.1751 106.282 87.4658L107.442 85.8379ZM102.238 83.3971C99.385 82.7635 96.5266 84.1548 95.2003 86.4585C94.5272 87.6277 94.2473 89.0352 94.5661 90.5146C94.884 91.9898 95.7793 93.4588 97.3208 94.8048L98.6355 93.299C97.3472 92.1742 96.7293 91.0639 96.5202 90.0935C96.312 89.1273 96.4912 88.2227 96.9327 87.4558C97.8358 85.8872 99.829 84.9097 101.805 85.3485L102.238 83.3971Z" fill="#014958" mask="url(#path-1-inside-1_5179_3912)"/>
<mask id="path-3-inside-2_5179_3912" fill="white">
<path fill-rule="evenodd" clip-rule="evenodd" d="M113.147 103.245C113.012 103.19 102.651 106.404 105.563 111.099C105.089 109.032 106.066 106.629 113.147 103.245Z"/>
</mask>
<path fill-rule="evenodd" clip-rule="evenodd" d="M113.147 103.245C113.012 103.19 102.651 106.404 105.563 111.099C105.089 109.032 106.066 106.629 113.147 103.245Z" fill="#A98116"/>
<path d="M113.147 103.245L113.578 104.147L115.614 103.174L113.525 102.32L113.147 103.245ZM105.563 111.099L104.714 111.626L106.537 110.876L105.563 111.099ZM113.525 102.32C113.341 102.245 113.181 102.245 113.155 102.245C113.099 102.244 113.054 102.248 113.029 102.251C112.979 102.256 112.936 102.264 112.912 102.269C112.859 102.279 112.804 102.293 112.754 102.306C112.65 102.333 112.517 102.372 112.362 102.421C112.05 102.52 111.625 102.666 111.134 102.857C110.155 103.237 108.879 103.806 107.688 104.54C106.518 105.262 105.326 106.207 104.639 107.378C104.287 107.977 104.055 108.657 104.048 109.402C104.041 110.152 104.263 110.899 104.714 111.626L106.413 110.572C106.135 110.125 106.044 109.745 106.047 109.421C106.05 109.091 106.151 108.751 106.363 108.39C106.803 107.639 107.664 106.904 108.737 106.242C109.79 105.592 110.947 105.074 111.858 104.721C112.311 104.545 112.695 104.412 112.964 104.327C113.1 104.284 113.2 104.256 113.261 104.239C113.294 104.231 113.304 104.229 113.298 104.23C113.297 104.23 113.273 104.235 113.237 104.239C113.22 104.241 113.18 104.245 113.128 104.244C113.107 104.244 112.95 104.245 112.769 104.17L113.525 102.32ZM106.537 110.876C106.446 110.478 106.431 110.099 106.525 109.707C106.618 109.314 106.835 108.85 107.289 108.306C108.22 107.191 110.077 105.82 113.578 104.147L112.716 102.343C109.136 104.054 106.964 105.576 105.755 107.025C105.139 107.763 104.757 108.5 104.58 109.244C104.402 109.99 104.443 110.687 104.589 111.323L106.537 110.876Z" fill="#014958" mask="url(#path-3-inside-2_5179_3912)"/>
<path d="M106.441 145.422V0.499733H212.384V145.422H106.441Z" fill="#3CB572" stroke="#014958" stroke-width="0.999466"/>
<path d="M70.4607 145.422V0.499733H176.404V145.422H70.4607Z" fill="white" stroke="#014958" stroke-width="0.999466"/>
<path d="M155.118 46.2974H81.0107V68.469H155.118V46.2974Z" fill="#E3F6DC"/>
<path d="M104.525 58.8891C104.525 57.3299 103.434 56.6543 102.407 56.6543C101.433 56.6543 100.796 57.226 100.588 57.6937L99.4061 57.6288L100.017 52.5615H105.422V53.6659H100.978L100.653 56.3425C101.147 55.8617 101.901 55.6278 102.68 55.6278C104.33 55.6278 105.773 56.7972 105.773 58.8761C105.773 61.033 104.175 62.1504 102.42 62.1504C100.238 62.1504 99.2502 60.7731 99.0683 59.2529H100.29C100.472 60.4353 101.108 61.1629 102.42 61.1629C103.551 61.1629 104.525 60.3443 104.525 58.8891ZM110.677 62.1504C108.169 62.1504 107.012 60.2534 107.012 57.265C107.012 54.2896 108.169 52.3926 110.677 52.3926C113.184 52.3926 114.341 54.2896 114.341 57.265C114.341 60.2534 113.184 62.1504 110.677 62.1504ZM110.677 53.38C109.195 53.38 108.273 54.6534 108.273 57.265C108.273 59.8896 109.195 61.1629 110.677 61.1629C112.158 61.1629 113.08 59.8896 113.08 57.265C113.08 54.6534 112.158 53.38 110.677 53.38ZM127.001 55.303H125.715C125.403 54.2506 124.546 53.51 123.039 53.51C121.376 53.51 120.076 54.8093 120.076 57.252C120.076 59.6297 121.298 61.033 123.039 61.033C124.299 61.033 125.819 60.5132 125.819 58.5643V58.3174H123.324V57.174H127.066V61.9814H126.027L125.962 60.7991C125.351 61.7606 124.247 62.1504 122.987 62.1504C120.271 62.1504 118.725 60.1234 118.725 57.252C118.725 54.3285 120.453 52.3926 123.104 52.3926C125.053 52.3926 126.612 53.484 127.001 55.303ZM129.178 52.5615H132.569C134.323 52.5615 135.883 53.0162 135.883 54.8872C135.883 55.7838 135.493 56.5893 134.843 56.9661C135.74 57.3429 136.272 58.0446 136.272 59.2009C136.272 61.2019 134.778 61.9814 132.894 61.9814H129.178V52.5615ZM130.504 56.5893H132.777C133.856 56.5893 134.544 56.1736 134.544 55.0691C134.544 54.1077 133.83 53.6789 132.777 53.6789H130.504V56.5893ZM130.504 60.864H132.907C134.246 60.864 134.908 60.2794 134.908 59.2139C134.908 58.1095 134.246 57.6418 132.829 57.6418H130.504V60.864Z" fill="#014958"/>
<path d="M75.8643 57.2134V58.9237H77.4265V60.1424H75.8643V61.8527H77.4265V63.0715H75.8643V64.7818H77.4265V66.0005H75.8643V67.7108H91.1709V66.0005H89.6068V64.7818H91.1709V63.0715H89.6068V61.8527H91.1709V60.1424H89.6068V58.9237H91.1709V57.2134H75.8643Z" fill="#3CB572"/>
<path d="M144.312 52.1362V53.8465H145.874V55.0653H144.312V56.7756H145.874V57.9943H144.312V59.7046H145.874V60.9234H144.312V62.6337H159.618V60.9234H158.054V59.7046H159.618V57.9943H158.054V56.7756H159.618V55.0653H158.054V53.8465H159.618V52.1362H144.312Z" fill="#3CB572"/>
<path d="M54.6072 244.982V145.14H159.324V244.982H54.6072Z" fill="#3CB572" stroke="#014958" stroke-width="0.999466"/>
<path d="M18.74 244.982V145.14H123.457V244.982H18.74Z" fill="white" stroke="#014958" stroke-width="0.999466"/>
<path d="M123 183H19V200H123V183Z" fill="#E3F6DC"/>
<path d="M146 183H124V200H146V183Z" fill="#E3F6DC"/>
<path d="M46.2557 157.365H27.2334V166.526H46.2557V157.365Z" fill="#3CB572"/>
<path d="M46.2572 157.365H30.0137V166.526H46.2572V157.365Z" fill="#014958"/>
<rect x="146.409" y="135.656" width="69.0372" height="120.835" fill="white" stroke="#014958" stroke-width="0.999466"/>
<path d="M210.152 151.457H189.682V160.819H210.152V151.457Z" fill="#3CB572"/>
<path d="M210.152 151.457H194.909V160.819H210.152V151.457Z" fill="#014958"/>
<rect x="215.716" y="135.656" width="34.7484" height="120.835" fill="#3CB572" stroke="#014958" stroke-width="0.999466"/>
<rect x="7.79465" y="203.504" width="109.892" height="52.9871" fill="white" stroke="#014958" stroke-width="0.999466"/>
<path d="M0.693342 224.391L7.65567 203.504H117.493L110.531 224.391H0.693342Z" fill="#014958" stroke="#014958" stroke-width="0.999466"/>
<rect x="117.957" y="203.504" width="48.6098" height="52.9871" fill="#3CB572" stroke="#014958" stroke-width="0.999466"/>
<path d="M125.113 224.391L118.15 203.504H166.706L173.668 224.391H125.113Z" fill="#014958" stroke="#014958" stroke-width="0.999466"/>
<path d="M219.155 257.093V233.375H288.501V257.093H219.155Z" fill="#014958" stroke="#014958" stroke-width="0.999466"/>
<path d="M195.287 257.093V233.375H264.633V257.093H195.287Z" fill="#E3F6DC" stroke="#014958" stroke-width="0.999466"/>
</svg>
