<svg width="349" height="240" viewBox="0 0 349 240" fill="none" xmlns="http://www.w3.org/2000/svg">
<path d="M33 204.415L60.1838 195.431V186.089L74.7659 183.484L99.9695 168.482L89.348 165.966L99.4294 160.756L119.052 165.248L129.494 161.295V157.792L144.796 158.87H168.019L172.34 155.815L197.363 157.073L200.244 154.019L188.002 154.917V149.527L201.684 148L215.366 154.019L237.509 153.031L266.313 166.685L255.331 172.165V182.136L279.815 185.191L281.435 188.514L296.377 192.826L311.499 185.191L316 186.089V206.391L296.377 202.798L290.976 211.332L296.377 213.038L289.356 220.764L281.435 215.105L276.394 219.596L258.752 218.249L247.41 209.984L228.508 227.322L225.087 231.274L228.508 239L217.526 236.395L214.286 227.322H197.363L186.202 218.249L189.622 213.038L184.401 211.332L163.698 220.764L170.179 228.579L153.797 236.395L124.273 231.274L99.9695 239L83.2271 222.471L97.8092 211.332L78.3664 206.391L51.1826 208.996L44.7017 217.171L49.7424 221.662L33 224.627V204.415Z" fill="white" stroke="#014958"/>
<ellipse cx="158" cy="191" rx="36" ry="11" fill="#E3F6DC"/>
<path d="M165.7 118.826L166.049 119.184L166.05 119.184C166.049 119.184 166.049 119.184 165.7 118.826ZM166.056 119.175C166.105 119.126 166.152 119.077 166.2 119.029V118.826V118.824H165.7L165.702 118.826L166.056 119.175ZM162.706 123.782L162.269 123.54L162.706 123.782C162.706 123.782 162.706 123.782 162.706 123.782ZM162.06 135.921C162.06 135.921 162.059 135.921 162.059 135.921L161.865 136.382L162.06 135.921ZM167.727 123.015C167.721 123.022 167.715 123.029 167.709 123.036C167.704 123.043 167.699 123.051 167.694 123.058L168.107 123.341L167.727 123.015ZM170.332 115.135C170.347 115.156 170.37 115.194 170.395 115.252C170.441 115.228 170.477 115.211 170.505 115.2C170.524 115.193 170.535 115.19 170.54 115.189C170.533 115.19 170.513 115.192 170.482 115.189C170.481 115.188 170.48 115.188 170.48 115.188C170.392 115.177 170.342 115.141 170.324 115.125C170.326 115.128 170.329 115.131 170.332 115.135Z" fill="#CF9E1B" stroke="#014958"/>
<path d="M163.485 115.406C163.229 115.574 162.994 115.906 162.807 116.462C162.591 117.108 162.473 117.964 162.436 118.951C162.363 120.92 162.613 123.289 162.921 125.258C163.039 126.013 163.174 126.797 163.31 127.581C163.609 129.307 163.908 131.033 164.018 132.454C164.098 133.484 164.088 134.431 163.874 135.138C163.765 135.497 163.592 135.832 163.316 136.079C163.03 136.335 162.671 136.461 162.266 136.461C161.818 136.461 161.366 136.294 160.938 136.047C160.506 135.798 160.063 135.448 159.624 135.034C158.744 134.206 157.834 133.081 156.998 131.867C156.159 130.651 155.384 129.33 154.777 128.101C154.175 126.88 153.723 125.72 153.554 124.831C153.38 123.916 153.385 122.044 153.488 120.297C153.541 119.413 153.619 118.54 153.718 117.81C153.813 117.102 153.935 116.467 154.092 116.101C154.368 115.456 155.316 113.928 156.57 112.098C157.837 110.25 159.449 108.044 161.083 106.024C162.81 103.89 163.35 101.875 163.381 100.473C163.396 99.7641 163.282 99.2326 163.144 98.9223C163.116 98.8598 163.09 98.8121 163.067 98.7764C163.039 98.7961 163.007 98.8188 162.972 98.8445C162.838 98.9428 162.664 99.0773 162.456 99.245C162.039 99.5799 161.496 100.037 160.865 100.579C159.606 101.663 158.011 103.08 156.421 104.525C154.831 105.97 153.249 107.441 152.012 108.633C151.394 109.23 150.864 109.754 150.465 110.169C150.051 110.6 149.814 110.876 149.741 110.992C149.553 111.293 149.008 112.417 148.284 114.04C147.568 115.646 146.694 117.702 145.852 119.836C145.009 121.972 144.201 124.18 143.616 126.09C143.024 128.026 142.685 129.581 142.727 130.451L163.485 115.406ZM163.485 115.406C163.538 115.459 163.608 115.536 163.694 115.643C163.969 115.986 164.324 116.531 164.739 117.234C165.565 118.633 166.584 120.586 167.598 122.618C169.606 126.643 171.575 130.941 171.942 131.757L163.485 115.406ZM147.075 188.976L147.075 188.976L169.237 188.5C169.084 188.976 169.084 188.976 169.084 188.976L169.084 188.976L169.085 188.976L169.089 188.978L169.106 188.983C169.121 188.988 169.144 188.996 169.174 189.006C169.234 189.027 169.32 189.058 169.423 189.097C169.63 189.175 169.899 189.285 170.159 189.416C170.425 189.549 170.648 189.688 170.786 189.816C170.816 189.844 170.837 189.866 170.852 189.884C170.801 189.925 170.692 189.997 170.467 190.085C170.069 190.24 169.426 190.398 168.439 190.536C166.472 190.812 163.243 191 158.124 191C153.006 191 149.771 190.812 147.794 190.536C146.803 190.397 146.154 190.24 145.75 190.084C145.511 189.992 145.397 189.916 145.346 189.873C145.36 189.857 145.379 189.836 145.406 189.811C145.537 189.686 145.754 189.548 146.016 189.414C146.27 189.284 146.536 189.174 146.741 189.096C146.842 189.057 146.927 189.026 146.986 189.006C147.016 188.996 147.039 188.988 147.054 188.983L147.071 188.977L147.074 188.976L147.075 188.976ZM152.34 158.541C152.441 156.972 151.869 154.779 151.009 152.35C150.141 149.898 148.948 147.123 147.742 144.36C147.607 144.05 147.471 143.741 147.337 143.432C146.263 140.977 145.206 138.558 144.371 136.39C143.426 133.932 142.795 131.862 142.727 130.451L152.34 158.541ZM170.886 189.934C170.886 189.934 170.884 189.932 170.883 189.927C170.886 189.932 170.886 189.934 170.886 189.934ZM145.314 189.923C145.313 189.923 145.314 189.92 145.317 189.914C145.316 189.92 145.314 189.923 145.314 189.923Z" fill="#CF9E1B" stroke="#014958"/>
<path d="M159.007 132.127C158.93 132.364 158.864 132.576 158.811 132.755C158.058 132.388 157.24 131.845 156.632 131.174C155.879 130.345 155.492 129.383 155.818 128.315C155.971 127.811 156.127 127.26 156.291 126.677C156.991 124.2 157.855 121.141 159.416 118.622C160.391 117.049 161.251 115.909 161.864 115.165C162.171 114.793 162.415 114.52 162.582 114.342C162.665 114.253 162.729 114.188 162.771 114.145C162.792 114.124 162.807 114.109 162.817 114.099L162.818 114.098C165.317 112.249 167.225 110.759 168.652 109.645C169.112 109.286 169.522 108.966 169.885 108.685C170.641 108.103 171.181 107.703 171.559 107.47C171.634 107.424 171.698 107.387 171.752 107.358C172.079 108.377 171.873 109.519 171.304 110.742C170.67 112.104 169.623 113.483 168.537 114.749C167.511 115.945 166.036 117.695 164.713 119.445C163.406 121.175 162.197 122.969 161.76 124.237C161.549 124.848 161.237 125.728 160.89 126.705C160.565 127.621 160.209 128.622 159.879 129.567C159.539 130.538 159.227 131.446 159.007 132.127ZM171.972 107.265C171.971 107.266 171.969 107.266 171.963 107.267C171.969 107.265 171.972 107.265 171.972 107.265Z" fill="#CF9E1B" stroke="#014958"/>
<path d="M157.44 112.088L157.44 112.088L157.44 112.088L157.44 112.088L157.441 112.088C161.699 107.712 164.564 104.826 166.427 103.024C167.358 102.122 168.033 101.498 168.503 101.097C168.715 100.915 168.879 100.785 169.002 100.696C169.015 100.722 169.028 100.752 169.042 100.785C169.159 101.06 169.269 101.499 169.298 102.066C169.358 103.192 169.098 104.779 168.011 106.501C166.839 108.355 165.938 109.505 165.28 110.278C165.037 110.563 164.828 110.795 164.646 110.998C164.579 111.073 164.516 111.144 164.455 111.212C164.257 111.434 164.081 111.641 163.949 111.846C163.823 111.973 163.669 112.173 163.508 112.393C163.309 112.666 163.067 113.017 162.797 113.423C162.256 114.234 161.594 115.275 160.929 116.357C159.608 118.507 158.242 120.873 157.802 121.929L157.802 121.93C157.017 123.815 156.315 127.325 155.939 129.512C155.722 129.344 155.486 129.094 155.24 128.749C154.803 128.137 154.39 127.297 154.053 126.318C153.377 124.358 153.034 121.931 153.357 119.834C153.679 117.741 154.691 115.807 155.642 114.38C156.115 113.67 156.567 113.094 156.901 112.696C157.068 112.497 157.204 112.344 157.298 112.24C157.345 112.189 157.382 112.15 157.406 112.124L157.433 112.096L157.439 112.09L157.44 112.088ZM169.194 100.574C169.194 100.574 169.194 100.574 169.192 100.575C169.194 100.574 169.194 100.574 169.194 100.574ZM168.9 100.533C168.894 100.529 168.891 100.525 168.891 100.525C168.891 100.525 168.894 100.527 168.9 100.533Z" fill="#CF9E1B" stroke="#014958"/>
<path d="M123.1 23.3965C125.357 22.4893 127.921 23.5984 128.806 25.8648L184.808 169.336C185.374 170.787 184.666 172.423 183.221 173.004C181.776 173.584 180.133 172.893 179.538 171.454L120.688 29.1269C119.759 26.8786 120.842 24.3037 123.1 23.3965Z" fill="#3CB572"/>
<rect x="149.536" y="78.5479" width="52.9506" height="52.9506" transform="rotate(-111.386 149.536 78.5479)" fill="#EC1D25"/>
<rect x="153.426" y="31.3472" width="11.2845" height="32.1176" transform="rotate(-21.3865 153.426 31.3472)" fill="white"/>
<rect x="151.64" y="55.3516" width="11.2845" height="32.1176" transform="rotate(-111.386 151.64 55.3516)" fill="white"/>
<path d="M162.427 125.335C163.196 130.253 164.627 135.961 162.267 135.961L168.765 152.4C170.668 144.576 173.239 133.937 172.408 131.573C171.72 130.044 164.454 114.195 163.435 114.87C161.404 115.713 161.808 121.372 162.427 125.335Z" fill="#CF9E1B"/>
<path d="M162.13 136.365C164.49 136.365 163.196 130.253 162.427 125.335C161.808 121.372 161.404 115.713 163.435 114.87C164.454 114.195 171.72 130.044 172.408 131.573C173.239 133.937 170.668 144.576 168.765 152.4" stroke="#014958"/>
</svg>
