<svg width="24" height="24" viewBox="0 0 24 24" fill="none" xmlns="http://www.w3.org/2000/svg">
<g clip-path="url(#clip0_614_6393)">
<path fill-rule="evenodd" clip-rule="evenodd" d="M14.906 11.7246C14.6512 11.6423 14.3826 11.6117 14.1159 11.6347C13.8492 11.6576 13.5898 11.7337 13.3529 11.8583C13.116 11.9829 12.9063 12.1536 12.7363 12.3604L12.7256 12.3731C12.232 12.9472 12.2197 13.6587 12.2165 14.7804C12.2145 15.4668 12.2109 16.2899 11.922 17.1104C12.4633 17.0497 12.9952 16.9123 13.5014 16.7006C14.3804 16.3329 15.1545 15.7528 15.7541 15.0122C15.7625 15.0018 15.7711 14.9917 15.7801 14.9818C15.9593 14.783 16.0971 14.5504 16.1852 14.2976C16.2733 14.0449 16.31 13.777 16.2932 13.5099C16.2763 13.2427 16.2063 12.9816 16.0871 12.7419C15.9679 12.5022 15.802 12.2887 15.5992 12.114C15.3964 11.9393 15.1607 11.807 14.906 11.7246ZM13.9873 10.1402C14.4531 10.1001 14.9223 10.1535 15.3672 10.2973C15.8121 10.4411 16.2238 10.6723 16.5781 10.9775C16.9324 11.2826 17.2221 11.6554 17.4302 12.0741C17.6384 12.4928 17.7608 12.9488 17.7902 13.4155C17.8196 13.8821 17.7555 14.3499 17.6016 14.7914C17.45 15.2264 17.2142 15.6272 16.9077 15.971C16.1536 16.8975 15.1824 17.6234 14.0801 18.0844C12.972 18.5479 11.7661 18.729 10.5706 18.6115C10.294 18.5843 10.055 18.4063 9.94979 18.149C9.84457 17.8916 9.89032 17.5972 10.0687 17.384C10.6704 16.6645 10.7135 15.8441 10.7165 14.7761C10.7166 14.7251 10.7167 14.6731 10.7167 14.6203C10.7167 13.6577 10.7168 12.4137 11.5829 11.4014C11.8789 11.0431 12.2432 10.7472 12.6545 10.5308C13.0683 10.3131 13.5215 10.1803 13.9873 10.1402Z" fill="#3CB572"/>
<path fill-rule="evenodd" clip-rule="evenodd" d="M20.4699 0.129257C20.8405 0.0272434 21.2282 0.00298009 21.6087 0.0579918C21.9892 0.113003 22.3541 0.246101 22.6807 0.448924C23.0073 0.651748 23.2883 0.919914 23.5063 1.23657C23.7243 1.55323 23.8744 1.91154 23.9472 2.289C24.0201 2.66646 24.0141 3.0549 23.9296 3.42992C23.8451 3.80494 23.684 4.15845 23.4564 4.46822L23.4506 4.4761L17.2185 12.7291C16.9689 13.0596 16.4986 13.1252 16.168 12.8756C15.8375 12.626 15.7719 12.1557 16.0215 11.8251L22.2502 3.5765C22.354 3.43423 22.4275 3.27216 22.4662 3.10032C22.5053 2.92706 22.508 2.74761 22.4744 2.57323C22.4407 2.39886 22.3714 2.23333 22.2707 2.08703C22.17 1.94074 22.0402 1.81686 21.8893 1.72316C21.7384 1.62946 21.5698 1.56797 21.394 1.54255C21.2183 1.51714 21.0392 1.52835 20.8679 1.57548C20.6967 1.62261 20.5371 1.70463 20.3991 1.81641C20.2625 1.92701 20.1501 2.06436 20.0686 2.22L15.5427 11.3337C15.3585 11.7047 14.9084 11.8561 14.5374 11.6718C14.1664 11.4876 14.015 11.0375 14.1993 10.6665L18.7339 1.53516C18.9107 1.1938 19.1562 0.892735 19.455 0.650784C19.7537 0.408832 20.0992 0.231272 20.4699 0.129257Z" fill="#3CB572"/>
<path fill-rule="evenodd" clip-rule="evenodd" d="M1.09835 5.57246C1.80161 4.86919 2.75544 4.47411 3.75 4.47411H13.5C13.9142 4.47411 14.25 4.80989 14.25 5.22411C14.25 5.63832 13.9142 5.97411 13.5 5.97411H3.75C3.15326 5.97411 2.58097 6.21116 2.15901 6.63312C1.73705 7.05507 1.5 7.62737 1.5 8.22411V20.2241C1.5 20.8208 1.73705 21.3931 2.15901 21.8151C2.58097 22.2371 3.15326 22.4741 3.75 22.4741H15.75C16.3467 22.4741 16.919 22.2371 17.341 21.8151C17.7629 21.3931 18 20.8208 18 20.2241V18.7241C18 18.3099 18.3358 17.9741 18.75 17.9741C19.1642 17.9741 19.5 18.3099 19.5 18.7241V20.2241C19.5 21.2187 19.1049 22.1725 18.4017 22.8758C17.6984 23.579 16.7446 23.9741 15.75 23.9741H3.75C2.75544 23.9741 1.80161 23.579 1.09835 22.8758C0.395089 22.1725 0 21.2187 0 20.2241V8.22411C0 7.22954 0.395088 6.27572 1.09835 5.57246Z" fill="#3CB572"/>
</g>
<defs>
<clipPath id="clip0_614_6393">
<rect width="24" height="24" fill="white"/>
</clipPath>
</defs>
</svg>
