<svg width="16" height="16" viewBox="0 0 16 16" fill="none" xmlns="http://www.w3.org/2000/svg">
<path d="M7.24016 6.12667C6.95349 5.93333 6.54016 5.97333 6.29349 6.22C6.15349 6.36 6.07349 6.55333 6.07349 6.75333C6.07349 6.90667 6.12016 7.05333 6.20016 7.16667C6.28016 7.28667 6.39349 7.38667 6.53349 7.44667C6.62682 7.48667 6.72016 7.5 6.82016 7.5C6.87349 7.5 6.92016 7.49333 6.97349 7.48667C7.12016 7.46 7.25349 7.38667 7.35349 7.28667C7.46016 7.18 7.53349 7.04667 7.56682 6.89333C7.59349 6.74667 7.58016 6.6 7.52016 6.46667C7.46682 6.32667 7.36682 6.21333 7.24016 6.12667Z" fill="#3CB572"/>
<path d="M7.24016 9.12667C6.95349 8.93333 6.54016 8.97333 6.29349 9.22C6.15349 9.36 6.07349 9.55333 6.07349 9.75333C6.07349 9.90667 6.12016 10.0533 6.20016 10.1667C6.28016 10.2867 6.39349 10.3867 6.53349 10.4467C6.62682 10.4867 6.72016 10.5 6.82016 10.5C6.87349 10.5 6.92016 10.4933 6.97349 10.4867C7.12016 10.46 7.25349 10.3867 7.35349 10.2867C7.46016 10.18 7.53349 10.0467 7.56682 9.89333C7.59349 9.74667 7.58016 9.6 7.52016 9.46667C7.46682 9.32667 7.36682 9.21333 7.24016 9.12667Z" fill="#3CB572"/>
<path d="M7.24016 12.1267C6.95349 11.9333 6.54016 11.9733 6.29349 12.22C6.15349 12.36 6.07349 12.5533 6.07349 12.7533C6.07349 12.9067 6.12016 13.0533 6.20016 13.1667C6.28016 13.2867 6.39349 13.3867 6.53349 13.4467C6.62682 13.4867 6.72016 13.5 6.82016 13.5C6.87349 13.5 6.92016 13.4933 6.97349 13.4867C7.12016 13.46 7.25349 13.3867 7.35349 13.2867C7.46016 13.18 7.53349 13.0467 7.56682 12.8933C7.59349 12.7467 7.58016 12.6 7.52016 12.4667C7.46682 12.3267 7.36682 12.2133 7.24016 12.1267Z" fill="#3CB572"/>
<path d="M14.8868 2.35333L12.9735 0.44C12.6868 0.153333 12.3135 0 11.9135 0H2.16016C1.76016 0 1.38016 0.153333 1.10016 0.44C0.81349 0.72 0.660156 1.1 0.660156 1.5V14.5C0.660156 14.8933 0.820156 15.28 1.10016 15.56C1.38016 15.8467 1.76016 16 2.16016 16H13.8268C14.2202 16 14.6068 15.84 14.8868 15.56C15.1668 15.28 15.3268 14.8933 15.3268 14.5V3.41333C15.3268 3.02 15.1668 2.63333 14.8868 2.35333ZM7.38682 1L7.64682 3.1C7.66016 3.21333 7.65349 3.32667 7.62016 3.43333C7.58682 3.54 7.53349 3.64 7.46016 3.72C7.38016 3.80667 7.28016 3.88 7.17349 3.92667C6.95349 4.02 6.70016 4.02 6.48016 3.92667C6.37349 3.88 6.27349 3.80667 6.20016 3.72667C6.12682 3.64 6.07349 3.54667 6.04016 3.43333C6.00682 3.32667 5.99349 3.21333 6.00682 3.1L6.26682 1H7.38682ZM14.3268 14.5C14.3268 14.6333 14.2735 14.76 14.1802 14.8533C14.0868 14.9467 13.9602 15 13.8268 15H2.16016C2.02682 15 1.90016 14.9467 1.80682 14.8533C1.71349 14.76 1.66016 14.6333 1.66016 14.5V1.5C1.66016 1.36667 1.71349 1.24 1.80682 1.14667C1.90016 1.05333 2.02682 1 2.16016 1H5.26016L5.01349 2.97333C4.98682 3.22667 5.00682 3.48667 5.08016 3.73333C5.16016 3.98 5.28016 4.2 5.46016 4.4C5.63349 4.58667 5.84682 4.74 6.08016 4.84667C6.32016 4.94667 6.56682 5 6.82682 5C7.08682 5 7.33349 4.94667 7.57349 4.84C7.80682 4.73333 8.02016 4.58667 8.20016 4.38667C8.36682 4.19333 8.50016 3.96667 8.56682 3.72667C8.64016 3.48667 8.66682 3.22667 8.63349 2.97333L8.39349 1H11.9135C12.0468 1 12.1735 1.05333 12.2668 1.14667L14.1802 3.06C14.2735 3.15333 14.3268 3.28 14.3268 3.41333V14.5Z" fill="#3CB572"/>
</svg>
