<svg height="157pt" stroke-miterlimit="10" style="fill-rule:nonzero;clip-rule:evenodd;stroke-linecap:round;stroke-linejoin:round" viewBox="0 0 265 157" width="265pt" xml:space="preserve" xmlns="http://www.w3.org/2000/svg"><path d="M0 136.469c0-11.339 59.1168-20.531 132.041-20.531 72.924 0 132.041 9.192 132.041 20.531 0 11.339-59.117 20.531-132.041 20.531C59.1168 157 0 147.808 0 136.469Z" fill="#014958"/><path d="M90.6292 61.0241c2.2863-21.1479 20.1398-37.1755 41.4108-37.1755 21.272 0 39.125 16.0276 41.412 37.1756l8.902 82.3448-9.728-3.601a80.5027 80.5027 0 0 0-27.945-5.007H82.6576l7.9716-73.7369Z" fill="#2b383b" stroke="#dce4e5" stroke-linecap="butt" stroke-linejoin="miter"/><clipPath clip-rule="nonzero" id="a"><path d="M0 136.469c0-11.339 59.1168-20.531 132.041-20.531 72.924 0 132.041 9.192 132.041 20.531 0 11.339-59.117 20.531-132.041 20.531C59.1168 157 0 147.808 0 136.469Z"/></clipPath><g clip-path="url(#a)"><path d="M90.6301 61.0242c2.2863-21.148 20.1399-37.1756 41.4109-37.1756 21.271 0 39.125 16.0276 41.411 37.1756l11.834 109.4648-12.383-17.004c-6.863-9.423-20.917-9.423-27.78 0-6.463 8.875-19.7 8.875-26.163 0-6.863-9.423-20.918-9.423-27.7806 0l-12.3833 17.004 11.834-109.4648Z" fill="#2b383b" stroke="#dce4e5" stroke-linecap="butt" stroke-linejoin="miter"/></g><path d="M93.2944 14.9595c.7155 1.2798.3175 2.6869-.2672 3.7918-.5339 1.0058-.6947 1.4139-.2805 2.1548l.2334.4176-1.2528.7004-.256-.458c-.6327-1.1316-.359-1.9388.36-3.2778.4519-.8362.703-1.6838.2135-2.5594-.4745-.8487-1.5376-.9793-2.5749-.3994-1.5088.8435-1.4063 2.1653-1.0008 3.0172l-1.2259.6853c-.9656-1.7587-.2316-3.672 1.6813-4.7414 1.5222-.851 3.4587-.9611 4.3699.6689Zm-.0917 9.9883-.8661-1.5492 1.5492-.8661.8661 1.5492-1.5492.8661Z" fill="#ff8500"/><path d="M162.742 1.8544c-.004.9915-.705 1.6882-1.417 2.1449-.648.415-.879.6021-.881 1.1761l-.001.3236-.97-.0035.001-.3549c.003-.8766.432-1.2612 1.301-1.8113.544-.3424.973-.7583.975-1.4367.003-.6575-.58-1.0875-1.384-1.0903-1.169-.0042-1.547.8084-1.591 1.445l-.95-.0035c.015-1.3567 1.083-2.24 2.565-2.2346 1.179.0042 2.356.5824 2.352 1.8452Zm-3.371 5.8532.004-1.2001 1.2.0043-.004 1.2001-1.2-.0043Z" fill="#ffaa4c"/><path d="M179.528 15.0453c-.631 1.7603-2.318 2.5565-3.871 2.9198-1.414.329-1.942.5163-2.307 1.5355l-.206.5744-1.724-.6182.226-.6301c.559-1.5565 1.564-1.9696 3.455-2.3999 1.183-.2658 2.208-.7345 2.641-1.939.418-1.1674-.347-2.2994-1.774-2.8113-2.075-.7445-3.261.4615-3.74 1.5653l-1.687-.6049c.883-2.4023 3.338-3.2994 5.97-2.3554 2.094.7512 3.822 2.5216 3.017 4.7638Zm-9.684 8.2801.765-2.131 2.131.7645-.765 2.131-2.131-.7645Z" fill="#ff8500"/><path d="M109 70c2.209 0 4 1.7909 4 4v2c0 2.2091-1.791 4-4 4s-4-1.7909-4-4v-2c0-2.2091 1.791-4 4-4Z" fill="#67dd95"/><path d="M146.349 88.5292c-1.45-1.4961-1.373-3.8964.17-5.2963 1.544-1.4 3.94-1.243 5.288.3464l16.106 18.9947c.997 1.174.882 2.927-.259 3.962-1.141 1.035-2.897.979-3.969-.127l-17.336-17.8798Z" fill="#3c4f52" stroke="#dce4e5" stroke-linecap="butt" stroke-linejoin="miter"/><path d="M125.945 85.8807c-6.315-6.9624-5.79-17.7253 1.173-24.0396 6.962-6.3144 17.725-5.7891 24.039 1.1732 6.315 6.9624 5.789 17.7253-1.173 24.0397-6.962 6.3143-17.725 5.789-24.039-1.1733Z" fill="#3c4f52" stroke="#dce4e5" stroke-linecap="butt" stroke-linejoin="miter"/><path d="M128.171 83.8624c-5.2-5.7335-4.768-14.5967.966-19.7966 5.733-5.1999 14.597-4.7673 19.796.9662 5.2 5.7335 4.768 14.5967-.966 19.7966-5.733 5.1999-14.597 4.7673-19.796-.9662Z" fill="#ff9802"/><path d="M132.806 69.7017c2.209 0 4 1.7909 4 4v2c0 2.2091-1.791 4-4 4s-4-1.7909-4-4v-2c0-2.2091 1.791-4 4-4Z" fill="#ffc166"/><path d="m84.5002 120.5 14.0073-7.003c3.4875-1.744 5.1255-5.816 3.8165-9.489-1.43-4.0129-5.842-6.1072-9.8553-4.6773l-6.0315 2.1493" fill="none" stroke="#dce4e5" stroke-linecap="butt" stroke-linejoin="miter"/><path d="M93.0151 127.855 92.0525 85.5H118.03l-.963 42.355-4.93-4.716-.319-.306-.343.279-6.434 5.243-6.4341-5.243-.3424-.279-.3191.306-4.9303 4.716Z" fill="#333" stroke="#dce4e5" stroke-linecap="butt" stroke-linejoin="miter"/><path d="M157.98 97.3492c2.751-2.9543 7.376-3.1193 10.33-.3686l9.99 9.3014-9.961 10.699-9.99-9.302c-2.954-2.751-3.119-7.376-.369-10.3298Z" fill="#2b383b"/><path d="m178.3 106.282-9.99-9.3014c-2.954-2.7507-7.579-2.5857-10.33.3686-2.75 2.9538-2.585 7.5788.369 10.3298l9.99 9.302" fill="none" stroke="#dce4e5" stroke-linecap="butt" stroke-linejoin="miter"/></svg>