<svg width="25" height="24" viewBox="0 0 25 24" fill="none" xmlns="http://www.w3.org/2000/svg">
<path fill-rule="evenodd" clip-rule="evenodd" d="M6.42188 9.23438C6.24783 9.23438 6.08091 9.30352 5.95784 9.42659C5.83477 9.54966 5.76562 9.71658 5.76562 9.89062V21.1406C5.76562 21.3147 5.83477 21.4816 5.95784 21.6047C6.08091 21.7277 6.24783 21.7969 6.42188 21.7969H19.0781C19.2522 21.7969 19.4191 21.7277 19.5422 21.6047C19.6652 21.4816 19.7344 21.3147 19.7344 21.1406V9.89062C19.7344 9.71658 19.6652 9.54966 19.5422 9.42659C19.4191 9.30352 19.2522 9.23438 19.0781 9.23438H17.6719C17.2577 9.23438 16.9219 8.89859 16.9219 8.48438C16.9219 8.07016 17.2577 7.73438 17.6719 7.73438H19.0781C19.65 7.73438 20.1985 7.96155 20.6028 8.36593C21.0072 8.7703 21.2344 9.31875 21.2344 9.89062V21.1406C21.2344 21.7125 21.0072 22.2609 20.6028 22.6653C20.1984 23.0697 19.65 23.2969 19.0781 23.2969H6.42188C5.85 23.2969 5.30155 23.0697 4.89718 22.6653C4.4928 22.261 4.26562 21.7125 4.26562 21.1406V9.89062C4.26562 9.31875 4.4928 8.7703 4.89718 8.36593C5.30155 7.96155 5.85 7.73438 6.42188 7.73438H7.82812C8.24234 7.73438 8.57812 8.07016 8.57812 8.48438C8.57812 8.89859 8.24234 9.23438 7.82812 9.23438H6.42188Z" fill="#3CB572"/>
<path fill-rule="evenodd" clip-rule="evenodd" d="M12.75 0.703125C13.1642 0.703125 13.5 1.03891 13.5 1.45312V11.2969C13.5 11.7111 13.1642 12.0469 12.75 12.0469C12.3358 12.0469 12 11.7111 12 11.2969V1.45312C12 1.03891 12.3358 0.703125 12.75 0.703125Z" fill="#3CB572"/>
<path fill-rule="evenodd" clip-rule="evenodd" d="M12.2197 0.922795C12.5126 0.629902 12.9874 0.629902 13.2803 0.922795L16.796 4.43842C17.0888 4.73131 17.0888 5.20619 16.796 5.49908C16.5031 5.79197 16.0282 5.79197 15.7353 5.49908L12.75 2.51379L9.76471 5.49908C9.47181 5.79197 8.99694 5.79197 8.70404 5.49908C8.41115 5.20619 8.41115 4.73131 8.70404 4.43842L12.2197 0.922795Z" fill="#3CB572"/>
</svg>
