<svg width="168" height="122" viewBox="0 0 168 122" fill="none" xmlns="http://www.w3.org/2000/svg">
<path d="M96.5773 1H71.7166L46.3154 26.4012V51.2619L71.7166 76.663H96.5773L121.978 51.2619V26.4012L96.5773 1Z" fill="white" stroke="#014958" stroke-width="0.8"/>
<path d="M95.1563 5.32373H73.1368L50.6387 27.8219V49.8414L73.1368 72.3396H95.1563L117.654 49.8414V27.8219L95.1563 5.32373Z" fill="#F44336"/>
<path d="M103.128 21.6984C103.599 21.2284 103.599 20.4662 103.128 19.9961C102.658 19.526 101.896 19.526 101.426 19.9961L84.2215 37.2008L67.0168 19.9961C66.5467 19.526 65.7846 19.526 65.3145 19.9961C64.8444 20.4662 64.8444 21.2284 65.3145 21.6984L82.5191 38.9031L65.3145 56.1078C64.8444 56.5779 64.8444 57.34 65.3145 57.8101C65.7846 58.2802 66.5467 58.2802 67.0168 57.8101L84.2215 40.6054L101.426 57.8101C101.896 58.2802 102.658 58.2802 103.128 57.8101C103.599 57.34 103.599 56.5779 103.128 56.1078L85.9238 38.9031L103.128 21.6984Z" fill="white"/>
<path d="M84.1482 113.163L65.2324 94.5178L84.1482 63.4419V113.163Z" fill="#3CB572" stroke="#014958" stroke-width="0.8"/>
<path d="M84.1487 113.163L103.064 94.5178L84.1487 63.4419V113.163Z" fill="#014958" stroke="#014958" stroke-width="0.8"/>
<path fill-rule="evenodd" clip-rule="evenodd" d="M84.149 62.3608L33.3467 94.1123H77.7987L84.149 62.3608ZM84.149 62.3608L90.4993 94.1123H134.951L84.149 62.3608Z" fill="white"/>
<path d="M33.3467 94.1123L33.1347 93.7731L31.952 94.5123H33.3467V94.1123ZM84.149 62.3608L84.361 62.0216L84.149 61.8891L83.937 62.0216L84.149 62.3608ZM77.7987 94.1123V94.5123H78.1266L78.1909 94.1907L77.7987 94.1123ZM90.4993 94.1123L90.1071 94.1907L90.1714 94.5123H90.4993V94.1123ZM134.951 94.1123V94.5123H136.346L135.163 93.7731L134.951 94.1123ZM33.5587 94.4515L84.361 62.7L83.937 62.0216L33.1347 93.7731L33.5587 94.4515ZM77.7987 93.7123H33.3467V94.5123H77.7987V93.7123ZM83.7568 62.2824L77.4065 94.0338L78.1909 94.1907L84.5412 62.4393L83.7568 62.2824ZM83.7568 62.4393L90.1071 94.1907L90.8915 94.0338L84.5412 62.2824L83.7568 62.4393ZM90.4993 94.5123H134.951V93.7123H90.4993V94.5123ZM135.163 93.7731L84.361 62.0216L83.937 62.7L134.739 94.4515L135.163 93.7731Z" fill="#014958"/>
<path d="M50.9111 103.976L33.887 121" stroke="#014958" stroke-width="0.8" stroke-linecap="round"/>
<path d="M60.6387 102.354L56.3826 106.611M52.1266 110.867L54.2546 108.739" stroke="#014958" stroke-width="0.8" stroke-linecap="round"/>
<path d="M117.386 103.976L134.41 121" stroke="#014958" stroke-width="0.8" stroke-linecap="round"/>
<path d="M107.388 102.354L109.11 104.077M115.9 110.867L110.901 105.867" stroke="#014958" stroke-width="0.8" stroke-linecap="round"/>
<path d="M144.138 79.3647L135.888 71.2321L144.138 57.6777V79.3647Z" fill="#3CB572" stroke="#014958" stroke-width="0.8"/>
<path d="M144.138 79.3647L152.389 71.2321L144.138 57.6777V79.3647Z" fill="#014958" stroke="#014958" stroke-width="0.8"/>
<path fill-rule="evenodd" clip-rule="evenodd" d="M144.139 57.2061L121.98 71.0551H141.369L144.139 57.2061ZM144.139 57.2061L146.909 71.0551H166.297L144.139 57.2061Z" fill="white"/>
<path d="M121.98 71.0551L121.768 70.7159L120.586 71.4551H121.98V71.0551ZM144.139 57.2061L144.351 56.8669L144.139 56.7344L143.927 56.8669L144.139 57.2061ZM141.369 71.0551V71.4551H141.697L141.761 71.1335L141.369 71.0551ZM146.909 71.0551L146.517 71.1335L146.581 71.4551H146.909V71.0551ZM166.297 71.0551V71.4551H167.692L166.509 70.7159L166.297 71.0551ZM122.192 71.3943L144.351 57.5453L143.927 56.8669L121.768 70.7159L122.192 71.3943ZM141.369 70.6551H121.98V71.4551H141.369V70.6551ZM143.747 57.1276L140.977 70.9766L141.761 71.1335L144.531 57.2845L143.747 57.1276ZM143.747 57.2845L146.517 71.1335L147.301 70.9766L144.531 57.1276L143.747 57.2845ZM146.909 71.4551H166.297V70.6551H146.909V71.4551ZM166.509 70.7159L144.351 56.8669L143.927 57.5453L166.085 71.3943L166.509 70.7159Z" fill="#014958"/>
<path d="M18.4823 76.9333L12.3447 70.8834L18.4823 60.8003V76.9333Z" fill="#3CB572" stroke="#014958" stroke-width="0.8"/>
<path d="M18.4826 76.9333L24.6201 70.8834L18.4826 60.8003V76.9333Z" fill="#014958" stroke="#014958" stroke-width="0.8"/>
<path fill-rule="evenodd" clip-rule="evenodd" d="M18.4828 60.4502L1.99902 70.7525H16.4223L18.4828 60.4502ZM18.4828 60.4502L20.5432 70.7525H34.9665L18.4828 60.4502Z" fill="white"/>
<path d="M1.99902 70.7525L1.78702 70.4133L0.604305 71.1525H1.99902V70.7525ZM18.4828 60.4502L18.6948 60.111L18.4828 59.9785L18.2708 60.111L18.4828 60.4502ZM16.4223 70.7525V71.1525H16.7502L16.8145 70.831L16.4223 70.7525ZM20.5432 70.7525L20.151 70.831L20.2153 71.1525H20.5432V70.7525ZM34.9665 70.7525V71.1525H36.3612L35.1785 70.4133L34.9665 70.7525ZM2.21102 71.0917L18.6948 60.7894L18.2708 60.111L1.78702 70.4133L2.21102 71.0917ZM16.4223 70.3525H1.99902V71.1525H16.4223V70.3525ZM18.0905 60.3717L16.0301 70.6741L16.8145 70.831L18.875 60.5286L18.0905 60.3717ZM18.0905 60.5286L20.151 70.831L20.9355 70.6741L18.875 60.3717L18.0905 60.5286ZM20.5432 71.1525H34.9665V70.3525H20.5432V71.1525ZM35.1785 70.4133L18.6948 60.111L18.2708 60.7894L34.7545 71.0917L35.1785 70.4133Z" fill="#014958"/>
</svg>
