<svg width="168" height="122" viewBox="0 0 168 122" fill="none" xmlns="http://www.w3.org/2000/svg">
<path d="M96.5783 1H71.7176L46.3164 26.4012V51.2619L71.7176 76.663H96.5783L121.979 51.2619V26.4012L96.5783 1Z" fill="#152123" stroke="#DCE4E5" stroke-width="0.8"/>
<path d="M95.1573 5.32373H73.1378L50.6396 27.8219V49.8414L73.1378 72.3396H95.1573L117.655 49.8414V27.8219L95.1573 5.32373Z" fill="#FC8878"/>
<path d="M103.129 21.6984C103.6 21.2284 103.6 20.4662 103.129 19.9961C102.659 19.526 101.897 19.526 101.427 19.9961L84.2224 37.2008L67.0178 19.9961C66.5477 19.526 65.7855 19.526 65.3155 19.9961C64.8454 20.4662 64.8454 21.2284 65.3155 21.6984L82.5201 38.9031L65.3155 56.1078C64.8454 56.5779 64.8454 57.34 65.3155 57.8101C65.7855 58.2802 66.5477 58.2802 67.0178 57.8101L84.2224 40.6054L101.427 57.8101C101.897 58.2802 102.659 58.2802 103.129 57.8101C103.6 57.34 103.6 56.5779 103.129 56.1078L85.9248 38.9031L103.129 21.6984Z" fill="white"/>
<path d="M84.1501 113.163L65.2344 94.5178L84.1501 63.4419V113.163Z" fill="#3C4F52" stroke="#DCE4E5" stroke-width="0.8"/>
<path d="M84.1507 113.163L103.066 94.5178L84.1507 63.4419V113.163Z" fill="#014958" stroke="#DCE4E5" stroke-width="0.8"/>
<path fill-rule="evenodd" clip-rule="evenodd" d="M84.151 62.3608L33.3486 94.1123H77.8007L84.151 62.3608ZM84.151 62.3608L90.5012 94.1123H134.953L84.151 62.3608Z" fill="#152123"/>
<path d="M33.3486 94.1123L33.1366 93.7731L31.9539 94.5123H33.3486V94.1123ZM84.151 62.3608L84.3629 62.0216L84.151 61.8891L83.939 62.0216L84.151 62.3608ZM77.8007 94.1123V94.5123H78.1286L78.1929 94.1907L77.8007 94.1123ZM90.5012 94.1123L90.109 94.1907L90.1733 94.5123H90.5012V94.1123ZM134.953 94.1123V94.5123H136.348L135.165 93.7731L134.953 94.1123ZM33.5606 94.4515L84.3629 62.7L83.939 62.0216L33.1366 93.7731L33.5606 94.4515ZM77.8007 93.7123H33.3486V94.5123H77.8007V93.7123ZM83.7587 62.2824L77.4084 94.0338L78.1929 94.1907L84.5432 62.4393L83.7587 62.2824ZM83.7587 62.4393L90.109 94.1907L90.8935 94.0338L84.5432 62.2824L83.7587 62.4393ZM90.5012 94.5123H134.953V93.7123H90.5012V94.5123ZM135.165 93.7731L84.3629 62.0216L83.939 62.7L134.741 94.4515L135.165 93.7731Z" fill="#DCE4E5"/>
<path d="M50.9131 103.976L33.8889 121" stroke="#67DD95" stroke-width="0.8" stroke-linecap="round"/>
<path d="M60.6406 102.354L56.3846 106.611M52.1285 110.867L54.2566 108.739" stroke="#67DD95" stroke-width="0.8" stroke-linecap="round"/>
<path d="M117.388 103.976L134.412 121" stroke="#67DD95" stroke-width="0.8" stroke-linecap="round"/>
<path d="M107.39 102.354L109.112 104.077M115.902 110.867L110.903 105.867" stroke="#67DD95" stroke-width="0.8" stroke-linecap="round"/>
<path d="M144.139 79.3647L135.889 71.2321L144.139 57.6777V79.3647Z" fill="#3C4F52" stroke="#DCE4E5" stroke-width="0.8"/>
<path d="M144.139 79.3647L152.39 71.2321L144.139 57.6777V79.3647Z" fill="#014958" stroke="#DCE4E5" stroke-width="0.8"/>
<path fill-rule="evenodd" clip-rule="evenodd" d="M144.14 57.2061L121.981 71.0551H141.37L144.14 57.2061ZM144.14 57.2061L146.91 71.0551H166.298L144.14 57.2061Z" fill="#152123"/>
<path d="M121.981 71.0551L121.769 70.7159L120.587 71.4551H121.981V71.0551ZM144.14 57.2061L144.352 56.8669L144.14 56.7344L143.928 56.8669L144.14 57.2061ZM141.37 71.0551V71.4551H141.698L141.762 71.1335L141.37 71.0551ZM146.91 71.0551L146.517 71.1335L146.582 71.4551H146.91V71.0551ZM166.298 71.0551V71.4551H167.693L166.51 70.7159L166.298 71.0551ZM122.193 71.3943L144.352 57.5453L143.928 56.8669L121.769 70.7159L122.193 71.3943ZM141.37 70.6551H121.981V71.4551H141.37V70.6551ZM143.748 57.1276L140.978 70.9766L141.762 71.1335L144.532 57.2845L143.748 57.1276ZM143.748 57.2845L146.517 71.1335L147.302 70.9766L144.532 57.1276L143.748 57.2845ZM146.91 71.4551H166.298V70.6551H146.91V71.4551ZM166.51 70.7159L144.352 56.8669L143.928 57.5453L166.086 71.3943L166.51 70.7159Z" fill="#DCE4E5"/>
<path d="M18.4833 76.9333L12.3457 70.8834L18.4833 60.8003V76.9333Z" fill="#3C4F52" stroke="#DCE4E5" stroke-width="0.8"/>
<path d="M18.4835 76.9333L24.6211 70.8834L18.4835 60.8003V76.9333Z" fill="#014958" stroke="#DCE4E5" stroke-width="0.8"/>
<path fill-rule="evenodd" clip-rule="evenodd" d="M18.4837 60.4502L2 70.7525H16.4233L18.4837 60.4502ZM18.4837 60.4502L20.5442 70.7525H34.9675L18.4837 60.4502Z" fill="#152123"/>
<path d="M2 70.7525L1.788 70.4133L0.605282 71.1525H2V70.7525ZM18.4837 60.4502L18.6957 60.111L18.4837 59.9785L18.2717 60.111L18.4837 60.4502ZM16.4233 70.7525V71.1525H16.7512L16.8155 70.831L16.4233 70.7525ZM20.5442 70.7525L20.152 70.831L20.2163 71.1525H20.5442V70.7525ZM34.9675 70.7525V71.1525H36.3622L35.1795 70.4133L34.9675 70.7525ZM2.212 71.0917L18.6957 60.7894L18.2717 60.111L1.788 70.4133L2.212 71.0917ZM16.4233 70.3525H2V71.1525H16.4233V70.3525ZM18.0915 60.3717L16.031 70.6741L16.8155 70.831L18.876 60.5286L18.0915 60.3717ZM18.0915 60.5286L20.152 70.831L20.9364 70.6741L18.876 60.3717L18.0915 60.5286ZM20.5442 71.1525H34.9675V70.3525H20.5442V71.1525ZM35.1795 70.4133L18.6957 60.111L18.2717 60.7894L34.7555 71.0917L35.1795 70.4133Z" fill="#DCE4E5"/>
</svg>
