<svg width="24" height="24" viewBox="0 0 24 24" fill="none" xmlns="http://www.w3.org/2000/svg">
<path fill-rule="evenodd" clip-rule="evenodd" d="M2.25 1.5C1.83579 1.5 1.5 1.83579 1.5 2.25V16.5H4.875L8.11185 12.1842C8.30523 11.9262 8.5518 11.7128 8.83486 11.5584C9.11792 11.404 9.43086 11.3122 9.75248 11.2893C10.0741 11.2664 10.3969 11.3129 10.699 11.4256C11.001 11.5383 11.2754 11.7147 11.5034 11.9427L11.9189 12.3582L14.7 8.65C14.9096 8.37056 15.1813 8.14375 15.4938 7.98754C15.8062 7.83133 16.1507 7.75 16.5 7.75C16.8493 7.75 17.1938 7.83133 17.5062 7.98754C17.8187 8.14375 18.0904 8.37056 18.3 8.65L20.97 12.21C21.2185 12.5414 21.1514 13.0115 20.82 13.26C20.4886 13.5085 20.0185 13.4414 19.77 13.11L17.1 9.55C17.0301 9.45685 16.9396 9.38125 16.8354 9.32918C16.7313 9.27711 16.6164 9.25 16.5 9.25C16.3836 9.25 16.2687 9.27711 16.1646 9.32918C16.0604 9.38125 15.9699 9.45685 15.9 9.55L12.6 13.95C12.4695 14.1239 12.27 14.2327 12.0532 14.2481C11.8363 14.2635 11.6234 14.1841 11.4697 14.0303L10.4427 13.0033C10.3667 12.9273 10.2752 12.8685 10.1745 12.8309C10.0738 12.7934 9.96623 12.7779 9.85902 12.7855C9.75181 12.7931 9.6475 12.8237 9.55315 12.8752C9.45879 12.9267 9.3766 12.9978 9.31215 13.0838L6.75 16.5H22.5V2.25C22.5 1.83579 22.1642 1.5 21.75 1.5H2.25ZM24 2.25C24 1.00736 22.9926 0 21.75 0H2.25C1.00736 0 0 1.00736 0 2.25V21.75C0 22.9926 1.00736 24 2.25 24H21.75C22.9926 24 24 22.9926 24 21.75V2.25ZM22.5 18H5.25756C5.25214 18.0001 5.24671 18.0001 5.24129 18H1.5V21.75C1.5 22.1642 1.83579 22.5 2.25 22.5H21.75C22.1642 22.5 22.5 22.1642 22.5 21.75V18ZM6.375 5.25C5.75368 5.25 5.25 5.75368 5.25 6.375C5.25 6.99632 5.75368 7.5 6.375 7.5C6.99632 7.5 7.5 6.99632 7.5 6.375C7.5 5.75368 6.99632 5.25 6.375 5.25ZM3.75 6.375C3.75 4.92525 4.92525 3.75 6.375 3.75C7.82475 3.75 9 4.92525 9 6.375C9 7.82475 7.82475 9 6.375 9C4.92525 9 3.75 7.82475 3.75 6.375Z" fill="#67DD95"/>
</svg>
