<svg width="185" height="160" viewBox="0 0 185 160" fill="none" xmlns="http://www.w3.org/2000/svg">
<ellipse cx="92.231" cy="145.659" rx="92.231" ry="14.3408" fill="#014958"/>
<path d="M56.3409 52.9495C58.3208 34.6359 73.7816 20.7563 92.202 20.7563C110.622 20.7563 126.083 34.6359 128.063 52.9495L138.303 147.671L127.706 133.119C121.726 124.908 109.478 124.908 103.498 133.119C97.9169 140.783 86.4871 140.783 80.9063 133.119C74.926 124.908 62.6783 124.908 56.6981 133.119L46.1008 147.671L56.3409 52.9495Z" fill="#2B383B" stroke="#DCE4E5"/>
<circle cx="92.2022" cy="78.2325" r="2.79401" fill="#67DD95"/>
<path d="M58.5872 12.9781C59.2079 14.0884 58.8626 15.3092 58.3554 16.2677C57.8921 17.1403 57.7526 17.4944 58.112 18.1372L58.3145 18.4995L57.2276 19.1071L57.0055 18.7097C56.4566 17.728 56.6941 17.0277 57.3178 15.866C57.7099 15.1406 57.9278 14.4052 57.5031 13.6455C57.0914 12.9092 56.1691 12.796 55.2692 13.2991C53.9602 14.0308 54.0491 15.1777 54.4009 15.9167L53.3374 16.5113C52.4997 14.9854 53.1364 13.3256 54.796 12.3978C56.1166 11.6595 57.7966 11.5639 58.5872 12.9781ZM58.5076 21.6436L57.7562 20.2996L59.1002 19.5482L59.8516 20.8922L58.5076 21.6436Z" fill="#67DD95"/>
<path d="M118.837 1.60884C118.834 2.46899 118.225 3.07345 117.608 3.46962C117.045 3.82978 116.845 3.99204 116.844 4.49002L116.843 4.7707L116.001 4.76768L116.002 4.45984C116.004 3.69928 116.377 3.36561 117.13 2.88843C117.602 2.59133 117.975 2.2305 117.977 1.64197C117.979 1.07156 117.473 0.698515 116.776 0.696014C115.762 0.692375 115.433 1.39743 115.395 1.94961L114.571 1.94666C114.584 0.76964 115.511 0.00334596 116.796 0.00795883C117.82 0.0116296 118.841 0.513282 118.837 1.60884ZM115.912 6.68688L115.916 5.64565L116.957 5.64938L116.954 6.69062L115.912 6.68688Z" fill="white"/>
<path d="M133.401 13.0527C132.853 14.5799 131.389 15.2706 130.042 15.5858C128.815 15.8713 128.357 16.0338 128.04 16.918L127.861 17.4163L126.366 16.88L126.562 16.3334C127.047 14.983 127.919 14.6246 129.559 14.2513C130.586 14.0206 131.475 13.6141 131.85 12.5691C132.214 11.5563 131.55 10.5742 130.312 10.1301C128.511 9.48416 127.483 10.5305 127.067 11.4881L125.604 10.9632C126.37 8.87909 128.5 8.10087 130.782 8.91984C132.599 9.57155 134.098 11.1075 133.401 13.0527ZM124.999 20.2362L125.662 18.3875L127.511 19.0507L126.848 20.8995L124.999 20.2362Z" fill="#67DD95"/>
<path fill-rule="evenodd" clip-rule="evenodd" d="M75.3685 57.736L72.405 60.6995L76.3559 64.6505L72.4041 68.6023L75.3675 71.5658L79.3194 67.614L83.2711 71.5657L86.2346 68.6022L82.2829 64.6505L86.2337 60.6996L83.2702 57.7362L79.3194 61.687L75.3685 57.736Z" fill="#67DD95"/>
<path fill-rule="evenodd" clip-rule="evenodd" d="M99.8157 57.7355L96.8522 60.699L100.803 64.65L96.8513 68.6018L99.8148 71.5653L103.767 67.6135L107.718 71.5652L110.682 68.6017L106.73 64.65L110.681 60.6992L107.717 57.7357L103.767 61.6865L99.8157 57.7355Z" fill="#67DD95"/>
<path d="M135.732 97.5656L126.827 82.1401L115.333 88.7759L124.239 104.201C126.071 107.375 130.13 108.463 133.304 106.63C136.477 104.798 137.565 100.739 135.732 97.5656Z" fill="#2B383B"/>
<path d="M115.333 88.7759L124.239 104.201C126.071 107.375 130.13 108.463 133.304 106.63V106.63C136.477 104.798 137.565 100.739 135.732 97.5656L126.827 82.1401" stroke="#DCE4E5"/>
<g clip-path="url(#clip0_3933_18967)">
<path d="M145.443 110.907C144.461 110.907 143.549 110.556 142.848 109.855C142.147 109.154 141.796 108.242 141.796 107.26C141.796 106.278 142.147 105.366 142.848 104.664L146.215 101.298C146.846 100.666 147.758 100.246 148.67 100.246C149.582 100.175 150.494 100.526 151.195 101.157C151.896 101.789 152.387 102.63 152.458 103.542C152.598 104.454 152.317 105.366 151.756 106.137C151.616 106.348 151.265 106.418 151.055 106.278C150.844 106.137 150.774 105.787 150.914 105.576C151.335 105.015 151.476 104.384 151.405 103.753C151.335 103.121 150.985 102.49 150.494 102.069C150.003 101.438 149.371 101.228 148.74 101.228C148.039 101.298 147.407 101.578 146.986 101.999L143.62 105.366C143.129 105.857 142.848 106.558 142.848 107.26C142.848 107.961 143.129 108.592 143.62 109.154C144.602 110.136 146.355 110.136 147.337 109.154L147.968 108.452C148.179 108.242 148.53 108.242 148.74 108.452C148.95 108.663 148.95 109.013 148.74 109.224L148.109 109.855C147.407 110.556 146.495 110.907 145.443 110.907Z" fill="white"/>
<path d="M151.616 108.452C150.704 108.452 149.862 108.172 149.231 107.54C148.53 106.909 148.109 106.067 147.968 105.155C147.828 104.244 148.109 103.332 148.67 102.56C148.81 102.35 149.161 102.28 149.371 102.42C149.582 102.56 149.652 102.911 149.512 103.121C149.091 103.682 148.95 104.314 149.021 104.945C149.091 105.576 149.441 106.208 149.932 106.628C150.423 107.049 151.055 107.26 151.756 107.26C152.387 107.26 153.019 106.979 153.51 106.488L156.877 103.121C157.297 102.771 157.578 102.139 157.578 101.438C157.578 100.737 157.297 100.105 156.806 99.5441C155.824 98.5621 154.071 98.5621 153.089 99.5441L152.528 100.105C152.317 100.316 151.967 100.316 151.756 100.105C151.546 99.8948 151.616 99.5441 151.826 99.3337L152.317 98.8427C153.019 98.1412 153.931 97.7905 154.913 97.7905C155.895 97.7905 156.806 98.1412 157.508 98.8427C158.209 99.5441 158.56 100.456 158.56 101.438C158.56 102.42 158.209 103.332 157.508 104.033L154.141 107.4C153.51 108.031 152.598 108.452 151.686 108.452H151.616Z" fill="white"/>
</g>
<path d="M59.5964 104.202L68.5023 88.7764L57.0088 82.1406L48.1029 97.5661C46.2705 100.74 47.3579 104.798 50.5317 106.631C53.7056 108.463 57.764 107.376 59.5964 104.202Z" fill="#2B383B"/>
<path d="M57.0088 82.1406L48.1029 97.5661C46.2705 100.74 47.3579 104.798 50.5317 106.631V106.631C53.7056 108.463 57.764 107.376 59.5964 104.202L68.5023 88.7764" stroke="#DCE4E5"/>
<path fill-rule="evenodd" clip-rule="evenodd" d="M24.5216 102.28C24.5216 100.338 26.0954 98.7646 28.0367 98.7646C29.978 98.7646 31.5517 100.338 31.5517 102.28C31.5517 104.221 29.978 105.795 28.0367 105.795C26.0954 105.795 24.5216 104.221 24.5216 102.28ZM28.0367 99.8462C26.6927 99.8462 25.6032 100.936 25.6032 102.28C25.6032 103.624 26.6927 104.713 28.0367 104.713C29.3806 104.713 30.4702 103.624 30.4702 102.28C30.4702 100.936 29.3806 99.8462 28.0367 99.8462Z" fill="white"/>
<path d="M28.5778 106.913C27.7636 106.81 26.9371 106.941 26.1946 107.29C25.4521 107.64 24.8243 108.193 24.3844 108.886C24.0419 109.425 23.8243 110.032 23.7447 110.662H29.4787C29.7774 110.662 30.0195 110.904 30.0195 111.202C30.0195 111.501 29.7774 111.743 29.4787 111.743H23.1697C23.0262 111.743 22.8886 111.686 22.7872 111.585C22.6858 111.483 22.6288 111.346 22.6289 111.202C22.6294 110.176 22.9216 109.172 23.4714 108.306C24.0212 107.44 24.8059 106.748 25.7341 106.312C26.6622 105.875 27.6954 105.711 28.713 105.839C29.7307 105.968 30.6909 106.383 31.4816 107.036C31.7118 107.227 31.7442 107.567 31.554 107.798C31.3637 108.028 31.0228 108.06 30.7926 107.87C30.1601 107.347 29.3919 107.015 28.5778 106.913Z" fill="white"/>
<path d="M33.5874 112.808C33.2899 113.149 32.8517 113.366 32.3629 113.366C31.4669 113.366 30.7405 112.639 30.7405 111.743C30.7405 110.847 31.4669 110.121 32.3629 110.121C32.758 110.121 33.1202 110.262 33.4016 110.497C33.4234 110.479 33.4469 110.462 33.4721 110.447L36.1038 108.868C36.1292 108.852 36.1553 108.84 36.182 108.829C36.1599 108.722 36.1483 108.612 36.1483 108.499C36.1483 107.603 36.8746 106.876 37.7706 106.876C38.6666 106.876 39.393 107.603 39.393 108.499C39.393 109.395 38.6666 110.121 37.7706 110.121C37.3752 110.121 37.0128 109.979 36.7313 109.744C36.7094 109.763 36.6857 109.78 36.6603 109.795L34.0285 111.374C34.0035 111.389 33.9777 111.402 33.9515 111.413C33.9736 111.519 33.9852 111.63 33.9852 111.743C33.9852 111.768 33.9846 111.792 33.9836 111.817C34.0123 111.823 34.0409 111.832 34.0692 111.843L36.4659 112.802C36.4941 112.814 36.5209 112.827 36.5461 112.842C36.8435 112.5 37.2818 112.284 37.7706 112.284C38.6666 112.284 39.393 113.01 39.393 113.906C39.393 114.802 38.6666 115.529 37.7706 115.529C36.8746 115.529 36.1483 114.802 36.1483 113.906C36.1483 113.882 36.1489 113.857 36.1499 113.833C36.1211 113.826 36.0924 113.818 36.0641 113.806L33.6674 112.847C33.6392 112.836 33.6125 112.823 33.5874 112.808Z" fill="white"/>
<defs>
<clipPath id="clip0_3933_18967">
<rect width="16.7641" height="16.7641" fill="white" transform="translate(141.796 95.6948)"/>
</clipPath>
</defs>
</svg>
