<svg width="32" height="32" viewBox="0 0 32 32" fill="none" xmlns="http://www.w3.org/2000/svg">
<path fill-rule="evenodd" clip-rule="evenodd" d="M5.9987 10.6641C5.9987 9.74363 6.74489 8.99744 7.66536 8.99744H24.332C25.2525 8.99744 25.9987 9.74363 25.9987 10.6641V25.3308C25.9987 26.2512 25.2525 26.9974 24.332 26.9974H7.66536C6.74489 26.9974 5.9987 26.2512 5.9987 25.3308V10.6641ZM23.9987 12.9974V10.9974H7.9987V12.9974H23.9987ZM7.9987 14.9974H11.9987V18.9974H7.9987V14.9974ZM23.9987 14.9974V18.9974H13.9987V14.9974H23.9987ZM13.9987 20.9974H23.9987V24.9974H13.9987V20.9974ZM11.9987 20.9974V24.9974H7.9987V20.9974H11.9987Z" fill="#4BAF50"/>
<path fill-rule="evenodd" clip-rule="evenodd" d="M1.87868 0.876116C2.44129 0.313507 3.20435 -0.00256348 4 -0.00256348H24C24.7811 -0.0024852 25.5313 0.302202 26.0912 0.84664L26.0941 0.849437L30.094 4.69332C30.3807 4.97279 30.6086 5.30683 30.7642 5.67574C30.9198 6.04464 31 6.44096 31 6.84134V28.9974C31 29.7931 30.6839 30.5562 30.1213 31.1188C29.5587 31.6814 28.7957 31.9974 28 31.9974H4C3.20435 31.9974 2.44129 31.6814 1.87868 31.1188C1.31607 30.5562 1 29.7931 1 28.9974V2.99744C1 2.20179 1.31607 1.43873 1.87868 0.876116ZM4 1.99744C3.73478 1.99744 3.48043 2.10279 3.29289 2.29033C3.10536 2.47787 3 2.73222 3 2.99744V28.9974C3 29.2627 3.10536 29.517 3.29289 29.7045C3.48043 29.8921 3.73478 29.9974 4 29.9974H28C28.2652 29.9974 28.5196 29.8921 28.7071 29.7045C28.8946 29.517 29 29.2627 29 28.9974V6.84153C29 6.70811 28.9732 6.57594 28.9214 6.453C28.8699 6.33091 28.7947 6.22029 28.7001 6.12754L28.698 6.12553L24.6979 2.28146C24.5112 2.09942 24.2608 1.99749 24 1.99744H4Z" fill="#4BAF50"/>
</svg>
