<svg width="474" height="240" viewBox="0 0 474 240" fill="none" xmlns="http://www.w3.org/2000/svg">
<ellipse cx="449.087" cy="76.3675" rx="5.5" ry="29.2234" transform="rotate(-19.5133 449.087 76.3675)" fill="#014958"/>
<ellipse cx="5.5" cy="29.2234" rx="5.5" ry="29.2234" transform="matrix(-0.942564 -0.334025 -0.334025 0.942564 41.8906 70.6743)" fill="#014958"/>
<path d="M351.362 81.4715C351.848 81.2408 352.639 81.0576 353.73 80.9392C354.81 80.822 356.142 80.7721 357.683 80.7844C360.404 80.8063 363.749 81.0218 367.458 81.3912C366.973 81.6759 366.363 82.03 365.651 82.4368C363.725 83.5357 361.048 85.0176 358.04 86.5499C352.356 89.4459 345.555 92.4885 340.42 93.5018C340.816 92.7565 341.388 91.8843 342.08 90.9455C343.047 89.6353 344.226 88.2255 345.432 86.8974C346.639 85.5694 347.867 84.3291 348.93 83.3572C350.011 82.3693 350.874 81.7027 351.362 81.4715Z" fill="#CF9E1B" stroke="#014958"/>
<path d="M123.198 103.472C122.712 103.241 121.921 103.058 120.829 102.939C119.749 102.822 118.417 102.772 116.876 102.784C114.156 102.806 110.81 103.022 107.102 103.391C107.587 103.676 108.196 104.03 108.909 104.437C110.835 105.536 113.512 107.018 116.519 108.55C122.204 111.446 129.005 114.488 134.14 115.502C133.744 114.756 133.172 113.884 132.479 112.946C131.513 111.635 130.334 110.226 129.127 108.897C127.921 107.569 126.692 106.329 125.629 105.357C124.549 104.369 123.685 103.703 123.198 103.472Z" fill="#CF9E1B" stroke="#014958"/>
<mask id="path-5-inside-1_1222_8299" fill="white">
<path d="M156.25 101.354C150.333 99.9096 144.163 99.8451 138.218 101.166C132.272 102.487 126.71 105.158 121.962 108.972C117.214 112.787 113.407 117.642 110.836 123.163C108.264 128.684 106.997 134.723 107.133 140.812C107.269 146.901 108.803 152.877 111.618 158.278C114.433 163.679 118.452 168.36 123.366 171.959C128.279 175.558 133.954 177.979 139.953 179.033C145.951 180.088 152.112 179.749 157.958 178.042L154.321 165.585C150.385 166.734 146.238 166.962 142.2 166.252C138.162 165.542 134.342 163.913 131.035 161.49C127.727 159.067 125.021 155.916 123.127 152.28C121.232 148.644 120.199 144.621 120.107 140.523C120.016 136.424 120.869 132.359 122.6 128.642C124.331 124.926 126.894 121.657 130.09 119.09C133.286 116.522 137.03 114.724 141.032 113.835C145.035 112.946 149.188 112.989 153.171 113.962L156.25 101.354Z"/>
</mask>
<path d="M156.25 101.354C150.333 99.9096 144.163 99.8451 138.218 101.166C132.272 102.487 126.71 105.158 121.962 108.972C117.214 112.787 113.407 117.642 110.836 123.163C108.264 128.684 106.997 134.723 107.133 140.812C107.269 146.901 108.803 152.877 111.618 158.278C114.433 163.679 118.452 168.36 123.366 171.959C128.279 175.558 133.954 177.979 139.953 179.033C145.951 180.088 152.112 179.749 157.958 178.042L154.321 165.585C150.385 166.734 146.238 166.962 142.2 166.252C138.162 165.542 134.342 163.913 131.035 161.49C127.727 159.067 125.021 155.916 123.127 152.28C121.232 148.644 120.199 144.621 120.107 140.523C120.016 136.424 120.869 132.359 122.6 128.642C124.331 124.926 126.894 121.657 130.09 119.09C133.286 116.522 137.03 114.724 141.032 113.835C145.035 112.946 149.188 112.989 153.171 113.962L156.25 101.354Z" fill="#3CB572" stroke="#014958" stroke-width="2" mask="url(#path-5-inside-1_1222_8299)"/>
<path fill-rule="evenodd" clip-rule="evenodd" d="M239.323 66.4836C241.158 66.9316 243.008 65.8075 243.456 63.9728C243.904 62.1381 242.78 60.2876 240.946 59.8395C239.111 59.3914 237.26 60.5155 236.812 62.3503C236.364 64.185 237.488 66.0355 239.323 66.4836ZM236.209 73.1653C235.637 75.5077 233.274 76.9429 230.932 76.3709C228.59 75.7988 227.154 73.4362 227.726 71.0938C228.298 68.7513 230.661 67.3162 233.003 67.8882C235.346 68.4603 236.781 70.8229 236.209 73.1653ZM235.742 95.4078C238.847 95.2257 241.604 93.0498 242.38 89.8706C243.333 85.9684 240.942 82.0324 237.04 81.0794C235.621 80.7329 234.197 80.8285 232.914 81.2782C231.93 80.6113 230.813 80.1053 229.591 79.8067C224.083 78.4618 218.528 81.8361 217.183 87.3434C217.029 87.974 216.937 88.6051 216.903 89.2306C216.633 89.0231 216.316 88.8671 215.963 88.7811C214.605 88.4494 213.235 89.2815 212.904 90.6396C212.75 91.2715 212.847 91.9059 213.132 92.4372C213.06 92.4168 212.987 92.3976 212.914 92.3796C209.518 91.5505 206.094 93.6307 205.265 97.0258C204.848 98.7318 205.166 100.445 206.016 101.833C202.566 102.327 199.552 104.669 198.296 108.055C194.639 107.707 191.416 109.03 187.526 110.628C184.02 112.068 179.971 113.73 174.573 114.594C163.025 116.441 150.894 90.262 150.894 90.262L134.873 191.292C134.71 192.32 135.363 193.301 136.374 193.548L195.679 208.031C196.69 208.278 197.722 207.708 198.051 206.721L234.689 96.754C235.074 96.3381 235.427 95.8883 235.742 95.4078ZM242.481 77.663C242.152 79.0117 240.792 79.838 239.443 79.5086C238.094 79.1792 237.268 77.8189 237.597 76.4702C237.927 75.1215 239.287 74.2952 240.636 74.6246C241.985 74.954 242.811 76.3143 242.481 77.663Z" fill="#E3F6DC"/>
<path d="M147.805 161.598L144.123 186.626C143.973 187.647 144.625 188.615 145.627 188.86L150.286 189.997C151.288 190.242 152.313 189.684 152.65 188.708L160.919 164.8" stroke="#014958" stroke-linecap="round"/>
<path d="M167.477 166.402L163.795 191.43C163.645 192.451 164.297 193.419 165.299 193.664L169.957 194.801C170.96 195.046 171.985 194.488 172.322 193.512L180.591 169.605" stroke="#014958" stroke-linecap="round"/>
<path d="M187.149 171.206L183.468 196.234C183.318 197.255 183.969 198.223 184.972 198.468L189.63 199.606C190.633 199.851 191.658 199.292 191.995 198.317L200.264 174.409" stroke="#014958" stroke-linecap="round"/>
<ellipse cx="157.156" cy="122.981" rx="1.61094" ry="1.61096" transform="rotate(13.7237 157.156 122.981)" fill="white"/>
<circle cx="191.22" cy="129.641" r="2.53128" transform="rotate(13.7237 191.22 129.641)" fill="white"/>
<circle cx="195.157" cy="138.419" r="0.843759" transform="rotate(13.7237 195.157 138.419)" fill="white"/>
<circle cx="161.262" cy="152.724" r="0.843759" transform="rotate(13.7237 161.262 152.724)" fill="white"/>
<circle cx="172.062" cy="144.071" r="1.68752" transform="rotate(13.7237 172.062 144.071)" fill="white"/>
<circle cx="194.177" cy="165.54" r="1.26564" transform="rotate(13.7237 194.177 165.54)" fill="white"/>
<circle cx="218.722" cy="125.5" r="1.26564" transform="rotate(13.7237 218.722 125.5)" fill="white"/>
<path d="M155.692 74.4169C154.274 74.0707 152.863 75.0073 152.631 76.4481L134.159 191.154C133.951 192.441 134.767 193.671 136.034 193.98L195.785 208.572C197.051 208.881 198.342 208.166 198.751 206.929L235.23 96.6199C235.689 95.2343 234.868 93.7525 233.45 93.4063L155.692 74.4169Z" stroke="#014958"/>
<path d="M132.072 191.049C132.141 190.452 132.718 190.05 133.303 190.193L200.774 206.67C201.358 206.813 201.685 207.435 201.471 207.997L199.767 212.471C199.588 212.942 199.085 213.206 198.596 213.086L132.278 196.891C131.788 196.771 131.464 196.305 131.522 195.804L132.072 191.049Z" fill="#014958"/>
<mask id="path-19-inside-2_1222_8299" fill="white">
<path d="M314.095 86.0633C319.654 83.5754 325.711 82.3996 331.797 82.6269C337.883 82.8543 343.835 84.4787 349.193 87.3745C354.551 90.2702 359.172 94.3597 362.696 99.3267C366.221 104.294 368.556 110.005 369.52 116.018C370.484 122.032 370.053 128.187 368.258 134.007C366.463 139.827 363.353 145.156 359.169 149.582C354.986 154.008 349.84 157.412 344.13 159.531C338.42 161.65 332.299 162.427 326.241 161.802L327.572 148.893C331.65 149.314 335.771 148.791 339.614 147.364C343.458 145.938 346.922 143.646 349.739 140.667C352.555 137.688 354.648 134.1 355.856 130.182C357.065 126.265 357.355 122.121 356.706 118.073C356.057 114.025 354.485 110.181 352.113 106.837C349.74 103.494 346.63 100.741 343.023 98.7913C339.416 96.842 335.409 95.7485 331.312 95.5954C327.215 95.4424 323.138 96.2339 319.396 97.9087L314.095 86.0633Z"/>
</mask>
<path d="M314.095 86.0633C319.654 83.5754 325.711 82.3996 331.797 82.6269C337.883 82.8543 343.835 84.4787 349.193 87.3745C354.551 90.2702 359.172 94.3597 362.696 99.3267C366.221 104.294 368.556 110.005 369.52 116.018C370.484 122.032 370.053 128.187 368.258 134.007C366.463 139.827 363.353 145.156 359.169 149.582C354.986 154.008 349.84 157.412 344.13 159.531C338.42 161.65 332.299 162.427 326.241 161.802L327.572 148.893C331.65 149.314 335.771 148.791 339.614 147.364C343.458 145.938 346.922 143.646 349.739 140.667C352.555 137.688 354.648 134.1 355.856 130.182C357.065 126.265 357.355 122.121 356.706 118.073C356.057 114.025 354.485 110.181 352.113 106.837C349.74 103.494 346.63 100.741 343.023 98.7913C339.416 96.842 335.409 95.7485 331.312 95.5954C327.215 95.4424 323.138 96.2339 319.396 97.9087L314.095 86.0633Z" fill="#3CB572" stroke="#014958" stroke-width="2" mask="url(#path-19-inside-2_1222_8299)"/>
<path fill-rule="evenodd" clip-rule="evenodd" d="M240.705 87.7322C239.63 84.8387 240.973 81.5684 243.831 80.2894C246.808 78.9569 250.302 80.2904 251.634 83.2677C251.918 83.902 252.081 84.5596 252.133 85.2149C252.379 84.8995 252.703 84.638 253.094 84.4632C254.37 83.8922 255.867 84.4636 256.438 85.7396C256.704 86.3334 256.722 86.9752 256.537 87.5492C256.605 87.5159 256.674 87.4838 256.743 87.4527C259.933 86.025 263.677 87.4537 265.104 90.6438C265.822 92.2468 265.818 93.9895 265.232 95.5079C268.714 95.3721 272.102 97.1319 273.947 100.235C277.481 99.2339 280.889 99.9545 285.004 100.825C288.712 101.609 292.994 102.514 298.459 102.39C310.152 102.125 317.364 74.1879 317.364 74.1879L351.337 170.674C351.683 171.656 351.218 172.739 350.268 173.164L294.546 198.102C293.596 198.527 292.479 198.152 291.977 197.24L235.128 93.8907C235.128 93.8907 236.008 94.4926 237.473 95.4375C237.334 92.5308 238.518 89.6823 240.705 87.7322Z" fill="#E3F6DC"/>
<path d="M333.264 143.798L341.397 167.752C341.729 168.729 341.263 169.799 340.32 170.221L335.944 172.179C335.002 172.601 333.893 172.236 333.385 171.338L320.941 149.313" stroke="#014958" stroke-linecap="round"/>
<path d="M314.78 152.07L322.914 176.024C323.246 177.001 322.779 178.071 321.837 178.493L317.46 180.451C316.518 180.873 315.41 180.508 314.902 179.61L302.458 157.585" stroke="#014958" stroke-linecap="round"/>
<path d="M296.297 160.342L304.43 184.296C304.762 185.274 304.296 186.343 303.354 186.765L298.977 188.724C298.035 189.145 296.926 188.781 296.419 187.882L283.975 165.857" stroke="#014958" stroke-linecap="round"/>
<ellipse cx="1.61094" cy="1.61096" rx="1.61094" ry="1.61096" transform="matrix(-0.912758 0.4085 0.4085 0.912758 317.915 105.371)" fill="white"/>
<circle cx="2.53128" cy="2.53128" r="2.53128" transform="matrix(-0.912758 0.4085 0.4085 0.912758 286.075 116.848)" fill="white"/>
<circle cx="0.843759" cy="0.843759" r="0.843759" transform="matrix(-0.912758 0.4085 0.4085 0.912758 282.936 128.421)" fill="white"/>
<circle cx="0.843759" cy="0.843759" r="0.843759" transform="matrix(-0.912758 0.4085 0.4085 0.912758 318.852 136.381)" fill="white"/>
<circle cx="1.68752" cy="1.68752" r="1.68752" transform="matrix(-0.912758 0.4085 0.4085 0.912758 307.095 128.701)" fill="white"/>
<circle cx="1.26564" cy="1.26564" r="1.26564" transform="matrix(-0.912758 0.4085 0.4085 0.912758 288.999 154.364)" fill="white"/>
<circle cx="1.26564" cy="1.26564" r="1.26564" transform="matrix(-0.912758 0.4085 0.4085 0.912758 257.639 119.406)" fill="white"/>
<path d="M309.787 59.4672C311.119 58.871 312.676 59.5378 313.164 60.9131L352.015 170.409C352.451 171.637 351.87 172.995 350.68 173.527L294.539 198.653C293.349 199.185 291.95 198.714 291.325 197.571L235.555 95.6467C234.855 94.3665 235.395 92.7609 236.727 92.1648L309.787 59.4672Z" stroke="#014958"/>
<path d="M354.049 169.93C353.873 169.354 353.233 169.063 352.684 169.309L289.289 197.681C288.74 197.927 288.531 198.598 288.843 199.112L291.325 203.205C291.586 203.637 292.128 203.806 292.589 203.6L354.899 175.713C355.36 175.507 355.594 174.99 355.447 174.508L354.049 169.93Z" fill="#014958"/>
<path d="M226.682 34.6499L229.12 26.9737L225.185 25.7243L222.747 33.4005L216.339 28.3121L213.902 31.5148L220.371 36.4096L213.849 41.2974L216.571 44.5762L223.026 39.4539L225.731 47.4848L229.415 46.1693L226.951 38.4989L235.189 38.2742L234.852 34.1908L226.682 34.6499Z" fill="#3CB572"/>
<path d="M202.705 66.3196L203.553 63.6481L202.184 63.2133L201.336 65.8848L199.105 64.1139L198.257 65.2285L200.509 66.932L198.239 68.6331L199.186 69.7742L201.433 67.9915L202.374 70.7865L203.656 70.3287L202.799 67.6592L205.666 67.581L205.549 66.1598L202.705 66.3196Z" fill="#014958"/>
<path d="M259.069 50.9558L260.336 46.9668L258.291 46.3175L257.025 50.3065L253.694 47.6623L252.428 49.3266L255.79 51.8702L252.4 54.4101L253.815 56.114L257.17 53.4522L258.575 57.6254L260.49 56.9418L259.209 52.9559L263.49 52.8391L263.315 50.7172L259.069 50.9558Z" fill="#014958"/>
<path d="M331.135 102.122C330.626 99.8242 331.606 96.921 335.624 94.8811C336.408 94.4831 337.226 94.0662 338.07 93.6357C342.14 91.5608 346.835 89.1671 351.443 87.0174C356.987 84.4316 362.362 82.2197 366.349 81.3353C368.428 81.4495 371.112 81.8027 373.984 82.1808C375.379 82.3646 376.819 82.5542 378.256 82.725C382.629 83.245 386.998 83.5949 389.766 82.9872C390.33 82.8636 391.532 82.3947 393.152 81.7028C394.794 81.0015 396.917 80.0482 399.355 78.9259C404.231 76.681 410.378 73.7552 416.483 70.8067C428.104 65.1936 439.616 59.4764 441.881 58.2287C442.321 58.5376 442.866 59.1282 443.492 60.0066C444.216 61.0206 445.005 62.3557 445.823 63.9201C447.457 67.0473 449.183 71.0509 450.7 75.1408C452.217 79.2308 453.519 83.3925 454.309 86.8347C454.704 88.5567 454.969 90.0873 455.07 91.3328C455.16 92.4318 455.117 93.2504 454.964 93.7775C443.527 96.5405 434.359 98.7143 427.024 100.454C421.151 101.846 416.452 102.96 412.705 103.875C408.471 104.909 405.434 105.692 403.273 106.34C401.128 106.983 399.791 107.508 399.002 108.042C398.219 108.572 397.056 109.803 395.735 111.325C394.416 112.844 392.892 114.711 391.352 116.598L391.289 116.675C389.725 118.592 388.146 120.524 386.739 122.147C385.322 123.78 384.109 125.063 383.272 125.705C382.446 126.339 380.678 127.225 378.344 128.208C376.029 129.184 373.209 130.234 370.321 131.204C367.434 132.173 364.485 133.06 361.913 133.707C359.328 134.358 357.166 134.757 355.83 134.773L355.83 134.773C352.965 134.81 351.037 133.552 350.086 132.061C349.118 130.545 349.17 128.848 350.116 127.843L350.902 127.009L349.756 127C346.897 126.978 344.551 125.61 343.204 123.719C341.859 121.829 341.519 119.435 342.629 117.305L342.944 116.699L342.272 116.581C338.313 115.888 336.398 114.182 335.692 112.392C334.977 110.579 335.44 108.532 336.537 107.041L337.141 106.22L336.122 106.245C333.744 106.303 331.657 104.482 331.135 102.122Z" fill="#CF9E1B" stroke="#014958"/>
<path d="M143.425 124.122C143.933 121.824 142.953 118.921 138.936 116.881C138.151 116.483 137.334 116.066 136.489 115.636C132.42 113.561 127.725 111.167 123.116 109.017C117.573 106.432 112.197 104.22 108.21 103.335C106.131 103.449 103.448 103.803 100.576 104.181C99.1803 104.365 97.7401 104.554 96.3032 104.725C91.9302 105.245 87.5619 105.595 84.7934 104.987C84.2298 104.864 83.0277 104.395 81.4075 103.703C79.7654 103.002 77.6426 102.048 75.2049 100.926C70.3288 98.681 64.1815 95.7552 58.0769 92.8067C46.4555 87.1936 34.9433 81.4764 32.6781 80.2287C32.2388 80.5376 31.6937 81.1282 31.0671 82.0066C30.3438 83.0206 29.5545 84.3557 28.7371 85.9201C27.103 89.0473 25.3767 93.0509 23.8598 97.1408C22.3428 101.231 21.0407 105.392 20.2505 108.835C19.8551 110.557 19.5906 112.087 19.4892 113.333C19.3997 114.432 19.443 115.25 19.5955 115.777C31.0325 118.541 40.2003 120.714 47.5354 122.454C53.4088 123.846 58.1072 124.96 61.8546 125.875C66.0884 126.909 69.1257 127.692 71.2867 128.34C73.4315 128.983 74.7686 129.508 75.5577 130.042C76.3407 130.572 77.5038 131.803 78.8247 133.325C80.1438 134.844 81.6676 136.711 83.2074 138.598L83.2706 138.675C84.8346 140.592 86.4131 142.524 87.8208 144.147C89.2376 145.78 90.4505 147.063 91.288 147.705C92.1135 148.339 93.8819 149.225 96.2155 150.208C98.5305 151.184 101.351 152.234 104.238 153.204C107.126 154.173 110.075 155.06 112.646 155.707C115.231 156.358 117.394 156.757 118.729 156.773L118.729 156.773C121.595 156.81 123.522 155.552 124.474 154.061C125.442 152.545 125.39 150.848 124.444 149.843L123.658 149.009L124.804 149C127.662 148.978 130.009 147.61 131.355 145.719C132.701 143.829 133.04 141.435 131.931 139.305L131.615 138.699L132.288 138.581C136.247 137.888 138.162 136.182 138.868 134.392C139.583 132.579 139.119 130.532 138.023 129.041L137.419 128.22L138.438 128.245C140.815 128.303 142.902 126.482 143.425 124.122Z" fill="#CF9E1B" stroke="#014958"/>
</svg>
