<svg width="16" height="16" viewBox="0 0 16 16" fill="none" xmlns="http://www.w3.org/2000/svg">
<path d="M9.14714 5.56169C8.78309 5.41092 8.3929 5.33337 7.99886 5.33346L10.9989 8.33426C10.9991 7.94022 10.9216 7.55001 10.7709 7.18592C10.6202 6.82178 10.3993 6.49092 10.1207 6.21222C9.84204 5.93353 9.51123 5.71247 9.14714 5.56169Z" fill="#666666"/>
<path fill-rule="evenodd" clip-rule="evenodd" d="M6.33223 5.83899C6.82553 5.50941 7.4056 5.33348 7.99886 5.33346L10.9989 8.33426C10.9987 8.92752 10.8226 9.50754 10.4929 10.0007C10.1631 10.494 9.69455 10.8784 9.14636 11.1053C8.59817 11.3323 7.99499 11.3916 7.4131 11.2757C6.83121 11.1599 6.29674 10.8741 5.87726 10.4545C5.45778 10.0349 5.17214 9.50035 5.05645 8.91843C4.94076 8.33651 5.00021 7.73335 5.2273 7.18522C5.45439 6.63709 5.8389 6.1686 6.33223 5.83899ZM7.999 6.33346C8.26169 6.33339 8.52182 6.38508 8.76452 6.48559C9.00722 6.58611 9.22773 6.73346 9.41346 6.91924C9.59919 7.10501 9.74648 7.32557 9.84693 7.56829C9.94737 7.81102 9.999 8.07116 9.99886 8.33386C9.99876 8.7294 9.88137 9.11616 9.66154 9.44498C9.44172 9.77381 9.12932 10.0301 8.76386 10.1814C8.3984 10.3327 7.99628 10.3722 7.60835 10.295C7.22043 10.2177 6.86411 10.0272 6.58446 9.74748C6.30481 9.46776 6.11438 9.11139 6.03725 8.72344C5.96012 8.33549 5.99976 7.93339 6.15115 7.56797C6.30255 7.20254 6.55889 6.89022 6.88778 6.67048C7.21666 6.45074 7.60346 6.33346 7.999 6.33346Z" fill="#666666"/>
<path fill-rule="evenodd" clip-rule="evenodd" d="M15.5848 7.25437C13.7983 5.29013 10.8952 3.28984 7.99891 3.33473C5.10266 3.28984 2.19953 5.29011 0.414828 7.25458L0.4134 7.25616C0.147272 7.55161 0 7.93515 0 8.33279C0 8.73043 0.147272 9.11398 0.413397 9.40943L0.414725 9.41089C2.15933 11.3324 5.05471 13.3784 7.99891 13.3329C10.9431 13.3784 13.8391 11.3324 15.585 9.41104L15.5864 9.40943C15.8525 9.11398 15.9998 8.73043 15.9998 8.33279C15.9998 7.93515 15.8525 7.55161 15.5864 7.25615L15.5848 7.25437ZM1 8.33279C1 8.18265 1.05549 8.03782 1.15579 7.92612C2.86406 6.04616 5.51524 4.29296 7.99047 4.33472C7.9961 4.33482 8.00172 4.33482 8.00734 4.33472C10.4825 4.29297 13.1337 6.04606 14.8441 7.9262C14.9443 8.03788 14.9998 8.18269 14.9998 8.33279C14.9998 8.48289 14.9444 8.62768 14.8441 8.73936C13.1703 10.5812 10.5266 12.3753 8.00732 12.3329C8.00377 12.3328 8.00021 12.3328 7.99666 12.3328C7.9946 12.3328 7.99255 12.3328 7.9905 12.3329C5.4713 12.3753 2.82827 10.5812 1.15583 8.7395C1.05551 8.6278 1 8.48295 1 8.33279Z" fill="#666666"/>
</svg>
