<svg width="500" height="500" viewBox="0 0 500 500" fill="none" xmlns="http://www.w3.org/2000/svg">
<ellipse cx="405.5" cy="361" rx="5.5" ry="42" fill="#014958"/>
<rect x="-1.3364" y="6.78195" width="54.5911" height="86.0429" rx="27.2955" transform="matrix(0.557057 0.830474 -0.830474 0.557058 204.626 161.184)" stroke="#3CB572" stroke-width="9.77556"/>
<rect x="-6.68787" y="1.74733" width="54.5911" height="86.0429" rx="27.2955" transform="matrix(-0.505396 0.862888 -0.862887 -0.505397 284.21 219.602)" stroke="#014958" stroke-width="9.77556"/>
<path d="M206.852 218.01L211.278 226.523L194.743 237.825L189.333 229.76L206.852 218.01Z" fill="#3CB572"/>
<path d="M144.472 184.073C147.979 181.721 152.729 182.657 155.082 186.164L191.641 240.667C193.993 244.174 193.057 248.924 189.55 251.276L141.122 283.761C137.615 286.113 132.865 285.177 130.512 281.67L93.9533 227.167C91.6008 223.66 92.5369 218.91 96.0439 216.558L144.472 184.073Z" fill="white" stroke="#014958"/>
<mask id="path-6-inside-1_1222_6622" fill="white">
<path fill-rule="evenodd" clip-rule="evenodd" d="M141.146 239.741C143.762 241.163 147.059 241.119 149.703 239.346C153.492 236.804 154.504 231.671 151.962 227.882C149.42 224.092 144.287 223.081 140.498 225.623C137.854 227.396 136.562 230.431 136.887 233.391L131.515 236.994C129.762 238.17 129.293 240.545 130.47 242.299C131.646 244.052 134.021 244.52 135.775 243.344L141.146 239.741Z"/>
</mask>
<path fill-rule="evenodd" clip-rule="evenodd" d="M141.146 239.741C143.762 241.163 147.059 241.119 149.703 239.346C153.492 236.804 154.504 231.671 151.962 227.882C149.42 224.092 144.287 223.081 140.498 225.623C137.854 227.396 136.562 230.431 136.887 233.391L131.515 236.994C129.762 238.17 129.293 240.545 130.47 242.299C131.646 244.052 134.021 244.52 135.775 243.344L141.146 239.741Z" fill="#E3F6DC"/>
<path d="M141.146 239.741L141.624 238.862L141.092 238.573L140.589 238.91L141.146 239.741ZM136.887 233.391L137.444 234.221L137.946 233.884L137.881 233.282L136.887 233.391ZM131.515 236.994L130.958 236.163L131.515 236.994ZM149.146 238.515C146.823 240.073 143.925 240.114 141.624 238.862L140.669 240.619C143.598 242.212 147.295 242.165 150.26 240.176L149.146 238.515ZM151.131 228.439C153.366 231.77 152.477 236.281 149.146 238.515L150.26 240.176C154.508 237.327 155.642 231.573 152.792 227.325L151.131 228.439ZM141.055 226.453C144.386 224.219 148.897 225.108 151.131 228.439L152.792 227.325C149.943 223.077 144.189 221.943 139.941 224.792L141.055 226.453ZM137.881 233.282C137.595 230.678 138.732 228.011 141.055 226.453L139.941 224.792C136.976 226.781 135.53 230.184 135.892 233.499L137.881 233.282ZM132.072 237.824L137.444 234.221L136.329 232.56L130.958 236.163L132.072 237.824ZM131.3 241.742C130.432 240.447 130.777 238.693 132.072 237.824L130.958 236.163C128.746 237.647 128.155 240.643 129.639 242.856L131.3 241.742ZM135.218 242.513C133.923 243.382 132.169 243.036 131.3 241.742L129.639 242.856C131.123 245.068 134.12 245.658 136.332 244.174L135.218 242.513ZM140.589 238.91L135.218 242.513L136.332 244.174L141.703 240.571L140.589 238.91Z" fill="#014958" mask="url(#path-6-inside-1_1222_6622)"/>
<path d="M321.704 214.284C325.356 216.405 326.597 221.085 324.476 224.737L291.516 281.488C289.395 285.14 284.715 286.381 281.064 284.26L230.637 254.973C226.986 252.852 225.745 248.172 227.866 244.521L260.826 187.769C262.947 184.118 267.626 182.877 271.278 184.997L321.704 214.284Z" fill="white" stroke="#014958"/>
<mask id="path-9-inside-2_1222_6622" fill="white">
<path fill-rule="evenodd" clip-rule="evenodd" d="M278.628 231.733C278.752 228.758 277.26 225.818 274.503 224.226C270.551 221.944 265.498 223.298 263.217 227.25C260.935 231.202 262.289 236.255 266.241 238.536C268.998 240.128 272.292 239.95 274.806 238.355L280.406 241.588C282.235 242.644 284.573 242.018 285.629 240.189C286.685 238.36 286.058 236.022 284.229 234.966L278.628 231.733Z"/>
</mask>
<path fill-rule="evenodd" clip-rule="evenodd" d="M278.628 231.733C278.752 228.758 277.26 225.818 274.503 224.226C270.551 221.944 265.498 223.298 263.217 227.25C260.935 231.202 262.289 236.255 266.241 238.536C268.998 240.128 272.292 239.95 274.806 238.355L280.406 241.588C282.235 242.644 284.573 242.018 285.629 240.189C286.685 238.36 286.058 236.022 284.229 234.966L278.628 231.733Z" fill="#E3F6DC"/>
<path d="M278.628 231.733L277.629 231.691L277.604 232.296L278.128 232.599L278.628 231.733ZM274.806 238.355L275.306 237.489L274.781 237.186L274.27 237.511L274.806 238.355ZM280.406 241.588L280.906 240.722L280.406 241.588ZM274.003 225.092C276.425 226.49 277.738 229.074 277.629 231.691L279.627 231.774C279.766 228.443 278.095 225.145 275.003 223.36L274.003 225.092ZM264.083 227.75C266.088 224.277 270.53 223.087 274.003 225.092L275.003 223.36C270.573 220.802 264.909 222.32 262.351 226.75L264.083 227.75ZM266.741 237.67C263.268 235.665 262.078 231.224 264.083 227.75L262.351 226.75C259.793 231.18 261.311 236.845 265.741 239.402L266.741 237.67ZM274.27 237.511C272.058 238.914 269.163 239.069 266.741 237.67L265.741 239.402C268.833 241.188 272.525 240.986 275.341 239.199L274.27 237.511ZM280.906 240.722L275.306 237.489L274.306 239.221L279.906 242.454L280.906 240.722ZM284.763 239.689C283.983 241.039 282.256 241.502 280.906 240.722L279.906 242.454C282.213 243.786 285.163 242.996 286.495 240.689L284.763 239.689ZM283.729 235.832C285.08 236.612 285.542 238.339 284.763 239.689L286.495 240.689C287.827 238.382 287.036 235.432 284.729 234.1L283.729 235.832ZM278.128 232.599L283.729 235.832L284.729 234.1L279.128 230.867L278.128 232.599Z" fill="#014958" mask="url(#path-9-inside-2_1222_6622)"/>
<path d="M198.048 111.083L200.994 101.804L196.237 100.293L193.291 109.573L185.544 103.422L182.598 107.293L190.419 113.211L182.534 119.119L185.825 123.083L193.628 116.891L196.898 126.599L201.351 125.009L198.373 115.736L208.331 115.465L207.924 110.528L198.048 111.083Z" fill="#3CB572"/>
<path d="M169.063 149.368L170.088 146.139L168.433 145.613L167.407 148.842L164.711 146.702L163.686 148.049L166.408 150.108L163.663 152.165L164.809 153.544L167.525 151.389L168.663 154.768L170.213 154.215L169.176 150.988L172.642 150.893L172.5 149.175L169.063 149.368Z" fill="#014958"/>
<path d="M237.2 130.795L238.731 125.973L236.26 125.188L234.728 130.01L230.703 126.814L229.172 128.826L233.236 131.9L229.138 134.971L230.849 137.031L234.904 133.813L236.603 138.858L238.917 138.031L237.369 133.213L242.544 133.072L242.332 130.507L237.2 130.795Z" fill="#014958"/>
<path d="M197.577 321.686L197.642 321.704L197.7 321.738L197.7 321.738L197.7 321.738L197.7 321.739L197.704 321.741L197.718 321.749L197.778 321.784C197.831 321.814 197.911 321.86 198.016 321.919C198.227 322.036 198.539 322.205 198.939 322.411C199.741 322.822 200.897 323.379 202.311 323.958C205.143 325.117 208.99 326.354 213.08 326.695C213.34 326.717 213.607 326.739 213.879 326.762C217.98 327.108 223.421 327.567 228.324 327.065C233.25 326.561 237.42 325.108 239.261 321.82C238.903 321.826 238.44 321.833 237.896 321.839C236.558 321.852 234.729 321.858 232.763 321.825C230.797 321.792 228.691 321.721 226.802 321.582C224.922 321.444 223.222 321.235 222.087 320.917C220.62 320.506 218.648 320.046 216.201 319.475C215.054 319.208 213.804 318.916 212.452 318.593C208.226 317.586 203.04 316.284 197.041 314.503L197.022 314.498L197.004 314.491C191.432 312.355 187.026 311.945 183.915 312.406C180.904 312.853 179.215 314.089 178.698 315.257C178.798 315.347 178.976 315.472 179.262 315.633C179.884 315.983 180.905 316.438 182.412 317.005C185.418 318.135 190.285 319.68 197.577 321.686Z" fill="#CF9E1B" stroke="#014958"/>
<path d="M247.046 321.206C247.033 321.205 247.019 321.204 247.006 321.202C246.414 321.14 245.563 321.048 244.524 320.934C242.446 320.705 239.615 320.383 236.604 320.011C230.603 319.269 223.827 318.323 220.916 317.515L220.916 317.515C216.896 316.398 214.069 315.309 211.235 314.159C210.819 313.99 210.402 313.82 209.982 313.648C207.546 312.652 204.983 311.603 201.531 310.438C198.249 309.332 195.661 309.247 193.836 309.588C192.923 309.759 192.207 310.035 191.69 310.338C191.349 310.537 191.11 310.739 190.954 310.917C191.114 311.014 191.342 311.134 191.641 311.277C192.369 311.623 193.433 312.065 194.721 312.578C195.613 312.934 196.609 313.323 197.667 313.735C199.648 314.508 201.842 315.364 203.961 316.24L203.861 316.481L204.028 316.273L203.783 316.672L204.028 316.273L204.028 316.273L204.029 316.273L204.033 316.276L204.05 316.286L204.119 316.328C204.179 316.365 204.27 316.419 204.387 316.489C204.622 316.63 204.965 316.833 205.399 317.084C206.266 317.585 207.492 318.275 208.927 319.03C211.802 320.543 215.495 322.304 218.812 323.333L218.812 323.333C229.6 326.683 235.228 326.354 238.821 325.907C240.525 325.695 242.317 324.937 243.893 323.924C245.158 323.109 246.259 322.147 247.046 321.206Z" fill="#CF9E1B" stroke="#014958"/>
<path d="M223.675 318.031L223.304 317.932C220.132 317.085 216.56 315.707 213.827 314.403C212.458 313.75 211.316 313.123 210.544 312.599C210.155 312.335 209.882 312.112 209.722 311.938C209.689 311.902 209.664 311.872 209.645 311.847C209.827 311.64 210.165 311.433 210.732 311.281C211.414 311.098 212.352 311.015 213.538 311.071C215.905 311.182 219.169 311.837 223.153 313.213C223.826 313.478 224.948 313.755 226.328 314.047C227.728 314.344 229.435 314.664 231.29 315.009C231.45 315.039 231.611 315.069 231.774 315.099C235.379 315.769 239.492 316.533 243.069 317.41L243.069 317.41C243.759 317.579 243.911 317.784 243.936 317.845C243.952 317.882 243.975 318.018 243.742 318.319C243.293 318.9 242.301 319.54 241.534 319.902L223.675 318.031ZM223.675 318.031V318.043M223.675 318.031V318.043M223.675 318.043L224.281 318.219C224.899 318.398 225.784 318.655 226.855 318.966C228.997 319.59 231.882 320.433 234.855 321.311C235.68 321.553 236.965 321.397 238.298 321.052C239.604 320.714 240.849 320.224 241.534 319.902L223.675 318.043Z" fill="#CF9E1B" stroke="#014958"/>
<path d="M276.836 309.401L277.122 308.992L276.836 309.401C265.233 301.311 254.619 300.959 243.212 301.413C234.969 301.743 229.014 301.603 224.835 301.504C224.614 301.499 224.399 301.494 224.188 301.489C222.081 301.44 220.482 301.412 219.292 301.474C218.27 301.528 217.63 301.648 217.245 301.825C217.206 303.153 218.232 304.897 220.754 306.62C223.397 308.425 227.558 310.111 233.361 311.142C234.983 311.43 236.446 311.682 237.753 311.908C240.536 312.388 242.616 312.746 244.036 313.073C245.06 313.309 245.836 313.547 246.279 313.851C246.508 314.007 246.741 314.244 246.781 314.589C246.82 314.931 246.65 315.213 246.473 315.416C246.16 315.774 245.599 316.166 244.905 316.571C244.196 316.985 243.299 317.441 242.271 317.915C240.213 318.865 237.605 319.903 234.87 320.851C232.136 321.799 229.267 322.661 226.688 323.256C224.138 323.844 221.824 324.184 220.201 324.062C212.261 324.283 198.575 321.408 191.57 319.735L191.57 319.735L191.56 319.732C188.271 318.872 183.565 318.155 179.488 318.241C177.448 318.284 175.598 318.528 174.171 319.036C172.792 319.528 171.887 320.234 171.513 321.167C171.529 321.208 171.564 321.269 171.644 321.355C171.786 321.507 172.028 321.693 172.415 321.92C173.187 322.371 174.416 322.916 176.231 323.636C178.106 324.38 180.565 325.296 183.727 326.474C186.684 327.576 190.254 328.906 194.535 330.538C202.256 333.481 207.34 335.647 210.954 337.186C211.808 337.55 212.579 337.879 213.284 338.174C216.982 339.726 218.792 340.345 220.992 340.397C221.23 340.402 221.474 340.408 221.725 340.414C231.449 340.649 250.658 341.113 266.222 338.024L266.349 337.999L266.472 338.038L266.32 338.514C266.472 338.038 266.472 338.038 266.473 338.038L266.476 338.039L266.488 338.043L266.535 338.058L266.722 338.118L267.456 338.353C268.102 338.56 269.057 338.866 270.291 339.262C272.758 340.054 276.341 341.207 280.806 342.648C289.736 345.529 302.192 349.565 316.296 354.18C344.264 363.333 378.717 374.769 405 384.009V338.927C401.347 338.228 397.756 337.54 394.229 336.865C363.923 331.065 338.309 326.164 318.675 321.887C307.673 319.49 298.54 317.287 291.505 315.231C284.49 313.18 279.5 311.258 276.836 309.401Z" fill="#CF9E1B" stroke="#014958"/>
</svg>
