<?xml version="1.0" encoding="UTF-8" standalone="no"?>
<!DOCTYPE svg PUBLIC "-//W3C//DTD SVG 1.1//EN" "http://www.w3.org/Graphics/SVG/1.1/DTD/svg11.dtd">
<!-- Created with Vectornator (http://vectornator.io/) -->
<svg height="80.0pt" stroke-miterlimit="10" style="fill-rule:nonzero;clip-rule:evenodd;stroke-linecap:round;stroke-linejoin:round;" version="1.1" viewBox="0 0 200 80" width="200.0pt" xml:space="preserve" xmlns="http://www.w3.org/2000/svg" xmlns:xlink="http://www.w3.org/1999/xlink">
<defs/>
<g id="Sans-titre">
<path d="M64.293 27.5066L64.293 24.0626C64.741 24.8045 65.525 25.2385 66.533 25.2385C68.367 25.2385 69.767 23.7125 69.767 21.2905C69.767 18.8825 68.367 17.3566 66.533 17.3566C65.525 17.3566 64.741 17.7905 64.293 18.5325L64.293 17.5246L62.627 17.5246L62.627 27.5066L64.293 27.5066ZM66.169 23.8805C65.077 23.8805 64.223 23.0265 64.223 21.2905C64.223 19.5545 65.077 18.7146 66.169 18.7146C67.331 18.7146 68.031 19.7086 68.031 21.2905C68.031 22.8865 67.331 23.8805 66.169 23.8805ZM74.415 25.2385C76.249 25.2385 78.125 24.0206 78.125 21.3045C78.125 18.5885 76.249 17.3566 74.415 17.3566C72.581 17.3566 70.705 18.5885 70.705 21.3045C70.705 24.0206 72.581 25.2385 74.415 25.2385ZM74.415 23.8805C73.365 23.8805 72.427 23.0405 72.427 21.3045C72.427 19.5685 73.365 18.7146 74.415 18.7146C75.465 18.7146 76.403 19.5685 76.403 21.3045C76.403 23.0405 75.465 23.8805 74.415 23.8805ZM82.213 25.0565L83.697 19.4846L85.181 25.0565L86.763 25.0565L88.765 17.5246L86.959 17.5246L85.853 22.8726L84.551 17.5246L82.829 17.5246L81.541 22.8726L80.435 17.5246L78.629 17.5246L80.631 25.0565L82.213 25.0565ZM93.077 25.2385C95.0229 25.2385 96.143 24.0066 96.493 22.8025L94.8549 22.8025C94.5609 23.5025 93.875 23.8526 93.007 23.8526C92.055 23.8526 91.075 23.1666 90.963 21.7666L96.577 21.7666C96.7169 19.2326 95.275 17.3566 92.965 17.3566C90.823 17.3566 89.269 18.9666 89.269 21.2346C89.269 23.3906 90.6549 25.2385 93.077 25.2385ZM94.8829 20.5486L90.963 20.5486C91.103 19.1206 92.181 18.6586 92.965 18.6586C93.945 18.6586 94.841 19.3726 94.8829 20.5486ZM99.615 25.0565L99.615 21.1086C99.615 19.5966 100.217 19.1765 101.267 19.1765C101.519 19.1765 101.785 19.1905 102.065 19.2185L102.065 17.5385C101.939 17.5246 101.757 17.5106 101.631 17.5106C100.721 17.5246 99.993 18.0285 99.587 18.8685L99.587 17.5246L97.949 17.5246L97.949 25.0565L99.615 25.0565ZM106.251 25.2385C108.197 25.2385 109.317 24.0066 109.667 22.8025L108.029 22.8025C107.735 23.5025 107.049 23.8526 106.181 23.8526C105.229 23.8526 104.249 23.1666 104.137 21.7666L109.751 21.7666C109.891 19.2326 108.449 17.3566 106.139 17.3566C103.997 17.3566 102.443 18.9666 102.443 21.2346C102.443 23.3906 103.829 25.2385 106.251 25.2385ZM108.057 20.5486L104.137 20.5486C104.277 19.1206 105.355 18.6586 106.139 18.6586C107.119 18.6586 108.015 19.3726 108.057 20.5486ZM113.965 25.2385C114.973 25.2385 115.757 24.8045 116.205 24.0626L116.205 25.0565L117.871 25.0565L117.871 14.9065L116.205 14.9065L116.205 18.5325C115.757 17.7905 114.973 17.3566 113.965 17.3566C112.187 17.3566 110.689 18.8825 110.689 21.2905C110.689 23.7125 112.187 25.2385 113.965 25.2385ZM114.329 23.8805C113.223 23.8805 112.425 22.8865 112.425 21.2905C112.425 19.7086 113.223 18.7146 114.329 18.7146C115.421 18.7146 116.275 19.5545 116.275 21.2905C116.275 23.0265 115.421 23.8805 114.329 23.8805ZM126.873 25.2385C128.651 25.2385 130.149 23.7125 130.149 21.2905C130.149 18.8825 128.651 17.3566 126.873 17.3566C125.865 17.3566 125.081 17.7905 124.633 18.5325L124.633 14.9065L122.967 14.9065L122.967 25.0565L124.633 25.0565L124.633 24.0626C125.081 24.8045 125.865 25.2385 126.873 25.2385ZM126.509 23.8805C125.417 23.8805 124.563 23.0265 124.563 21.2905C124.563 19.5545 125.417 18.7146 126.509 18.7146C127.615 18.7146 128.413 19.7086 128.413 21.2905C128.413 22.8865 127.615 23.8805 126.509 23.8805ZM131.829 27.5066C133.523 27.5066 134.027 26.9885 134.727 25.0425L137.373 17.5246L135.665 17.5246L133.957 22.9286L132.249 17.5246L130.429 17.5246L133.159 25.0145L133.075 25.1965C132.759 26.1189 132.467 26.2228 131.827 26.2318L131.073 26.2326L131.073 27.5066L131.829 27.5066Z" fill="#ffffff" fill-rule="nonzero" opacity="1" stroke="none"/>
<path d="M14 43.8624L19.8378 43.8624L19.8378 47.8094L14 47.8094L14 43.8624ZM14 49.619L19.8378 49.619L19.8378 64.7515L14 64.7515L14 49.619ZM23.1839 49.619L28.62 49.619L28.62 52.0841C29.4328 51.0772 30.2552 50.3576 31.0871 49.9254C31.919 49.4931 32.9326 49.277 34.1279 49.277C35.7439 49.277 37.0085 49.7544 37.9217 50.7091C38.8349 51.6638 39.2915 53.1385 39.2915 55.1334L39.2915 64.7515L33.4251 64.7515L33.4251 56.4301C33.4251 55.4801 33.2482 54.8081 32.8944 54.4138C32.5406 54.0196 32.0433 53.8225 31.4027 53.8225C30.695 53.8225 30.1213 54.0885 29.6814 54.6204C29.2416 55.1524 29.0216 56.1071 29.0216 57.4845L29.0216 64.7515L23.1839 64.7515L23.1839 49.619ZM48.8914 49.619L51.674 49.619L51.674 53.8652L48.8914 53.8652L48.8914 64.7515L43.0393 64.7515L43.0393 53.8652L40.8591 53.8652L40.8591 49.619L43.0393 49.619L43.0393 48.9351C43.0393 48.3176 43.1062 47.6384 43.2401 46.8974C43.3739 46.1565 43.6249 45.5509 43.9931 45.0807C44.3612 44.6105 44.8776 44.2305 45.5422 43.9408C46.2068 43.651 47.1797 43.5062 48.4611 43.5062L48.9662 43.5146C49.9527 43.5455 51.2713 43.6614 52.9219 43.8624L52.2764 47.3677C51.5784 47.2537 51.0142 47.1967 50.5839 47.1967C50.058 47.1967 49.6803 47.2845 49.4508 47.4603C49.2213 47.636 49.0587 47.9139 48.9631 48.2939C48.9153 48.5028 48.8914 48.9446 48.8914 49.619ZM52.2231 57.228C52.2231 54.9197 53.0072 53.0174 54.5755 51.5213C56.1437 50.0251 58.2617 49.277 60.9296 49.277C63.98 49.277 66.2844 50.1557 67.8431 51.9131C69.0958 53.3285 69.7221 55.0717 69.7221 57.1425C69.7221 59.4699 68.9452 61.3769 67.3913 62.8635C65.8374 64.3502 63.6883 65.0935 60.9439 65.0935C58.496 65.0935 56.5166 64.4761 55.0058 63.2411C53.1507 61.7117 52.2231 59.7074 52.2231 57.228ZM58.0753 57.2138C58.0753 58.5627 58.3502 59.5601 58.9 60.2061C59.4498 60.852 60.1407 61.175 60.9726 61.175C61.8141 61.175 62.505 60.8568 63.0452 60.2203C63.5855 59.5839 63.8556 58.5627 63.8556 57.1568C63.8556 55.8459 63.5831 54.8698 63.0381 54.2286C62.493 53.5874 61.8189 53.2668 61.0157 53.2668C60.1646 53.2668 59.4618 53.5921 58.9072 54.2428C58.3526 54.8936 58.0753 55.8839 58.0753 57.2138ZM72.1933 49.619L77.6438 49.619L77.6438 51.8276C78.4279 50.9062 79.2191 50.2507 80.0176 49.8613C80.816 49.4718 81.7794 49.277 82.9078 49.277C84.1222 49.277 85.0832 49.4908 85.7908 49.9182C86.4984 50.3457 87.0769 50.9822 87.5264 51.8276C88.4443 50.8397 89.281 50.1676 90.0364 49.8114C90.7919 49.4551 91.7242 49.277 92.8334 49.277C94.4686 49.277 95.7451 49.7591 96.6631 50.7233C97.5811 51.6875 98.0401 53.1955 98.0401 55.2474L98.0401 64.7515L92.188 64.7515L92.188 56.1308C92.188 55.4469 92.0541 54.9387 91.7863 54.6062C91.3943 54.0837 90.9066 53.8225 90.3233 53.8225C89.6348 53.8225 89.0802 54.0695 88.6595 54.5634C88.2387 55.0574 88.0284 55.8506 88.0284 56.943L88.0284 64.7515L82.1763 64.7515L82.1763 56.4158C82.1763 55.7509 82.138 55.2997 82.0615 55.0622C81.9372 54.6822 81.7221 54.3758 81.4161 54.1431C81.1101 53.9104 80.7515 53.794 80.3403 53.794C79.671 53.794 79.1211 54.0457 78.6908 54.5492C78.2605 55.0527 78.0454 55.8791 78.0454 57.0285L78.0454 64.7515L72.1933 64.7515L72.1933 49.619ZM106.464 54.5207L100.884 53.9365C101.095 52.9675 101.398 52.2052 101.795 51.6495C102.192 51.0938 102.763 50.6117 103.509 50.2032C104.045 49.9087 104.781 49.6808 105.718 49.5193C106.655 49.3578 107.669 49.277 108.759 49.277C110.509 49.277 111.914 49.3744 112.976 49.5691C114.037 49.7639 114.922 50.17 115.629 50.7874C116.126 51.2149 116.518 51.8205 116.805 52.6042C117.092 53.3879 117.236 54.136 117.236 54.8484L117.236 61.5312C117.236 62.2437 117.281 62.8018 117.372 63.2055C117.463 63.6092 117.661 64.1246 117.967 64.7515L112.488 64.7515C112.268 64.3621 112.125 64.0652 112.058 63.861C111.991 63.6567 111.924 63.3361 111.857 62.8992C111.092 63.6306 110.332 64.1531 109.576 64.4666C108.544 64.8845 107.343 65.0935 105.976 65.0935C104.159 65.0935 102.78 64.6756 101.838 63.8396C100.896 63.0037 100.425 61.973 100.425 60.7475C100.425 59.5981 100.765 58.6529 101.444 57.912C102.074 57.224 103.199 56.6997 104.819 56.3393L107.909 55.7016C108.619 55.5484 109.136 55.4279 109.462 55.34C110.112 55.1643 110.8 54.9339 111.527 54.6489C111.527 53.9365 111.379 53.4378 111.082 53.1528C110.786 52.8678 110.265 52.7253 109.519 52.7253C108.563 52.7253 107.846 52.8773 107.367 53.1813C106.994 53.4188 106.693 53.8652 106.464 54.5207ZM111.527 57.57C110.925 57.7837 110.303 57.9788 109.663 58.1551L109.017 58.3252C107.831 58.6387 107.081 58.9474 106.765 59.2514C106.44 59.5649 106.277 59.9211 106.277 60.3201C106.277 60.776 106.437 61.1489 106.758 61.4386C107.078 61.7284 107.549 61.8732 108.171 61.8732C108.821 61.8732 109.426 61.7165 109.985 61.403C110.544 61.0895 110.941 60.7072 111.176 60.256C111.41 59.8047 111.527 59.2182 111.527 58.4962L111.527 57.57ZM120.352 49.619L125.788 49.619L125.788 52.0841C126.601 51.0772 127.424 50.3576 128.255 49.9254C129.087 49.4931 130.101 49.277 131.296 49.277C132.912 49.277 134.177 49.7544 135.09 50.7091C136.003 51.6638 136.46 53.1385 136.46 55.1334L136.46 64.7515L130.593 64.7515L130.593 56.4301C130.593 55.4801 130.417 54.8081 130.063 54.4138C129.709 54.0196 129.212 53.8225 128.571 53.8225C127.863 53.8225 127.29 54.0885 126.85 54.6204C126.41 55.1524 126.19 56.1071 126.19 57.4845L126.19 64.7515L120.352 64.7515L120.352 49.619ZM139.777 43.8624L145.615 43.8624L145.615 47.8094L139.777 47.8094L139.777 43.8624ZM139.777 49.619L145.615 49.619L145.615 64.7515L139.777 64.7515L139.777 49.619ZM154.283 54.5207L148.703 53.9365C148.913 52.9675 149.217 52.2052 149.614 51.6495C150.011 51.0938 150.582 50.6117 151.328 50.2032C151.863 49.9087 152.6 49.6808 153.537 49.5193C154.474 49.3578 155.487 49.277 156.578 49.277C158.327 49.277 159.733 49.3744 160.795 49.5691C161.856 49.7639 162.74 50.17 163.448 50.7874C163.945 51.2149 164.337 51.8205 164.624 52.6042C164.911 53.3879 165.055 54.136 165.055 54.8484L165.055 61.5312C165.055 62.2437 165.1 62.8018 165.191 63.2055C165.282 63.6092 165.48 64.1246 165.786 64.7515L160.307 64.7515L160.112 64.3929C160 64.1745 159.921 63.9971 159.877 63.861C159.81 63.6567 159.743 63.3361 159.676 62.8992C158.911 63.6306 158.151 64.1531 157.395 64.4666C156.362 64.8845 155.162 65.0935 153.795 65.0935C151.978 65.0935 150.599 64.6756 149.657 63.8396C148.715 63.0037 148.244 61.973 148.244 60.7475C148.244 59.5981 148.584 58.6529 149.262 57.912C149.893 57.224 151.018 56.6997 152.638 56.3393L155.728 55.7016C156.438 55.5484 156.955 55.4279 157.28 55.34C157.931 55.1643 158.619 54.9339 159.346 54.6489C159.346 53.9365 159.198 53.4378 158.901 53.1528C158.605 52.8678 158.084 52.7253 157.338 52.7253C156.382 52.7253 155.664 52.8773 155.186 53.1813C154.813 53.4188 154.512 53.8652 154.283 54.5207ZM159.346 57.57C158.743 57.7837 158.122 57.9788 157.482 58.1551L156.836 58.3252C155.65 58.6387 154.899 58.9474 154.584 59.2514C154.259 59.5649 154.096 59.9211 154.096 60.3201C154.096 60.776 154.256 61.1489 154.577 61.4386C154.897 61.7284 155.368 61.8732 155.989 61.8732C156.64 61.8732 157.245 61.7165 157.804 61.403C158.363 61.0895 158.76 60.7072 158.994 60.256C159.229 59.8047 159.346 59.2182 159.346 58.4962L159.346 57.57ZM168.171 43.8624L174.138 43.8624L174.138 54.6347L178.498 49.619L185.684 49.619L180.22 54.9197L186 64.7515L179.416 64.7515L176.333 58.6814L174.138 60.8188L174.138 64.7515L168.171 64.7515L168.171 43.8624Z" fill="#ffffff" fill-rule="nonzero" opacity="1" stroke="none"/>
</g>
</svg>
