<svg width="201" height="80" viewBox="0 0 201 80" fill="none" xmlns="http://www.w3.org/2000/svg">
<path d="M64.793 27.5063V24.0623C65.241 24.8042 66.025 25.2382 67.033 25.2382C68.867 25.2382 70.267 23.7122 70.267 21.2902C70.267 18.8822 68.867 17.3563 67.033 17.3563C66.025 17.3563 65.241 17.7902 64.793 18.5322V17.5243H63.127V27.5063H64.793ZM66.669 23.8802C65.577 23.8802 64.723 23.0262 64.723 21.2902C64.723 19.5542 65.577 18.7143 66.669 18.7143C67.831 18.7143 68.531 19.7083 68.531 21.2902C68.531 22.8862 67.831 23.8802 66.669 23.8802ZM74.915 25.2382C76.749 25.2382 78.625 24.0203 78.625 21.3042C78.625 18.5882 76.749 17.3563 74.915 17.3563C73.081 17.3563 71.205 18.5882 71.205 21.3042C71.205 24.0203 73.081 25.2382 74.915 25.2382ZM74.915 23.8802C73.865 23.8802 72.927 23.0402 72.927 21.3042C72.927 19.5682 73.865 18.7143 74.915 18.7143C75.965 18.7143 76.903 19.5682 76.903 21.3042C76.903 23.0402 75.965 23.8802 74.915 23.8802ZM82.713 25.0562L84.197 19.4843L85.681 25.0562H87.263L89.265 17.5243H87.459L86.353 22.8723L85.051 17.5243H83.329L82.041 22.8723L80.935 17.5243H79.129L81.131 25.0562H82.713ZM93.577 25.2382C95.5229 25.2382 96.643 24.0063 96.993 22.8022H95.3549C95.0609 23.5022 94.375 23.8523 93.507 23.8523C92.555 23.8523 91.575 23.1663 91.463 21.7663H97.077C97.2169 19.2323 95.775 17.3563 93.465 17.3563C91.323 17.3563 89.769 18.9663 89.769 21.2343C89.769 23.3903 91.1549 25.2382 93.577 25.2382ZM95.3829 20.5483H91.463C91.603 19.1203 92.681 18.6583 93.465 18.6583C94.445 18.6583 95.341 19.3723 95.3829 20.5483ZM100.115 25.0562V21.1083C100.115 19.5963 100.717 19.1762 101.767 19.1762C102.019 19.1762 102.285 19.1902 102.565 19.2182V17.5382C102.439 17.5243 102.257 17.5103 102.131 17.5103C101.221 17.5243 100.493 18.0282 100.087 18.8682V17.5243H98.449V25.0562H100.115ZM106.751 25.2382C108.697 25.2382 109.817 24.0063 110.167 22.8022H108.529C108.235 23.5022 107.549 23.8523 106.681 23.8523C105.729 23.8523 104.749 23.1663 104.637 21.7663H110.251C110.391 19.2323 108.949 17.3563 106.639 17.3563C104.497 17.3563 102.943 18.9663 102.943 21.2343C102.943 23.3903 104.329 25.2382 106.751 25.2382ZM108.557 20.5483H104.637C104.777 19.1203 105.855 18.6583 106.639 18.6583C107.619 18.6583 108.515 19.3723 108.557 20.5483ZM114.465 25.2382C115.473 25.2382 116.257 24.8042 116.705 24.0623V25.0562H118.371V14.9062H116.705V18.5322C116.257 17.7902 115.473 17.3563 114.465 17.3563C112.687 17.3563 111.189 18.8822 111.189 21.2902C111.189 23.7122 112.687 25.2382 114.465 25.2382ZM114.829 23.8802C113.723 23.8802 112.925 22.8862 112.925 21.2902C112.925 19.7083 113.723 18.7143 114.829 18.7143C115.921 18.7143 116.775 19.5542 116.775 21.2902C116.775 23.0262 115.921 23.8802 114.829 23.8802ZM127.373 25.2382C129.151 25.2382 130.649 23.7122 130.649 21.2902C130.649 18.8822 129.151 17.3563 127.373 17.3563C126.365 17.3563 125.581 17.7902 125.133 18.5322V14.9062H123.467V25.0562H125.133V24.0623C125.581 24.8042 126.365 25.2382 127.373 25.2382ZM127.009 23.8802C125.917 23.8802 125.063 23.0262 125.063 21.2902C125.063 19.5542 125.917 18.7143 127.009 18.7143C128.115 18.7143 128.913 19.7083 128.913 21.2902C128.913 22.8862 128.115 23.8802 127.009 23.8802ZM132.329 27.5063C134.023 27.5063 134.527 26.9882 135.227 25.0422L137.873 17.5243H136.165L134.457 22.9283L132.749 17.5243H130.929L133.659 25.0142L133.575 25.1962C133.259 26.1186 132.967 26.2225 132.327 26.2315L131.573 26.2323V27.5063H132.329Z" fill="white"/>
<path d="M14.5 43.8621H20.3378V47.8091H14.5V43.8621ZM14.5 49.6187H20.3378V64.7512H14.5V49.6187ZM23.6839 49.6187H29.12V52.0838C29.9328 51.0769 30.7552 50.3573 31.5871 49.9251C32.419 49.4928 33.4326 49.2767 34.6279 49.2767C36.2439 49.2767 37.5085 49.7541 38.4217 50.7088C39.3349 51.6635 39.7915 53.1382 39.7915 55.1331V64.7512H33.9251V56.4298C33.9251 55.4798 33.7482 54.8078 33.3944 54.4135C33.0406 54.0193 32.5433 53.8222 31.9027 53.8222C31.195 53.8222 30.6213 54.0882 30.1814 54.6201C29.7416 55.1521 29.5216 56.1068 29.5216 57.4842V64.7512H23.6839V49.6187ZM49.3914 49.6187H52.174V53.8649H49.3914V64.7512H43.5393V53.8649H41.3591V49.6187H43.5393V48.9348C43.5393 48.3173 43.6062 47.6381 43.7401 46.8971C43.8739 46.1562 44.1249 45.5506 44.4931 45.0804C44.8612 44.6102 45.3776 44.2302 46.0422 43.9405C46.7068 43.6507 47.6797 43.5059 48.9611 43.5059L49.4662 43.5143C50.4527 43.5452 51.7713 43.6611 53.4219 43.8621L52.7764 47.3674C52.0784 47.2534 51.5142 47.1964 51.0839 47.1964C50.558 47.1964 50.1803 47.2842 49.9508 47.46C49.7213 47.6357 49.5587 47.9136 49.4631 48.2936C49.4153 48.5025 49.3914 48.9443 49.3914 49.6187ZM52.7231 57.2277C52.7231 54.9194 53.5072 53.0171 55.0755 51.521C56.6437 50.0248 58.7617 49.2767 61.4296 49.2767C64.48 49.2767 66.7844 50.1554 68.3431 51.9128C69.5958 53.3282 70.2221 55.0714 70.2221 57.1422C70.2221 59.4696 69.4452 61.3766 67.8913 62.8632C66.3374 64.3499 64.1883 65.0932 61.4439 65.0932C58.996 65.0932 57.0166 64.4758 55.5058 63.2408C53.6507 61.7114 52.7231 59.7071 52.7231 57.2277ZM58.5753 57.2135C58.5753 58.5624 58.8502 59.5598 59.4 60.2058C59.9498 60.8517 60.6407 61.1747 61.4726 61.1747C62.3141 61.1747 63.005 60.8565 63.5452 60.22C64.0855 59.5836 64.3556 58.5624 64.3556 57.1565C64.3556 55.8456 64.0831 54.8695 63.5381 54.2283C62.993 53.5871 62.3189 53.2665 61.5157 53.2665C60.6646 53.2665 59.9618 53.5918 59.4072 54.2425C58.8526 54.8933 58.5753 55.8836 58.5753 57.2135ZM72.6933 49.6187H78.1438V51.8273C78.9279 50.9059 79.7191 50.2504 80.5176 49.861C81.316 49.4715 82.2794 49.2767 83.4078 49.2767C84.6222 49.2767 85.5832 49.4905 86.2908 49.9179C86.9984 50.3454 87.5769 50.9819 88.0264 51.8273C88.9443 50.8394 89.781 50.1673 90.5364 49.8111C91.2919 49.4548 92.2242 49.2767 93.3334 49.2767C94.9686 49.2767 96.2451 49.7588 97.1631 50.723C98.0811 51.6872 98.5401 53.1952 98.5401 55.2471V64.7512H92.688V56.1305C92.688 55.4466 92.5541 54.9384 92.2863 54.6059C91.8943 54.0834 91.4066 53.8222 90.8233 53.8222C90.1348 53.8222 89.5802 54.0692 89.1595 54.5631C88.7387 55.0571 88.5284 55.8503 88.5284 56.9427V64.7512H82.6763V56.4155C82.6763 55.7506 82.638 55.2994 82.5615 55.0619C82.4372 54.6819 82.2221 54.3755 81.9161 54.1428C81.6101 53.9101 81.2515 53.7937 80.8403 53.7937C80.171 53.7937 79.6211 54.0454 79.1908 54.5489C78.7605 55.0524 78.5454 55.8788 78.5454 57.0282V64.7512H72.6933V49.6187ZM106.964 54.5204L101.384 53.9362C101.595 52.9672 101.898 52.2049 102.295 51.6492C102.692 51.0935 103.263 50.6114 104.009 50.2029C104.545 49.9084 105.281 49.6805 106.218 49.519C107.155 49.3575 108.169 49.2767 109.259 49.2767C111.009 49.2767 112.414 49.3741 113.476 49.5688C114.537 49.7636 115.422 50.1697 116.129 50.7871C116.626 51.2146 117.018 51.8202 117.305 52.6039C117.592 53.3876 117.736 54.1357 117.736 54.8481V61.5309C117.736 62.2434 117.781 62.8015 117.872 63.2052C117.963 63.6089 118.161 64.1243 118.467 64.7512H112.988C112.768 64.3618 112.625 64.0649 112.558 63.8607C112.491 63.6564 112.424 63.3358 112.357 62.8989C111.592 63.6303 110.832 64.1528 110.076 64.4663C109.044 64.8842 107.843 65.0932 106.476 65.0932C104.659 65.0932 103.28 64.6753 102.338 63.8393C101.396 63.0034 100.925 61.9727 100.925 60.7472C100.925 59.5978 101.265 58.6526 101.944 57.9117C102.574 57.2237 103.699 56.6994 105.319 56.339L108.409 55.7013C109.119 55.5481 109.636 55.4276 109.962 55.3397C110.612 55.164 111.3 54.9336 112.027 54.6486C112.027 53.9362 111.879 53.4375 111.582 53.1525C111.286 52.8675 110.765 52.725 110.019 52.725C109.063 52.725 108.346 52.877 107.867 53.181C107.494 53.4185 107.193 53.8649 106.964 54.5204ZM112.027 57.5697C111.425 57.7834 110.803 57.9785 110.163 58.1548L109.517 58.3249C108.331 58.6384 107.581 58.9471 107.265 59.2511C106.94 59.5646 106.777 59.9208 106.777 60.3198C106.777 60.7757 106.937 61.1486 107.258 61.4383C107.578 61.7281 108.049 61.8729 108.671 61.8729C109.321 61.8729 109.926 61.7162 110.485 61.4027C111.044 61.0892 111.441 60.7069 111.676 60.2557C111.91 59.8044 112.027 59.2179 112.027 58.4959V57.5697ZM120.852 49.6187H126.288V52.0838C127.101 51.0769 127.924 50.3573 128.755 49.9251C129.587 49.4928 130.601 49.2767 131.796 49.2767C133.412 49.2767 134.677 49.7541 135.59 50.7088C136.503 51.6635 136.96 53.1382 136.96 55.1331V64.7512H131.093V56.4298C131.093 55.4798 130.917 54.8078 130.563 54.4135C130.209 54.0193 129.712 53.8222 129.071 53.8222C128.363 53.8222 127.79 54.0882 127.35 54.6201C126.91 55.1521 126.69 56.1068 126.69 57.4842V64.7512H120.852V49.6187ZM140.277 43.8621H146.115V47.8091H140.277V43.8621ZM140.277 49.6187H146.115V64.7512H140.277V49.6187ZM154.783 54.5204L149.203 53.9362C149.413 52.9672 149.717 52.2049 150.114 51.6492C150.511 51.0935 151.082 50.6114 151.828 50.2029C152.363 49.9084 153.1 49.6805 154.037 49.519C154.974 49.3575 155.987 49.2767 157.078 49.2767C158.827 49.2767 160.233 49.3741 161.295 49.5688C162.356 49.7636 163.24 50.1697 163.948 50.7871C164.445 51.2146 164.837 51.8202 165.124 52.6039C165.411 53.3876 165.555 54.1357 165.555 54.8481V61.5309C165.555 62.2434 165.6 62.8015 165.691 63.2052C165.782 63.6089 165.98 64.1243 166.286 64.7512H160.807L160.612 64.3926C160.5 64.1742 160.421 63.9968 160.377 63.8607C160.31 63.6564 160.243 63.3358 160.176 62.8989C159.411 63.6303 158.651 64.1528 157.895 64.4663C156.862 64.8842 155.662 65.0932 154.295 65.0932C152.478 65.0932 151.099 64.6753 150.157 63.8393C149.215 63.0034 148.744 61.9727 148.744 60.7472C148.744 59.5978 149.084 58.6526 149.762 57.9117C150.393 57.2237 151.518 56.6994 153.138 56.339L156.228 55.7013C156.938 55.5481 157.455 55.4276 157.78 55.3397C158.431 55.164 159.119 54.9336 159.846 54.6486C159.846 53.9362 159.698 53.4375 159.401 53.1525C159.105 52.8675 158.584 52.725 157.838 52.725C156.882 52.725 156.164 52.877 155.686 53.181C155.313 53.4185 155.012 53.8649 154.783 54.5204ZM159.846 57.5697C159.243 57.7834 158.622 57.9785 157.982 58.1548L157.336 58.3249C156.15 58.6384 155.399 58.9471 155.084 59.2511C154.759 59.5646 154.596 59.9208 154.596 60.3198C154.596 60.7757 154.756 61.1486 155.077 61.4383C155.397 61.7281 155.868 61.8729 156.489 61.8729C157.14 61.8729 157.745 61.7162 158.304 61.4027C158.863 61.0892 159.26 60.7069 159.494 60.2557C159.729 59.8044 159.846 59.2179 159.846 58.4959V57.5697ZM168.671 43.8621H174.638V54.6344L178.998 49.6187H186.184L180.72 54.9194L186.5 64.7512H179.916L176.833 58.6811L174.638 60.8185V64.7512H168.671V43.8621Z" fill="white"/>
</svg>
