<svg width="349" height="240" viewBox="0 0 349 240" fill="none" xmlns="http://www.w3.org/2000/svg">
<path d="M325.067 157.008L325.235 157.097L325.324 157.19L325.735 157.622C326.09 157.995 326.598 158.528 327.208 159.17C328.429 160.454 330.061 162.172 331.705 163.911C333.35 165.65 335.007 167.408 336.277 168.772C336.913 169.454 337.451 170.036 337.842 170.467C338.038 170.683 338.195 170.859 338.309 170.99C338.366 171.056 338.411 171.108 338.443 171.147C338.48 171.193 338.487 171.205 338.482 171.196C338.482 171.196 338.492 171.213 338.516 171.261C338.539 171.305 338.568 171.363 338.603 171.437C338.674 171.583 338.767 171.781 338.879 172.025C339.104 172.512 339.404 173.174 339.752 173.952C340.45 175.507 341.341 177.521 342.22 179.515C343.099 181.509 343.966 183.483 344.612 184.959C344.928 185.681 345.192 186.283 345.379 186.711L110.294 186.585C110.651 186.295 111.138 185.919 111.797 185.443C113.878 183.937 117.657 181.437 124.426 177.48C137.289 169.96 143.266 158.626 146.052 153.342C146.231 153.002 146.398 152.686 146.552 152.399C147.3 151.002 147.798 149.84 148.248 148.792C149.372 146.172 150.187 144.272 153.817 141.234C154.465 140.692 155.139 140.137 155.824 139.572C157.865 137.891 160.01 136.125 161.854 134.38C163.089 133.211 164.203 132.039 165.074 130.891C165.942 129.748 166.59 128.601 166.856 127.483C166.964 127.03 167.303 126.203 167.843 125.056C168.376 123.924 169.087 122.521 169.912 120.936C170.943 118.957 172.147 116.706 173.405 114.354C174.165 112.933 174.944 111.475 175.717 110.018C177.766 106.157 179.765 102.309 181.201 99.2153C181.918 97.6694 182.501 96.3005 182.879 95.2064C183.068 94.6599 183.21 94.1707 183.291 93.7558C183.37 93.3558 183.404 92.9657 183.327 92.6479C183.114 91.7772 182.828 91.0361 182.563 90.3949C182.51 90.2655 182.458 90.1416 182.408 90.0225C182.205 89.5377 182.035 89.1315 181.925 88.7477C181.791 88.2843 181.764 87.915 181.865 87.5666C181.967 87.2164 182.217 86.8207 182.765 86.3469C183.301 85.8834 183.752 85.6829 184.152 85.5797C184.447 85.5038 184.698 85.4801 184.979 85.4535C185.117 85.4404 185.262 85.4267 185.423 85.4059C185.889 85.3455 186.388 85.2267 186.907 84.8512C187.414 84.4841 187.902 83.9001 188.414 82.9811C189.306 81.3801 190.546 80.5392 191.601 79.8237C191.634 79.8008 191.668 79.7779 191.702 79.7552C192.221 79.4026 192.747 79.0402 193.089 78.605C193.466 78.1257 193.623 77.5585 193.435 76.8616C193.311 76.4035 193.261 75.4564 193.273 74.2222C193.285 73.0123 193.355 71.5924 193.443 70.2332C193.531 68.8751 193.637 67.5829 193.721 66.6299C193.763 66.1536 193.8 65.7622 193.826 65.4902C193.838 65.3658 193.847 65.2663 193.854 65.1951L201.955 53.5899L210.649 55.201L212.416 56.2683L246.246 100.97L246.251 101.007C246.266 101.117 246.287 101.277 246.315 101.482C246.37 101.892 246.45 102.478 246.548 103.182C246.744 104.592 247.011 106.479 247.299 108.387C247.586 110.293 247.894 112.225 248.171 113.723C248.309 114.471 248.44 115.118 248.559 115.602C248.618 115.843 248.676 116.053 248.732 116.218C248.761 116.301 248.791 116.38 248.825 116.451C248.854 116.512 248.904 116.607 248.983 116.689C249.093 116.8 249.366 117.018 249.711 117.284C250.072 117.563 250.55 117.923 251.104 118.335C252.213 119.161 253.629 120.199 255.025 121.217C256.421 122.234 257.797 123.232 258.824 123.974C259.337 124.346 259.764 124.654 260.062 124.869L260.407 125.118L260.498 125.183L260.521 125.2L260.527 125.204L260.529 125.205L260.529 125.206C260.529 125.206 260.529 125.206 260.821 124.8L260.529 125.206L260.557 125.226L260.586 125.241L279.332 135.219L279.335 135.221L279.417 135.278C279.489 135.327 279.595 135.4 279.733 135.492C280.007 135.678 280.407 135.944 280.911 136.27C281.917 136.922 283.338 137.813 284.997 138.767C288.306 140.672 292.598 142.853 296.446 143.893C300.175 144.9 307.37 148.196 313.678 151.267C316.821 152.798 319.729 154.265 321.851 155.349C322.912 155.892 323.777 156.338 324.376 156.649C324.675 156.804 324.908 156.926 325.067 157.008Z" fill="white" stroke="#014958"/>
<path d="M345.406 186.678C345.219 186.251 344.956 185.648 344.639 184.926C343.993 183.45 343.127 181.475 342.247 179.48C341.368 177.485 340.477 175.471 339.78 173.916C339.431 173.139 339.131 172.477 338.907 171.991C338.794 171.747 338.701 171.549 338.631 171.404C338.613 171.367 338.597 171.334 338.582 171.305C338.568 171.276 338.555 171.251 338.544 171.229C338.519 171.181 338.509 171.165 338.51 171.166L338.486 171.129C338.482 171.123 338.477 171.117 338.471 171.109C338.439 171.07 338.394 171.018 338.337 170.952C338.223 170.821 338.065 170.645 337.87 170.43C337.478 169.999 336.94 169.417 336.305 168.735C335.034 167.372 333.377 165.613 331.732 163.874C330.088 162.135 328.456 160.416 327.235 159.131C326.625 158.489 326.117 157.956 325.763 157.583L325.351 157.15L325.262 157.057L325.094 156.969C324.936 156.886 324.702 156.765 324.403 156.609C323.804 156.299 322.94 155.852 321.879 155.31C319.757 154.225 316.849 152.758 313.705 151.228C307.398 148.156 300.203 144.86 296.474 143.853C292.625 142.813 288.334 140.632 285.024 138.728C283.365 137.773 281.944 136.883 280.938 136.231C280.434 135.905 280.034 135.638 279.76 135.453C279.622 135.36 279.516 135.288 279.445 135.238L279.363 135.182L279.359 135.179L260.614 125.202L260.584 125.186L260.556 125.166L260.849 124.761C260.556 125.166 260.556 125.166 260.556 125.166L260.556 125.166L260.554 125.165L260.548 125.161L260.525 125.144L260.434 125.078L260.089 124.829C259.79 124.614 259.364 124.306 258.85 123.935C257.823 123.192 256.446 122.195 255.05 121.177C253.654 120.16 252.236 119.121 251.128 118.296C250.575 117.883 250.096 117.523 249.736 117.244C249.392 116.979 249.118 116.76 249.008 116.647C248.93 116.566 248.88 116.47 248.852 116.41C248.819 116.339 248.788 116.26 248.761 116.178C248.705 116.013 248.647 115.803 248.588 115.562C248.47 115.078 248.339 114.431 248.201 113.684C247.925 112.186 247.616 110.254 247.329 108.347C247.041 106.44 246.773 104.553 246.576 103.143C246.478 102.438 246.398 101.852 246.343 101.443C246.315 101.238 246.293 101.077 246.278 100.968L246.273 100.93L212.443 56.2287L210.676 55.1614L202.673 53.6783L207.761 63.468C207.814 63.4998 207.882 63.5414 207.964 63.5927C208.172 63.7239 208.468 63.9191 208.824 64.1785C209.534 64.6967 210.486 65.4736 211.457 66.5112C213.358 68.5413 215.351 71.5909 215.723 75.6663L221.512 79.0273L221.635 79.0987L221.702 79.2241L224.457 84.3802L224.565 84.5831L224.482 84.7974L221.836 91.5842L223.985 94.0875L224.178 94.3122L224.074 94.588L224.074 94.5882L224.074 94.5886L224.074 94.5893L224.073 94.5905L224.067 94.607C224.062 94.6231 224.053 94.6493 224.042 94.6857C224.019 94.7583 223.986 94.8713 223.948 95.0241C223.872 95.3296 223.775 95.7947 223.701 96.4153C223.552 97.6559 223.492 99.5207 223.862 101.978C224.601 106.89 227.06 114.192 233.995 123.621L234.095 123.757L234.092 123.925L233.917 136.058L234.092 147.295L234.092 147.302V147.303L234.092 147.303H234.092L234.092 147.304L234.092 147.31L234.093 147.341C234.093 147.368 234.094 147.41 234.096 147.467C234.099 147.58 234.106 147.75 234.119 147.975C234.146 148.425 234.201 149.092 234.311 149.951C234.53 151.669 234.971 154.157 235.853 157.215L235.912 157.418L345.406 186.678ZM345.406 186.678L236.401 186.619C235.894 182.894 235.88 179.308 235.873 176.38L235.873 176.379C235.854 171.945 235.578 169.881 235.204 168.494C235.051 167.925 234.882 167.473 234.721 167.042C234.686 166.95 234.652 166.859 234.619 166.768C234.429 166.25 234.244 165.702 234.082 164.903C233.773 163.376 234.18 161.57 234.701 160.097C234.958 159.37 235.237 158.742 235.45 158.297C235.557 158.075 235.648 157.899 235.711 157.779C235.742 157.72 235.767 157.674 235.784 157.644L235.802 157.61L235.807 157.602L235.808 157.601M345.406 186.678L235.808 157.601M235.808 157.601L235.808 157.601L235.808 157.601Z" fill="#014958" stroke="#014958"/>
<path d="M292.476 165.438L287.845 165.067L296.133 151.893L296.574 151.193L295.749 151.128L291.199 150.771L302.291 135.892L302.828 135.172L301.933 135.095L297.622 134.724L308.175 116.05L318.652 134.577L314.335 134.94L313.438 135.016L313.976 135.737L325.07 150.618L320.517 150.983L319.695 151.049L320.134 151.747L328.422 164.92L323.792 165.284L323.022 165.344L323.393 166.023L334.616 186.513L325.909 186.395L325.168 186.385L325.19 186.442L281.648 186.674L292.875 166.177L293.245 165.5L292.476 165.438Z" fill="#3CB572" stroke="#014958"/>
<path d="M314.615 170.28L311.092 170.007L317.614 160.003L318.075 159.295L317.233 159.232L313.795 158.971L322.535 147.656L323.098 146.929L322.181 146.852L318.903 146.58L327.167 132.467L335.371 146.466L332.088 146.733L331.17 146.808L331.733 147.537L340.474 158.853L337.034 159.119L336.194 159.184L336.654 159.891L343.175 169.893L339.654 170.16L338.868 170.22L339.257 170.906L348.135 186.547L341.356 186.459L340.605 186.45L340.623 186.496L306.13 186.673L315.011 171.025L315.399 170.34L314.615 170.28Z" fill="white" stroke="#014958"/>
<path fill-rule="evenodd" clip-rule="evenodd" d="M302.179 89.6455H299.524C298.242 86.3858 295.141 84.0854 291.516 84.0854C287.716 84.0854 284.493 86.6126 283.336 90.1227C282.658 89.8175 281.91 89.6455 281.123 89.6455C278.436 89.6455 276.198 91.6177 275.696 94.2325H273.092C271.042 94.2325 269.38 95.9439 269.38 98.0549C269.38 100.166 271.042 101.877 273.092 101.877H302.179C305.459 101.877 308.118 99.1392 308.118 95.7616C308.118 92.3835 305.459 89.6455 302.179 89.6455Z" fill="#E3F6DC"/>
<path d="M202 53.71L1 121.71" stroke="#014958"/>
<rect x="81" y="101.71" width="28" height="2" fill="#014958"/>
<rect x="81" y="119.71" width="28" height="6" fill="#014958"/>
<rect x="83.5" y="104.21" width="24" height="15" fill="#E3F6DC" stroke="#014958"/>
<path d="M92 104.71H95L87 118.71H84L92 104.71Z" fill="white"/>
<path d="M96 104.71H101.5L93.5 118.71H88L96 104.71Z" fill="white"/>
<path d="M107 104.71V114.335L104.5 118.71H99L107 104.71Z" fill="white"/>
<path fill-rule="evenodd" clip-rule="evenodd" d="M96.6667 87.71H93.3333L90 101.71H100L96.6667 87.71ZM99 100.713L98 96.71H92L91 100.713H99ZM92.5 95.71L93 93.71H97L97.5 95.71H92.5ZM95 90.71C95.5523 90.71 96 90.2622 96 89.71C96 89.1577 95.5523 88.71 95 88.71C94.4477 88.71 94 89.1577 94 89.71C94 90.2622 94.4477 90.71 95 90.71Z" fill="#014958"/>
</svg>
