<svg width="24" height="24" viewBox="0 0 24 24" fill="none" xmlns="http://www.w3.org/2000/svg">
<g clip-path="url(#clip0_593_3963)">
<path fill-rule="evenodd" clip-rule="evenodd" d="M2.44161 0.164753C2.2635 -0.0370797 1.95574 -0.0561051 1.7542 0.122259C1.55266 0.300623 1.53366 0.608834 1.71176 0.810667L3.52841 2.86932C1.25364 5.21716 0.00204935 8.30905 2.51677e-06 11.5969C-0.00208462 14.9485 1.29403 18.0942 3.63684 20.4394C3.73702 20.5543 3.87999 20.6202 4.03235 20.6202C4.32037 20.6202 4.55413 20.3861 4.55517 20.0966C4.55517 19.9544 4.49569 19.8165 4.3976 19.7224C2.23219 17.5518 1.0394 14.6663 1.0394 11.598C1.0394 8.61389 2.16702 5.80355 4.22109 3.65428L6.30598 6.01692C4.9299 7.55097 4.17733 9.51552 4.17733 11.598C4.17733 13.8334 5.04349 15.933 6.61823 17.51C6.71737 17.6082 6.84782 17.6626 6.98765 17.6626C7.12645 17.6626 7.25898 17.6103 7.35708 17.511C7.45517 17.4118 7.50944 17.2811 7.50944 17.1411C7.50944 17.001 7.45517 16.8694 7.35708 16.7711C5.97748 15.3895 5.21776 13.5523 5.21776 11.598C5.21776 9.81831 5.84777 8.13571 7.00218 6.80588L9.12073 9.20666C8.63451 9.82798 8.34434 10.6102 8.34434 11.459C8.34434 13.2754 9.70097 14.82 11.475 15.0761V23.4775C11.475 23.7659 11.7088 24 11.9968 24C12.2848 24 12.5186 23.7659 12.5186 23.4775V15.0761C13.0082 15.0054 13.4659 14.8366 13.8722 14.5911L21.5395 23.2799C21.7177 23.4817 22.0254 23.5008 22.227 23.3224C22.4285 23.144 22.4475 22.8358 22.2694 22.634L20.3446 20.4527C22.7023 18.086 24 14.9415 24 11.598C24 8.24849 22.6976 5.09861 20.3319 2.73046C20.2327 2.63222 20.1023 2.57788 19.9624 2.57788C19.8226 2.57788 19.6911 2.63222 19.593 2.73046C19.3895 2.93425 19.3895 3.26554 19.593 3.46933C21.7605 5.63996 22.9554 8.52752 22.9554 11.598C22.9554 14.6404 21.7832 17.5033 19.6521 19.6681L17.5696 17.3081C19.024 15.7538 19.8215 13.7363 19.8215 11.5959C19.8215 9.36259 18.9533 7.26303 17.3764 5.68391C17.2773 5.58567 17.1469 5.53133 17.007 5.53133C16.8672 5.53133 16.7357 5.58463 16.6376 5.68391C16.5395 5.78319 16.4852 5.91383 16.4852 6.05387C16.4852 6.19391 16.5395 6.32559 16.6376 6.42383C18.0172 7.80542 18.7769 9.64268 18.7769 11.597C18.7769 13.4361 18.1041 15.1715 16.8751 16.5211L14.633 13.9803C15.263 13.3203 15.6493 12.4283 15.6493 11.459C15.6493 9.44202 14.0109 7.80124 11.9968 7.80124C11.1812 7.80124 10.4272 8.07033 9.8186 8.52451L2.44161 0.164753ZM9.82789 10.008C9.55006 10.4233 9.3879 10.9225 9.3879 11.459C9.3879 12.9002 10.5577 14.0717 11.9968 14.0717C12.4177 14.0717 12.8157 13.9714 13.1682 13.7933L9.82789 10.008ZM13.9425 13.1978L10.5127 9.31103C10.9342 9.0181 11.4458 8.84632 11.9968 8.84632C13.4359 8.84632 14.6057 10.0179 14.6057 11.459C14.6057 12.1262 14.3548 12.7357 13.9425 13.1978Z" fill="black"/>
</g>
<defs>
<clipPath id="clip0_593_3963">
<rect width="24" height="24" fill="white"/>
</clipPath>
</defs>
</svg>
