<svg width="137" height="100" viewBox="0 0 137 100" fill="none" xmlns="http://www.w3.org/2000/svg">
<path d="M114.429 15.4596L112.612 14.8334C112.056 14.6235 111.447 14.5781 110.858 14.7022C110.27 14.8264 109.724 15.1152 109.287 15.5346L106.059 18.7541C105.956 18.8621 105.885 18.9963 105.854 19.1413C105.823 19.2863 105.834 19.4362 105.884 19.5737C105.934 19.7211 106.02 19.853 106.135 19.9573C106.25 20.0617 106.389 20.1353 106.541 20.1716L110.924 21.1998" fill="#014958"/>
<path d="M114.429 15.4596L112.612 14.8334C112.056 14.6235 111.447 14.5781 110.858 14.7022C110.27 14.8264 109.724 15.1152 109.287 15.5346L106.059 18.7541C105.956 18.8621 105.885 18.9963 105.854 19.1413C105.823 19.2863 105.834 19.4362 105.884 19.5737C105.934 19.7211 106.02 19.853 106.135 19.9573C106.25 20.0617 106.389 20.1353 106.541 20.1716L110.924 21.1998L114.429 15.4596Z" stroke="#014958" stroke-width="0.446429" stroke-linecap="round" stroke-linejoin="round"/>
<path d="M121.595 22.5795L122.221 24.3967C122.431 24.9531 122.477 25.5614 122.352 26.1503C122.228 26.7392 121.939 27.2844 121.52 27.7218L118.301 30.9494C118.193 31.0524 118.058 31.1234 117.913 31.1544C117.768 31.1854 117.619 31.175 117.481 31.1245C117.334 31.0745 117.202 30.9883 117.097 30.8737C116.993 30.7591 116.919 30.6196 116.883 30.4679L115.855 26.0846" fill="#014958"/>
<path d="M121.595 22.5795L122.221 24.3967C122.431 24.9531 122.477 25.5614 122.352 26.1503C122.228 26.7392 121.939 27.2844 121.52 27.7218L118.301 30.9494C118.193 31.0524 118.058 31.1234 117.913 31.1544C117.768 31.1854 117.619 31.175 117.481 31.1245C117.334 31.0745 117.202 30.9883 117.097 30.8737C116.993 30.7591 116.919 30.6196 116.883 30.4679L115.855 26.0846L121.595 22.5795Z" stroke="#014958" stroke-width="0.446429" stroke-linecap="round" stroke-linejoin="round"/>
<path d="M133.589 11.697L133.589 11.697L133.589 11.6836L133.283 3.81125C133.279 3.69477 133.185 3.60137 133.069 3.59686L125.197 3.29197L125.197 3.29158L125.184 3.29186C123.984 3.31666 122.808 3.63624 121.761 4.22249C120.714 4.80873 119.828 5.64363 119.18 6.65365L119.18 6.6536L119.177 6.65877L110.628 20.8166C110.575 20.9045 110.589 21.0171 110.661 21.0897L115.777 26.2124C115.849 26.2851 115.962 26.2988 116.05 26.2458L130.208 17.7039L130.208 17.7039L130.213 17.701C131.226 17.0554 132.064 16.1698 132.653 15.1226C133.242 14.0754 133.563 12.8988 133.589 11.697Z" fill="white" stroke="#014958" stroke-width="0.446429" stroke-linecap="round" stroke-linejoin="round"/>
<path d="M133.281 3.81119C133.277 3.6947 133.183 3.60131 133.067 3.5968L125.195 3.29191C125.093 3.28795 125.001 3.35404 124.972 3.45225C124.943 3.55047 124.985 3.65565 125.073 3.70746L125.186 3.51496L125.073 3.70746L125.073 3.70751L125.074 3.70772L125.075 3.70865L125.082 3.71247L125.108 3.7278C125.13 3.74139 125.164 3.7616 125.208 3.78796C125.296 3.84067 125.423 3.91791 125.581 4.0157C125.896 4.21132 126.334 4.48893 126.822 4.8167C127.8 5.47454 128.968 6.32595 129.76 7.11802C130.552 7.9101 131.404 9.07801 132.062 10.0568C132.39 10.5446 132.667 10.9821 132.863 11.2977C132.961 11.4555 133.038 11.5827 133.09 11.6703C133.117 11.7141 133.137 11.748 133.151 11.7708L133.166 11.7967L133.17 11.8032L133.171 11.8048L133.171 11.8051L133.171 11.8052L133.363 11.6922L133.171 11.8052C133.223 11.8935 133.328 11.9352 133.426 11.9064C133.524 11.8777 133.59 11.7858 133.587 11.6836L133.281 3.81119Z" fill="#014958" stroke="#014958" stroke-width="0.446429" stroke-linecap="round" stroke-linejoin="round"/>
<path d="M124.159 15.5592C125.729 15.5592 127.002 14.2863 127.002 12.7161C127.002 11.1459 125.729 9.87297 124.159 9.87297C122.589 9.87297 121.316 11.1459 121.316 12.7161C121.316 14.2863 122.589 15.5592 124.159 15.5592Z" fill="#F5F5F5" stroke="#014958" stroke-width="0.446429" stroke-linecap="round" stroke-linejoin="round"/>
<path d="M111.574 30.1041C111.262 30.4159 110.731 30.6598 110.076 30.843C109.427 31.0244 108.686 31.1385 107.981 31.2094C107.277 31.2803 106.617 31.3075 106.131 31.3169C105.89 31.3216 105.692 31.322 105.555 31.3211C105.554 31.1838 105.554 30.9863 105.559 30.7449C105.569 30.2596 105.596 29.5988 105.667 28.8952C105.738 28.1906 105.852 27.4491 106.033 26.8003C106.216 26.1449 106.46 25.6142 106.772 25.3024C108.098 23.9765 110.248 23.9765 111.574 25.3024C112.9 26.6284 112.9 28.7782 111.574 30.1041Z" fill="white" stroke="#014958" stroke-width="0.446429"/>
<path d="M110.479 28.5695C110.348 28.6996 110.114 28.8116 109.801 28.8991C109.495 28.9847 109.142 29.0393 108.803 29.0734C108.465 29.1074 108.148 29.1205 107.914 29.125C107.854 29.1262 107.799 29.1268 107.751 29.1271C107.751 29.0792 107.752 29.0246 107.753 28.9642C107.758 28.7305 107.771 28.4128 107.805 28.075C107.839 27.7362 107.893 27.3832 107.979 27.0769C108.067 26.764 108.179 26.5297 108.309 26.3996C108.908 25.8004 109.879 25.8004 110.479 26.3996C111.078 26.9988 111.078 27.9703 110.479 28.5695Z" fill="white" stroke="#014958" stroke-width="0.446429"/>
<rect x="28.9918" y="53.0328" width="35.4285" height="46.7429" rx="0.880631" fill="white" stroke="#014958" stroke-width="0.446429"/>
<rect x="34.7877" y="48.066" width="35.4285" height="51.7102" rx="0.880631" fill="#E3F6DC" stroke="#014958" stroke-width="0.446429"/>
<mask id="path-12-inside-1_7551_3984" fill="white">
<path fill-rule="evenodd" clip-rule="evenodd" d="M87.8266 39.2842H58.0292L40.2969 56.8393V98.9499C40.2969 99.5275 40.7651 99.9957 41.3426 99.9957H87.8266C88.4041 99.9957 88.8723 99.5275 88.8723 98.9499V40.3299C88.8723 39.7524 88.4041 39.2842 87.8266 39.2842ZM84.8438 45.032C85.8358 45.032 86.64 44.2278 86.64 43.2358C86.64 42.2438 85.8358 41.4396 84.8438 41.4396C83.8518 41.4396 83.0476 42.2438 83.0476 43.2358C83.0476 44.2278 83.8518 45.032 84.8438 45.032Z"/>
</mask>
<path fill-rule="evenodd" clip-rule="evenodd" d="M87.8266 39.2842H58.0292L40.2969 56.8393V98.9499C40.2969 99.5275 40.7651 99.9957 41.3426 99.9957H87.8266C88.4041 99.9957 88.8723 99.5275 88.8723 98.9499V40.3299C88.8723 39.7524 88.4041 39.2842 87.8266 39.2842ZM84.8438 45.032C85.8358 45.032 86.64 44.2278 86.64 43.2358C86.64 42.2438 85.8358 41.4396 84.8438 41.4396C83.8518 41.4396 83.0476 42.2438 83.0476 43.2358C83.0476 44.2278 83.8518 45.032 84.8438 45.032Z" fill="white"/>
<path d="M58.0292 39.2842V38.8378H57.8455L57.7151 38.9669L58.0292 39.2842ZM40.2969 56.8393L39.9828 56.522L39.8504 56.6531V56.8393H40.2969ZM58.0292 39.7306H87.8266V38.8378H58.0292V39.7306ZM40.611 57.1566L58.3432 39.6014L57.7151 38.9669L39.9828 56.522L40.611 57.1566ZM40.7433 98.9499V56.8393H39.8504V98.9499H40.7433ZM41.3426 99.5492C41.0116 99.5492 40.7433 99.2809 40.7433 98.9499H39.8504C39.8504 99.774 40.5185 100.442 41.3426 100.442V99.5492ZM87.8266 99.5492H41.3426V100.442H87.8266V99.5492ZM88.4259 98.9499C88.4259 99.2809 88.1576 99.5492 87.8266 99.5492V100.442C88.6507 100.442 89.3187 99.774 89.3187 98.9499H88.4259ZM88.4259 40.3299V98.9499H89.3187V40.3299H88.4259ZM87.8266 39.7306C88.1576 39.7306 88.4259 39.9989 88.4259 40.3299H89.3187C89.3187 39.5058 88.6507 38.8378 87.8266 38.8378V39.7306ZM86.1936 43.2358C86.1936 43.9812 85.5893 44.5856 84.8438 44.5856V45.4784C86.0824 45.4784 87.0865 44.4744 87.0865 43.2358H86.1936ZM84.8438 41.886C85.5893 41.886 86.1936 42.4903 86.1936 43.2358H87.0865C87.0865 41.9972 86.0824 40.9932 84.8438 40.9932V41.886ZM83.4941 43.2358C83.4941 42.4903 84.0984 41.886 84.8438 41.886V40.9932C83.6053 40.9932 82.6012 41.9972 82.6012 43.2358H83.4941ZM84.8438 44.5856C84.0984 44.5856 83.4941 43.9812 83.4941 43.2358H82.6012C82.6012 44.4744 83.6053 45.4784 84.8438 45.4784V44.5856Z" fill="#014958" mask="url(#path-12-inside-1_7551_3984)"/>
<path opacity="0.5" fill-rule="evenodd" clip-rule="evenodd" d="M60.1992 60.1241C60.1992 59.3893 60.9173 58.8642 61.6266 59.0803L73.7596 62.7766C74.2224 62.9176 74.5382 63.341 74.5382 63.8204V75.7324C74.5382 76.4671 73.8201 76.9923 73.1109 76.7762L60.9778 73.0799C60.515 72.9389 60.1992 72.5155 60.1992 72.0361V60.1241Z" fill="#5AC78A"/>
<path opacity="0.8" fill-rule="evenodd" clip-rule="evenodd" d="M57.4414 62.1983C57.4414 61.4635 58.1595 60.9384 58.8688 61.1545L71.0018 64.8508C71.4646 64.9918 71.7804 65.4152 71.7804 65.8946V77.8066C71.7804 78.5414 71.0623 79.0665 70.353 78.8504L58.22 75.1541C57.7572 75.0131 57.4414 74.5897 57.4414 74.1103V62.1983Z" fill="#4EC483"/>
<path fill-rule="evenodd" clip-rule="evenodd" d="M54.6836 64.2735C54.6836 63.5387 55.4017 63.0136 56.111 63.2297L68.244 66.926C68.7068 67.067 69.0226 67.4904 69.0226 67.9698V79.8818C69.0226 80.6165 68.3045 81.1417 67.5952 80.9256L55.4622 77.2293C54.9994 77.0883 54.6836 76.6649 54.6836 76.1855V64.2735Z" fill="#3BB471"/>
<path fill-rule="evenodd" clip-rule="evenodd" d="M63.4184 68.3653C63.5218 68.4528 63.6067 68.5635 63.6632 68.684L65.8364 76.3992C65.9989 76.7462 65.8893 77.0872 65.5916 77.1608C65.5014 77.1831 65.4002 77.1786 65.2974 77.1478L63.3246 76.5559L63.4184 73.8512L61.634 76.0839L57.9705 74.9497C57.6313 74.848 57.3564 74.49 57.3564 74.1501C57.3564 74.0555 57.3782 73.9686 57.4201 73.8964L58.6557 70.8613C58.8061 70.6018 59.1743 70.5874 59.4783 70.8293C59.599 70.9253 59.6968 71.0526 59.7565 71.1915L60.4302 72.327L62.5853 68.3607C62.7477 68.1111 63.1207 68.1131 63.4184 68.3653Z" fill="white"/>
<path d="M41.0135 56.6161L57.8065 39.8231V55.7936C57.8065 56.2479 57.4383 56.6161 56.984 56.6161H41.0135Z" fill="#3CB572" stroke="#014958" stroke-width="0.446429"/>
<path d="M88.79 43.9587C90.4711 45.2214 92.5053 47.2627 94.36 49.6523C98.1864 54.5825 100.145 59.4666 98.7341 60.5615C97.3235 61.6563 93.0781 58.5471 89.2517 53.617C89.122 53.4499 88.9944 53.2828 88.869 53.1159C86.561 50.0435 85.0004 47.0385 84.5523 45.0109C84.3067 43.8999 84.3951 43.0823 84.8775 42.7079C85.2529 42.4165 85.9189 42.4421 86.6346 42.7014" stroke="#35A165" stroke-width="0.446429"/>
<path d="M131.935 36.6704L131.305 33.1133L129.481 33.4363L130.112 36.9934L126.506 36.3065L126.205 38.0863L129.794 38.6836L128.221 41.9836L129.985 42.7193L131.483 39.3401L134.23 41.9673L135.42 40.6775L132.843 38.1434L136.069 36.3387L135.085 34.7866L131.935 36.6704Z" fill="#FF8500"/>
<path d="M7.08309 38.4703L5.44645 35.2498L3.79563 36.0888L5.43226 39.3093L1.78279 39.6997L2.01172 41.4903L5.61993 41.0187L5.07336 44.6335L6.9753 44.8247L7.42648 41.1562L10.8182 42.8718L11.5817 41.2919L8.38033 39.6158L10.9424 36.9517L9.54978 35.7525L7.08309 38.4703Z" fill="#FF8500"/>
<path d="M43.4831 22.6402L43.9974 20.2097L42.7613 19.9482L42.2471 22.3787L40.1432 21.0159L39.4959 22.074L41.6127 23.3754L39.7708 25.0769L40.6978 25.9986L42.5122 24.2273L43.5751 26.6074L44.6585 26.0898L43.6795 23.8128L46.1826 23.4889L45.9586 22.2465L43.4831 22.6402Z" fill="#FFC10A"/>
<path d="M83.2935 3.61248V0H81.4418V3.61248L78.0114 2.30713L77.4043 4.00712L80.8346 5.2214L78.7096 8.19638L80.3186 9.22852L82.3828 6.16247L84.6292 9.22852L86.0256 8.16603L83.931 5.2214L87.4221 4.00712L86.7239 2.30713L83.2935 3.61248Z" fill="#FFC10A"/>
<path d="M131.872 64.7474V62.4873H130.713V64.7474L128.567 63.9307L128.188 64.9943L130.334 65.754L129.004 67.6153L130.011 68.261L131.302 66.3428L132.708 68.261L133.581 67.5963L132.271 65.754L134.455 64.9943L134.018 63.9307L131.872 64.7474Z" fill="#FFC10A"/>
</svg>
