<svg width="137" height="100" viewBox="0 0 137 100" fill="none" xmlns="http://www.w3.org/2000/svg">
<path d="M114.43 15.4596L112.613 14.8334C112.057 14.6235 111.448 14.5781 110.859 14.7022C110.271 14.8264 109.725 15.1152 109.288 15.5346L106.06 18.7541C105.957 18.8621 105.886 18.9963 105.855 19.1413C105.824 19.2863 105.835 19.4362 105.885 19.5737C105.935 19.7211 106.021 19.853 106.136 19.9573C106.251 20.0617 106.39 20.1353 106.542 20.1716L110.925 21.1998" fill="#3C4F52"/>
<path d="M114.43 15.4596L112.613 14.8334C112.057 14.6235 111.448 14.5781 110.859 14.7022C110.271 14.8264 109.725 15.1152 109.288 15.5346L106.06 18.7541C105.957 18.8621 105.886 18.9963 105.855 19.1413C105.824 19.2863 105.835 19.4362 105.885 19.5737C105.935 19.7211 106.021 19.853 106.136 19.9573C106.251 20.0617 106.39 20.1353 106.542 20.1716L110.925 21.1998L114.43 15.4596Z" stroke="#DCE4E5" stroke-width="0.446429" stroke-linecap="round" stroke-linejoin="round"/>
<path d="M121.596 22.5805L122.222 24.3977C122.432 24.9541 122.478 25.5624 122.353 26.1513C122.229 26.7402 121.94 27.2853 121.521 27.7227L118.302 30.9503C118.194 31.0533 118.059 31.1244 117.914 31.1554C117.769 31.1864 117.619 31.176 117.482 31.1255C117.335 31.0755 117.203 30.9893 117.098 30.8747C116.994 30.76 116.92 30.6206 116.884 30.4689L115.856 26.0855" fill="#3C4F52"/>
<path d="M121.596 22.5805L122.222 24.3977C122.432 24.9541 122.478 25.5624 122.353 26.1513C122.229 26.7402 121.94 27.2853 121.521 27.7227L118.302 30.9503C118.194 31.0533 118.059 31.1244 117.914 31.1554C117.769 31.1864 117.619 31.176 117.482 31.1255C117.335 31.0755 117.203 30.9893 117.098 30.8747C116.994 30.76 116.92 30.6206 116.884 30.4689L115.856 26.0855L121.596 22.5805Z" stroke="#DCE4E5" stroke-width="0.446429" stroke-linecap="round" stroke-linejoin="round"/>
<path d="M133.59 11.697L133.59 11.697L133.59 11.6836L133.284 3.81125C133.28 3.69477 133.186 3.60137 133.07 3.59686L125.198 3.29197L125.198 3.29158L125.185 3.29186C123.985 3.31666 122.809 3.63624 121.762 4.22249C120.715 4.80873 119.829 5.64363 119.181 6.65365L119.181 6.6536L119.178 6.65877L110.629 20.8166C110.576 20.9045 110.59 21.0171 110.662 21.0897L115.778 26.2124C115.85 26.2851 115.963 26.2988 116.051 26.2458L130.209 17.7039L130.209 17.7039L130.214 17.701C131.227 17.0554 132.065 16.1698 132.654 15.1226C133.243 14.0754 133.564 12.8988 133.59 11.697Z" fill="#2B383B" stroke="#DCE4E5" stroke-width="0.446429" stroke-linecap="round" stroke-linejoin="round"/>
<path d="M133.282 3.81119C133.278 3.6947 133.184 3.60131 133.068 3.5968L125.196 3.29191C125.094 3.28795 125.002 3.35404 124.973 3.45225C124.944 3.55047 124.986 3.65565 125.074 3.70746L125.187 3.51496L125.074 3.70746L125.074 3.70751L125.075 3.70772L125.076 3.70865L125.083 3.71247L125.109 3.7278C125.131 3.74139 125.165 3.7616 125.209 3.78796C125.297 3.84067 125.424 3.91791 125.582 4.0157C125.897 4.21132 126.335 4.48893 126.823 4.8167C127.801 5.47454 128.969 6.32595 129.761 7.11802C130.553 7.9101 131.405 9.07801 132.063 10.0568C132.39 10.5446 132.668 10.9821 132.864 11.2977C132.962 11.4555 133.039 11.5827 133.091 11.6703C133.118 11.7141 133.138 11.748 133.152 11.7708L133.167 11.7967L133.171 11.8032L133.172 11.8048L133.172 11.8051L133.172 11.8052L133.364 11.6922L133.172 11.8052C133.224 11.8935 133.329 11.9352 133.427 11.9064C133.525 11.8777 133.591 11.7858 133.587 11.6836L133.282 3.81119Z" fill="#3C4F52" stroke="#DCE4E5" stroke-width="0.446429" stroke-linecap="round" stroke-linejoin="round"/>
<path d="M124.161 15.5602C125.731 15.5602 127.004 14.2873 127.004 12.7171C127.004 11.1469 125.731 9.87395 124.161 9.87395C122.591 9.87395 121.318 11.1469 121.318 12.7171C121.318 14.2873 122.591 15.5602 124.161 15.5602Z" fill="#DCE4E5" stroke="#DCE4E5" stroke-width="0.446429" stroke-linecap="round" stroke-linejoin="round"/>
<path d="M111.575 30.1022C111.263 30.4139 110.732 30.6578 110.077 30.8411C109.428 31.0225 108.687 31.1366 107.982 31.2075C107.278 31.2783 106.618 31.3055 106.132 31.315C105.891 31.3197 105.693 31.32 105.556 31.3191C105.555 31.1818 105.555 30.9843 105.56 30.7429C105.57 30.2576 105.597 29.5968 105.668 28.8933C105.739 28.1886 105.853 27.4472 106.034 26.7984C106.217 26.143 106.461 25.6123 106.773 25.3005C108.099 23.9745 110.249 23.9745 111.575 25.3005C112.901 26.6264 112.901 28.7762 111.575 30.1022Z" fill="white" stroke="#DCE4E5" stroke-width="0.446429"/>
<path d="M110.479 28.5656C110.348 28.6957 110.114 28.8077 109.801 28.8952C109.495 28.9808 109.142 29.0354 108.803 29.0695C108.465 29.1035 108.148 29.1166 107.914 29.1211C107.854 29.1223 107.799 29.1229 107.751 29.1231C107.751 29.0753 107.752 29.0207 107.753 28.9603C107.758 28.7266 107.771 28.4089 107.805 28.0711C107.839 27.7323 107.893 27.3793 107.979 27.073C108.067 26.7601 108.179 26.5258 108.309 26.3957C108.908 25.7965 109.879 25.7965 110.479 26.3957C111.078 26.9949 111.078 27.9664 110.479 28.5656Z" fill="white" stroke="#DCE4E5" stroke-width="0.446429"/>
<rect x="28.9898" y="53.0328" width="35.4285" height="46.7429" rx="0.880631" fill="#3C4F52" stroke="#DCE4E5" stroke-width="0.446429"/>
<rect x="34.7857" y="48.067" width="35.4285" height="51.7102" rx="0.880631" fill="#3C4F52" stroke="#DCE4E5" stroke-width="0.446429"/>
<mask id="path-12-inside-1_7551_4139" fill="white">
<path fill-rule="evenodd" clip-rule="evenodd" d="M87.8256 39.2822H58.0282L40.2959 56.8374V98.948C40.2959 99.5255 40.7641 99.9937 41.3416 99.9937H87.8256C88.4031 99.9937 88.8713 99.5255 88.8713 98.948V40.3279C88.8713 39.7504 88.4031 39.2822 87.8256 39.2822ZM84.8424 45.0302C85.8345 45.0302 86.6386 44.226 86.6386 43.234C86.6386 42.242 85.8345 41.4378 84.8424 41.4378C83.8504 41.4378 83.0463 42.242 83.0463 43.234C83.0463 44.226 83.8504 45.0302 84.8424 45.0302Z"/>
</mask>
<path fill-rule="evenodd" clip-rule="evenodd" d="M87.8256 39.2822H58.0282L40.2959 56.8374V98.948C40.2959 99.5255 40.7641 99.9937 41.3416 99.9937H87.8256C88.4031 99.9937 88.8713 99.5255 88.8713 98.948V40.3279C88.8713 39.7504 88.4031 39.2822 87.8256 39.2822ZM84.8424 45.0302C85.8345 45.0302 86.6386 44.226 86.6386 43.234C86.6386 42.242 85.8345 41.4378 84.8424 41.4378C83.8504 41.4378 83.0463 42.242 83.0463 43.234C83.0463 44.226 83.8504 45.0302 84.8424 45.0302Z" fill="#2B383B"/>
<path d="M58.0282 39.2822V38.8358H57.8446L57.7141 38.965L58.0282 39.2822ZM40.2959 56.8374L39.9818 56.5201L39.8495 56.6511V56.8374H40.2959ZM58.0282 39.7287H87.8256V38.8358H58.0282V39.7287ZM40.61 57.1546L58.3423 39.5995L57.7141 38.965L39.9818 56.5201L40.61 57.1546ZM40.7423 98.948V56.8374H39.8495V98.948H40.7423ZM41.3416 99.5473C41.0106 99.5473 40.7423 99.279 40.7423 98.948H39.8495C39.8495 99.7721 40.5175 100.44 41.3416 100.44V99.5473ZM87.8256 99.5473H41.3416V100.44H87.8256V99.5473ZM88.4249 98.948C88.4249 99.279 88.1566 99.5473 87.8256 99.5473V100.44C88.6497 100.44 89.3177 99.7721 89.3177 98.948H88.4249ZM88.4249 40.3279V98.948H89.3177V40.3279H88.4249ZM87.8256 39.7287C88.1566 39.7287 88.4249 39.997 88.4249 40.3279H89.3177C89.3177 39.5038 88.6497 38.8358 87.8256 38.8358V39.7287ZM86.1922 43.234C86.1922 43.9794 85.5879 44.5837 84.8424 44.5837V45.4766C86.081 45.4766 87.0851 44.4725 87.0851 43.234H86.1922ZM84.8424 41.8842C85.5879 41.8842 86.1922 42.4885 86.1922 43.234H87.0851C87.0851 41.9954 86.081 40.9913 84.8424 40.9913V41.8842ZM83.4927 43.234C83.4927 42.4885 84.097 41.8842 84.8424 41.8842V40.9913C83.6039 40.9913 82.5998 41.9954 82.5998 43.234H83.4927ZM84.8424 44.5837C84.097 44.5837 83.4927 43.9794 83.4927 43.234H82.5998C82.5998 44.4725 83.6039 45.4766 84.8424 45.4766V44.5837Z" fill="#DCE4E5" mask="url(#path-12-inside-1_7551_4139)"/>
<path opacity="0.5" fill-rule="evenodd" clip-rule="evenodd" d="M60.1982 60.1221C60.1982 59.3874 60.9163 58.8623 61.6256 59.0783L73.7586 62.7746C74.2214 62.9156 74.5373 63.339 74.5373 63.8184V75.7304C74.5373 76.4652 73.8192 76.9903 73.1099 76.7742L60.9769 73.0779C60.5141 72.9369 60.1982 72.5135 60.1982 72.0341V60.1221Z" fill="#5AC78A"/>
<path opacity="0.8" fill-rule="evenodd" clip-rule="evenodd" d="M57.4404 62.1964C57.4404 61.4616 58.1585 60.9365 58.8678 61.1526L71.0008 64.8489C71.4636 64.9899 71.7794 65.4132 71.7794 65.8927V77.8046C71.7794 78.5394 71.0613 79.0645 70.3521 78.8484L58.2191 75.1521C57.7562 75.0111 57.4404 74.5878 57.4404 74.1083V62.1964Z" fill="#4EC483"/>
<path fill-rule="evenodd" clip-rule="evenodd" d="M54.6826 64.2715C54.6826 63.5368 55.4007 63.0117 56.11 63.2277L68.243 66.9241C68.7058 67.0651 69.0216 67.4884 69.0216 67.9679V79.8798C69.0216 80.6146 68.3035 81.1397 67.5942 80.9236L55.4612 77.2273C54.9984 77.0863 54.6826 76.6629 54.6826 76.1835V64.2715Z" fill="#3BB471"/>
<path fill-rule="evenodd" clip-rule="evenodd" d="M63.4174 68.3633C63.5208 68.4509 63.6058 68.5615 63.6622 68.6821L65.8354 76.3972C65.9979 76.7443 65.8883 77.0853 65.5907 77.1588C65.5004 77.1811 65.3993 77.1767 65.2965 77.1458L63.3237 76.5539L63.4174 73.8493L61.633 76.082L57.9695 74.9478C57.6304 74.846 57.3555 74.488 57.3555 74.1481C57.3555 74.0535 57.3772 73.9667 57.4191 73.8944L58.6548 70.8594C58.8051 70.5998 59.1734 70.5854 59.4773 70.8273C59.5981 70.9234 59.6958 71.0507 59.7555 71.1896L60.4292 72.3251L62.5843 68.3587C62.7468 68.1091 63.1198 68.1112 63.4174 68.3633Z" fill="white"/>
<path d="M41.0125 56.6151L57.8055 39.8221V55.7926C57.8055 56.2469 57.4373 56.6151 56.9831 56.6151H41.0125Z" fill="#67DD95" stroke="#DCE4E5" stroke-width="0.446429"/>
<path d="M88.789 43.9587C90.4701 45.2214 92.5043 47.2627 94.359 49.6523C98.1854 54.5825 100.144 59.4666 98.7332 60.5615C97.3225 61.6563 93.0771 58.5471 89.2507 53.617C89.121 53.4499 88.9934 53.2828 88.868 53.1159C86.56 50.0435 84.9995 47.0385 84.5513 45.0109C84.3057 43.8999 84.3941 43.0823 84.8765 42.7079C85.252 42.4165 85.9179 42.4421 86.6336 42.7014" stroke="#67DD95" stroke-width="0.446429"/>
<path d="M131.936 36.6704L131.306 33.1133L129.482 33.4363L130.113 36.9934L126.507 36.3065L126.206 38.0863L129.795 38.6836L128.222 41.9836L129.986 42.7193L131.484 39.3401L134.231 41.9673L135.421 40.6775L132.844 38.1434L136.07 36.3387L135.086 34.7866L131.936 36.6704Z" fill="#FF8500"/>
<path d="M7.08309 38.4713L5.44645 35.2508L3.79563 36.0898L5.43226 39.3102L1.78279 39.7007L2.01172 41.4912L5.61993 41.0196L5.07336 44.6345L6.9753 44.8257L7.42648 41.1572L10.8182 42.8728L11.5817 41.2929L8.38033 39.6168L10.9424 36.9527L9.54978 35.7535L7.08309 38.4713Z" fill="#FF8500"/>
<path d="M43.4831 22.6412L43.9974 20.2107L42.7613 19.9491L42.2471 22.3797L40.1432 21.0169L39.4959 22.0749L41.6127 23.3764L39.7708 25.0779L40.6978 25.9996L42.5122 24.2282L43.5751 26.6084L44.6585 26.0908L43.6795 23.8137L46.1826 23.4898L45.9586 22.2474L43.4831 22.6412Z" fill="#FFC10A"/>
<path d="M83.2935 3.61248V0H81.4418V3.61248L78.0114 2.30713L77.4043 4.00712L80.8346 5.2214L78.7096 8.19638L80.3186 9.22852L82.3828 6.16247L84.6292 9.22852L86.0256 8.16603L83.931 5.2214L87.4221 4.00712L86.7239 2.30713L83.2935 3.61248Z" fill="#FFC10A"/>
<path d="M131.872 64.7455V62.4854H130.713V64.7455L128.567 63.9288L128.188 64.9924L130.334 65.7521L129.004 67.6133L130.011 68.2591L131.302 66.3408L132.708 68.2591L133.581 67.5943L132.271 65.7521L134.455 64.9924L134.018 63.9288L131.872 64.7455Z" fill="#FFC10A"/>
</svg>
