<svg width="153" height="112" viewBox="0 0 153 112" fill="none" xmlns="http://www.w3.org/2000/svg">
<path d="M127.941 17.3158L125.906 16.6146C125.282 16.3795 124.601 16.3285 123.942 16.4677C123.282 16.6068 122.671 16.9302 122.182 17.3999L118.567 21.0057C118.451 21.1267 118.372 21.277 118.337 21.4394C118.302 21.6018 118.314 21.7697 118.37 21.9237C118.426 22.0888 118.523 22.2364 118.651 22.3533C118.78 22.4702 118.936 22.5527 119.106 22.5933L124.015 23.7449" fill="#014958"/>
<path d="M127.941 17.3158L125.906 16.6146C125.282 16.3795 124.601 16.3285 123.942 16.4677C123.282 16.6068 122.671 16.9302 122.182 17.3999L118.567 21.0057C118.451 21.1267 118.372 21.277 118.337 21.4394C118.302 21.6018 118.314 21.7697 118.37 21.9237C118.426 22.0888 118.523 22.2364 118.651 22.3533C118.78 22.4702 118.936 22.5527 119.106 22.5933L124.015 23.7449L127.941 17.3158Z" stroke="#014958" stroke-width="0.5" stroke-linecap="round" stroke-linejoin="round"/>
<path d="M135.967 25.2896L136.669 27.3249C136.904 27.9481 136.955 28.6294 136.816 29.289C136.676 29.9485 136.353 30.5591 135.883 31.049L132.278 34.6639C132.157 34.7792 132.006 34.8588 131.844 34.8935C131.681 34.9282 131.514 34.9166 131.36 34.8601C131.194 34.804 131.047 34.7075 130.93 34.5791C130.813 34.4507 130.731 34.2946 130.69 34.1247L129.538 29.2153" fill="#014958"/>
<path d="M135.967 25.2896L136.669 27.3249C136.904 27.9481 136.955 28.6294 136.816 29.289C136.676 29.9485 136.353 30.5591 135.883 31.049L132.278 34.6639C132.157 34.7792 132.006 34.8588 131.844 34.8935C131.681 34.9282 131.514 34.9166 131.36 34.8601C131.194 34.804 131.047 34.7075 130.93 34.5791C130.813 34.4507 130.731 34.2946 130.69 34.1247L129.538 29.2153L135.967 25.2896Z" stroke="#014958" stroke-width="0.5" stroke-linecap="round" stroke-linejoin="round"/>
<path d="M149.4 13.1009C149.4 13.0985 149.4 13.096 149.4 13.0936C149.4 13.091 149.4 13.0884 149.399 13.0859L149.057 4.2688C149.052 4.13833 148.948 4.03373 148.817 4.02868L140.001 3.68721C139.996 3.68702 139.991 3.68697 139.986 3.68707C138.642 3.71485 137.325 4.07279 136.153 4.72938C134.98 5.38597 133.987 6.32106 133.262 7.45228L133.262 7.45223L133.258 7.45802L123.684 23.3148C123.624 23.4132 123.639 23.5394 123.721 23.6207L129.45 29.3581C129.532 29.4395 129.658 29.4549 129.756 29.3955L145.613 19.8285L145.613 19.8286L145.618 19.8253C146.753 19.1023 147.692 18.1104 148.351 16.9375C149.011 15.7646 149.371 14.4468 149.4 13.1009Z" fill="white" stroke="#014958" stroke-width="0.5" stroke-linecap="round" stroke-linejoin="round"/>
<path d="M149.055 4.26951C149.05 4.13904 148.946 4.03444 148.815 4.02939L139.999 3.68792C139.884 3.68348 139.781 3.7575 139.749 3.8675C139.717 3.9775 139.764 4.09531 139.862 4.15333L139.989 3.93773L139.862 4.15333L139.863 4.15339L139.863 4.15363L139.865 4.15466L139.872 4.15894L139.901 4.17612C139.927 4.19133 139.965 4.21397 140.014 4.24349C140.112 4.30252 140.254 4.38903 140.431 4.49856C140.784 4.71766 141.274 5.02858 141.821 5.39568C142.917 6.13246 144.225 7.08604 145.112 7.97316C145.999 8.86029 146.953 10.1683 147.69 11.2646C148.057 11.8109 148.368 12.301 148.587 12.6544C148.696 12.8311 148.783 12.9736 148.842 13.0717C148.871 13.1207 148.894 13.1587 148.909 13.1843L148.926 13.2133L148.931 13.2206L148.932 13.2223L148.932 13.2227L148.932 13.2228L149.148 13.0963L148.932 13.2228C148.99 13.3217 149.108 13.3684 149.218 13.3362C149.328 13.304 149.402 13.2011 149.397 13.0866L149.055 4.26951Z" fill="#014958" stroke="#014958" stroke-width="0.5" stroke-linecap="round" stroke-linejoin="round"/>
<path d="M138.839 17.4268C140.598 17.4268 142.023 16.0012 142.023 14.2425C142.023 12.4839 140.598 11.0582 138.839 11.0582C137.08 11.0582 135.655 12.4839 135.655 14.2425C135.655 16.0012 137.08 17.4268 138.839 17.4268Z" fill="#F5F5F5" stroke="#014958" stroke-width="0.5" stroke-linecap="round" stroke-linejoin="round"/>
<path d="M124.743 33.7172C124.393 34.0664 123.799 34.3396 123.065 34.5448C122.338 34.748 121.508 34.8758 120.719 34.9552C119.931 35.0345 119.191 35.065 118.647 35.0756C118.377 35.0809 118.156 35.0812 118.002 35.0802C118.001 34.9265 118.001 34.7052 118.006 34.4349C118.017 33.8914 118.047 33.1513 118.127 32.3633C118.206 31.5741 118.334 30.7437 118.537 30.017C118.742 29.283 119.016 28.6885 119.365 28.3394C120.85 26.8543 123.258 26.8543 124.743 28.3394C126.228 29.8244 126.228 32.2322 124.743 33.7172Z" fill="white" stroke="#014958" stroke-width="0.5"/>
<path d="M123.516 31.998C123.37 32.1437 123.108 32.2691 122.757 32.3671C122.414 32.463 122.019 32.5241 121.639 32.5623C121.261 32.6004 120.905 32.615 120.644 32.6201C120.576 32.6215 120.515 32.6221 120.461 32.6224C120.462 32.5689 120.462 32.5076 120.463 32.44C120.469 32.1783 120.483 31.8224 120.521 31.4442C120.56 31.0646 120.621 30.6694 120.717 30.3263C120.815 29.9758 120.94 29.7134 121.086 29.5677C121.757 28.8966 122.845 28.8966 123.516 29.5677C124.187 30.2388 124.187 31.3269 123.516 31.998Z" fill="white" stroke="#014958" stroke-width="0.5"/>
<rect x="32.25" y="59.3975" width="39.68" height="52.3521" rx="0.986306" fill="white" stroke="#014958" stroke-width="0.5"/>
<rect x="38.7412" y="53.835" width="39.68" height="57.9155" rx="0.986306" fill="#E3F6DC" stroke="#014958" stroke-width="0.5"/>
<mask id="path-12-inside-1_7088_3737" fill="white">
<path fill-rule="evenodd" clip-rule="evenodd" d="M98.1464 44H64.7732L44.9131 63.6617V110.826C44.9131 111.472 45.4374 111.997 46.0843 111.997H98.1464C98.7932 111.997 99.3175 111.472 99.3175 110.826V45.1712C99.3175 44.5244 98.7932 44 98.1464 44ZM94.8052 50.4377C95.9163 50.4377 96.817 49.537 96.817 48.426C96.817 47.3149 95.9163 46.4142 94.8052 46.4142C93.6942 46.4142 92.7935 47.3149 92.7935 48.426C92.7935 49.537 93.6942 50.4377 94.8052 50.4377Z"/>
</mask>
<path fill-rule="evenodd" clip-rule="evenodd" d="M98.1464 44H64.7732L44.9131 63.6617V110.826C44.9131 111.472 45.4374 111.997 46.0843 111.997H98.1464C98.7932 111.997 99.3175 111.472 99.3175 110.826V45.1712C99.3175 44.5244 98.7932 44 98.1464 44ZM94.8052 50.4377C95.9163 50.4377 96.817 49.537 96.817 48.426C96.817 47.3149 95.9163 46.4142 94.8052 46.4142C93.6942 46.4142 92.7935 47.3149 92.7935 48.426C92.7935 49.537 93.6942 50.4377 94.8052 50.4377Z" fill="white"/>
<path d="M64.7732 44V43.5H64.5676L64.4215 43.6447L64.7732 44ZM44.9131 63.6617L44.5613 63.3064L44.4131 63.4532V63.6617H44.9131ZM64.7732 44.5H98.1464V43.5H64.7732V44.5ZM45.2649 64.0171L65.125 44.3553L64.4215 43.6447L44.5613 63.3064L45.2649 64.0171ZM45.4131 110.826V63.6617H44.4131V110.826H45.4131ZM46.0843 111.497C45.7136 111.497 45.4131 111.196 45.4131 110.826H44.4131C44.4131 111.749 45.1613 112.497 46.0843 112.497V111.497ZM98.1464 111.497H46.0843V112.497H98.1464V111.497ZM98.8175 110.826C98.8175 111.196 98.517 111.497 98.1464 111.497V112.497C99.0693 112.497 99.8175 111.749 99.8175 110.826H98.8175ZM98.8175 45.1712V110.826H99.8175V45.1712H98.8175ZM98.1464 44.5C98.517 44.5 98.8175 44.8005 98.8175 45.1712H99.8175C99.8175 44.2482 99.0693 43.5 98.1464 43.5V44.5ZM96.317 48.426C96.317 49.2609 95.6401 49.9377 94.8052 49.9377V50.9377C96.1924 50.9377 97.317 49.8132 97.317 48.426H96.317ZM94.8052 46.9142C95.6401 46.9142 96.317 47.591 96.317 48.426H97.317C97.317 47.0388 96.1924 45.9142 94.8052 45.9142V46.9142ZM93.2935 48.426C93.2935 47.591 93.9703 46.9142 94.8052 46.9142V45.9142C93.418 45.9142 92.2935 47.0388 92.2935 48.426H93.2935ZM94.8052 49.9377C93.9703 49.9377 93.2935 49.2609 93.2935 48.426H92.2935C92.2935 49.8132 93.418 50.9377 94.8052 50.9377V49.9377Z" fill="#014958" mask="url(#path-12-inside-1_7088_3737)"/>
<path opacity="0.5" fill-rule="evenodd" clip-rule="evenodd" d="M67.2031 67.3402C67.2031 66.5173 68.0074 65.9291 68.8018 66.1711L82.3908 70.311C82.9091 70.4689 83.2628 70.9431 83.2628 71.4801V84.8215C83.2628 85.6444 82.4586 86.2325 81.6642 85.9905L68.0752 81.8506C67.5568 81.6927 67.2031 81.2186 67.2031 80.6816V67.3402Z" fill="#5AC78A"/>
<path opacity="0.8" fill-rule="evenodd" clip-rule="evenodd" d="M64.1143 69.6634C64.1143 68.8405 64.9185 68.2524 65.7129 68.4944L79.3019 72.6342C79.8202 72.7922 80.1739 73.2663 80.1739 73.8033V87.1447C80.1739 87.9676 79.3697 88.5558 78.5753 88.3138L64.9863 84.1739C64.468 84.016 64.1143 83.5418 64.1143 83.0048V69.6634Z" fill="#4EC483"/>
<path fill-rule="evenodd" clip-rule="evenodd" d="M61.0254 71.9876C61.0254 71.1647 61.8297 70.5766 62.6241 70.8186L76.213 74.9585C76.7314 75.1164 77.0851 75.5906 77.0851 76.1275V89.4689C77.0851 90.2919 76.2808 90.88 75.4864 90.638L61.8975 86.4981C61.3791 86.3402 61.0254 85.866 61.0254 85.3291V71.9876Z" fill="#3BB471"/>
<path fill-rule="evenodd" clip-rule="evenodd" d="M70.8089 76.5707C70.9247 76.6688 71.0199 76.7927 71.083 76.9278L73.5171 85.5687C73.699 85.9574 73.5763 86.3393 73.2429 86.4217C73.1419 86.4467 73.0286 86.4417 72.9135 86.4071L70.7039 85.7442L70.8089 82.715L68.8104 85.2157L64.7072 83.9453C64.3274 83.8314 64.0195 83.4304 64.0195 83.0497C64.0195 82.9438 64.0439 82.8465 64.0908 82.7656L65.4747 79.3663C65.6431 79.0756 66.0556 79.0595 66.396 79.3304C66.5312 79.438 66.6407 79.5806 66.7076 79.7362L67.4621 81.0079L69.8758 76.5656C70.0578 76.286 70.4755 76.2883 70.8089 76.5707Z" fill="white"/>
<path d="M45.7149 63.4117L64.5231 44.6036V62.4906C64.5231 62.9993 64.1106 63.4117 63.6019 63.4117H45.7149Z" fill="#3CB572" stroke="#014958" stroke-width="0.5"/>
<path d="M99.2245 49.2344C101.107 50.6486 103.386 52.9348 105.463 55.6113C109.748 61.133 111.942 66.6033 110.362 67.8294C108.782 69.0556 104.027 65.5734 99.7416 60.0517C99.5963 59.8645 99.4534 59.6773 99.313 59.4904C96.728 56.0494 94.9802 52.6837 94.4782 50.4128C94.2032 49.1685 94.3022 48.2528 94.8425 47.8335C95.263 47.5071 96.0088 47.5358 96.8104 47.8262" stroke="#35A165" stroke-width="0.5"/>
<path d="M147.547 41.0706L146.841 37.0867L144.799 37.4485L145.505 41.4324L141.467 40.663L141.13 42.6565L145.15 43.3254L143.388 47.0215L145.364 47.8454L147.041 44.0607L150.118 47.0032L151.45 45.5586L148.565 42.7204L152.177 40.6992L151.075 38.9608L147.547 41.0706Z" fill="#FF8500"/>
<path d="M7.71321 43.0864L5.88018 39.4795L4.03126 40.4191L5.86429 44.026L1.77688 44.4633L2.03328 46.4687L6.07448 45.9405L5.46232 49.9892L7.59249 50.2034L8.09781 46.0946L11.8965 48.0161L12.7517 46.2466L9.16612 44.3694L12.0356 41.3855L10.4759 40.0425L7.71321 43.0864Z" fill="#FF8500"/>
<path d="M48.481 25.3569L49.057 22.6347L47.6726 22.3418L47.0966 25.064L44.7403 23.5377L44.0154 24.7227L46.3862 26.1803L44.3232 28.086L45.3615 29.1183L47.3936 27.1344L48.584 29.8002L49.7974 29.2204L48.701 26.6701L51.5045 26.3074L51.2536 24.9159L48.481 25.3569Z" fill="#FFC10A"/>
<path d="M93.0686 4.04598V0H90.9946V4.04598L87.1526 2.58399L86.4727 4.48797L90.3146 5.84797L87.9346 9.17995L89.7366 10.3359L92.0486 6.90196L94.5646 10.3359L96.1286 9.14595L93.7826 5.84797L97.6926 4.48797L96.9106 2.58399L93.0686 4.04598Z" fill="#FFC10A"/>
<path d="M147.476 72.5167V69.9854H146.179V72.5167L143.775 71.602L143.35 72.7932L145.753 73.6441L144.264 75.7287L145.392 76.4519L146.838 74.3035L148.412 76.4519L149.391 75.7074L147.923 73.6441L150.369 72.7932L149.88 71.602L147.476 72.5167Z" fill="#FFC10A"/>
</svg>
