<svg width="16" height="16" viewBox="0 0 16 16" fill="none" xmlns="http://www.w3.org/2000/svg">
<path fill-rule="evenodd" clip-rule="evenodd" d="M5.17574 2.17574C5.41005 1.94142 5.78995 1.94142 6.02426 2.17574L11.1696 7.32103C11.2588 7.41015 11.3296 7.51598 11.3779 7.63249C11.4262 7.749 11.4511 7.87388 11.4511 8C11.4511 8.12612 11.4262 8.251 11.3779 8.36751C11.3296 8.48402 11.2588 8.58985 11.1696 8.67897L6.02426 13.8243C5.78995 14.0586 5.41005 14.0586 5.17574 13.8243C4.94142 13.5899 4.94142 13.2101 5.17574 12.9757L10.1515 8L5.17574 3.02426C4.94142 2.78995 4.94142 2.41005 5.17574 2.17574Z" fill="#666666"/>
</svg>
