<svg width="16" height="16" viewBox="0 0 16 16" fill="none" xmlns="http://www.w3.org/2000/svg">
<path d="M14.7149 1.15373C14.9061 1.35294 14.8996 1.66946 14.7004 1.86069L2.20043 13.8607C2.00123 14.0519 1.68471 14.0455 1.49347 13.8463C1.30224 13.6471 1.3087 13.3305 1.5079 13.1393L14.0079 1.13931C14.2071 0.94807 14.5236 0.954529 14.7149 1.15373Z" fill="#666666"/>
<path d="M12.7617 5.12521C12.9245 4.90216 13.2373 4.85333 13.4604 5.01614C14.2305 5.57829 14.9421 6.21651 15.5844 6.92116L15.5864 6.92335C15.8525 7.21881 15.9998 7.60236 15.9998 8C15.9998 8.39763 15.8525 8.78118 15.5864 9.07663L15.585 9.07824C13.8386 11.0001 10.9415 13.0467 7.99657 13C7.26102 13.0049 6.5291 12.8963 5.82661 12.6782C5.56289 12.5963 5.4155 12.3161 5.4974 12.0524C5.5793 11.7886 5.85948 11.6413 6.1232 11.7232C6.7292 11.9114 7.36064 12.0047 7.99517 12L8.00732 12.0001C10.5265 12.0425 13.1702 10.2484 14.8441 8.40662C14.9443 8.29493 14.9998 8.15012 14.9998 8C14.9998 7.84999 14.9444 7.70527 14.8443 7.59362C14.2474 6.93903 13.5863 6.34612 12.8708 5.82385C12.6477 5.66104 12.5989 5.34825 12.7617 5.12521Z" fill="#666666"/>
<path d="M9.72832 3.2028C9.16321 3.06217 8.58253 2.99402 8.00024 2.99996C5.10352 2.9551 2.19977 4.95708 0.414944 6.92032L0.4134 6.92203C0.147272 7.21748 0 7.60103 0 7.99867C0 8.3963 0.147272 8.77985 0.4134 9.0753L0.415747 9.07789C0.966187 9.68046 1.56697 10.235 2.21158 10.7356C2.42969 10.9049 2.74379 10.8654 2.91316 10.6473C3.08252 10.4292 3.04301 10.1151 2.8249 9.94575C2.22569 9.48044 1.66717 8.96497 1.15541 8.40491C1.05535 8.29327 1 8.14862 1 7.99867C1 7.84855 1.05547 7.70374 1.15574 7.59205C2.86418 5.71323 5.51539 3.95879 7.9906 3.99993L8.00451 3.99997C8.50398 3.99437 9.00212 4.05258 9.48683 4.1732C9.7548 4.23989 10.0261 4.07671 10.0928 3.80874C10.1595 3.54077 9.99629 3.26948 9.72832 3.2028Z" fill="#666666"/>
<path d="M7.99873 6C7.73608 5.99993 7.476 6.05161 7.23333 6.15209C6.99066 6.25257 6.77017 6.39987 6.58445 6.58559C6.39873 6.77131 6.25143 6.9918 6.15095 7.23447C6.05047 7.47713 5.99879 7.73722 5.99886 7.99987C5.99893 8.27601 5.77514 8.49993 5.49899 8.5C5.22285 8.50007 4.99893 8.27628 4.99886 8.00013C4.99876 7.60612 5.07628 7.21595 5.22702 6.85191C5.37775 6.48787 5.59874 6.15709 5.87735 5.87848C6.15595 5.59988 6.48673 5.37889 6.85077 5.22816C7.21481 5.07742 7.60498 4.99989 7.99899 5C8.27514 5.00007 8.49893 5.22399 8.49886 5.50013C8.49879 5.77628 8.27487 6.00007 7.99873 6Z" fill="#666666"/>
<path d="M10.9989 7.99919C10.9988 7.72305 10.7749 7.49925 10.4987 7.49933C10.2226 7.4994 9.99879 7.72332 9.99886 7.99946C9.99893 8.26215 9.94725 8.52228 9.84677 8.76499C9.74629 9.0077 9.59899 9.22825 9.41326 9.41402C9.22754 9.59979 9.00704 9.74716 8.76435 9.8477C8.52166 9.94825 8.26155 10 7.99886 10C7.72272 10 7.49886 10.2239 7.49886 10.5C7.49886 10.7761 7.72272 11 7.99886 11C8.39289 11 8.78307 10.9224 9.1471 10.7716C9.51112 10.6207 9.84188 10.3997 10.1205 10.121C10.399 9.84237 10.62 9.51156 10.7707 9.14749C10.9214 8.78342 10.999 8.39323 10.9989 7.99919Z" fill="#666666"/>
</svg>
