<svg width="240" height="240" viewBox="0 0 240 240" fill="none" xmlns="http://www.w3.org/2000/svg">
<path d="M132.578 60H107.718L82.3164 85.4012V110.262L107.718 135.663H132.578L157.979 110.262V85.4012L132.578 60Z" fill="white" stroke="#014958" stroke-width="0.6"/>
<path d="M131.157 64.3237H109.138L86.6396 86.8219V108.841L109.138 131.34H131.157L153.655 108.841V86.8219L131.157 64.3237Z" fill="#F44336"/>
<path d="M139.128 80.6984C139.599 80.2284 139.599 79.4662 139.128 78.9961C138.658 78.526 137.896 78.526 137.426 78.9961L120.221 96.2008L103.017 78.9961C102.547 78.526 101.785 78.526 101.314 78.9961C100.844 79.4662 100.844 80.2284 101.314 80.6984L118.519 97.9031L101.314 115.108C100.844 115.578 100.844 116.34 101.314 116.81C101.785 117.28 102.547 117.28 103.017 116.81L120.221 99.6054L137.426 116.81C137.896 117.28 138.658 117.28 139.128 116.81C139.599 116.34 139.599 115.578 139.128 115.108L121.924 97.9031L139.128 80.6984Z" fill="white"/>
<path d="M120.15 172.163L101.234 153.518L120.15 122.442V172.163Z" fill="#3CB572" stroke="#014958" stroke-width="0.6"/>
<path d="M120.151 172.163L139.066 153.518L120.151 122.442V172.163Z" fill="#014958" stroke="#014958" stroke-width="0.6"/>
<path fill-rule="evenodd" clip-rule="evenodd" d="M120.151 121.361L69.3486 153.112H113.801L120.151 121.361ZM120.151 121.361L126.501 153.112H170.953L120.151 121.361Z" fill="white"/>
<path d="M69.3486 153.112L69.1896 152.858L68.3026 153.412H69.3486V153.112ZM120.151 121.361L120.31 121.106L120.151 121.007L119.992 121.106L120.151 121.361ZM113.801 153.112V153.412H114.047L114.095 153.171L113.801 153.112ZM126.501 153.112L126.207 153.171L126.255 153.412H126.501V153.112ZM170.953 153.112V153.412H171.999L171.112 152.858L170.953 153.112ZM69.5076 153.367L120.31 121.615L119.992 121.106L69.1896 152.858L69.5076 153.367ZM113.801 152.812H69.3486V153.412H113.801V152.812ZM119.857 121.302L113.506 153.053L114.095 153.171L120.445 121.42L119.857 121.302ZM119.857 121.42L126.207 153.171L126.795 153.053L120.445 121.302L119.857 121.42ZM126.501 153.412H170.953V152.812H126.501V153.412ZM171.112 152.858L120.31 121.106L119.992 121.615L170.794 153.367L171.112 152.858Z" fill="#014958"/>
<path d="M86.9131 162.976L69.8889 180" stroke="#014958" stroke-width="0.6" stroke-linecap="round"/>
<path d="M96.6406 161.354L92.3846 165.611M88.1285 169.867L90.2566 167.739" stroke="#014958" stroke-width="0.6" stroke-linecap="round"/>
<path d="M153.388 162.976L170.412 180" stroke="#014958" stroke-width="0.6" stroke-linecap="round"/>
<path d="M143.39 161.354L145.112 163.077M151.902 169.867L146.903 164.867" stroke="#014958" stroke-width="0.6" stroke-linecap="round"/>
<path d="M180.139 138.365L171.889 130.232L180.139 116.678V138.365Z" fill="#3CB572" stroke="#014958" stroke-width="0.6"/>
<path d="M180.139 138.365L188.39 130.232L180.139 116.678V138.365Z" fill="#014958" stroke="#014958" stroke-width="0.6"/>
<path fill-rule="evenodd" clip-rule="evenodd" d="M180.14 116.206L157.981 130.055H177.37L180.14 116.206ZM180.14 116.206L182.91 130.055H202.298L180.14 116.206Z" fill="white"/>
<path d="M157.981 130.055L157.822 129.801L156.935 130.355H157.981V130.055ZM180.14 116.206L180.299 115.952L180.14 115.852L179.981 115.952L180.14 116.206ZM177.37 130.055V130.355H177.616L177.664 130.114L177.37 130.055ZM182.91 130.055L182.616 130.114L182.664 130.355H182.91V130.055ZM202.298 130.055V130.355H203.344L202.457 129.801L202.298 130.055ZM158.14 130.309L180.299 116.46L179.981 115.952L157.822 129.801L158.14 130.309ZM177.37 129.755H157.981V130.355H177.37V129.755ZM179.846 116.147L177.076 129.996L177.664 130.114L180.434 116.265L179.846 116.147ZM179.846 116.265L182.616 130.114L183.204 129.996L180.434 116.147L179.846 116.265ZM182.91 130.355H202.298V129.755H182.91V130.355ZM202.457 129.801L180.299 115.952L179.981 116.46L202.139 130.309L202.457 129.801Z" fill="#014958"/>
<path d="M54.4833 135.933L48.3457 129.883L54.4833 119.8V135.933Z" fill="#3CB572" stroke="#014958" stroke-width="0.6"/>
<path d="M54.4835 135.933L60.6211 129.883L54.4835 119.8V135.933Z" fill="#014958" stroke="#014958" stroke-width="0.6"/>
<path fill-rule="evenodd" clip-rule="evenodd" d="M54.4837 119.45L38 129.753H52.4233L54.4837 119.45ZM54.4837 119.45L56.5442 129.753H70.9675L54.4837 119.45Z" fill="white"/>
<path d="M38 129.753L37.841 129.498L36.954 130.053H38V129.753ZM54.4837 119.45L54.6427 119.196L54.4837 119.096L54.3247 119.196L54.4837 119.45ZM52.4233 129.753V130.053H52.6692L52.7174 129.811L52.4233 129.753ZM56.5442 129.753L56.25 129.811L56.2983 130.053H56.5442V129.753ZM70.9675 129.753V130.053H72.0135L71.1265 129.498L70.9675 129.753ZM38.159 130.007L54.6427 119.705L54.3247 119.196L37.841 129.498L38.159 130.007ZM52.4233 129.453H38V130.053H52.4233V129.453ZM54.1896 119.391L52.1291 129.694L52.7174 129.811L54.7779 119.509L54.1896 119.391ZM54.1896 119.509L56.25 129.811L56.8384 129.694L54.7779 119.391L54.1896 119.509ZM56.5442 130.053H70.9675V129.453H56.5442V130.053ZM71.1265 129.498L54.6427 119.196L54.3247 119.705L70.8085 130.007L71.1265 129.498Z" fill="#014958"/>
</svg>
