<svg width="240" height="192" viewBox="0 0 240 192" fill="none" xmlns="http://www.w3.org/2000/svg">
<rect x="-1.3364" y="6.78195" width="54.5911" height="86.0429" rx="27.2955" transform="matrix(0.557057 0.830474 -0.830474 0.557058 115.626 64.1842)" stroke="#3CB572" stroke-width="9.77556"/>
<rect x="-6.68787" y="1.74733" width="54.5911" height="86.0429" rx="27.2955" transform="matrix(-0.505396 0.862888 -0.862887 -0.505397 195.21 122.602)" stroke="#014958" stroke-width="9.77556"/>
<path d="M117.852 121.01L122.278 129.523L105.743 140.825L100.333 132.76L117.852 121.01Z" fill="#3CB572"/>
<path d="M55.4722 87.0733C58.9793 84.7209 63.7293 85.6569 66.0817 89.1639L102.641 143.667C104.993 147.174 104.057 151.924 100.55 154.276L52.1216 186.761C48.6145 189.113 43.8645 188.177 41.5121 184.67L4.95326 130.167C2.60085 126.66 3.53685 121.91 7.04388 119.558L55.4722 87.0733Z" fill="white" stroke="#014958"/>
<path d="M49.013 135.594L49.0257 135.896L48.7635 136.048L43.1626 139.282L43.1626 139.282C41.573 140.199 41.0285 142.232 41.9462 143.821L41.9462 143.821C42.8638 145.411 44.8963 145.955 46.4859 145.038L52.0864 141.804L52.3486 141.653L52.6043 141.815C54.9673 143.315 58.0611 143.481 60.6508 141.986C64.3633 139.842 65.6353 135.095 63.4919 131.382C61.3485 127.67 56.6013 126.398 52.8888 128.541L52.6405 128.111L52.8888 128.541C50.2994 130.036 48.8965 132.798 49.013 135.594Z" fill="#E3F6DC" stroke="#014958"/>
<path d="M232.704 117.284C236.356 119.405 237.597 124.085 235.476 127.737L202.516 184.488C200.395 188.14 195.715 189.381 192.064 187.26L141.637 157.973C137.986 155.852 136.745 151.172 138.866 147.521L171.826 90.7693C173.947 87.1176 178.626 85.8766 182.278 87.9975L232.704 117.284Z" fill="white" stroke="#014958"/>
<path d="M189.02 134.594L189.008 134.896L189.27 135.048L194.871 138.282L194.871 138.282C196.46 139.199 197.005 141.232 196.087 142.821L196.087 142.821C195.169 144.411 193.137 144.955 191.547 144.038L185.947 140.804L185.685 140.653L185.429 140.815C183.066 142.315 179.972 142.481 177.382 140.986C173.67 138.842 172.398 134.095 174.541 130.382C176.685 126.67 181.432 125.398 185.144 127.541L185.393 127.111L185.144 127.541C187.734 129.036 189.137 131.798 189.02 134.594Z" fill="#E3F6DC" stroke="#014958"/>
<path d="M109.048 14.0833L111.994 4.80375L107.237 3.29329L104.291 12.5729L96.5439 6.42168L93.5977 10.2933L101.419 16.2105L93.5337 22.1192L96.8247 26.0829L104.628 19.8908L107.898 29.5991L112.351 28.0088L109.373 18.7362L119.331 18.4646L118.924 13.5283L109.048 14.0833Z" fill="#3CB572"/>
<path d="M80.0627 52.3682L81.0882 49.1386L79.4327 48.613L78.4072 51.8425L75.7111 49.7017L74.6857 51.0491L77.4077 53.1085L74.6634 55.1649L75.8088 56.5443L78.5246 54.3893L79.6625 57.7681L81.2125 57.2146L80.1758 53.9875L83.6415 53.893L83.4999 52.175L80.0627 52.3682Z" fill="#014958"/>
<path d="M148.2 33.795L149.731 28.9728L147.26 28.1879L145.728 33.0101L141.703 29.8136L140.172 31.8255L144.236 34.9004L140.138 37.9709L141.849 40.0306L145.904 36.8128L147.603 41.8578L149.917 41.0314L148.369 36.2129L153.544 36.0718L153.332 33.5066L148.2 33.795Z" fill="#014958"/>
</svg>
