<svg width="240" height="240" viewBox="0 0 240 240" fill="none" xmlns="http://www.w3.org/2000/svg">
<mask id="path-1-inside-1_1222_6776" fill="white">
<path d="M69.5719 109.263C66.0785 108.41 62.4356 108.372 58.9252 109.152C55.4147 109.932 52.1307 111.509 49.3272 113.761C46.5237 116.013 44.2759 118.88 42.7576 122.14C41.2394 125.4 40.4914 128.965 40.5715 132.56C40.6516 136.155 41.5576 139.684 43.2196 142.873C44.8815 146.062 47.2548 148.826 50.1558 150.951C53.0568 153.076 56.4078 154.505 59.9495 155.128C63.4912 155.751 67.1287 155.551 70.5807 154.543L68.4331 147.187C66.1094 147.866 63.6608 148.001 61.2766 147.581C58.8925 147.162 56.6367 146.2 54.6839 144.77C52.731 143.339 51.1334 141.478 50.0147 139.332C48.8959 137.185 48.286 134.81 48.2321 132.39C48.1781 129.969 48.6817 127.569 49.7037 125.375C50.7258 123.181 52.2389 121.251 54.1261 119.735C56.0133 118.219 58.224 117.157 60.5871 116.632C62.9502 116.107 65.4024 116.133 67.754 116.707L69.5719 109.263Z"/>
</mask>
<path d="M69.5719 109.263C66.0785 108.41 62.4356 108.372 58.9252 109.152C55.4147 109.932 52.1307 111.509 49.3272 113.761C46.5237 116.013 44.2759 118.88 42.7576 122.14C41.2394 125.4 40.4914 128.965 40.5715 132.56C40.6516 136.155 41.5576 139.684 43.2196 142.873C44.8815 146.062 47.2548 148.826 50.1558 150.951C53.0568 153.076 56.4078 154.505 59.9495 155.128C63.4912 155.751 67.1287 155.551 70.5807 154.543L68.4331 147.187C66.1094 147.866 63.6608 148.001 61.2766 147.581C58.8925 147.162 56.6367 146.2 54.6839 144.77C52.731 143.339 51.1334 141.478 50.0147 139.332C48.8959 137.185 48.286 134.81 48.2321 132.39C48.1781 129.969 48.6817 127.569 49.7037 125.375C50.7258 123.181 52.2389 121.251 54.1261 119.735C56.0133 118.219 58.224 117.157 60.5871 116.632C62.9502 116.107 65.4024 116.133 67.754 116.707L69.5719 109.263Z" fill="#3CB572" stroke="#014958" stroke-width="2" mask="url(#path-1-inside-1_1222_6776)"/>
<path fill-rule="evenodd" clip-rule="evenodd" d="M118.619 88.6733C119.703 88.9379 120.795 88.2742 121.06 87.1909C121.324 86.1076 120.661 85.0149 119.577 84.7504C118.494 84.4858 117.401 85.1496 117.137 86.2328C116.872 87.3161 117.536 88.4088 118.619 88.6733ZM116.781 92.6184C116.444 94.0015 115.049 94.8489 113.665 94.5111C112.282 94.1733 111.435 92.7783 111.773 91.3953C112.111 90.0122 113.506 89.1648 114.889 89.5026C116.272 89.8403 117.119 91.2353 116.781 92.6184ZM116.505 105.751C118.339 105.644 119.967 104.359 120.425 102.482C120.988 100.178 119.576 97.8539 117.272 97.2912C116.434 97.0865 115.593 97.1431 114.836 97.4088C114.255 97.0149 113.595 96.7161 112.873 96.5398C109.621 95.7457 106.341 97.738 105.547 100.99C105.456 101.362 105.402 101.735 105.382 102.104C105.222 101.981 105.035 101.889 104.826 101.838C104.025 101.643 103.216 102.134 103.02 102.936C102.929 103.309 102.987 103.683 103.155 103.997C103.113 103.985 103.07 103.974 103.027 103.963C101.022 103.474 99.0002 104.702 98.5106 106.707C98.2646 107.714 98.4523 108.726 98.9543 109.545C96.9175 109.837 95.1377 111.22 94.3962 113.218C92.2363 113.012 90.3334 113.794 88.0357 114.737C85.9657 115.588 83.5754 116.569 80.3881 117.079C73.5695 118.17 66.4068 102.713 66.4068 102.713L56.9992 162.04C56.8738 162.831 57.3759 163.585 58.1537 163.775L92.5297 172.17C93.3076 172.36 94.1012 171.922 94.3543 171.162L115.882 106.547C116.11 106.301 116.319 106.035 116.505 105.751ZM120.484 95.2739C120.29 96.0703 119.487 96.5581 118.69 96.3637C117.894 96.1692 117.406 95.366 117.601 94.5697C117.795 93.7734 118.598 93.2855 119.395 93.4799C120.191 93.6744 120.679 94.4776 120.484 95.2739Z" fill="#E3F6DC"/>
<path d="M64.584 144.833L62.4577 159.289C62.3421 160.074 62.8434 160.819 63.6148 161.007L65.7325 161.524C66.5039 161.712 67.2919 161.283 67.5514 160.532L72.3275 146.724" stroke="#014958" stroke-linecap="round"/>
<path d="M76.1992 147.669L74.0729 162.125C73.9573 162.911 74.4586 163.655 75.23 163.843L77.3477 164.361C78.1191 164.549 78.9071 164.119 79.1667 163.369L83.9427 149.56" stroke="#014958" stroke-linecap="round"/>
<path d="M87.8154 150.506L85.6891 164.961C85.5736 165.747 86.0748 166.491 86.8462 166.68L88.9639 167.197C89.7353 167.385 90.5233 166.956 90.7829 166.205L95.5589 152.397" stroke="#014958" stroke-linecap="round"/>
<ellipse cx="70.1056" cy="122.032" rx="0.951168" ry="0.951178" transform="rotate(13.7237 70.1056 122.032)" fill="white"/>
<circle cx="90.2184" cy="125.964" r="1.49457" transform="rotate(13.7237 90.2184 125.964)" fill="white"/>
<circle cx="92.5425" cy="131.147" r="0.498191" transform="rotate(13.7237 92.5425 131.147)" fill="white"/>
<circle cx="72.5298" cy="139.594" r="0.498191" transform="rotate(13.7237 72.5298 139.594)" fill="white"/>
<circle cx="78.9073" cy="134.485" r="0.996383" transform="rotate(13.7237 78.9073 134.485)" fill="white"/>
<circle cx="91.9647" cy="147.161" r="0.747287" transform="rotate(13.7237 91.9647 147.161)" fill="white"/>
<circle cx="106.457" cy="123.519" r="0.747287" transform="rotate(13.7237 106.457 123.519)" fill="white"/>
<path d="M69.6663 93.2509C68.5103 92.9686 67.3593 93.7323 67.1701 94.9071L56.3774 161.926C56.2085 162.975 56.874 163.978 57.9064 164.231L92.5445 172.69C93.5769 172.942 94.6298 172.358 94.9635 171.349L116.277 106.9C116.651 105.77 115.981 104.562 114.825 104.279L69.6663 93.2509Z" stroke="#014958"/>
<path d="M55.2729 162.424C55.3261 161.964 55.7701 161.655 56.2195 161.765L95.6639 171.398C96.1134 171.507 96.3649 171.986 96.2002 172.419L95.3226 174.723C95.1845 175.086 94.7981 175.289 94.4212 175.197L55.5712 165.709C55.1943 165.617 54.9449 165.259 54.9895 164.873L55.2729 162.424Z" fill="#014958"/>
<mask id="path-15-inside-2_1222_6776" fill="white">
<path d="M162.768 100.235C166.05 98.7662 169.627 98.072 173.22 98.2062C176.814 98.3405 180.328 99.2996 183.492 101.009C186.655 102.719 189.383 105.134 191.464 108.066C193.546 110.999 194.924 114.371 195.494 117.922C196.063 121.473 195.808 125.107 194.748 128.543C193.688 131.979 191.852 135.126 189.382 137.739C186.912 140.353 183.873 142.363 180.502 143.614C177.131 144.865 173.517 145.324 169.939 144.955L170.726 137.333C173.134 137.581 175.566 137.272 177.836 136.43C180.105 135.588 182.151 134.235 183.814 132.476C185.477 130.716 186.713 128.598 187.426 126.285C188.139 123.972 188.311 121.525 187.928 119.135C187.544 116.745 186.616 114.475 185.215 112.501C183.815 110.527 181.978 108.901 179.849 107.75C177.719 106.599 175.353 105.954 172.934 105.863C170.515 105.773 168.108 106.24 165.898 107.229L162.768 100.235Z"/>
</mask>
<path d="M162.768 100.235C166.05 98.7662 169.627 98.072 173.22 98.2062C176.814 98.3405 180.328 99.2996 183.492 101.009C186.655 102.719 189.383 105.134 191.464 108.066C193.546 110.999 194.924 114.371 195.494 117.922C196.063 121.473 195.808 125.107 194.748 128.543C193.688 131.979 191.852 135.126 189.382 137.739C186.912 140.353 183.873 142.363 180.502 143.614C177.131 144.865 173.517 145.324 169.939 144.955L170.726 137.333C173.134 137.581 175.566 137.272 177.836 136.43C180.105 135.588 182.151 134.235 183.814 132.476C185.477 130.716 186.713 128.598 187.426 126.285C188.139 123.972 188.311 121.525 187.928 119.135C187.544 116.745 186.616 114.475 185.215 112.501C183.815 110.527 181.978 108.901 179.849 107.75C177.719 106.599 175.353 105.954 172.934 105.863C170.515 105.773 168.108 106.24 165.898 107.229L162.768 100.235Z" fill="#3CB572" stroke="#014958" stroke-width="2" mask="url(#path-15-inside-2_1222_6776)"/>
<path fill-rule="evenodd" clip-rule="evenodd" d="M119.435 101.221C118.8 99.5123 119.593 97.5811 121.281 96.8258C123.039 96.0391 125.102 96.8264 125.888 98.5844C126.056 98.9589 126.152 99.3472 126.183 99.7341C126.328 99.5479 126.52 99.3934 126.75 99.2902C127.504 98.953 128.388 99.2904 128.725 100.044C128.882 100.395 128.893 100.774 128.783 101.113C128.823 101.093 128.864 101.074 128.905 101.056C130.789 100.213 132.999 101.056 133.842 102.94C134.265 103.886 134.263 104.915 133.917 105.811C135.974 105.731 137.974 106.77 139.064 108.602C141.15 108.011 143.162 108.437 145.591 108.95C147.78 109.413 150.309 109.948 153.536 109.875C160.439 109.718 164.698 93.2229 164.698 93.2229L184.648 149.882C184.913 150.637 184.556 151.47 183.825 151.797L151.526 166.252C150.795 166.579 149.935 166.291 149.549 165.59L116.142 104.856C116.142 104.856 116.662 105.212 117.527 105.77C117.446 104.054 118.145 102.372 119.435 101.221Z" fill="#E3F6DC"/>
<path d="M174.086 134.324L178.784 148.159C179.039 148.911 178.68 149.733 177.955 150.058L175.966 150.948C175.241 151.273 174.388 150.992 173.998 150.301L166.81 137.58" stroke="#014958" stroke-linecap="round"/>
<path d="M163.173 139.208L167.871 153.043C168.126 153.795 167.767 154.618 167.042 154.942L165.053 155.833C164.328 156.157 163.475 155.877 163.085 155.185L155.897 142.464" stroke="#014958" stroke-linecap="round"/>
<path d="M152.26 144.093L156.958 157.928C157.213 158.68 156.854 159.503 156.129 159.827L154.139 160.717C153.415 161.042 152.562 160.761 152.172 160.07L144.984 147.349" stroke="#014958" stroke-linecap="round"/>
<ellipse cx="0.951168" cy="0.951178" rx="0.951168" ry="0.951178" transform="matrix(-0.912758 0.4085 0.4085 0.912758 165.023 111.635)" fill="white"/>
<circle cx="1.49457" cy="1.49457" r="1.49457" transform="matrix(-0.912758 0.4085 0.4085 0.912758 146.225 118.412)" fill="white"/>
<circle cx="0.498191" cy="0.498191" r="0.498191" transform="matrix(-0.912758 0.4085 0.4085 0.912758 144.37 125.245)" fill="white"/>
<circle cx="0.498191" cy="0.498191" r="0.498191" transform="matrix(-0.912758 0.4085 0.4085 0.912758 165.577 129.945)" fill="white"/>
<circle cx="0.996383" cy="0.996383" r="0.996383" transform="matrix(-0.912758 0.4085 0.4085 0.912758 158.635 125.411)" fill="white"/>
<circle cx="0.747287" cy="0.747287" r="0.747287" transform="matrix(-0.912758 0.4085 0.4085 0.912758 147.95 140.562)" fill="white"/>
<circle cx="0.747287" cy="0.747287" r="0.747287" transform="matrix(-0.912758 0.4085 0.4085 0.912758 129.435 119.922)" fill="white"/>
<path d="M159.786 84.5032C160.872 84.0171 162.142 84.5608 162.54 85.6822L185.239 149.657C185.595 150.659 185.121 151.765 184.151 152.199L151.605 166.765C150.635 167.199 149.495 166.815 148.985 165.883L116.4 106.332C115.829 105.288 116.27 103.979 117.356 103.493L159.786 84.5032Z" stroke="#014958"/>
<path d="M186.417 149.947C186.281 149.505 185.789 149.281 185.367 149.47L148.306 166.056C147.883 166.245 147.722 166.762 147.962 167.157L149.241 169.266C149.442 169.598 149.859 169.728 150.213 169.569L186.716 153.233C187.07 153.074 187.25 152.677 187.137 152.306L186.417 149.947Z" fill="#014958"/>
<path d="M111.156 69.8786L112.595 65.3463L110.272 64.6085L108.832 69.1409L105.049 66.1365L103.61 68.0275L107.43 70.9176L103.578 73.8035L105.186 75.7395L108.997 72.7151L110.594 77.4569L112.769 76.6801L111.315 72.1512L116.178 72.0185L115.98 69.6075L111.156 69.8786Z" fill="#3CB572"/>
<path d="M96.9993 88.5775L97.5002 87.0002L96.6917 86.7434L96.1908 88.3208L94.8739 87.2752L94.3731 87.9333L95.7026 88.9391L94.3622 89.9435L94.9216 90.6173L96.2481 89.5647L96.8039 91.215L97.561 90.9446L97.0546 89.3685L98.7473 89.3223L98.6782 88.4832L96.9993 88.5775Z" fill="#014958"/>
<path d="M130.279 79.5066L131.027 77.1514L129.82 76.768L129.072 79.1232L127.106 77.562L126.358 78.5447L128.343 80.0465L126.342 81.5462L127.177 82.5522L129.158 80.9806L129.987 83.4447L131.118 83.041L130.362 80.6876L132.889 80.6186L132.786 79.3657L130.279 79.5066Z" fill="#014958"/>
</svg>
