<svg width="100" height="93" viewBox="0 0 100 93" fill="none" xmlns="http://www.w3.org/2000/svg">
<path d="M70.9156 48.4324L70.9011 48.1978H70.666H18.4641H18.2291L18.2146 48.4324L15.5376 91.8001L15.5212 92.0655H15.7871H73.3431H73.609L73.5926 91.8001L70.9156 48.4324Z" fill="#3C4F52" stroke="#DCE4E5" stroke-width="0.5"/>
<path d="M42.8419 61.7075C42.8419 65.087 44.1018 68.3426 45.2901 71.4771C45.8053 72.8362 46.4698 74.2525 46.5786 75.7171C46.6246 76.336 46.8579 77.3369 46.5285 77.9037C45.9404 78.9157 43.1367 78.6795 42.2835 78.6606C39.505 78.599 36.6844 78.1178 34.1084 77.0697C33.5293 76.8341 32.4573 76.4496 32.8127 75.626C33.3246 74.44 35.326 73.692 36.3705 73.1661C39.7264 71.4765 43.1918 70.2901 46.9079 69.6619C48.6268 69.3714 50.4064 68.9811 52.1551 68.9051C52.4414 68.8926 53.3906 68.8047 52.5345 68.9541C47.7497 69.7893 42.9946 70.8086 38.2174 71.6873C35.5446 72.179 32.8566 72.6369 30.1712 73.061C29.3583 73.1893 26.9313 73.6048 27.723 73.3834C29.7593 72.8138 31.7164 71.9046 33.7219 71.2388C39.2075 69.4176 45.065 68.1161 50.8022 67.3562C54.2484 66.8997 57.7168 66.6791 61.1677 66.2769C62.0904 66.1694 63.0418 65.9966 63.9739 65.9966" stroke="#67DD95" stroke-width="0.5" stroke-linecap="round"/>
<path d="M15.7871 13.1284H15.5173L15.5378 13.3974L18.2146 48.4664L18.2322 48.6974H18.4638H70.6601H70.8918L70.9094 48.4664L72.7892 23.8378L72.7975 23.7292L72.7236 23.6492L63.0813 13.2088L63.007 13.1284H62.8976H15.7871Z" fill="#3C4F52" stroke="#DCE4E5" stroke-width="0.5"/>
<path d="M63.3597 13.616L62.9993 13.2299L62.9292 13.7534L61.5842 23.7858L61.5463 24.0689L61.8319 24.069L72.5464 24.0755L73.1221 24.0758L72.7293 23.6549L63.3597 13.616Z" fill="#DCE4E5" stroke="#DCE4E5" stroke-width="0.5"/>
<rect x="25.1582" y="25.4253" width="28.1087" height="2.14162" rx="1.07081" fill="#DCE4E5"/>
<rect x="25.1582" y="30.7793" width="38.0137" height="2.14162" rx="1.07081" fill="#DCE4E5"/>
<rect x="25.1582" y="36.1333" width="38.0137" height="2.14162" rx="1.07081" fill="#DCE4E5"/>
<rect x="25.1582" y="41.4873" width="38.0137" height="2.14162" rx="1.07081" fill="#DCE4E5"/>
<rect x="87.8633" y="49.5156" width="8.24852" height="26.7252" transform="rotate(48.6406 87.8633 49.5156)" fill="#67DD95"/>
<rect x="89.6055" y="51.4971" width="2.96947" height="26.7252" transform="rotate(48.6406 89.6055 51.4971)" fill="#3CB572"/>
<path d="M92.5677 45.3731C93.6618 44.4098 95.3297 44.5159 96.293 45.6101L98.2551 47.8389C99.2184 48.9331 99.1123 50.601 98.0181 51.5642L93.8081 55.2705L88.3577 49.0794L92.5677 45.3731Z" fill="#67DD95"/>
<path fill-rule="evenodd" clip-rule="evenodd" d="M70.7084 72.9701C71.1187 72.6089 71.7441 72.6487 72.1054 73.059C72.4666 73.4693 72.4268 74.0948 72.0165 74.456L70.7084 72.9701ZM69.2708 69.8398C68.9096 69.4294 68.2841 69.3896 67.8738 69.7509L69.2904 71.36C69.2902 71.3601 69.29 71.3603 69.2898 71.3605L70.707 72.9702C71.1173 72.609 71.1571 71.9835 70.7958 71.5732L70.6868 71.4494C70.332 71.0463 69.7222 71.0008 69.3118 71.3417C69.7025 70.9779 69.7348 70.3668 69.3798 69.9636L69.2708 69.8398ZM66.5655 68.2649C66.9758 67.9037 67.6013 67.9435 67.9625 68.3538C68.3237 68.7641 68.2839 69.3896 67.8736 69.7508L66.5655 68.2649ZM66.5647 68.2652L72.0152 74.4564L63.2585 77.4842C62.7006 77.6771 62.1895 77.0965 62.4515 76.5676L66.5647 68.2652Z" fill="#F1F1F1"/>
<path d="M63.8809 73.7046L66.2791 76.4287L63.1922 77.5468C62.6284 77.7511 62.1065 77.1582 62.3805 76.6249L63.8809 73.7046Z" fill="#3CB572"/>
<circle cx="16.2059" cy="16.2057" r="14.5091" transform="rotate(-7.16694 16.2059 16.2057)" fill="#67DD95"/>
<g clip-path="url(#clip0_3933_19149)">
<path d="M15.3007 9.00793C15.5492 8.97669 15.7759 9.15278 15.8072 9.40123L15.9203 10.301C15.9515 10.5494 15.7755 10.7762 15.527 10.8074C15.2786 10.8386 15.0518 10.6626 15.0206 10.4141L14.9074 9.51436C14.8762 9.26591 15.0523 9.03917 15.3007 9.00793Z" fill="#014958"/>
<path fill-rule="evenodd" clip-rule="evenodd" d="M14.3899 19.9355C13.6871 19.6494 13.0681 19.1874 12.5931 18.5925C12.0709 17.9383 11.744 17.15 11.6502 16.3183L11.65 16.3163C11.5213 15.1288 11.8587 13.9378 12.591 12.9943C13.3234 12.0507 14.3934 11.4284 15.5756 11.2583C15.5809 11.2576 15.5863 11.2569 15.5916 11.2563C16.7787 11.1284 17.969 11.4662 18.912 12.1985C19.855 12.9308 20.4769 14.0005 20.6469 15.1823L20.6472 15.1842C20.7627 16.0137 20.6415 16.859 20.2976 17.6225C19.9847 18.3171 19.499 18.9184 18.8886 19.3699L19.1905 21.7712C19.2355 22.1292 19.1365 22.4903 18.9152 22.7752C18.694 23.0602 18.3686 23.2455 18.0106 23.2905L16.2112 23.5168C15.8532 23.5618 15.4921 23.4628 15.2072 23.2415C14.9222 23.0202 14.7369 22.6948 14.6919 22.3369L14.3899 19.9355ZM15.3088 19.9744L15.4219 20.8742L18.1211 20.5348L18.008 19.635L15.3088 19.9744ZM15.535 21.7739L15.5916 22.2238C15.6066 22.3431 15.6684 22.4515 15.7634 22.5253C15.8583 22.5991 15.9787 22.6321 16.098 22.6171L17.8975 22.3908C18.0168 22.3758 18.1253 22.314 18.199 22.219C18.2728 22.1241 18.3058 22.0037 18.2908 21.8844L18.2342 21.4345L15.535 21.7739ZM13.3074 13.5503C13.894 12.7945 14.7503 12.2953 15.6968 12.1571C16.6476 12.0567 17.6005 12.3281 18.3558 12.9147C19.1129 13.5027 19.6124 14.3615 19.7491 15.3103C19.8409 15.9702 19.7444 16.6426 19.4708 17.2501C19.2111 17.8264 18.8021 18.322 18.2868 18.686L14.8037 19.124C14.2147 18.899 13.6959 18.5204 13.3018 18.0267C12.8864 17.5063 12.6263 16.8792 12.5514 16.2176C12.4484 15.2641 12.7194 14.3079 13.3074 13.5503Z" fill="#014958"/>
<path d="M9.79455 16.098C9.54609 16.1293 9.37001 16.356 9.40125 16.6044C9.43249 16.8529 9.65923 17.029 9.90768 16.9977L10.8074 16.8846C11.0559 16.8534 11.232 16.6266 11.2007 16.3782C11.1695 16.1297 10.9427 15.9536 10.6943 15.9849L9.79455 16.098Z" fill="#014958"/>
<path d="M10.2715 11.6086C10.4211 11.4078 10.7052 11.3663 10.906 11.5159L11.6455 12.067C11.8463 12.2166 11.8878 12.5007 11.7381 12.7015C11.5885 12.9023 11.3045 12.9438 11.1037 12.7941L10.3641 12.2431C10.1633 12.0935 10.1218 11.8094 10.2715 11.6086Z" fill="#014958"/>
<path d="M21.4911 14.6273C21.2426 14.6585 21.0665 14.8852 21.0978 15.1337C21.129 15.3821 21.3558 15.5582 21.6042 15.527L22.504 15.4139C22.7524 15.3826 22.9285 15.1559 22.8973 14.9074C22.866 14.659 22.6393 14.4829 22.3908 14.5141L21.4911 14.6273Z" fill="#014958"/>
<path d="M20.8172 10.2825C21.0119 10.44 21.042 10.7255 20.8845 10.9202L20.3045 11.6372C20.147 11.8319 19.8615 11.862 19.6668 11.7045C19.4721 11.547 19.442 11.2615 19.5995 11.0668L20.1796 10.3498C20.3371 10.1552 20.6226 10.125 20.8172 10.2825Z" fill="#014958"/>
</g>
<defs>
<clipPath id="clip0_3933_19149">
<rect width="14.5091" height="14.5091" fill="white" transform="translate(8.10352 9.91309) rotate(-7.16694)"/>
</clipPath>
</defs>
</svg>
