<svg width="24" height="24" viewBox="0 0 24 24" fill="none" xmlns="http://www.w3.org/2000/svg">
<path d="M21.675 19.3C21.675 19.3 20.375 17.9 20.375 11.4C20.375 9.2 19.475 7 17.875 5.4C16.475 4 14.675 3.1 12.675 3V0.8C12.775 0.3 12.375 0 11.975 0C11.575 0 11.175 0.3 11.175 0.8V3.1C9.175 3.3 7.375 4.1 5.975 5.5C4.375 7.1 3.475 9.2 3.475 11.5C3.475 17.5 2.075 19.4 2.075 19.5C1.975 19.7 1.975 20 2.075 20.3C2.175 20.6 2.475 20.7 2.775 20.7H8.275C8.475 21.6 8.975 22.4 9.575 22.9C10.275 23.6 11.175 24 12.075 24C12.975 24 13.875 23.6 14.575 22.9C15.175 22.3 15.575 21.5 15.875 20.7H21.375C21.675 20.7 21.975 20.5 22.075 20.2C21.975 19.9 21.975 19.6 21.675 19.3ZM13.375 21.8C12.575 22.6 11.475 22.6 10.675 21.8C10.375 21.5 10.175 21.1 9.975 20.6H14.175C13.875 21.1 13.675 21.5 13.375 21.8ZM3.975 19.1C4.475 17.8 5.075 15.5 5.075 11.4C5.075 9.6 5.775 7.8 7.075 6.5C8.375 5.2 10.075 4.5 11.975 4.5C13.875 4.5 15.575 5.2 16.875 6.5C18.175 7.8 18.875 9.5 18.875 11.4C18.875 15.5 19.375 17.8 19.875 19.1H3.975Z" fill="#3CB572"/>
</svg>
