<svg width="65" height="100" viewBox="0 0 65 100" fill="none" xmlns="http://www.w3.org/2000/svg">
<path d="M37.7472 95.0524C37.6118 97.664 35.4513 99.7399 32.806 99.7399C30.1607 99.7399 28.0002 97.664 27.8648 95.0524H37.7472Z" fill="#014958" stroke="#014958" stroke-width="0.520833"/>
<path d="M24.9941 81.5104H40.6191C42.2012 81.5104 43.4837 82.7929 43.4837 84.375C43.4837 85.9571 42.2012 87.2396 40.6191 87.2396H24.9941C23.4121 87.2396 22.1296 85.9571 22.1296 84.375C22.1296 82.7929 23.4121 81.5104 24.9941 81.5104Z" fill="#014958" stroke="#014958" stroke-width="0.520833"/>
<path d="M24.9941 88.2809H40.6191C42.2012 88.2809 43.4837 89.5634 43.4837 91.1455C43.4837 92.7276 42.2012 94.0101 40.6191 94.0101H24.9941C23.4121 94.0101 22.1296 92.7276 22.1296 91.1455C22.1296 89.5634 23.4121 88.2809 24.9941 88.2809Z" fill="#014958" stroke="#014958" stroke-width="0.520833"/>
<path d="M11.5 37.625C11.5 29.2717 18.2717 22.5 26.625 22.5H39.375C47.7283 22.5 54.5 29.2717 54.5 37.625V58.3098C54.5 62.2152 52.9893 65.9693 50.2843 68.7862L45.4538 73.8163C44.5362 74.7717 44.0238 76.0451 44.0238 77.3697C44.0238 79.6508 42.1746 81.5 39.8936 81.5H26.1065C23.8254 81.5 21.9762 79.6508 21.9762 77.3697C21.9762 76.0451 21.4638 74.7717 20.5462 73.8163L15.7157 68.7861C13.0106 65.9693 11.5 62.2152 11.5 58.3098V37.625Z" fill="white" stroke="#014958"/>
<circle cx="32.8066" cy="45.833" r="15.625" fill="#E3F6DC"/>
<path d="M37.5 81C37.5 81 37.5861 69.6601 38.75 62.5C39.5218 57.7519 41.8568 51.5235 43.4436 47.6418C43.9803 46.329 42.647 44.9741 41.3366 45.5166L39.3477 46.34C38.965 46.4984 38.535 46.4984 38.1523 46.34L33.0977 44.2474C32.715 44.089 32.285 44.089 31.9023 44.2474L26.8477 46.34C26.465 46.4984 26.035 46.4984 25.6523 46.34L23.6634 45.5166C22.353 44.9741 21.0197 46.329 21.5564 47.6418C23.1432 51.5235 25.4782 57.7519 26.25 62.5C27.4139 69.6601 27.5 81 27.5 81" stroke="#3CB572" stroke-width="2.60417"/>
<path d="M0.515625 11.4414H4.53642L9.65647 27.8607H8.3162L0.515625 11.4414Z" fill="#014958"/>
<path d="M64.4844 11.4414H60.4636L55.3435 27.8607H56.6838L64.4844 11.4414Z" fill="#014958"/>
<path d="M34.3691 0L30.7233 2.56222e-07L31.9071 16.6667L33.1224 16.6667L34.3691 0Z" fill="#3CB572"/>
</svg>
