<svg width="24" height="24" viewBox="0 0 24 24" fill="none" xmlns="http://www.w3.org/2000/svg">
<path fill-rule="evenodd" clip-rule="evenodd" d="M12 0C8.8174 0 5.76516 1.26428 3.51472 3.51472C1.26428 5.76516 0 8.8174 0 12C0 15.1826 1.26428 18.2348 3.51472 20.4853C5.76516 22.7357 8.8174 24 12 24C15.1826 24 18.2348 22.7357 20.4853 20.4853C22.7357 18.2348 24 15.1826 24 12C24 8.8174 22.7357 5.76516 20.4853 3.51472C18.2348 1.26428 15.1826 0 12 0ZM4.57538 4.57538C6.54451 2.60625 9.21523 1.5 12 1.5C14.7848 1.5 17.4555 2.60625 19.4246 4.57538C21.3938 6.54451 22.5 9.21523 22.5 12C22.5 14.7848 21.3938 17.4555 19.4246 19.4246C17.4555 21.3938 14.7848 22.5 12 22.5C9.21523 22.5 6.54451 21.3938 4.57538 19.4246C2.60625 17.4555 1.5 14.7848 1.5 12C1.5 9.21523 2.60625 6.54451 4.57538 4.57538ZM8.47171 7.40432C8.17882 7.11143 7.70394 7.11143 7.41105 7.40432C7.11816 7.69721 7.11816 8.17209 7.41105 8.46498L10.947 12.0009L7.41105 15.5369C7.11816 15.8297 7.11816 16.3046 7.41105 16.5975C7.70394 16.8904 8.17882 16.8904 8.47171 16.5975L12.0076 13.0616L15.5428 16.5967C15.8357 16.8896 16.3105 16.8896 16.6034 16.5967C16.8963 16.3038 16.8963 15.8289 16.6034 15.536L13.0683 12.0009L16.6034 8.46578C16.8963 8.17289 16.8963 7.69802 16.6034 7.40512C16.3105 7.11223 15.8357 7.11223 15.5428 7.40512L12.0076 10.9403L8.47171 7.40432Z" fill="#3CB572"/>
</svg>
