<svg width="25" height="24" viewBox="0 0 25 24" fill="none" xmlns="http://www.w3.org/2000/svg">
<path d="M15.6067 20.9102C15.104 21.3834 14.3129 21.3594 13.8398 20.8567C13.3666 20.354 13.3906 19.5629 13.8933 19.0897L20.098 13.25L1.75 13.25C1.05964 13.25 0.5 12.6904 0.5 12C0.5 11.3096 1.05964 10.75 1.75 10.75L20.098 10.75L13.8933 4.91025C13.3906 4.4371 13.3666 3.64601 13.8398 3.14329C14.3129 2.64057 15.104 2.6166 15.6067 3.08975L24.1067 11.0897C24.1295 11.1112 24.1514 11.1334 24.1723 11.1563C24.3778 11.3809 24.4949 11.6737 24.4998 11.9798C24.5 11.9865 24.5 11.9933 24.5 12C24.5 12.0067 24.5 12.0135 24.4998 12.0202C24.4943 12.3722 24.3432 12.6889 24.104 12.9128L15.6067 20.9102Z" fill="white"/>
</svg>
