<svg width="25" height="24" viewBox="0 0 25 24" fill="none" xmlns="http://www.w3.org/2000/svg">
<path d="M12.5 6.4C12.9418 6.4 13.3 6.75817 13.3 7.2V14.8686L15.9343 12.2343C16.2467 11.9219 16.7533 11.9219 17.0657 12.2343C17.3781 12.5467 17.3781 13.0533 17.0657 13.3657L13.0657 17.3657C12.989 17.4424 12.9006 17.5003 12.8062 17.5393C12.7119 17.5784 12.6085 17.6 12.5 17.6C12.4862 17.6 12.4725 17.5997 12.4588 17.599C12.3653 17.5942 12.2761 17.5734 12.1938 17.5393C12.0994 17.5003 12.011 17.4424 11.9343 17.3657L7.93431 13.3657C7.6219 13.0533 7.6219 12.5467 7.93431 12.2343C8.24673 11.9219 8.75327 11.9219 9.06569 12.2343L11.7 14.8686V7.2C11.7 6.75817 12.0582 6.4 12.5 6.4Z" fill="#014958"/>
<path fill-rule="evenodd" clip-rule="evenodd" d="M12.5 0C5.87258 0 0.5 5.37258 0.5 12C0.5 18.6274 5.87258 24 12.5 24C19.1274 24 24.5 18.6274 24.5 12C24.5 5.37258 19.1274 0 12.5 0ZM2.1 12C2.1 6.25624 6.75624 1.6 12.5 1.6C18.2438 1.6 22.9 6.25624 22.9 12C22.9 17.7438 18.2438 22.4 12.5 22.4C6.75624 22.4 2.1 17.7438 2.1 12Z" fill="#014958"/>
</svg>
