<svg width="16" height="16" viewBox="0 0 16 16" fill="none" xmlns="http://www.w3.org/2000/svg">
<path d="M10.2857 0.653061C10.2857 0.292385 10.5781 0 10.9388 0H15.3469C15.4355 0 15.5199 0.0176232 15.5969 0.0495534C15.6722 0.0806986 15.7428 0.126525 15.8044 0.187034L15.813 0.19556C15.9287 0.313387 16 0.474892 16 0.653061V5.06122C16 5.4219 15.7076 5.71429 15.3469 5.71429C14.9863 5.71429 14.6939 5.4219 14.6939 5.06122V2.22969L6.0128 10.9108C5.75777 11.1658 5.34427 11.1658 5.08924 10.9108C4.8342 10.6557 4.8342 10.2422 5.08924 9.9872L13.7703 1.30612H10.9388C10.5781 1.30612 10.2857 1.01374 10.2857 0.653061Z" fill="#666666"/>
<path d="M1.63265 2.93878C1.19965 2.93878 0.784375 3.11079 0.478193 3.41697C0.172011 3.72315 0 4.13842 0 4.57143V14.3673C0 14.8004 0.172011 15.2156 0.478193 15.5218C0.784376 15.828 1.19965 16 1.63265 16H11.4286C11.8616 16 12.2768 15.828 12.583 15.5218C12.8892 15.2156 13.0612 14.8004 13.0612 14.3673V8.4898C13.0612 8.12912 12.7688 7.83673 12.4082 7.83673C12.0475 7.83673 11.7551 8.12912 11.7551 8.4898V14.3673C11.7551 14.4539 11.7207 14.537 11.6595 14.5982C11.5982 14.6595 11.5152 14.6939 11.4286 14.6939H1.63265C1.54605 14.6939 1.463 14.6595 1.40176 14.5982C1.34053 14.537 1.30612 14.4539 1.30612 14.3673V4.57143C1.30612 4.48483 1.34052 4.40177 1.40176 4.34054C1.463 4.2793 1.54605 4.2449 1.63265 4.2449H7.5102C7.87088 4.2449 8.16327 3.95251 8.16327 3.59184C8.16327 3.23116 7.87088 2.93878 7.5102 2.93878H1.63265Z" fill="#666666"/>
</svg>
