<svg width="25" height="24" viewBox="0 0 25 24" fill="none" xmlns="http://www.w3.org/2000/svg">
<g clip-path="url(#clip0_1544_3816)">
<path d="M12.501 7.49707V16.4971" stroke="#014958" stroke-width="1.5" stroke-linecap="round" stroke-linejoin="round"/>
<path d="M8.75098 11.2471L12.501 7.49707L16.251 11.2471" stroke="#014958" stroke-width="1.5" stroke-linecap="round" stroke-linejoin="round"/>
<path d="M1.25098 11.9971C1.25098 14.9808 2.43624 17.8422 4.54603 19.952C6.65581 22.0618 9.51729 23.2471 12.501 23.2471C15.4847 23.2471 18.3461 22.0618 20.4559 19.952C22.5657 17.8422 23.751 14.9808 23.751 11.9971C23.751 9.01338 22.5657 6.1519 20.4559 4.04212C18.3461 1.93233 15.4847 0.74707 12.501 0.74707C9.51729 0.74707 6.65581 1.93233 4.54603 4.04212C2.43624 6.1519 1.25098 9.01338 1.25098 11.9971Z" stroke="#014958" stroke-width="1.5" stroke-linecap="round" stroke-linejoin="round"/>
</g>
<defs>
<clipPath id="clip0_1544_3816">
<rect width="24" height="24" fill="white" transform="translate(0.5)"/>
</clipPath>
</defs>
</svg>
