<svg width="240" height="240" viewBox="0 0 240 240" fill="none" xmlns="http://www.w3.org/2000/svg">
<ellipse cx="117.231" cy="183.659" rx="92.231" ry="14.3408" fill="#E3F6DC"/>
<path d="M81.3409 90.9495C83.3208 72.6359 98.7816 58.7563 117.202 58.7563C135.622 58.7563 151.083 72.6359 153.063 90.9495L163.303 185.671L152.706 171.119C146.726 162.908 134.478 162.908 128.498 171.119C122.917 178.783 111.487 178.783 105.906 171.119C99.926 162.908 87.6783 162.908 81.6981 171.119L71.1008 185.671L81.3409 90.9495Z" fill="white" stroke="#014958"/>
<circle cx="117.202" cy="116.232" r="2.79401" fill="#3CB572"/>
<path d="M83.5872 50.9781C84.2079 52.0884 83.8626 53.3092 83.3554 54.2677C82.8921 55.1403 82.7526 55.4944 83.112 56.1372L83.3145 56.4995L82.2276 57.1071L82.0055 56.7097C81.4566 55.728 81.6941 55.0277 82.3178 53.866C82.7099 53.1406 82.9278 52.4052 82.5031 51.6455C82.0914 50.9092 81.1691 50.796 80.2692 51.2991C78.9602 52.0308 79.0491 53.1777 79.4009 53.9167L78.3374 54.5113C77.4997 52.9854 78.1364 51.3256 79.796 50.3978C81.1166 49.6595 82.7966 49.5639 83.5872 50.9781ZM83.5076 59.6436L82.7562 58.2996L84.1002 57.5482L84.8516 58.8922L83.5076 59.6436Z" fill="#3CB572"/>
<path d="M143.837 39.6088C143.834 40.469 143.225 41.0734 142.608 41.4696C142.045 41.8298 141.845 41.992 141.844 42.49L141.843 42.7707L141.001 42.7677L141.002 42.4598C141.004 41.6993 141.377 41.3656 142.13 40.8884C142.602 40.5913 142.975 40.2305 142.977 39.642C142.979 39.0716 142.473 38.6985 141.776 38.696C140.762 38.6924 140.433 39.3974 140.395 39.9496L139.571 39.9467C139.584 38.7696 140.511 38.0033 141.796 38.008C142.82 38.0116 143.841 38.5133 143.837 39.6088ZM140.912 44.6869L140.916 43.6456L141.957 43.6494L141.954 44.6906L140.912 44.6869Z" fill="#014958"/>
<path d="M158.401 51.0527C157.853 52.5799 156.389 53.2706 155.042 53.5858C153.815 53.8713 153.357 54.0338 153.04 54.918L152.861 55.4163L151.366 54.88L151.562 54.3334C152.047 52.983 152.919 52.6246 154.559 52.2513C155.586 52.0206 156.475 51.6141 156.85 50.5691C157.214 49.5563 156.55 48.5742 155.312 48.1301C153.511 47.4842 152.483 48.5305 152.067 49.4881L150.604 48.9632C151.37 46.8791 153.5 46.1009 155.782 46.9198C157.599 47.5716 159.098 49.1075 158.401 51.0527ZM149.999 58.2362L150.662 56.3875L152.511 57.0507L151.848 58.8995L149.999 58.2362Z" fill="#3CB572"/>
<path fill-rule="evenodd" clip-rule="evenodd" d="M100.368 95.736L97.405 98.6995L101.356 102.65L97.4041 106.602L100.368 109.566L104.319 105.614L108.271 109.566L111.235 106.602L107.283 102.65L111.234 98.6996L108.27 95.7362L104.319 99.687L100.368 95.736Z" fill="#3CB572"/>
<path fill-rule="evenodd" clip-rule="evenodd" d="M124.816 95.7355L121.852 98.699L125.803 102.65L121.851 106.602L124.815 109.565L128.767 105.613L132.718 109.565L135.682 106.602L131.73 102.65L135.681 98.6992L132.717 95.7357L128.767 99.6865L124.816 95.7355Z" fill="#3CB572"/>
<path d="M160.732 135.566L151.827 120.14L140.333 126.776L149.239 142.201C151.071 145.375 155.13 146.463 158.304 144.63C161.477 142.798 162.565 138.739 160.732 135.566Z" fill="white"/>
<path d="M140.333 126.776L149.239 142.201C151.071 145.375 155.13 146.463 158.304 144.63V144.63C161.477 142.798 162.565 138.739 160.732 135.566L151.827 120.14" stroke="#014958"/>
<g clip-path="url(#clip0_1222_6878)">
<path d="M170.443 148.907C169.461 148.907 168.549 148.556 167.848 147.855C167.147 147.154 166.796 146.242 166.796 145.26C166.796 144.278 167.147 143.366 167.848 142.664L171.215 139.298C171.846 138.666 172.758 138.246 173.67 138.246C174.582 138.175 175.494 138.526 176.195 139.157C176.896 139.789 177.387 140.63 177.458 141.542C177.598 142.454 177.317 143.366 176.756 144.137C176.616 144.348 176.265 144.418 176.055 144.278C175.844 144.137 175.774 143.787 175.914 143.576C176.335 143.015 176.476 142.384 176.405 141.753C176.335 141.121 175.985 140.49 175.494 140.069C175.003 139.438 174.371 139.228 173.74 139.228C173.039 139.298 172.407 139.578 171.986 139.999L168.62 143.366C168.129 143.857 167.848 144.558 167.848 145.26C167.848 145.961 168.129 146.592 168.62 147.154C169.602 148.136 171.355 148.136 172.337 147.154L172.968 146.452C173.179 146.242 173.53 146.242 173.74 146.452C173.95 146.663 173.95 147.013 173.74 147.224L173.109 147.855C172.407 148.556 171.495 148.907 170.443 148.907Z" fill="#014958"/>
<path d="M176.616 146.452C175.704 146.452 174.862 146.172 174.231 145.54C173.53 144.909 173.109 144.067 172.968 143.155C172.828 142.244 173.109 141.332 173.67 140.56C173.81 140.35 174.161 140.28 174.371 140.42C174.582 140.56 174.652 140.911 174.512 141.121C174.091 141.682 173.95 142.314 174.021 142.945C174.091 143.576 174.441 144.208 174.932 144.628C175.423 145.049 176.055 145.26 176.756 145.26C177.387 145.26 178.019 144.979 178.51 144.488L181.877 141.121C182.297 140.771 182.578 140.139 182.578 139.438C182.578 138.737 182.297 138.105 181.806 137.544C180.824 136.562 179.071 136.562 178.089 137.544L177.528 138.105C177.317 138.316 176.967 138.316 176.756 138.105C176.546 137.895 176.616 137.544 176.826 137.334L177.317 136.843C178.019 136.141 178.931 135.791 179.913 135.791C180.895 135.791 181.806 136.141 182.508 136.843C183.209 137.544 183.56 138.456 183.56 139.438C183.56 140.42 183.209 141.332 182.508 142.033L179.141 145.4C178.51 146.031 177.598 146.452 176.686 146.452H176.616Z" fill="#014958"/>
</g>
<path d="M84.5964 142.202L93.5023 126.776L82.0088 120.141L73.1029 135.566C71.2705 138.74 72.3579 142.798 75.5317 144.631C78.7056 146.463 82.764 145.376 84.5964 142.202Z" fill="white"/>
<path d="M82.0088 120.141L73.1029 135.566C71.2705 138.74 72.3579 142.798 75.5317 144.631V144.631C78.7056 146.463 82.764 145.376 84.5964 142.202L93.5023 126.776" stroke="#014958"/>
<path fill-rule="evenodd" clip-rule="evenodd" d="M49.5197 140.279C49.5197 138.338 51.0934 136.764 53.0347 136.764C54.976 136.764 56.5498 138.338 56.5498 140.279C56.5498 142.221 54.976 143.794 53.0347 143.794C51.0934 143.794 49.5197 142.221 49.5197 140.279ZM53.0347 137.846C51.6907 137.846 50.6012 138.935 50.6012 140.279C50.6012 141.623 51.6907 142.713 53.0347 142.713C54.3787 142.713 55.4682 141.623 55.4682 140.279C55.4682 138.935 54.3787 137.846 53.0347 137.846Z" fill="#014958"/>
<path d="M53.5758 144.912C52.7617 144.809 51.9351 144.94 51.1926 145.29C50.4501 145.639 49.8223 146.193 49.3825 146.885C49.0399 147.425 48.8224 148.032 48.7427 148.661H54.4768C54.7754 148.661 55.0176 148.903 55.0176 149.202C55.0176 149.501 54.7754 149.743 54.4768 149.743H48.1677C48.0243 149.743 47.8867 149.686 47.7853 149.584C47.6838 149.483 47.6269 149.345 47.627 149.202C47.6274 148.176 47.9196 147.172 48.4694 146.306C49.0192 145.44 49.804 144.748 50.7321 144.311C51.6602 143.874 52.6934 143.711 53.7111 143.839C54.7288 143.967 55.689 144.382 56.4797 145.036C56.7099 145.226 56.7423 145.567 56.552 145.797C56.3618 146.027 56.0209 146.06 55.7907 145.869C55.1581 145.347 54.39 145.015 53.5758 144.912Z" fill="#014958"/>
<path d="M58.5854 150.807C58.288 151.149 57.8497 151.365 57.3609 151.365C56.4649 151.365 55.7386 150.639 55.7386 149.743C55.7386 148.847 56.4649 148.12 57.3609 148.12C57.7561 148.12 58.1182 148.262 58.3996 148.497C58.4214 148.478 58.4449 148.461 58.4701 148.446L61.1019 146.867C61.1273 146.852 61.1534 146.839 61.18 146.828C61.1579 146.722 61.1464 146.611 61.1464 146.498C61.1464 145.602 61.8727 144.876 62.7687 144.876C63.6647 144.876 64.391 145.602 64.391 146.498C64.391 147.394 63.6647 148.12 62.7687 148.12C62.3732 148.12 62.0109 147.979 61.7294 147.744C61.7074 147.762 61.6837 147.779 61.6583 147.795L59.0266 149.374C59.0015 149.389 58.9758 149.401 58.9495 149.412C58.9716 149.519 58.9832 149.629 58.9832 149.743C58.9832 149.767 58.9827 149.792 58.9816 149.816C59.0104 149.823 59.039 149.831 59.0672 149.843L61.4639 150.802C61.4922 150.813 61.5189 150.826 61.5441 150.842C61.8415 150.5 62.2799 150.284 62.7687 150.284C63.6647 150.284 64.391 151.01 64.391 151.906C64.391 152.802 63.6647 153.528 62.7687 153.528C61.8727 153.528 61.1464 152.802 61.1464 151.906C61.1464 151.881 61.1469 151.857 61.148 151.832C61.1192 151.826 61.0905 151.817 61.0622 151.806L58.6654 150.847C58.6373 150.836 58.6106 150.822 58.5854 150.807Z" fill="#014958"/>
<defs>
<clipPath id="clip0_1222_6878">
<rect width="16.7641" height="16.7641" fill="white" transform="translate(166.796 133.695)"/>
</clipPath>
</defs>
</svg>
