<svg width="24" height="24" viewBox="0 0 24 24" fill="none" xmlns="http://www.w3.org/2000/svg">
<path d="M11.4523 19.3C11.5519 19.4 11.6515 19.4 11.6515 19.5C11.751 19.5 11.8506 19.6 11.9502 19.6C12.0498 19.6 12.1494 19.6 12.249 19.5C12.3485 19.5 12.4481 19.4 12.4481 19.3L16.2324 15.5C16.5311 15.2 16.5311 14.7 16.2324 14.4C15.9336 14.1 15.4357 14.1 15.1369 14.4L12.6473 16.9V0.7C12.7469 0.3 12.3485 0 11.9502 0C11.5519 0 11.1535 0.3 11.1535 0.8V17L8.6639 14.5C8.36514 14.2 7.86722 14.2 7.56846 14.5C7.26971 14.8 7.26971 15.3 7.56846 15.6L11.4523 19.3Z" fill="#CAF769"/>
<path d="M23.1037 22.5H0.796681C0.39834 22.5 0 22.8 0 23.3C0 23.8 0.298755 24 0.796681 24H23.2033C23.6017 24 24 23.7 24 23.2C24 22.7 23.6017 22.5 23.1037 22.5Z" fill="#CAF769"/>
</svg>
