<svg width="10" height="16" viewBox="0 0 10 16" fill="none" xmlns="http://www.w3.org/2000/svg">
<path fill-rule="evenodd" clip-rule="evenodd" d="M0.550192 0.272808C0.859765 -0.0677548 1.3868 -0.0928771 1.72737 0.216696L9.23959 7.04534C9.36892 7.16284 9.4767 7.30709 9.55166 7.47142C9.62683 7.63621 9.66683 7.8161 9.66683 8.00001C9.66683 8.18392 9.62683 8.3638 9.55166 8.52859C9.4767 8.69293 9.36936 8.83678 9.24003 8.95428C9.23988 8.95441 9.24017 8.95415 9.24003 8.95428L1.72737 15.7833C1.3868 16.0929 0.859765 16.0678 0.550192 15.7272C0.240619 15.3866 0.265741 14.8596 0.606304 14.55L7.81202 8.00001L0.606304 1.44998C0.265741 1.14041 0.240619 0.613371 0.550192 0.272808Z" fill="#666666"/>
</svg>
