<svg width="160" height="160" viewBox="0 0 160 160" fill="none" xmlns="http://www.w3.org/2000/svg">
<path d="M35.9008 40.4892C38.3615 17.7406 57.5669 0.500488 80.4482 0.500488C103.33 0.500488 122.535 17.7406 124.996 40.4892L137.727 158.193L124.335 139.814C116.973 129.71 101.901 129.71 94.5385 139.814C87.5754 149.37 73.3211 149.37 66.358 139.814C58.9954 129.71 43.9235 129.71 36.561 139.814L23.1691 158.193L35.9008 40.4892Z" fill="#2B383B" stroke="#DCE4E5"/>
<rect x="64.7188" y="55.731" width="8.98876" height="10.7865" rx="4.49438" fill="#67DD95"/>
<rect x="87.1914" y="55.731" width="8.98876" height="10.7865" rx="4.49438" fill="#67DD95"/>
<path d="M113.657 87.2674V149.122L97.7499 141.257L97.5283 141.148L97.3067 141.257L80.8991 149.369L64.4914 141.257L64.2698 141.148L64.0482 141.257L48.1406 149.122V69.7144H96.1044L113.657 87.2674Z" fill="#152123" stroke="#DCE4E5"/>
<g clip-path="url(#clip0_4544_12704)">
<path fill-rule="evenodd" clip-rule="evenodd" d="M80.8988 107.325C81.0966 107.325 81.257 107.164 81.257 106.967C81.257 106.769 81.0966 106.608 80.8988 106.608V105.976C80.352 105.976 79.9087 106.42 79.9087 106.967C79.9087 107.513 80.352 107.957 80.8988 107.957V107.325Z" fill="#DCE4E5"/>
<path fill-rule="evenodd" clip-rule="evenodd" d="M80.8988 105.976C81.4457 105.976 81.889 106.42 81.889 106.967C81.889 107.513 81.4457 107.957 80.8988 107.957V107.325C80.701 107.325 80.5407 107.164 80.5407 106.967C80.5407 106.769 80.701 106.608 80.8988 106.608V105.976Z" fill="#DCE4E5"/>
<path fill-rule="evenodd" clip-rule="evenodd" d="M76.0112 106.967C76.0112 104.267 78.1995 102.079 80.8988 102.079C83.5982 102.079 85.7865 104.267 85.7865 106.967C85.7865 109.666 83.5982 111.854 80.8988 111.854C78.1995 111.854 76.0112 109.666 76.0112 106.967ZM80.8988 103.427C78.9441 103.427 77.3595 105.012 77.3595 106.967C77.3595 108.921 78.9441 110.506 80.8988 110.506C82.8535 110.506 84.4382 108.921 84.4382 106.967C84.4382 105.012 82.8535 103.427 80.8988 103.427Z" fill="#DCE4E5"/>
<path fill-rule="evenodd" clip-rule="evenodd" d="M80.8988 99.9722C81.2712 99.9722 81.573 100.274 81.573 100.646V103.806C81.573 104.179 81.2712 104.481 80.8988 104.481C80.5265 104.481 80.2247 104.179 80.2247 103.806V100.646C80.2247 100.274 80.5265 99.9722 80.8988 99.9722Z" fill="#DCE4E5"/>
<path fill-rule="evenodd" clip-rule="evenodd" d="M80.8988 109.453C81.2712 109.453 81.573 109.754 81.573 110.127V113.287C81.573 113.659 81.2712 113.961 80.8988 113.961C80.5265 113.961 80.2247 113.659 80.2247 113.287V110.127C80.2247 109.754 80.5265 109.453 80.8988 109.453Z" fill="#DCE4E5"/>
<path fill-rule="evenodd" clip-rule="evenodd" d="M83.3848 106.967C83.3848 106.594 83.6866 106.292 84.059 106.292H86.587C86.9594 106.292 87.2612 106.594 87.2612 106.967C87.2612 107.339 86.9594 107.641 86.587 107.641H84.059C83.6866 107.641 83.3848 107.339 83.3848 106.967Z" fill="#DCE4E5"/>
<path fill-rule="evenodd" clip-rule="evenodd" d="M74.5365 106.967C74.5365 106.594 74.8383 106.292 75.2106 106.292H77.7387C78.1111 106.292 78.4129 106.594 78.4129 106.967C78.4129 107.339 78.1111 107.641 77.7387 107.641H75.2106C74.8383 107.641 74.5365 107.339 74.5365 106.967Z" fill="#DCE4E5"/>
<path fill-rule="evenodd" clip-rule="evenodd" d="M78.5608 100.539C78.7176 100.877 78.5711 101.278 78.2334 101.435C75.8874 102.525 73.8552 104.19 72.3258 106.276C72.1754 106.485 72.0944 106.735 72.0944 106.992C72.0944 107.249 72.1754 107.499 72.326 107.708C73.8528 109.796 75.8853 111.462 78.2327 112.549C78.5705 112.705 78.7176 113.106 78.5611 113.444C78.4047 113.782 78.0039 113.929 77.6661 113.772C75.1108 112.589 72.8984 110.775 71.2366 108.502L71.2348 108.5C70.9172 108.061 70.7461 107.533 70.7461 106.992C70.7461 106.45 70.9172 105.923 71.2349 105.484L71.2371 105.481C72.901 103.21 75.1124 101.398 77.6653 100.212C78.003 100.055 78.4039 100.202 78.5608 100.539Z" fill="#DCE4E5"/>
<path fill-rule="evenodd" clip-rule="evenodd" d="M83.2369 100.489C83.3937 100.151 83.7946 100.004 84.1323 100.161C86.6853 101.347 88.8966 103.16 90.5606 105.43L90.5628 105.433C90.8804 105.872 91.0516 106.4 91.0516 106.941C91.0516 107.483 90.8804 108.011 90.5628 108.449L90.5611 108.451C88.8993 110.725 86.6868 112.538 84.1316 113.721C83.7937 113.878 83.393 113.731 83.2365 113.393C83.0801 113.055 83.2271 112.654 83.565 112.498C85.9124 111.411 87.9449 109.745 89.4716 107.657C89.6222 107.449 89.7033 107.198 89.7033 106.941C89.7033 106.684 89.6223 106.434 89.4718 106.226C87.9425 104.139 85.9103 102.474 83.5642 101.384C83.2266 101.227 83.08 100.826 83.2369 100.489Z" fill="#DCE4E5"/>
</g>
<path d="M96.8147 102.081C97.8167 98.1704 101.799 95.8127 105.709 96.8147L122.2 101.04L118.572 115.201L102.081 110.975C98.1704 109.973 95.8127 105.991 96.8147 102.081Z" fill="#2B383B"/>
<path d="M122.2 101.04L105.709 96.8147C101.799 95.8127 97.8167 98.1704 96.8147 102.081V102.081C95.8127 105.991 98.1704 109.973 102.081 110.975L118.572 115.201" stroke="#DCE4E5"/>
<path d="M64.3845 102.081C63.3826 98.1704 59.4004 95.8127 55.4901 96.8147L38.9992 101.04L42.6276 115.201L59.1186 110.975C63.0288 109.973 65.3865 105.991 64.3845 102.081Z" fill="#2B383B"/>
<path d="M38.9992 101.04L55.4901 96.8147C59.4004 95.8127 63.3826 98.1704 64.3845 102.081V102.081C65.3865 105.991 63.0288 109.973 59.1186 110.975L42.6276 115.201" stroke="#DCE4E5"/>
<mask id="path-10-inside-1_4544_12704" fill="white">
<path d="M0 35H160V125H0V35Z"/>
</mask>
<path d="M0 35H160V125H0V35Z" fill="url(#paint0_linear_4544_12704)"/>
<path d="M160 124.101H0V125.899H160V124.101Z" fill="#67DD95" mask="url(#path-10-inside-1_4544_12704)"/>
<path fill-rule="evenodd" clip-rule="evenodd" d="M159.999 0.00146484H149.213V10.788H149.213V1.79952H158.202V10.788H159.999V0.00146484Z" fill="#FF9802"/>
<path fill-rule="evenodd" clip-rule="evenodd" d="M-4.71494e-07 0.000103951L0 10.7866L1.79785 10.7866L1.79785 1.79786L10.7865 1.79786L10.7865 0.000103479L-4.71494e-07 0.000103951Z" fill="#FF9802"/>
<path fill-rule="evenodd" clip-rule="evenodd" d="M0.000592232 160.001L10.7871 160.001L10.7871 158.204L1.79835 158.204L1.79834 149.215L0.000591289 149.215L0.000592232 160.001Z" fill="#FF9802"/>
<path fill-rule="evenodd" clip-rule="evenodd" d="M160 160.001L160 149.214L149.213 149.214L149.213 160.001L160 160.001ZM158.202 158.203L158.202 149.214L149.213 149.214L149.213 158.203L158.202 158.203Z" fill="#FF9802"/>
<defs>
<linearGradient id="paint0_linear_4544_12704" x1="80" y1="35" x2="80.4355" y2="145.294" gradientUnits="userSpaceOnUse">
<stop stop-color="#152123" stop-opacity="0"/>
<stop offset="1" stop-color="#014958"/>
</linearGradient>
<clipPath id="clip0_4544_12704">
<rect width="21.573" height="21.573" fill="white" transform="translate(70.1133 96.1802)"/>
</clipPath>
</defs>
</svg>
