<svg width="500" height="500" viewBox="0 0 500 500" fill="none" xmlns="http://www.w3.org/2000/svg">
<ellipse cx="50.1035" cy="171" rx="5.5" ry="42" fill="#014958"/>
<ellipse cx="459.104" cy="171" rx="5.5" ry="42" fill="#014958"/>
<mask id="path-3-inside-1_1222_6339" fill="white">
<path fill-rule="evenodd" clip-rule="evenodd" d="M222.606 245.211C222.557 245.46 220.814 245.239 218.373 244.874C226.322 246.501 229.356 250.409 228.947 252.609C228.842 253.173 224.782 252.738 213.712 249.85C213.712 249.85 207.313 249.937 201.606 247.247C201.426 247.162 201.242 247.075 201.053 246.986L201.052 246.986C197.279 245.212 191.783 242.629 188.61 239.273C187.023 238.442 185.891 237.646 184.987 236.962C182.802 235.31 181.31 232.068 181.149 229.858C181.149 229.858 182.83 230.611 185.223 231.652C184.507 230.498 183.767 228.553 185.752 229.131C188.436 229.912 191.425 230.969 194.036 231.892C196.883 232.899 199.279 233.746 200.332 233.9C206.64 235.119 210.029 237.158 210.017 238.615C209.949 238.906 209.135 239.041 207.9 239.041C208.19 239.081 208.481 239.121 208.774 239.16C210.745 239.429 212.831 239.713 215.543 240.257C220.781 241.311 222.695 244.046 222.606 245.211Z"/>
</mask>
<path fill-rule="evenodd" clip-rule="evenodd" d="M222.606 245.211C222.557 245.46 220.814 245.239 218.373 244.874C226.322 246.501 229.356 250.409 228.947 252.609C228.842 253.173 224.782 252.738 213.712 249.85C213.712 249.85 207.313 249.937 201.606 247.247C201.426 247.162 201.242 247.075 201.053 246.986L201.052 246.986C197.279 245.212 191.783 242.629 188.61 239.273C187.023 238.442 185.891 237.646 184.987 236.962C182.802 235.31 181.31 232.068 181.149 229.858C181.149 229.858 182.83 230.611 185.223 231.652C184.507 230.498 183.767 228.553 185.752 229.131C188.436 229.912 191.425 230.969 194.036 231.892C196.883 232.899 199.279 233.746 200.332 233.9C206.64 235.119 210.029 237.158 210.017 238.615C209.949 238.906 209.135 239.041 207.9 239.041C208.19 239.081 208.481 239.121 208.774 239.16C210.745 239.429 212.831 239.713 215.543 240.257C220.781 241.311 222.695 244.046 222.606 245.211Z" fill="#014958"/>
<path d="M218.373 244.874L218.521 243.885L218.173 245.854L218.373 244.874ZM222.606 245.211L223.587 245.406L223.599 245.347L223.603 245.287L222.606 245.211ZM228.947 252.609L229.93 252.792L229.93 252.792L228.947 252.609ZM213.712 249.85L213.965 248.883L213.834 248.849L213.699 248.85L213.712 249.85ZM201.606 247.247L201.18 248.151L201.18 248.151L201.606 247.247ZM201.053 246.986L201.478 246.081L201.476 246.08L201.053 246.986ZM201.052 246.986L200.627 247.891L200.629 247.892L201.052 246.986ZM188.61 239.273L189.337 238.586L189.222 238.465L189.074 238.388L188.61 239.273ZM184.987 236.962L184.384 237.76L184.384 237.76L184.987 236.962ZM181.149 229.858L181.558 228.945L180.03 228.261L180.152 229.931L181.149 229.858ZM185.223 231.652L184.824 232.569L187.763 233.846L186.073 231.124L185.223 231.652ZM185.752 229.131L185.473 230.091L185.473 230.091L185.752 229.131ZM194.036 231.892L193.702 232.835L194.036 231.892ZM200.332 233.9L200.522 232.918L200.499 232.914L200.477 232.91L200.332 233.9ZM210.017 238.615L210.991 238.842L211.016 238.734L211.017 238.623L210.017 238.615ZM207.9 239.041L207.9 238.041L207.764 240.032L207.9 239.041ZM208.774 239.16L208.639 240.151L208.639 240.151L208.774 239.16ZM215.543 240.257L215.74 239.277L215.74 239.277L215.543 240.257ZM218.225 245.863C219.443 246.045 220.515 246.196 221.293 246.268C221.676 246.304 222.03 246.325 222.308 246.314C222.439 246.309 222.619 246.294 222.795 246.242C222.884 246.215 223.028 246.163 223.173 246.056C223.329 245.94 223.523 245.729 223.587 245.406L221.625 245.017C221.683 244.725 221.858 244.541 221.981 244.45C222.094 244.366 222.194 244.334 222.225 244.325C222.288 244.306 222.304 244.312 222.226 244.316C222.088 244.321 221.844 244.311 221.479 244.277C220.764 244.21 219.744 244.068 218.521 243.885L218.225 245.863ZM229.93 252.792C230.231 251.173 229.255 249.316 227.444 247.767C225.584 246.175 222.67 244.733 218.574 243.895L218.173 245.854C222.025 246.643 224.602 247.968 226.144 249.287C227.735 250.648 228.072 251.845 227.964 252.426L229.93 252.792ZM213.46 250.818C219.005 252.265 222.822 253.104 225.278 253.511C226.499 253.713 227.422 253.815 228.067 253.822C228.381 253.826 228.694 253.809 228.964 253.74C229.098 253.705 229.282 253.643 229.459 253.518C229.649 253.383 229.864 253.147 229.93 252.792L227.964 252.426C228.017 252.141 228.188 251.968 228.301 251.887C228.355 251.849 228.4 251.828 228.425 251.817C228.451 251.806 228.467 251.802 228.468 251.802C228.47 251.802 228.463 251.803 228.445 251.806C228.427 251.809 228.402 251.812 228.369 251.815C228.301 251.82 228.21 251.824 228.09 251.822C227.599 251.817 226.795 251.735 225.604 251.538C223.237 251.146 219.489 250.324 213.965 248.883L213.46 250.818ZM201.18 248.151C204.158 249.555 207.294 250.226 209.665 250.548C210.854 250.71 211.861 250.786 212.574 250.821C212.931 250.838 213.214 250.846 213.411 250.849C213.509 250.85 213.586 250.851 213.639 250.851C213.665 250.851 213.686 250.851 213.701 250.85C213.708 250.85 213.714 250.85 213.718 250.85C213.72 250.85 213.722 250.85 213.723 250.85C213.724 250.85 213.724 250.85 213.725 250.85C213.725 250.85 213.725 250.85 213.725 250.85C213.726 250.85 213.726 250.85 213.712 249.85C213.699 248.85 213.699 248.85 213.699 248.85C213.699 248.85 213.699 248.85 213.7 248.85C213.7 248.85 213.7 248.85 213.699 248.85C213.699 248.85 213.699 248.85 213.698 248.85C213.696 248.85 213.692 248.85 213.687 248.851C213.677 248.851 213.661 248.851 213.64 248.851C213.596 248.851 213.53 248.85 213.442 248.849C213.266 248.846 213.005 248.839 212.673 248.823C212.007 248.79 211.058 248.719 209.934 248.566C207.678 248.26 204.761 247.628 202.032 246.342L201.18 248.151ZM200.627 247.891C200.816 247.98 201 248.067 201.18 248.151L202.032 246.342C201.852 246.257 201.667 246.17 201.478 246.081L200.627 247.891ZM200.629 247.892L200.63 247.893L201.476 246.08L201.475 246.08L200.629 247.892ZM187.884 239.96C191.213 243.482 196.906 246.142 200.627 247.891L201.478 246.081C197.653 244.283 192.353 241.776 189.337 238.586L187.884 239.96ZM184.384 237.76C185.316 238.465 186.495 239.294 188.146 240.159L189.074 238.388C187.551 237.589 186.466 236.827 185.59 236.165L184.384 237.76ZM180.152 229.931C180.245 231.2 180.708 232.694 181.42 234.077C182.133 235.462 183.139 236.819 184.384 237.76L185.59 236.165C184.65 235.454 183.817 234.364 183.198 233.161C182.578 231.958 182.215 230.725 182.147 229.785L180.152 229.931ZM185.622 230.735C184.428 230.215 183.411 229.768 182.693 229.45C182.335 229.291 182.05 229.165 181.856 229.078C181.759 229.035 181.684 229.002 181.634 228.979C181.609 228.968 181.59 228.96 181.577 228.954C181.571 228.951 181.566 228.949 181.563 228.948C181.561 228.947 181.56 228.946 181.559 228.946C181.559 228.946 181.559 228.946 181.558 228.946C181.558 228.945 181.558 228.945 181.558 228.945C181.558 228.945 181.558 228.945 181.558 228.945C181.558 228.945 181.558 228.945 181.149 229.858C180.74 230.771 180.74 230.771 180.74 230.771C180.74 230.771 180.74 230.771 180.74 230.771C180.74 230.771 180.74 230.771 180.741 230.771C180.741 230.771 180.741 230.771 180.742 230.771C180.742 230.772 180.744 230.772 180.745 230.773C180.749 230.774 180.754 230.777 180.76 230.779C180.773 230.785 180.793 230.794 180.818 230.805C180.869 230.828 180.944 230.862 181.042 230.905C181.238 230.993 181.524 231.12 181.884 231.279C182.605 231.598 183.625 232.047 184.824 232.569L185.622 230.735ZM186.032 228.171C185.472 228.008 184.79 227.917 184.217 228.261C183.556 228.657 183.455 229.352 183.476 229.789C183.497 230.236 183.643 230.693 183.801 231.073C183.964 231.467 184.171 231.853 184.373 232.179L186.073 231.124C185.917 230.873 185.763 230.584 185.648 230.307C185.527 230.015 185.479 229.806 185.474 229.695C185.468 229.574 185.509 229.818 185.246 229.976C185.148 230.034 185.088 230.026 185.131 230.026C185.175 230.026 185.282 230.036 185.473 230.091L186.032 228.171ZM194.369 230.949C191.765 230.028 188.747 228.961 186.031 228.171L185.473 230.091C188.124 230.862 191.086 231.909 193.702 232.835L194.369 230.949ZM200.477 232.91C200.049 232.848 199.267 232.626 198.169 232.266C197.096 231.913 195.796 231.454 194.369 230.949L193.702 232.835C195.123 233.337 196.445 233.804 197.545 234.166C198.62 234.519 199.562 234.798 200.187 234.889L200.477 232.91ZM211.017 238.623C211.023 237.869 210.599 237.224 210.103 236.728C209.59 236.214 208.873 235.729 208.003 235.28C206.258 234.378 203.735 233.539 200.522 232.918L200.142 234.882C203.237 235.48 205.563 236.27 207.086 237.057C207.85 237.452 208.372 237.825 208.688 238.141C209.022 238.476 209.017 238.632 209.017 238.606L211.017 238.623ZM207.9 240.041C208.541 240.041 209.126 240.007 209.584 239.919C209.808 239.876 210.059 239.81 210.285 239.695C210.485 239.594 210.873 239.345 210.991 238.842L209.043 238.387C209.085 238.209 209.175 238.085 209.245 238.014C209.311 237.948 209.366 237.919 209.377 237.913C209.392 237.905 209.35 237.928 209.208 237.955C208.933 238.008 208.495 238.041 207.9 238.041L207.9 240.041ZM208.908 238.17C208.615 238.13 208.326 238.09 208.037 238.05L207.764 240.032C208.054 240.072 208.346 240.111 208.639 240.151L208.908 238.17ZM215.74 239.277C212.995 238.726 210.882 238.438 208.908 238.17L208.639 240.151C210.608 240.42 212.668 240.7 215.346 241.238L215.74 239.277ZM223.603 245.287C223.646 244.724 223.449 244.131 223.145 243.599C222.831 243.047 222.357 242.477 221.723 241.933C220.45 240.843 218.498 239.832 215.74 239.277L215.346 241.237C217.826 241.736 219.45 242.619 220.421 243.452C220.909 243.87 221.224 244.267 221.408 244.589C221.499 244.75 221.553 244.883 221.582 244.983C221.596 245.033 221.603 245.071 221.607 245.098C221.61 245.126 221.609 245.137 221.609 245.136L223.603 245.287Z" fill="#014958" mask="url(#path-3-inside-1_1222_6339)"/>
<mask id="path-5-inside-2_1222_6339" fill="white">
<path fill-rule="evenodd" clip-rule="evenodd" d="M284.268 242.546C284.318 242.796 286.074 242.574 288.534 242.207C280.513 243.851 277.451 247.795 277.864 250.016C277.97 250.586 282.071 250.147 293.251 247.23C293.251 247.23 299.715 247.318 305.479 244.6C305.66 244.515 305.847 244.427 306.038 244.337C309.848 242.546 315.398 239.937 318.603 236.548C320.207 235.708 321.351 234.904 322.264 234.214C324.471 232.545 325.977 229.27 326.14 227.038C326.14 227.038 324.443 227.799 322.026 228.85C322.749 227.685 323.496 225.72 321.491 226.304C318.781 227.093 315.761 228.161 313.125 229.093C310.249 230.11 307.829 230.965 306.766 231.121C300.394 232.353 296.971 234.411 296.984 235.883C297.052 236.177 297.873 236.313 299.119 236.314C298.827 236.354 298.534 236.394 298.239 236.434C296.248 236.705 294.141 236.992 291.402 237.542C286.111 238.606 284.179 241.369 284.268 242.546Z"/>
</mask>
<path fill-rule="evenodd" clip-rule="evenodd" d="M284.268 242.546C284.318 242.796 286.074 242.574 288.534 242.207C280.513 243.851 277.451 247.795 277.864 250.016C277.97 250.586 282.071 250.147 293.251 247.23C293.251 247.23 299.715 247.318 305.479 244.6C305.66 244.515 305.847 244.427 306.038 244.337C309.848 242.546 315.398 239.937 318.603 236.548C320.207 235.708 321.351 234.904 322.264 234.214C324.471 232.545 325.977 229.27 326.14 227.038C326.14 227.038 324.443 227.799 322.026 228.85C322.749 227.685 323.496 225.72 321.491 226.304C318.781 227.093 315.761 228.161 313.125 229.093C310.249 230.11 307.829 230.965 306.766 231.121C300.394 232.353 296.971 234.411 296.984 235.883C297.052 236.177 297.873 236.313 299.119 236.314C298.827 236.354 298.534 236.394 298.239 236.434C296.248 236.705 294.141 236.992 291.402 237.542C286.111 238.606 284.179 241.369 284.268 242.546Z" fill="#014958"/>
<path d="M288.534 242.207L288.386 241.218L288.735 243.186L288.534 242.207ZM284.268 242.546L283.287 242.74L283.276 242.681L283.271 242.621L284.268 242.546ZM277.864 250.016L276.881 250.199L276.881 250.199L277.864 250.016ZM293.251 247.23L292.998 246.263L293.129 246.229L293.264 246.23L293.251 247.23ZM305.479 244.6L305.052 243.696L305.052 243.696L305.479 244.6ZM306.038 244.337L306.463 245.242L306.463 245.242L306.038 244.337ZM318.603 236.548L317.877 235.861L317.991 235.74L318.139 235.663L318.603 236.548ZM322.264 234.214L322.867 235.012L322.867 235.012L322.264 234.214ZM326.14 227.038L325.731 226.126L327.259 225.441L327.137 227.111L326.14 227.038ZM322.026 228.85L322.425 229.767L319.487 231.044L321.176 228.322L322.026 228.85ZM321.491 226.304L321.771 227.264L321.771 227.264L321.491 226.304ZM313.125 229.093L312.791 228.15L313.125 229.093ZM306.766 231.121L306.576 230.139L306.598 230.135L306.621 230.131L306.766 231.121ZM296.984 235.883L296.01 236.11L295.985 236.002L295.984 235.892L296.984 235.883ZM299.119 236.314L299.119 235.314L299.256 237.304L299.119 236.314ZM298.239 236.434L298.374 237.425L298.239 236.434ZM291.402 237.542L291.205 236.561L291.205 236.561L291.402 237.542ZM288.681 243.196C287.454 243.379 286.374 243.53 285.59 243.603C285.204 243.639 284.848 243.661 284.568 243.649C284.437 243.644 284.256 243.629 284.079 243.576C283.99 243.55 283.846 243.498 283.701 243.39C283.545 243.274 283.351 243.063 283.287 242.74L285.249 242.351C285.191 242.059 285.017 241.876 284.894 241.784C284.781 241.7 284.682 241.669 284.651 241.66C284.588 241.641 284.572 241.647 284.651 241.651C284.791 241.656 285.037 241.646 285.404 241.612C286.126 241.545 287.154 241.402 288.386 241.218L288.681 243.196ZM276.881 250.199C276.578 248.57 277.559 246.699 279.386 245.136C281.262 243.53 284.201 242.074 288.333 241.227L288.735 243.186C284.846 243.983 282.244 245.322 280.687 246.655C279.08 248.03 278.737 249.242 278.847 249.834L276.881 250.199ZM293.503 248.198C287.903 249.659 284.048 250.507 281.568 250.918C280.335 251.122 279.403 251.224 278.752 251.232C278.436 251.235 278.12 251.218 277.849 251.149C277.715 251.114 277.53 251.052 277.353 250.927C277.163 250.791 276.947 250.555 276.881 250.199L278.847 249.833C278.794 249.549 278.623 249.376 278.51 249.296C278.457 249.257 278.412 249.236 278.387 249.226C278.361 249.215 278.346 249.211 278.345 249.211C278.344 249.211 278.351 249.213 278.37 249.216C278.388 249.218 278.413 249.221 278.447 249.224C278.516 249.23 278.609 249.233 278.729 249.232C279.226 249.226 280.039 249.143 281.242 248.944C283.633 248.549 287.419 247.718 292.998 246.263L293.503 248.198ZM305.905 245.505C302.898 246.923 299.732 247.6 297.338 247.925C296.137 248.089 295.12 248.165 294.4 248.2C294.04 248.218 293.754 248.226 293.555 248.229C293.456 248.23 293.379 248.231 293.325 248.231C293.299 248.231 293.278 248.23 293.263 248.23C293.256 248.23 293.25 248.23 293.246 248.23C293.243 248.23 293.242 248.23 293.24 248.23C293.24 248.23 293.239 248.23 293.239 248.23C293.238 248.23 293.238 248.23 293.238 248.23C293.238 248.23 293.237 248.23 293.251 247.23C293.264 246.23 293.264 246.23 293.264 246.23C293.264 246.23 293.264 246.23 293.264 246.23C293.264 246.23 293.264 246.23 293.264 246.23C293.264 246.23 293.265 246.23 293.266 246.23C293.268 246.23 293.271 246.23 293.276 246.23C293.286 246.231 293.302 246.231 293.324 246.231C293.368 246.231 293.436 246.23 293.524 246.229C293.702 246.226 293.966 246.219 294.302 246.203C294.974 246.17 295.933 246.098 297.068 245.943C299.347 245.633 302.295 244.996 305.052 243.696L305.905 245.505ZM306.463 245.242C306.272 245.332 306.086 245.42 305.905 245.505L305.052 243.696C305.234 243.61 305.421 243.522 305.612 243.432L306.463 245.242ZM319.33 237.236C315.968 240.79 310.222 243.475 306.463 245.242L305.612 243.432C309.475 241.617 314.828 239.084 317.877 235.861L319.33 237.236ZM322.867 235.012C321.926 235.723 320.735 236.561 319.067 237.434L318.139 235.663C319.679 234.856 320.775 234.086 321.661 233.416L322.867 235.012ZM327.137 227.111C327.044 228.392 326.576 229.899 325.857 231.295C325.138 232.693 324.123 234.062 322.867 235.012L321.661 233.416C322.612 232.697 323.454 231.595 324.079 230.379C324.706 229.163 325.073 227.917 325.143 226.966L327.137 227.111ZM321.627 227.933C322.833 227.408 323.86 226.956 324.585 226.636C324.947 226.475 325.234 226.348 325.43 226.26C325.528 226.217 325.603 226.183 325.654 226.16C325.68 226.149 325.699 226.14 325.712 226.134C325.718 226.132 325.723 226.129 325.726 226.128C325.728 226.127 325.729 226.127 325.73 226.126C325.73 226.126 325.731 226.126 325.731 226.126C325.731 226.126 325.731 226.126 325.731 226.126C325.731 226.126 325.731 226.126 325.731 226.126C325.731 226.126 325.731 226.126 326.14 227.038C326.549 227.951 326.549 227.951 326.549 227.951C326.549 227.951 326.549 227.951 326.549 227.951C326.549 227.951 326.549 227.951 326.548 227.951C326.548 227.951 326.548 227.951 326.548 227.952C326.547 227.952 326.545 227.953 326.544 227.953C326.54 227.955 326.535 227.957 326.529 227.96C326.516 227.966 326.496 227.975 326.47 227.986C326.419 228.009 326.343 228.043 326.244 228.087C326.046 228.175 325.758 228.303 325.394 228.464C324.666 228.787 323.635 229.24 322.425 229.767L321.627 227.933ZM321.212 225.344C321.776 225.18 322.461 225.089 323.036 225.434C323.699 225.831 323.801 226.528 323.78 226.968C323.759 227.418 323.612 227.879 323.453 228.261C323.289 228.659 323.08 229.048 322.876 229.377L321.176 228.322C321.334 228.068 321.49 227.776 321.606 227.496C321.728 227.2 321.777 226.988 321.783 226.874C321.788 226.751 321.746 226.993 322.008 227.15C322.104 227.207 322.163 227.198 322.119 227.198C322.073 227.198 321.964 227.208 321.771 227.264L321.212 225.344ZM312.791 228.15C315.422 227.22 318.469 226.142 321.212 225.344L321.771 227.264C319.093 228.044 316.101 229.101 313.458 230.036L312.791 228.15ZM306.621 230.131C307.054 230.068 307.845 229.844 308.953 229.48C310.038 229.124 311.35 228.66 312.791 228.15L313.458 230.036C312.023 230.543 310.688 231.015 309.577 231.38C308.491 231.737 307.541 232.018 306.91 232.11L306.621 230.131ZM295.984 235.892C295.977 235.133 296.404 234.485 296.903 233.985C297.421 233.467 298.144 232.977 299.022 232.524C300.784 231.613 303.331 230.766 306.576 230.139L306.955 232.103C303.829 232.707 301.479 233.505 299.94 234.3C299.167 234.7 298.639 235.078 298.319 235.398C297.98 235.736 297.984 235.897 297.984 235.875L295.984 235.892ZM299.119 237.314C298.473 237.313 297.883 237.279 297.422 237.191C297.196 237.147 296.943 237.081 296.717 236.965C296.516 236.863 296.128 236.614 296.01 236.11L297.958 235.656C297.916 235.478 297.826 235.354 297.756 235.284C297.691 235.217 297.636 235.189 297.626 235.184C297.611 235.176 297.654 235.199 297.798 235.226C298.076 235.28 298.519 235.313 299.119 235.314L299.119 237.314ZM298.104 235.443C298.4 235.403 298.691 235.363 298.982 235.323L299.256 237.304C298.963 237.345 298.669 237.385 298.374 237.425L298.104 235.443ZM291.205 236.561C293.977 236.005 296.111 235.715 298.104 235.443L298.374 237.425C296.385 237.696 294.304 237.979 291.599 238.522L291.205 236.561ZM283.271 242.621C283.228 242.055 283.427 241.458 283.732 240.922C284.049 240.366 284.527 239.79 285.167 239.242C286.45 238.142 288.42 237.121 291.205 236.561L291.599 238.522C289.093 239.026 287.451 239.919 286.468 240.761C285.975 241.183 285.656 241.586 285.47 241.912C285.377 242.075 285.323 242.21 285.293 242.312C285.279 242.363 285.271 242.402 285.268 242.43C285.264 242.458 285.265 242.471 285.265 242.47L283.271 242.621Z" fill="#014958" mask="url(#path-5-inside-2_1222_6339)"/>
<mask id="path-7-inside-3_1222_6339" fill="white">
<path fill-rule="evenodd" clip-rule="evenodd" d="M211.705 223.102C212.486 223.784 215.047 224.825 216.279 225.082C214.983 224.513 213.271 223.883 212.328 223.095C207.84 219.33 210.491 213.047 216.285 213.966C217.342 214.134 219.147 214.983 220.594 215.698C219.625 215.007 216.779 213.645 215.751 213.418C210.919 212.345 206.042 218.158 211.705 223.102Z"/>
</mask>
<path fill-rule="evenodd" clip-rule="evenodd" d="M211.705 223.102C212.486 223.784 215.047 224.825 216.279 225.082C214.983 224.513 213.271 223.883 212.328 223.095C207.84 219.33 210.491 213.047 216.285 213.966C217.342 214.134 219.147 214.983 220.594 215.698C219.625 215.007 216.779 213.645 215.751 213.418C210.919 212.345 206.042 218.158 211.705 223.102Z" fill="#A98116"/>
<path d="M211.705 223.102L212.363 222.349L212.363 222.349L211.705 223.102ZM216.279 225.082L216.074 226.061L216.681 224.167L216.279 225.082ZM212.328 223.095L211.685 223.861L211.686 223.862L212.328 223.095ZM216.285 213.966L216.442 212.978L216.442 212.978L216.285 213.966ZM220.594 215.698L220.151 216.594L221.174 214.884L220.594 215.698ZM215.751 213.418L215.534 214.394L215.535 214.394L215.751 213.418ZM211.047 223.855C211.572 224.313 212.546 224.797 213.433 225.172C214.351 225.561 215.367 225.913 216.074 226.061L216.483 224.103C215.958 223.994 215.078 223.697 214.213 223.331C213.316 222.951 212.619 222.573 212.363 222.349L211.047 223.855ZM216.681 224.167C215.978 223.858 215.298 223.59 214.591 223.263C213.897 222.942 213.334 222.633 212.969 222.327L211.686 223.862C212.265 224.346 213.03 224.745 213.752 225.078C214.46 225.406 215.284 225.737 215.876 225.998L216.681 224.167ZM212.97 222.329C211.032 220.703 210.733 218.652 211.37 217.168C212 215.698 213.644 214.56 216.128 214.954L216.442 212.978C213.131 212.453 210.553 213.998 209.531 216.38C208.516 218.749 209.135 221.722 211.685 223.861L212.97 222.329ZM216.128 214.954C216.528 215.017 217.147 215.228 217.904 215.548C218.64 215.859 219.431 216.239 220.151 216.594L221.037 214.801C220.309 214.442 219.474 214.04 218.682 213.705C217.91 213.38 217.099 213.083 216.442 212.978L216.128 214.954ZM221.174 214.884C220.613 214.484 219.591 213.939 218.623 213.48C217.668 213.028 216.605 212.583 215.967 212.441L215.535 214.394C215.925 214.48 216.799 214.83 217.766 215.288C218.72 215.74 219.605 216.221 220.014 216.512L221.174 214.884ZM215.968 212.441C213.113 211.807 210.253 213.2 208.926 215.504C208.252 216.674 207.972 218.083 208.291 219.563C208.609 221.039 209.505 222.509 211.048 223.855L212.363 222.349C211.074 221.223 210.456 220.112 210.246 219.141C210.038 218.175 210.217 217.27 210.659 216.502C211.563 214.933 213.557 213.955 215.534 214.394L215.968 212.441Z" fill="black" mask="url(#path-7-inside-3_1222_6339)"/>
<mask id="path-9-inside-4_1222_6339" fill="white">
<path fill-rule="evenodd" clip-rule="evenodd" d="M226.883 232.3C226.748 232.245 216.382 235.461 219.295 240.159C218.82 238.09 219.798 235.686 226.883 232.3Z"/>
</mask>
<path fill-rule="evenodd" clip-rule="evenodd" d="M226.883 232.3C226.748 232.245 216.382 235.461 219.295 240.159C218.82 238.09 219.798 235.686 226.883 232.3Z" fill="#A98116"/>
<path d="M226.883 232.3L227.314 233.203L229.352 232.229L227.261 231.375L226.883 232.3ZM219.295 240.159L218.445 240.686L220.27 239.935L219.295 240.159ZM227.261 231.375C227.077 231.3 226.917 231.3 226.891 231.3C226.835 231.299 226.789 231.303 226.765 231.306C226.715 231.311 226.672 231.319 226.648 231.324C226.595 231.334 226.539 231.348 226.489 231.361C226.386 231.388 226.252 231.427 226.097 231.476C225.785 231.575 225.36 231.721 224.869 231.912C223.889 232.293 222.612 232.862 221.421 233.596C220.25 234.318 219.058 235.264 218.37 236.435C218.018 237.035 217.786 237.716 217.779 238.461C217.772 239.211 217.994 239.958 218.445 240.686L220.145 239.631C219.867 239.184 219.776 238.804 219.779 238.479C219.782 238.15 219.883 237.809 220.095 237.448C220.536 236.697 221.397 235.961 222.471 235.299C223.524 234.649 224.681 234.131 225.593 233.777C226.046 233.601 226.43 233.468 226.7 233.383C226.836 233.34 226.936 233.311 226.997 233.295C227.03 233.287 227.04 233.285 227.034 233.286C227.033 233.286 227.009 233.291 226.973 233.295C226.956 233.297 226.916 233.3 226.864 233.3C226.843 233.299 226.686 233.3 226.504 233.226L227.261 231.375ZM220.27 239.935C220.178 239.537 220.163 239.158 220.257 238.766C220.351 238.372 220.567 237.909 221.022 237.364C221.953 236.249 223.811 234.876 227.314 233.203L226.451 231.398C222.87 233.11 220.697 234.632 219.486 236.083C218.87 236.821 218.489 237.558 218.311 238.302C218.133 239.049 218.174 239.746 218.32 240.382L220.27 239.935Z" fill="black" mask="url(#path-9-inside-4_1222_6339)"/>
<path d="M168.312 374.113V274.218H273.085V374.113H168.312Z" fill="#3CB572" stroke="black"/>
<path d="M132.425 374.113V274.218H237.198V374.113H132.425Z" fill="white" stroke="black"/>
<path d="M272.798 312.214H237.739V329.4H272.798V312.214Z" fill="#E3F6DC"/>
<path d="M237.052 312.214H132.562V329.4H237.052V312.214Z" fill="#E3F6DC"/>
<path d="M159.955 286.449H140.923V295.615H159.955V286.449Z" fill="#3CB572"/>
<path d="M159.956 286.449H143.704V295.615H159.956V286.449Z" fill="#014958"/>
<path d="M220.174 243.5V98.5H326.174V243.5H220.174Z" fill="#3CB572" stroke="#014958"/>
<path d="M184.174 243.5V98.5H290.174V243.5H184.174Z" fill="white" stroke="#014958"/>
<path d="M268.876 144.322H194.729V166.506H268.876V144.322Z" fill="#E3F6DC"/>
<path d="M218.246 156.914C218.246 155.354 217.154 154.678 216.127 154.678C215.152 154.678 214.515 155.25 214.307 155.718L213.124 155.653L213.735 150.583H219.143V151.688H214.697L214.372 154.366C214.866 153.885 215.62 153.651 216.4 153.651C218.051 153.651 219.494 154.821 219.494 156.901C219.494 159.059 217.895 160.177 216.14 160.177C213.956 160.177 212.968 158.799 212.786 157.278H214.008C214.19 158.461 214.827 159.189 216.14 159.189C217.271 159.189 218.246 158.37 218.246 156.914ZM224.4 160.177C221.891 160.177 220.734 158.279 220.734 155.289C220.734 152.312 221.891 150.414 224.4 150.414C226.909 150.414 228.066 152.312 228.066 155.289C228.066 158.279 226.909 160.177 224.4 160.177ZM224.4 151.402C222.918 151.402 221.995 152.676 221.995 155.289C221.995 157.915 222.918 159.189 224.4 159.189C225.882 159.189 226.805 157.915 226.805 155.289C226.805 152.676 225.882 151.402 224.4 151.402ZM240.734 153.326H239.447C239.135 152.273 238.277 151.532 236.769 151.532C235.105 151.532 233.805 152.832 233.805 155.276C233.805 157.655 235.027 159.059 236.769 159.059C238.03 159.059 239.551 158.539 239.551 156.589V156.342H237.055V155.198H240.799V160.008H239.759L239.694 158.825C239.083 159.787 237.978 160.177 236.717 160.177C234 160.177 232.453 158.149 232.453 155.276C232.453 152.351 234.182 150.414 236.834 150.414C238.784 150.414 240.344 151.506 240.734 153.326ZM242.912 150.583H246.305C248.06 150.583 249.62 151.038 249.62 152.91C249.62 153.807 249.23 154.613 248.58 154.99C249.477 155.367 250.01 156.069 250.01 157.226C250.01 159.228 248.515 160.008 246.63 160.008H242.912V150.583ZM244.238 154.613H246.513C247.592 154.613 248.281 154.197 248.281 153.092C248.281 152.13 247.566 151.701 246.513 151.701H244.238V154.613ZM244.238 158.89H246.643C247.982 158.89 248.645 158.305 248.645 157.239C248.645 156.134 247.982 155.666 246.565 155.666H244.238V158.89Z" fill="#014958"/>
<path d="M189.58 155.244V156.955H191.143V158.175H189.58V159.886H191.143V161.105H189.58V162.817H191.143V164.036H189.58V165.747H204.895V164.036H203.33V162.817H204.895V161.105H203.33V159.886H204.895V158.175H203.33V156.955H204.895V155.244H189.58Z" fill="#3CB572"/>
<path d="M258.064 150.164V151.875H259.628V153.095H258.064V154.806H259.628V156.025H258.064V157.737H259.628V158.956H258.064V160.667H273.379V158.956H271.814V157.737H273.379V156.025H271.814V154.806H273.379V153.095H271.814V151.875H273.379V150.164H258.064Z" fill="#3CB572"/>
<rect x="260.162" y="264.729" width="69.0741" height="120.9" fill="white" stroke="black"/>
<path d="M323.939 280.538H303.458V289.905H323.939V280.538Z" fill="#3CB572"/>
<path d="M323.939 280.538H308.688V289.905H323.939V280.538Z" fill="#014958"/>
<rect x="329.506" y="264.729" width="34.767" height="120.9" fill="#3CB572" stroke="black"/>
<rect x="121.474" y="332.613" width="109.951" height="53.0154" fill="white" stroke="#014958"/>
<path d="M114.369 353.511L121.335 332.613H231.231L224.265 353.511H114.369Z" fill="#014958" stroke="#014958"/>
<rect x="231.694" y="332.613" width="48.6358" height="53.0154" fill="#3CB572" stroke="#014958"/>
<path d="M238.854 353.511L231.888 332.613H280.47L287.436 353.511H238.854Z" fill="#014958" stroke="#014958"/>
<path d="M332.946 386.23V362.5H402.329V386.23H332.946Z" fill="#014958" stroke="black"/>
<path d="M309.065 386.23V362.5H378.448V386.23H309.065Z" fill="#E3F6DC" stroke="black"/>
<path d="M166.582 211.613L166.54 211.115L166.582 211.613C177.194 210.706 184.245 214.468 191.534 219.073C196.808 222.406 200.762 224.566 203.534 226.081C203.681 226.161 203.824 226.239 203.964 226.316C205.363 227.081 206.415 227.663 207.166 228.151C207.763 228.539 208.111 228.832 208.294 229.061C207.816 229.862 206.55 230.574 204.322 230.743C201.932 230.924 198.589 230.459 194.412 228.945C193.245 228.522 192.193 228.135 191.253 227.789C189.248 227.05 187.746 226.497 186.689 226.173C185.932 225.942 185.313 225.797 184.882 225.83C184.658 225.847 184.373 225.92 184.186 226.173C184.001 226.422 184.011 226.713 184.053 226.927C184.127 227.3 184.355 227.784 184.657 228.312C184.967 228.855 185.384 229.496 185.879 230.197C186.87 231.6 188.188 233.268 189.621 234.924C191.055 236.581 192.61 238.232 194.077 239.6C195.523 240.948 196.918 242.054 198.043 242.597C203.174 245.752 213.229 249.044 218.442 250.594L218.442 250.594L218.452 250.597C220.922 251.274 224.262 252.579 226.886 254.17C228.2 254.966 229.306 255.817 230.036 256.674C230.724 257.482 231.027 258.233 230.95 258.921C230.932 258.93 230.906 258.94 230.871 258.951C230.738 258.992 230.522 259.022 230.188 259.024C229.523 259.027 228.521 258.921 227.06 258.707C225.553 258.485 223.599 258.156 221.086 257.732C218.735 257.336 215.895 256.857 212.473 256.307C206.305 255.315 202.156 254.811 199.208 254.453C198.513 254.369 197.884 254.293 197.312 254.22C194.304 253.838 192.907 253.56 191.47 252.776L191.47 252.776C188.358 251.077 181.78 246.744 175.657 242.655C174.187 241.673 172.742 240.704 171.38 239.792C169.916 238.81 168.547 237.893 167.346 237.092C165.039 235.554 163.312 234.421 162.694 234.083C162.567 234.013 162.342 233.92 162.059 233.81C161.764 233.696 161.376 233.553 160.902 233.384C159.954 233.045 158.653 232.597 157.052 232.055C153.849 230.972 149.438 229.515 144.228 227.811C133.81 224.405 120.197 220.015 106.678 215.676C93.158 211.337 79.731 207.049 69.684 203.846C64.6605 202.244 60.482 200.913 57.5593 199.983C56.098 199.518 54.9506 199.153 54.1685 198.905L53.2759 198.621L53.0471 198.548L53.0097 198.536C52.8622 198.455 52.6714 198.268 52.4554 197.913C52.2313 197.545 52.0086 197.041 51.7912 196.408C51.3567 195.142 50.9658 193.423 50.6176 191.382C49.9219 187.303 49.4087 182.008 49.0417 176.63C48.3718 166.814 48.1932 156.79 48.2701 153.484C57.9284 158.331 70.9315 165.214 84.8055 172.558C95.0343 177.973 105.737 183.638 115.921 188.923C128.079 195.232 139.497 200.997 148.472 205.134C152.959 207.203 156.843 208.869 159.909 209.993C161.441 210.555 162.777 210.984 163.886 211.261C164.984 211.535 165.903 211.671 166.582 211.613ZM230.991 258.896C230.992 258.894 230.993 258.894 230.993 258.893C230.994 258.893 230.993 258.894 230.991 258.896Z" fill="#CF9E1B" stroke="#014958"/>
<path d="M340.853 208.606L340.896 208.108L340.853 208.606C330.134 207.689 323.011 211.49 315.649 216.141C310.322 219.507 306.329 221.689 303.529 223.219C303.381 223.3 303.236 223.379 303.095 223.456C301.682 224.229 300.619 224.817 299.86 225.31C299.255 225.703 298.903 226 298.717 226.233C299.201 227.045 300.481 227.766 302.735 227.937C305.15 228.12 308.527 227.651 312.746 226.121C313.926 225.694 314.987 225.303 315.937 224.953C317.962 224.207 319.479 223.648 320.547 223.322C321.311 223.088 321.935 222.941 322.37 222.975C322.595 222.992 322.882 223.066 323.069 223.319C323.255 223.569 323.245 223.861 323.202 224.077C323.128 224.452 322.898 224.941 322.593 225.474C322.28 226.023 321.859 226.67 321.359 227.378C320.358 228.795 319.027 230.479 317.58 232.152C316.132 233.825 314.561 235.493 313.08 236.874C311.619 238.236 310.211 239.352 309.075 239.901C303.893 243.086 293.738 246.411 288.473 247.977L288.473 247.977L288.463 247.98C285.968 248.664 282.594 249.983 279.943 251.589C278.616 252.393 277.498 253.253 276.76 254.12C276.064 254.937 275.757 255.698 275.836 256.395C275.855 256.405 275.882 256.416 275.919 256.427C276.055 256.469 276.273 256.499 276.61 256.501C277.283 256.505 278.295 256.397 279.77 256.181C281.293 255.957 283.266 255.624 285.804 255.196C288.179 254.796 291.048 254.312 294.503 253.757C300.733 252.755 304.924 252.246 307.901 251.885C308.603 251.799 309.238 251.722 309.817 251.649C312.855 251.263 314.267 250.983 315.719 250.19L315.719 250.19C318.862 248.474 325.506 244.097 331.69 239.967C333.175 238.975 334.635 237.997 336.01 237.076C337.489 236.084 338.871 235.158 340.084 234.349C342.414 232.796 344.159 231.651 344.783 231.31C345.015 231.182 345.578 230.971 346.369 230.697C347.181 230.414 348.285 230.047 349.642 229.605C352.303 228.738 355.948 227.579 360.301 226.195L360.56 226.112C369.498 223.27 381.364 219.494 393.84 215.348C406.317 211.201 419.398 206.686 430.764 202.364C442.14 198.039 451.764 193.921 457.346 190.571L457.365 190.56L457.385 190.55C457.548 190.471 457.744 190.292 457.958 189.953C458.168 189.619 458.372 189.165 458.566 188.594C458.953 187.454 459.275 185.912 459.54 184.08C460.07 180.421 460.358 175.684 460.498 170.862C460.753 162.077 460.514 153.063 460.365 149.886C450.608 154.782 437.467 161.738 423.445 169.161C413.114 174.63 402.305 180.352 392.019 185.689C379.739 192.061 368.207 197.884 359.142 202.063C354.611 204.152 350.688 205.834 347.591 206.97C346.044 207.537 344.695 207.971 343.574 208.251C342.466 208.527 341.539 208.664 340.853 208.606ZM275.796 256.37C275.794 256.368 275.794 256.368 275.793 256.368C275.793 256.368 275.794 256.368 275.796 256.37Z" fill="#CF9E1B" stroke="#014958"/>
</svg>
