<svg width="24" height="24" viewBox="0 0 24 24" fill="none" xmlns="http://www.w3.org/2000/svg">
<g clip-path="url(#clip0_3306_4343)">
<path fill-rule="evenodd" clip-rule="evenodd" d="M12 16.5008C10.7574 16.5008 9.75 17.5082 9.75 18.7508C9.75 19.9935 10.7574 21.0008 12 21.0008C13.2426 21.0008 14.25 19.9935 14.25 18.7508C14.25 17.5082 13.2426 16.5008 12 16.5008ZM8.25 18.7508C8.25 16.6798 9.92894 15.0008 12 15.0008C14.0711 15.0008 15.75 16.6798 15.75 18.7508C15.75 20.8219 14.0711 22.5008 12 22.5008C9.92894 22.5008 8.25 20.8219 8.25 18.7508Z" fill="#3CB572"/>
<path fill-rule="evenodd" clip-rule="evenodd" d="M6.1637 12.9175C7.71085 11.3705 9.80913 10.5014 11.997 10.5014C14.1849 10.5014 16.2832 11.3705 17.8303 12.9175C18.1232 13.2104 18.1232 13.6852 17.8304 13.9781C17.5375 14.2711 17.0626 14.2711 16.7697 13.9782C15.5039 12.7125 13.7871 12.0014 11.997 12.0014C10.2069 12.0014 8.49015 12.7125 7.2243 13.9782C6.93139 14.2711 6.45652 14.2711 6.16364 13.9781C5.87077 13.6852 5.87079 13.2104 6.1637 12.9175Z" fill="#3CB572"/>
<path fill-rule="evenodd" clip-rule="evenodd" d="M2.98469 9.7355C5.37576 7.34459 8.61864 6.00141 12 6.00141C15.3814 6.00141 18.6243 7.34459 21.0153 9.7355C21.3082 10.0284 21.3082 10.5033 21.0154 10.7962C20.7225 11.0891 20.2476 11.0891 19.9547 10.7962C17.8449 8.68657 14.9836 7.50141 12 7.50141C9.01645 7.50141 6.15508 8.68657 4.04532 10.7962C3.75241 11.0891 3.27754 11.0891 2.98466 10.7962C2.69177 10.5033 2.69179 10.0284 2.98469 9.7355Z" fill="#3CB572"/>
<path fill-rule="evenodd" clip-rule="evenodd" d="M0.238639 6.1332C3.43189 3.15692 7.63478 1.50195 12 1.50195C16.3652 1.50195 20.5681 3.15692 23.7614 6.1332C24.0644 6.41562 24.0811 6.8902 23.7986 7.19321C23.5162 7.49621 23.0416 7.5129 22.7386 7.23049C19.8231 4.51301 15.9856 3.00195 12 3.00195C8.01437 3.00195 4.17695 4.51301 1.26137 7.23049C0.95836 7.5129 0.48378 7.49621 0.201362 7.19321C-0.0810567 6.8902 -0.064367 6.41562 0.238639 6.1332Z" fill="#3CB572"/>
</g>
<defs>
<clipPath id="clip0_3306_4343">
<rect width="24" height="24" fill="white"/>
</clipPath>
</defs>
</svg>
