<svg width="343" height="210" viewBox="0 0 343 210" fill="none" xmlns="http://www.w3.org/2000/svg">
<g clip-path="url(#clip0_4127_3868)">
<mask id="path-1-inside-1_4127_3868" fill="white">
<path d="M51 210.084C51 210.084 52.6193 207.972 66.1741 200.047C79.7289 192.123 85.5611 179.923 88.1109 175.162C90.6607 170.402 90.3163 168.185 95.4964 163.85C100.677 159.515 107.395 154.456 108.37 150.366C109.344 146.277 125.654 119.101 124.841 115.766C124.028 112.43 122.064 111.02 124.438 108.968C126.812 106.916 128.006 109.274 129.977 105.737C131.948 102.2 135.531 102.133 134.952 99.9916C134.373 97.85 135.37 88.0153 135.37 88.0153L143.73 76.0391L152.83 77.7254L154.757 78.8895L188.724 123.772C188.724 123.772 190.703 138.689 191.34 139.338C191.977 139.987 202.821 147.8 202.821 147.8L221.593 157.791C221.593 157.791 231.008 164.365 238.577 166.409C246.145 168.454 267.54 179.692 267.54 179.692C267.54 179.692 280.494 193.28 280.904 193.929C281.315 194.578 288.143 210.21 288.143 210.21L51.0147 210.084H51Z"/>
</mask>
<path d="M51 210.084C51 210.084 52.6193 207.972 66.1741 200.047C79.7289 192.123 85.5611 179.923 88.1109 175.162C90.6607 170.402 90.3163 168.185 95.4964 163.85C100.677 159.515 107.395 154.456 108.37 150.366C109.344 146.277 125.654 119.101 124.841 115.766C124.028 112.43 122.064 111.02 124.438 108.968C126.812 106.916 128.006 109.274 129.977 105.737C131.948 102.2 135.531 102.133 134.952 99.9916C134.373 97.85 135.37 88.0153 135.37 88.0153L143.73 76.0391L152.83 77.7254L154.757 78.8895L188.724 123.772C188.724 123.772 190.703 138.689 191.34 139.338C191.977 139.987 202.821 147.8 202.821 147.8L221.593 157.791C221.593 157.791 231.008 164.365 238.577 166.409C246.145 168.454 267.54 179.692 267.54 179.692C267.54 179.692 280.494 193.28 280.904 193.929C281.315 194.578 288.143 210.21 288.143 210.21L51.0147 210.084H51Z" fill="#152123"/>
<path d="M51 210.084L50.6032 209.779L49.9865 210.584H51V210.084ZM135.37 88.0153L134.96 87.7291L134.885 87.8357L134.872 87.9649L135.37 88.0153ZM143.73 76.0391L143.821 75.5474L143.504 75.4887L143.32 75.7529L143.73 76.0391ZM152.83 77.7254L153.088 77.2975L153.01 77.2504L152.921 77.2338L152.83 77.7254ZM154.757 78.8895L155.155 78.5878L155.097 78.5112L155.015 78.4615L154.757 78.8895ZM188.724 123.772L189.22 123.707L189.203 123.576L189.123 123.471L188.724 123.772ZM202.821 147.8L202.529 148.205L202.557 148.225L202.586 148.241L202.821 147.8ZM221.593 157.791L221.879 157.381L221.854 157.364L221.828 157.35L221.593 157.791ZM267.54 179.692L267.902 179.346L267.845 179.287L267.773 179.249L267.54 179.692ZM288.143 210.21L288.143 210.71L288.908 210.711L288.602 210.01L288.143 210.21ZM51.0147 210.084L51.0149 209.584H51.0147V210.084ZM51 210.084C51.3968 210.388 51.3965 210.388 51.3961 210.389C51.396 210.389 51.3957 210.389 51.3955 210.389C51.3951 210.39 51.3948 210.39 51.3944 210.391C51.3938 210.392 51.3932 210.392 51.3928 210.393C51.3919 210.394 51.3915 210.395 51.3916 210.394C51.3917 210.394 51.3939 210.392 51.3984 210.386C51.4074 210.376 51.4256 210.356 51.4556 210.325C51.5158 210.263 51.6223 210.158 51.7962 210.004C52.1442 209.696 52.7566 209.195 53.797 208.442C55.8782 206.937 59.6567 204.437 66.4264 200.479L65.9217 199.616C59.1366 203.582 55.3281 206.101 53.2109 207.632C52.1522 208.398 51.5126 208.92 51.1334 209.255C50.9437 209.423 50.8178 209.546 50.7365 209.63C50.6958 209.672 50.6659 209.705 50.6446 209.729C50.6339 209.742 50.6253 209.752 50.6185 209.76C50.6152 209.764 50.6122 209.768 50.6097 209.771C50.6084 209.773 50.6072 209.774 50.6062 209.776C50.6056 209.776 50.6051 209.777 50.6046 209.778C50.6044 209.778 50.604 209.778 50.6039 209.778C50.6036 209.779 50.6032 209.779 51 210.084ZM66.4264 200.479C80.1186 192.474 86.0077 180.148 88.5517 175.398L87.6701 174.926C85.1146 179.698 79.3392 191.772 65.9217 199.616L66.4264 200.479ZM88.5517 175.398C91.1699 170.51 90.7359 168.486 95.8174 164.233L95.1755 163.467C89.8967 167.885 90.1515 170.293 87.6701 174.926L88.5517 175.398ZM95.8174 164.233C98.3911 162.079 101.39 159.711 103.854 157.379C105.089 156.211 106.203 155.038 107.074 153.891C107.942 152.748 108.59 151.601 108.856 150.482L107.883 150.251C107.663 151.177 107.106 152.195 106.277 153.286C105.453 154.373 104.381 155.503 103.167 156.653C100.732 158.957 97.782 161.285 95.1755 163.467L95.8174 164.233ZM108.856 150.482C108.964 150.029 109.303 149.203 109.843 148.056C110.376 146.924 111.087 145.521 111.912 143.935C113.565 140.762 115.665 136.885 117.717 133.018C119.766 129.157 121.765 125.309 123.201 122.215C123.918 120.669 124.501 119.3 124.879 118.206C125.068 117.659 125.21 117.17 125.291 116.755C125.37 116.355 125.404 115.965 125.327 115.647L124.355 115.884C124.379 115.984 124.382 116.197 124.31 116.563C124.241 116.915 124.115 117.355 123.934 117.879C123.572 118.926 123.006 120.259 122.294 121.794C120.87 124.861 118.883 128.688 116.834 132.549C114.789 136.404 112.68 140.297 111.025 143.473C110.198 145.062 109.48 146.479 108.938 147.629C108.404 148.764 108.019 149.681 107.883 150.251L108.856 150.482ZM125.327 115.647C125.114 114.777 124.828 114.036 124.563 113.394C124.292 112.738 124.062 112.225 123.925 111.747C123.791 111.284 123.764 110.914 123.865 110.566C123.967 110.216 124.217 109.82 124.765 109.346L124.111 108.59C123.472 109.142 123.077 109.692 122.905 110.288C122.732 110.885 122.801 111.462 122.964 112.024C123.122 112.572 123.387 113.165 123.639 113.776C123.897 114.401 124.161 115.087 124.355 115.884L125.327 115.647ZM124.765 109.346C125.301 108.883 125.752 108.682 126.152 108.579C126.591 108.466 126.933 108.469 127.423 108.405C127.889 108.345 128.388 108.226 128.907 107.851C129.414 107.484 129.902 106.9 130.414 105.981L129.54 105.494C129.067 106.343 128.666 106.791 128.321 107.041C127.987 107.282 127.67 107.365 127.294 107.414C126.942 107.459 126.417 107.478 125.903 107.611C125.35 107.753 124.762 108.027 124.111 108.59L124.765 109.346ZM130.414 105.981C131.334 104.328 132.626 103.486 133.702 102.755C134.221 102.402 134.747 102.04 135.089 101.605C135.466 101.125 135.623 100.558 135.435 99.8611L134.469 100.122C134.57 100.496 134.497 100.74 134.303 100.986C134.075 101.277 133.69 101.554 133.14 101.928C132.076 102.65 130.59 103.609 129.54 105.494L130.414 105.981ZM135.435 99.8611C135.311 99.403 135.261 98.4559 135.273 97.2217C135.285 96.0118 135.355 94.592 135.443 93.2327C135.531 91.8746 135.637 90.5824 135.721 89.6294C135.763 89.1531 135.8 88.7617 135.826 88.4897C135.839 88.3537 135.849 88.2475 135.856 88.1754C135.86 88.1393 135.862 88.1118 135.864 88.0934C135.865 88.0841 135.866 88.0772 135.866 88.0725C135.867 88.0702 135.867 88.0685 135.867 88.0674C135.867 88.0668 135.867 88.0664 135.867 88.0661C135.867 88.066 135.867 88.0659 135.867 88.0658C135.867 88.0657 135.867 88.0657 135.37 88.0153C134.872 87.9649 134.872 87.965 134.872 87.9651C134.872 87.9651 134.872 87.9653 134.872 87.9654C134.872 87.9658 134.872 87.9662 134.872 87.9669C134.872 87.9681 134.872 87.9699 134.871 87.9724C134.871 87.9772 134.87 87.9844 134.869 87.9938C134.867 88.0127 134.865 88.0407 134.861 88.0772C134.854 88.1502 134.843 88.2574 134.83 88.3945C134.804 88.6686 134.767 89.0624 134.725 89.5415C134.64 90.4994 134.533 91.7998 134.445 93.168C134.356 94.5351 134.285 95.9756 134.273 97.2119C134.261 98.424 134.304 99.5094 134.469 100.122L135.435 99.8611ZM135.78 88.3015L144.14 76.3253L143.32 75.7529L134.96 87.7291L135.78 88.3015ZM143.639 76.5307L152.739 78.2171L152.921 77.2338L143.821 75.5474L143.639 76.5307ZM152.571 78.1534L154.498 79.3175L155.015 78.4615L153.088 77.2975L152.571 78.1534ZM154.358 79.1912L188.326 124.074L189.123 123.471L155.155 78.5878L154.358 79.1912ZM188.724 123.772C188.229 123.838 188.229 123.838 188.229 123.838C188.229 123.839 188.229 123.839 188.229 123.839C188.229 123.839 188.229 123.84 188.229 123.841C188.229 123.843 188.23 123.846 188.23 123.849C188.231 123.856 188.232 123.867 188.234 123.881C188.238 123.91 188.244 123.952 188.251 124.006C188.266 124.116 188.287 124.277 188.315 124.482C188.37 124.891 188.45 125.477 188.548 126.182C188.744 127.592 189.011 129.479 189.299 131.386C189.586 133.293 189.894 135.225 190.171 136.723C190.309 137.471 190.44 138.118 190.559 138.602C190.618 138.843 190.676 139.052 190.732 139.218C190.761 139.3 190.791 139.38 190.825 139.451C190.854 139.511 190.904 139.607 190.983 139.688L191.697 138.988C191.737 139.028 191.744 139.055 191.728 139.022C191.717 138.998 191.7 138.957 191.679 138.894C191.636 138.77 191.586 138.593 191.53 138.364C191.419 137.908 191.291 137.283 191.154 136.541C190.881 135.06 190.574 133.141 190.288 131.237C190.001 129.335 189.734 127.452 189.539 126.045C189.441 125.341 189.361 124.756 189.306 124.348C189.278 124.143 189.257 123.983 189.242 123.874C189.235 123.819 189.229 123.777 189.226 123.749C189.224 123.735 189.222 123.725 189.221 123.717C189.221 123.714 189.221 123.711 189.22 123.709C189.22 123.708 189.22 123.708 189.22 123.707C189.22 123.707 189.22 123.707 189.22 123.707C189.22 123.707 189.22 123.707 188.724 123.772ZM190.983 139.688C191.093 139.8 191.366 140.018 191.711 140.284C192.072 140.562 192.55 140.922 193.104 141.335C194.213 142.16 195.629 143.199 197.025 144.216C198.421 145.234 199.797 146.231 200.824 146.974C201.337 147.345 201.764 147.653 202.062 147.868C202.21 147.976 202.327 148.06 202.407 148.117C202.447 148.146 202.477 148.168 202.498 148.183C202.508 148.19 202.516 148.196 202.521 148.2C202.524 148.201 202.526 148.203 202.527 148.204C202.528 148.204 202.528 148.205 202.529 148.205C202.529 148.205 202.529 148.205 202.529 148.205C202.529 148.205 202.529 148.205 202.821 147.8C203.114 147.394 203.114 147.394 203.113 147.394C203.113 147.394 203.113 147.394 203.113 147.394C203.113 147.393 203.112 147.393 203.112 147.393C203.11 147.392 203.108 147.39 203.106 147.388C203.101 147.385 203.093 147.379 203.083 147.372C203.062 147.357 203.032 147.335 202.992 147.306C202.912 147.249 202.796 147.165 202.647 147.057C202.349 146.842 201.923 146.535 201.41 146.164C200.384 145.421 199.009 144.425 197.614 143.408C196.219 142.391 194.806 141.355 193.702 140.533C193.149 140.122 192.676 139.765 192.322 139.492C191.952 139.207 191.746 139.038 191.697 138.988L190.983 139.688ZM202.586 148.241L221.358 158.232L221.828 157.35L203.056 147.358L202.586 148.241ZM221.593 157.791C221.307 158.201 221.307 158.201 221.307 158.201C221.307 158.201 221.307 158.201 221.307 158.201C221.308 158.202 221.308 158.202 221.309 158.202C221.31 158.203 221.312 158.205 221.314 158.206C221.319 158.21 221.326 158.215 221.335 158.221C221.354 158.234 221.381 158.253 221.417 158.277C221.489 158.327 221.595 158.399 221.733 158.492C222.007 158.677 222.407 158.944 222.911 159.27C223.917 159.922 225.338 160.812 226.997 161.767C230.306 163.671 234.598 165.852 238.446 166.892L238.707 165.927C234.987 164.922 230.787 162.794 227.496 160.9C225.855 159.956 224.449 159.075 223.454 158.43C222.957 158.108 222.562 157.845 222.292 157.663C222.157 157.572 222.053 157.501 221.984 157.453C221.949 157.429 221.922 157.411 221.905 157.399C221.896 157.393 221.89 157.388 221.885 157.385C221.883 157.384 221.882 157.383 221.881 157.382C221.88 157.382 221.88 157.381 221.879 157.381C221.879 157.381 221.879 157.381 221.879 157.381C221.879 157.381 221.879 157.381 221.593 157.791ZM238.446 166.892C242.175 167.899 249.37 171.196 255.678 174.267C258.821 175.797 261.729 177.264 263.851 178.349C264.912 178.891 265.777 179.338 266.376 179.648C266.675 179.804 266.908 179.925 267.067 180.008C267.146 180.049 267.206 180.081 267.247 180.102C267.267 180.113 267.282 180.121 267.292 180.126C267.297 180.129 267.301 180.131 267.304 180.132C267.305 180.133 267.306 180.133 267.307 180.134C267.307 180.134 267.307 180.134 267.307 180.134C267.308 180.134 267.308 180.134 267.54 179.692C267.773 179.249 267.773 179.249 267.772 179.249C267.772 179.249 267.772 179.248 267.772 179.248C267.771 179.248 267.77 179.247 267.769 179.247C267.766 179.245 267.762 179.243 267.757 179.241C267.746 179.235 267.731 179.227 267.711 179.216C267.67 179.195 267.609 179.163 267.529 179.122C267.371 179.039 267.137 178.917 266.836 178.761C266.236 178.449 265.37 178.002 264.306 177.458C262.181 176.372 259.267 174.902 256.116 173.368C249.834 170.309 242.547 166.964 238.707 165.927L238.446 166.892ZM267.54 179.692C267.178 180.037 267.178 180.037 267.178 180.037C267.178 180.037 267.179 180.037 267.179 180.037C267.179 180.038 267.18 180.038 267.181 180.039C267.182 180.041 267.184 180.043 267.188 180.046C267.194 180.053 267.203 180.063 267.215 180.075C267.24 180.101 267.276 180.139 267.324 180.189C267.419 180.289 267.558 180.435 267.735 180.621C268.09 180.994 268.598 181.527 269.208 182.169C270.429 183.453 272.061 185.172 273.705 186.91C275.35 188.649 277.007 190.407 278.277 191.771C278.913 192.453 279.451 193.035 279.842 193.467C280.038 193.682 280.195 193.859 280.309 193.99C280.366 194.055 280.411 194.108 280.443 194.147C280.48 194.192 280.487 194.204 280.482 194.196L281.327 193.662C281.277 193.582 281.172 193.458 281.064 193.334C280.943 193.195 280.78 193.012 280.583 192.795C280.187 192.358 279.645 191.772 279.009 191.089C277.736 189.723 276.077 187.962 274.432 186.223C272.786 184.484 271.154 182.764 269.933 181.48C269.322 180.838 268.815 180.305 268.46 179.932C268.282 179.745 268.143 179.599 268.048 179.499C268 179.449 267.964 179.411 267.939 179.386C267.927 179.373 267.918 179.363 267.911 179.356C267.908 179.353 267.906 179.351 267.904 179.349C267.904 179.348 267.903 179.348 267.903 179.347C267.902 179.347 267.902 179.347 267.902 179.347C267.902 179.347 267.902 179.346 267.54 179.692ZM280.482 194.196C280.482 194.195 280.492 194.213 280.516 194.261C280.539 194.304 280.568 194.363 280.603 194.436C280.674 194.582 280.767 194.781 280.879 195.024C281.104 195.511 281.404 196.173 281.752 196.951C282.45 198.507 283.341 200.52 284.22 202.515C285.099 204.509 285.966 206.483 286.612 207.958C286.935 208.696 287.204 209.309 287.391 209.738C287.485 209.952 287.558 210.12 287.609 210.235C287.634 210.292 287.653 210.336 287.666 210.366C287.672 210.381 287.677 210.392 287.68 210.399C287.682 210.403 287.683 210.406 287.684 210.408C287.684 210.409 287.685 210.409 287.685 210.41C287.685 210.41 287.685 210.41 287.685 210.41C287.685 210.411 287.685 210.411 288.143 210.21C288.602 210.01 288.602 210.01 288.602 210.01C288.602 210.01 288.601 210.01 288.601 210.01C288.601 210.009 288.601 210.008 288.6 210.007C288.6 210.006 288.598 210.003 288.597 209.999C288.593 209.991 288.588 209.98 288.582 209.965C288.569 209.936 288.55 209.892 288.525 209.834C288.475 209.72 288.401 209.551 288.307 209.337C288.12 208.908 287.851 208.295 287.528 207.557C286.881 206.081 286.015 204.106 285.135 202.111C284.256 200.116 283.363 198.1 282.665 196.542C282.316 195.763 282.014 195.097 281.787 194.605C281.674 194.359 281.578 194.155 281.504 194.001C281.435 193.859 281.371 193.731 281.327 193.662L280.482 194.196ZM288.144 209.71L51.0149 209.584L51.0144 210.584L288.143 210.71L288.144 209.71ZM51.0147 209.584H51V210.584H51.0147V209.584Z" fill="#DCE4E5" mask="url(#path-1-inside-1_4127_3868)"/>
<path d="M287.79 209.929L287.648 209.606C287.461 209.177 287.193 208.563 286.869 207.825C286.223 206.349 285.356 204.374 284.477 202.379C283.598 200.384 282.706 198.37 282.009 196.814C281.66 196.036 281.36 195.374 281.135 194.886C281.022 194.642 280.928 194.442 280.857 194.295C280.782 194.141 280.738 194.057 280.722 194.032L280.691 193.983C280.683 193.973 280.675 193.963 280.665 193.951C280.631 193.909 280.584 193.855 280.526 193.788C280.411 193.655 280.252 193.478 280.056 193.262C279.663 192.83 279.124 192.247 278.488 191.565C277.217 190.201 275.56 188.442 273.915 186.702C272.27 184.963 270.638 183.243 269.418 181.959C268.807 181.317 268.3 180.783 267.945 180.41L267.533 179.978L267.424 179.864L267.416 179.855L267.391 179.842L267.21 179.747C267.119 179.7 267.003 179.639 266.863 179.566C266.761 179.513 266.646 179.453 266.519 179.387C265.92 179.076 265.055 178.63 263.993 178.087C261.87 177.002 258.961 175.534 255.815 174.003C249.514 170.935 242.296 167.627 238.54 166.612C234.723 165.581 230.455 163.413 227.15 161.511C225.496 160.559 224.078 159.671 223.075 159.021C222.573 158.696 222.174 158.43 221.901 158.246C221.764 158.153 221.658 158.081 221.587 158.032L221.506 157.976L221.491 157.966L202.732 147.981L202.717 147.973L202.703 147.963L202.85 147.761C202.703 147.963 202.703 147.963 202.703 147.963L202.703 147.963L202.701 147.962L202.696 147.958L202.672 147.941L202.581 147.875L202.236 147.626C201.938 147.411 201.511 147.104 200.998 146.732C199.97 145.99 198.594 144.993 197.198 143.975C195.802 142.958 194.386 141.92 193.279 141.095C192.725 140.683 192.248 140.324 191.89 140.047C191.539 139.776 191.283 139.57 191.189 139.473C191.14 139.422 191.104 139.357 191.079 139.303C191.051 139.245 191.024 139.175 190.998 139.097C190.946 138.942 190.89 138.741 190.832 138.503C190.716 138.026 190.585 137.385 190.448 136.638C190.172 135.144 189.865 133.216 189.577 131.31C189.289 129.404 189.021 127.518 188.825 126.109C188.727 125.404 188.647 124.819 188.591 124.409C188.564 124.205 188.542 124.044 188.527 123.934L188.513 123.832L154.614 79.0396L152.768 77.9239L144.216 76.3391L149.573 86.6468C149.579 86.6505 149.586 86.6546 149.594 86.6589C149.649 86.6915 149.729 86.7399 149.832 86.8042C150.036 86.9328 150.327 87.1248 150.677 87.3804C151.378 87.8915 152.317 88.6582 153.276 89.6821C155.172 91.7073 157.151 94.7497 157.486 98.8173L163.388 102.243L163.449 102.279L163.483 102.342L166.238 107.498L166.292 107.599L166.25 107.707L163.55 114.633L165.796 117.25L165.893 117.363L165.841 117.501L165.841 117.501L165.841 117.501L165.841 117.502L165.839 117.506L165.832 117.526C165.826 117.544 165.816 117.572 165.804 117.611C165.78 117.688 165.746 117.806 165.706 117.964C165.628 118.279 165.529 118.754 165.454 119.386C165.303 120.648 165.243 122.535 165.616 125.015C166.362 129.974 168.84 137.313 175.795 146.769L175.845 146.837L175.843 146.921L175.668 159.058L175.667 159.061L175.843 170.299L287.79 209.929ZM287.79 209.929L178.184 209.869L287.79 209.929Z" fill="#2B383B" stroke="#DCE4E5" stroke-width="0.5"/>
<path d="M234.455 188.688L229.413 188.284L237.921 174.761L238.141 174.411L237.729 174.378L232.726 173.985L244.09 158.743L244.358 158.383L243.911 158.344L239.212 157.94L250.048 138.765L250.283 138.736L261.061 157.793L256.355 158.19L255.907 158.227L256.176 158.588L267.54 173.831L262.536 174.232L262.125 174.265L262.345 174.615L270.853 188.137L265.811 188.534L265.425 188.564L265.611 188.903L277.04 209.769L267.905 209.646L267.534 209.641L267.554 209.691L223.224 209.927L234.654 189.057L234.84 188.719L234.455 188.688Z" fill="#014958" stroke="#DCE4E5" stroke-width="0.5"/>
<path d="M256.596 193.529L252.654 193.224L259.406 182.867L259.636 182.513L259.215 182.481L255.315 182.185L264.338 170.504L264.62 170.14L264.161 170.102L260.488 169.797L269.127 155.044L269.204 155.034L277.789 169.684L274.109 169.983L273.65 170.02L273.932 170.385L282.956 182.067L279.055 182.369L278.634 182.401L278.865 182.755L285.616 193.111L281.674 193.41L281.281 193.44L281.476 193.783L290.568 209.804L283.354 209.71L282.978 209.705L282.994 209.745L247.7 209.926L256.794 193.902L256.989 193.56L256.596 193.529Z" fill="#152123" stroke="#DCE4E5" stroke-width="0.5"/>
<path fill-rule="evenodd" clip-rule="evenodd" d="M244.178 112.646H241.523C240.241 109.386 237.14 107.086 233.515 107.086C229.715 107.086 226.492 109.613 225.335 113.123C224.657 112.818 223.909 112.646 223.122 112.646C220.435 112.646 218.197 114.618 217.695 117.233H215.091C213.041 117.233 211.379 118.944 211.379 121.055C211.379 123.166 213.041 124.878 215.091 124.878H244.178C247.458 124.878 250.117 122.14 250.117 118.762C250.117 115.384 247.458 112.646 244.178 112.646Z" fill="#67DD95"/>
<path d="M144 76.71L-57 144.71" stroke="#DCE4E5" stroke-width="0.5"/>
<rect x="23" y="124.71" width="28" height="2" fill="#3C4F52"/>
<rect x="23" y="142.71" width="28" height="6" fill="#3C4F52"/>
<rect x="25.5" y="127.21" width="24" height="15" fill="#014958" stroke="#3C4F52"/>
<path d="M34 127.71H37L29 141.71H26L34 127.71Z" fill="#DCE4E5"/>
<path d="M38 127.71H43.5L35.5 141.71H30L38 127.71Z" fill="#DCE4E5"/>
<path d="M49 127.71V137.335L46.5 141.71H41L49 127.71Z" fill="#DCE4E5"/>
<path fill-rule="evenodd" clip-rule="evenodd" d="M38.6667 110.71H35.3333L32 124.71H42L38.6667 110.71ZM41 123.713L40 119.71H34L33 123.713H41ZM34.5 118.71L35 116.71H39L39.5 118.71H34.5ZM37 113.71C37.5523 113.71 38 113.262 38 112.71C38 112.158 37.5523 111.71 37 111.71C36.4477 111.71 36 112.158 36 112.71C36 113.262 36.4477 113.71 37 113.71Z" fill="#3C4F52"/>
</g>
<defs>
<clipPath id="clip0_4127_3868">
<rect width="343" height="210" fill="white"/>
</clipPath>
</defs>
</svg>
