<svg width="343" height="210" viewBox="0 0 343 210" fill="none" xmlns="http://www.w3.org/2000/svg">
<g clip-path="url(#clip0_4127_3811)">
<path d="M267.067 180.299L267.235 180.387L267.324 180.48L267.735 180.912C268.09 181.285 268.598 181.818 269.208 182.46C270.429 183.744 272.061 185.463 273.705 187.201C275.35 188.94 277.007 190.698 278.277 192.062C278.913 192.744 279.451 193.326 279.842 193.758C280.038 193.973 280.195 194.15 280.309 194.281C280.366 194.346 280.411 194.399 280.443 194.438C280.48 194.483 280.487 194.495 280.482 194.487C280.482 194.486 280.492 194.504 280.516 194.552C280.539 194.595 280.568 194.654 280.603 194.727C280.674 194.873 280.767 195.072 280.879 195.315C281.104 195.802 281.404 196.464 281.752 197.242C282.45 198.798 283.341 200.811 284.22 202.806C285.099 204.8 285.966 206.774 286.612 208.249C286.928 208.971 287.192 209.574 287.379 210.001L52.2941 209.875C52.6512 209.586 53.1383 209.21 53.797 208.733C55.8782 207.228 59.6567 204.728 66.4264 200.77C79.2894 193.25 85.2658 181.916 88.0517 176.633C88.2313 176.292 88.3976 175.977 88.5517 175.689C89.2995 174.293 89.7984 173.13 90.2479 172.083C91.372 169.463 92.1874 167.562 95.8173 164.524C96.4645 163.983 97.1386 163.428 97.8243 162.863C99.8655 161.182 102.01 159.416 103.854 157.67C105.089 156.502 106.203 155.329 107.074 154.182C107.942 153.039 108.59 151.892 108.856 150.773C108.964 150.32 109.303 149.494 109.843 148.347C110.376 147.215 111.087 145.812 111.912 144.226C112.943 142.248 114.147 139.997 115.405 137.645C116.165 136.224 116.944 134.766 117.717 133.309C119.766 129.448 121.765 125.6 123.201 122.506C123.918 120.96 124.501 119.591 124.879 118.497C125.068 117.95 125.21 117.461 125.291 117.046C125.37 116.646 125.404 116.256 125.327 115.938C125.114 115.068 124.828 114.327 124.563 113.685C124.51 113.556 124.458 113.432 124.408 113.313C124.205 112.828 124.035 112.422 123.925 112.038C123.791 111.575 123.764 111.206 123.865 110.857C123.967 110.507 124.217 110.111 124.765 109.637C125.301 109.174 125.752 108.973 126.152 108.87C126.447 108.794 126.698 108.771 126.979 108.744C127.117 108.731 127.262 108.717 127.423 108.696C127.889 108.636 128.388 108.517 128.907 108.142C129.414 107.775 129.902 107.191 130.414 106.272C131.306 104.671 132.546 103.83 133.601 103.114C133.634 103.091 133.668 103.068 133.702 103.046C134.221 102.693 134.747 102.331 135.089 101.896C135.466 101.416 135.623 100.849 135.435 100.152C135.311 99.694 135.261 98.747 135.273 97.5127C135.285 96.3028 135.355 94.883 135.443 93.5237C135.531 92.1656 135.637 90.8735 135.721 89.9205C135.763 89.4441 135.8 89.0528 135.826 88.7807C135.838 88.6563 135.847 88.5568 135.854 88.4856L143.955 76.8804L152.649 78.4915L154.416 79.5588L188.246 124.26L188.251 124.297C188.266 124.407 188.287 124.568 188.315 124.773C188.37 125.182 188.45 125.768 188.548 126.473C188.744 127.883 189.011 129.77 189.299 131.677C189.586 133.584 189.894 135.516 190.171 137.014C190.309 137.762 190.44 138.409 190.559 138.893C190.618 139.134 190.676 139.343 190.732 139.509C190.761 139.591 190.791 139.671 190.825 139.742C190.854 139.802 190.904 139.898 190.983 139.979C191.093 140.091 191.366 140.309 191.711 140.575C192.072 140.853 192.55 141.213 193.104 141.626C194.213 142.451 195.629 143.49 197.025 144.507C198.421 145.525 199.797 146.522 200.824 147.265C201.337 147.636 201.764 147.944 202.062 148.159L202.407 148.408L202.498 148.474L202.521 148.491L202.527 148.495L202.529 148.496L202.529 148.496C202.529 148.496 202.529 148.496 202.821 148.091L202.529 148.496L202.557 148.516L202.586 148.532L221.332 158.51L221.335 158.512L221.417 158.568C221.489 158.618 221.595 158.69 221.733 158.783C222.007 158.968 222.407 159.235 222.911 159.561C223.917 160.213 225.338 161.103 226.997 162.058C230.306 163.962 234.598 166.144 238.446 167.183C242.175 168.19 249.37 171.487 255.678 174.558C258.821 176.088 261.729 177.555 263.851 178.64C264.912 179.182 265.777 179.629 266.376 179.939C266.675 180.095 266.908 180.216 267.067 180.299Z" fill="white" stroke="#014958"/>
<path d="M287.407 209.968C287.22 209.541 286.957 208.938 286.64 208.216C285.994 206.74 285.127 204.765 284.248 202.77C283.369 200.775 282.478 198.761 281.781 197.206C281.432 196.429 281.132 195.767 280.908 195.281C280.795 195.037 280.702 194.84 280.632 194.694C280.614 194.657 280.598 194.624 280.583 194.595C280.569 194.566 280.556 194.541 280.545 194.519C280.52 194.471 280.51 194.455 280.511 194.456L280.487 194.419C280.483 194.413 280.478 194.407 280.472 194.4C280.439 194.36 280.395 194.308 280.338 194.242C280.224 194.111 280.066 193.935 279.87 193.72C279.479 193.289 278.941 192.707 278.306 192.025C277.035 190.662 275.378 188.903 273.733 187.164C272.089 185.425 270.457 183.706 269.236 182.421C268.626 181.779 268.118 181.246 267.764 180.873L267.352 180.44L267.263 180.347L267.095 180.259C266.937 180.176 266.703 180.055 266.404 179.899C265.805 179.589 264.941 179.142 263.88 178.6C261.757 177.515 258.85 176.048 255.706 174.518C249.398 171.447 242.204 168.15 238.475 167.143C234.626 166.103 230.334 163.922 227.025 162.018C225.366 161.063 223.945 160.173 222.939 159.521C222.435 159.195 222.035 158.928 221.761 158.743C221.623 158.65 221.517 158.578 221.446 158.528L221.364 158.472L221.36 158.469L202.615 148.492L202.585 148.476L202.557 148.456L202.85 148.051C202.557 148.456 202.557 148.456 202.557 148.456L202.557 148.456L202.555 148.455L202.549 148.451L202.526 148.434L202.435 148.368L202.09 148.119C201.791 147.904 201.365 147.596 200.851 147.225C199.824 146.482 198.447 145.485 197.051 144.467C195.654 143.45 194.237 142.411 193.129 141.586C192.576 141.173 192.097 140.813 191.737 140.535C191.393 140.269 191.119 140.05 191.009 139.937C190.931 139.856 190.881 139.76 190.853 139.7C190.82 139.629 190.789 139.55 190.761 139.468C190.706 139.303 190.648 139.093 190.589 138.852C190.471 138.368 190.34 137.721 190.202 136.974C189.926 135.476 189.617 133.544 189.33 131.637C189.042 129.73 188.774 127.843 188.577 126.433C188.479 125.728 188.399 125.142 188.344 124.733C188.316 124.528 188.294 124.367 188.279 124.258L188.274 124.22L154.444 79.5188L152.677 78.4515L144.674 76.9683L149.762 86.758C149.815 86.7899 149.883 86.8314 149.965 86.8827C150.173 87.014 150.469 87.2092 150.825 87.4685C151.535 87.9868 152.487 88.7636 153.458 89.8012C155.359 91.8314 157.352 94.8809 157.724 98.9563L163.513 102.317L163.636 102.389L163.703 102.514L166.458 107.67L166.566 107.873L166.483 108.087L163.837 114.874L165.986 117.378L166.179 117.602L166.075 117.878L166.075 117.878L166.075 117.879L166.075 117.879L166.074 117.881L166.068 117.897C166.063 117.913 166.054 117.939 166.043 117.976C166.02 118.048 165.987 118.161 165.949 118.314C165.873 118.62 165.776 119.085 165.702 119.705C165.553 120.946 165.493 122.811 165.863 125.268C166.602 130.181 169.061 137.482 175.996 146.911L176.096 147.047L176.093 147.215L175.918 159.348L176.093 170.585L176.093 170.593V170.593L176.093 170.593H176.093L176.093 170.594L176.093 170.601L176.094 170.631C176.094 170.658 176.095 170.7 176.097 170.757C176.1 170.87 176.107 171.041 176.12 171.265C176.147 171.715 176.202 172.382 176.312 173.241C176.531 174.959 176.972 177.447 177.854 180.505L177.913 180.708L287.407 209.968ZM287.407 209.968L178.402 209.909C177.895 206.184 177.881 202.598 177.874 199.67L177.874 199.67C177.855 195.235 177.579 193.171 177.205 191.784C177.052 191.215 176.883 190.763 176.722 190.332C176.687 190.24 176.653 190.149 176.62 190.058C176.43 189.54 176.245 188.992 176.083 188.193C175.774 186.666 176.181 184.86 176.702 183.387C176.959 182.66 177.238 182.033 177.451 181.587C177.558 181.365 177.649 181.189 177.712 181.069C177.743 181.01 177.768 180.964 177.785 180.934L177.803 180.9L177.808 180.892L177.809 180.891M287.407 209.968L177.809 180.891M177.809 180.891L177.809 180.891L177.809 180.891Z" fill="#014958" stroke="#014958"/>
<path d="M234.475 188.729L229.844 188.357L238.132 175.184L238.573 174.484L237.748 174.419L233.198 174.061L244.291 159.182L244.827 158.462L243.933 158.385L239.621 158.014L250.174 139.34L260.652 157.867L256.334 158.231L255.437 158.306L255.975 159.028L267.069 173.908L262.516 174.273L261.694 174.339L262.133 175.038L270.421 188.21L265.791 188.574L265.021 188.635L265.392 189.313L276.615 209.803L267.908 209.686L267.167 209.676L267.189 209.733L223.647 209.964L234.874 189.467L235.244 188.791L234.475 188.729Z" fill="#3CB572" stroke="#014958"/>
<path d="M256.616 193.57L253.093 193.297L259.615 183.294L260.076 182.586L259.234 182.522L255.796 182.261L264.536 170.947L265.099 170.219L264.182 170.143L260.904 169.871L269.168 155.758L277.372 169.757L274.089 170.024L273.171 170.098L273.734 170.828L282.475 182.143L279.035 182.41L278.195 182.475L278.655 183.181L285.176 193.184L281.655 193.451L280.869 193.51L281.258 194.196L290.136 209.838L283.357 209.75L282.606 209.74L282.624 209.787L248.131 209.964L257.012 194.315L257.4 193.631L256.616 193.57Z" fill="white" stroke="#014958"/>
<path fill-rule="evenodd" clip-rule="evenodd" d="M244.178 112.936H241.523C240.241 109.676 237.14 107.376 233.515 107.376C229.715 107.376 226.492 109.903 225.335 113.413C224.657 113.108 223.909 112.936 223.122 112.936C220.435 112.936 218.197 114.908 217.695 117.523H215.091C213.041 117.523 211.379 119.234 211.379 121.345C211.379 123.456 213.041 125.168 215.091 125.168H244.178C247.458 125.168 250.117 122.43 250.117 119.052C250.117 115.674 247.458 112.936 244.178 112.936Z" fill="#E3F6DC"/>
<path d="M144 77L-57 145" stroke="#014958"/>
<rect x="23" y="125" width="28" height="2" fill="#014958"/>
<rect x="23" y="143" width="28" height="6" fill="#014958"/>
<rect x="25.5" y="127.5" width="24" height="15" fill="#E3F6DC" stroke="#014958"/>
<path d="M34 128H37L29 142H26L34 128Z" fill="white"/>
<path d="M38 128H43.5L35.5 142H30L38 128Z" fill="white"/>
<path d="M49 128V137.625L46.5 142H41L49 128Z" fill="white"/>
<path fill-rule="evenodd" clip-rule="evenodd" d="M38.6667 111H35.3333L32 125H42L38.6667 111ZM41 124.003L40 120H34L33 124.003H41ZM34.5 119L35 117H39L39.5 119H34.5ZM37 114C37.5523 114 38 113.552 38 113C38 112.448 37.5523 112 37 112C36.4477 112 36 112.448 36 113C36 113.552 36.4477 114 37 114Z" fill="#014958"/>
</g>
<defs>
<clipPath id="clip0_4127_3811">
<rect width="343" height="210" fill="white"/>
</clipPath>
</defs>
</svg>
