<?xml version="1.0" encoding="UTF-8" standalone="no"?>
<!DOCTYPE svg PUBLIC "-//W3C//DTD SVG 1.1//EN" "http://www.w3.org/Graphics/SVG/1.1/DTD/svg11.dtd">
<!-- Created with Vectornator (http://vectornator.io/) -->
<svg height="210.0pt" stroke-miterlimit="10" style="fill-rule:nonzero;clip-rule:evenodd;stroke-linecap:round;stroke-linejoin:round;" version="1.1" viewBox="0 0 343 210" width="343.0pt" xml:space="preserve" xmlns="http://www.w3.org/2000/svg" xmlns:xlink="http://www.w3.org/1999/xlink">
<defs/>
<g id="Sans-titre">
<path d="M30 174.415L57.1838 165.431L57.1838 156.089L71.7659 153.484L96.9695 138.482L86.348 135.966L96.4294 130.756L116.052 135.248L126.494 131.295L126.494 127.792L141.796 128.87L165.019 128.87L169.34 125.815L194.363 127.073L197.244 124.019L185.002 124.917L185.002 119.527L198.684 118L212.366 124.019L234.509 123.031L263.313 136.685L252.331 142.165L252.331 152.136L276.815 155.191L278.435 158.514L293.377 162.826L308.499 155.191L313 156.089L313 176.391L293.377 172.798L287.976 181.332L293.377 183.038L286.356 190.764L278.435 185.105L273.394 189.596L255.752 188.249L244.41 179.984L225.508 197.322L222.087 201.274L225.508 209L214.526 206.395L211.286 197.322L194.363 197.322L183.202 188.249L186.622 183.038L181.401 181.332L160.698 190.764L167.179 198.579L150.797 206.395L121.273 201.274L96.9695 209L80.2271 192.471L94.8092 181.332L75.3664 176.391L48.1826 178.996L41.7017 187.171L46.7424 191.662L30 194.627L30 174.415Z" fill="#2b383b" fill-rule="nonzero" opacity="1" stroke="#dce4e5" stroke-linecap="butt" stroke-linejoin="miter" stroke-width="1"/>
<path d="M172.121 45.2061L226.55 45.2061L226.55 99.635L172.121 99.635L172.121 45.2061Z" fill="#ec1d25" fill-rule="nonzero" opacity="1" stroke="none"/>
<path d="M193.894 56.0928L204.779 56.0928L204.779 66.9775L204.779 66.9785L204.779 77.8633L193.894 77.8633L193.894 66.9785L193.894 66.9775L193.894 56.0928ZM183.008 66.9775L193.894 66.9775L193.894 77.8633L183.008 77.8633L183.008 66.9775ZM204.779 66.9775L215.665 66.9775L215.665 77.8633L204.779 77.8633L204.779 66.9775ZM204.779 77.8643L193.894 77.8643L193.894 88.75L204.779 88.75L204.779 77.8643Z" fill="#ffffff" fill-rule="evenodd" opacity="1" stroke="none"/>
<path d="M167.473 37.8347C167.461 36.2728 168.724 35 170.286 35C171.848 35 173.111 36.2728 173.098 37.8347L172.135 160.165C172.127 161.181 171.302 162 170.286 162C169.27 162 168.445 161.181 168.437 160.165L167.473 37.8347Z" fill="#3c4f52" fill-rule="nonzero" opacity="1" stroke="none"/>
</g>
</svg>
