<svg width="37" height="45" viewBox="0 0 37 45" fill="none" xmlns="http://www.w3.org/2000/svg">
<path d="M35.1011 44.8095C35.5264 44.8095 35.7284 44.5437 35.8081 44.2035C36.8021 44.7191 36.8977 42.9757 36.5895 42.4335L30.5405 31.8186C29.6688 30.2931 28.5791 31.6432 29.1638 32.9136C30.2109 35.1886 31.2581 37.4636 32.3052 39.7439C16.9808 31.2126 2.65578 20.6509 1.74152 1.33461C1.67774 -0.0633463 -0.0816688 -0.679931 0.00337977 1.07416C0.970786 21.5704 15.8327 33.0783 32.1936 42.2315L22.7428 42.2315C21.483 42.2315 21.9189 44.8148 22.9766 44.8148C27.0164 44.8148 31.0614 44.8148 35.1011 44.8148L35.1011 44.8095Z" fill="#1A1A1A"/>
</svg>
