<svg width="37" height="45" viewBox="0 0 37 45" fill="none" xmlns="http://www.w3.org/2000/svg">
<path d="M33.9996 44.8095C33.9996 44.8095 35.352 44.7159 36.0014 44.5C36.6507 44.2841 36.8995 42.9757 36.5912 42.4335L30.5422 31.8186C29.6705 30.2931 28.5808 31.6432 29.1655 32.9136C30.2126 35.1886 31.2598 37.4636 32.3069 39.7439C16.9826 31.2126 2.65748 20.6509 1.74323 1.33461C1.67944 -0.0633464 -0.0799618 -0.679931 0.00508494 1.07416C0.972492 21.5704 15.8344 33.0783 32.1953 42.2315L22.7445 42.2315C21.4847 42.2315 21.9206 44.8148 22.9784 44.8148C27.0181 44.8148 29.9598 44.8095 33.9996 44.8095Z" fill="#1A1A1A"/>
</svg>
