<svg width="32" height="32" viewBox="0 0 32 32" fill="none" xmlns="http://www.w3.org/2000/svg">
<path d="M27.9867 32H3.98666C3.18666 32 2.42666 31.6933 1.86666 31.12C1.30666 30.56 0.986664 29.8 0.986664 29V3C0.986664 2.21333 1.30666 1.44 1.86666 0.88C2.42666 0.32 3.2 0 3.98666 0H23.9867C24.7733 0 25.52 0.306667 26.08 0.853333L30.08 4.69333C30.3733 4.98667 30.6 5.30667 30.76 5.68C30.92 6.05333 31 6.44 31 6.84V28.9867C31 29.7867 30.6933 30.5467 30.12 31.1067C29.5467 31.68 28.8 32 27.9867 32ZM3.98666 2C3.72 2 3.46666 2.10667 3.28 2.29333C3.09333 2.48 2.98666 2.73333 2.98666 3V29C2.98666 29.2667 3.09333 29.52 3.28 29.7067C3.46666 29.8933 3.72 30 3.98666 30H27.9867C28.2533 30 28.5067 29.8933 28.6933 29.7067C28.88 29.52 28.9867 29.2667 28.9867 29V6.84C28.9867 6.70667 28.96 6.57333 28.9067 6.45333C28.8533 6.33333 28.7733 6.21333 28.68 6.12L24.68 2.28C24.48 2.09333 24.24 1.98667 23.9733 1.98667H3.98666V2Z" fill="#FF540B"/>
<path d="M8.62666 27.48C7.96 27.48 7.56 27.2533 7.32 27.0533C7.05333 26.8267 6.72 26.3867 6.69333 25.6533C6.57333 23.3467 7.46666 20.36 11.88 18.0667C11.88 18.04 11.88 18.0267 11.88 18L11.9067 17.72C11.9867 16.8933 12.04 16.0667 12.0533 15.24C10.76 14 9.53333 12.7067 8.38666 11.3733C7.66666 10.36 7.37333 9.22667 7.49333 8.08C7.58666 7.38667 7.90666 6.77333 8.38666 6.30667C8.86666 5.84 9.49333 5.54667 10.1467 5.48C10.2 5.48 10.24 5.48 10.2933 5.48C10.8133 5.49333 11.3067 5.64 11.76 5.90667C12.2 6.16 12.5733 6.53333 12.84 6.97333C13.2667 7.69333 13.5333 8.46667 13.6533 9.29333C13.92 10.9733 14.0667 12.6667 14.0667 14.3733C14.3867 14.68 14.72 14.9733 15.0533 15.2667C15.4933 15.6267 15.9467 15.96 16.4133 16.28C18.5467 15.6267 20.8667 15.44 23.1333 15.7733C23.9067 15.8933 24.64 16.2133 25.2533 16.68C25.64 16.9867 25.9333 17.3733 26.1067 17.8133C26.28 18.2533 26.3467 18.7467 26.28 19.2133C26.2667 19.2667 26.2667 19.32 26.2533 19.36C26.08 19.9333 25.7467 20.4267 25.28 20.7867C24.8133 21.1467 24.2533 21.36 23.6533 21.3733C22.72 21.4133 21.8 21.2 20.9733 20.8133C19.3067 20.2267 17.68 19.44 16.1467 18.48C15.2933 18.7467 14.5067 19.04 13.8 19.3467C13.6133 21.4133 13.24 23.6133 11.9467 25.4533C11.6667 25.92 11.24 26.3733 10.7333 26.72C10.2267 27.0667 9.65333 27.32 9.05333 27.4267C8.88 27.4667 8.74666 27.48 8.62666 27.48ZM11.6267 20.5067C9.58666 21.8667 8.6 23.5333 8.69333 25.48C8.69333 25.48 8.70666 25.48 8.72 25.48C8.97333 25.4267 9.28 25.2933 9.56 25.1067C9.84 24.9067 10.08 24.6667 10.2533 24.3733C11.04 23.24 11.4133 21.9067 11.6267 20.5067ZM18.8933 17.76C19.8 18.2267 20.7333 18.6267 21.7067 18.9733C22.3467 19.2667 23.0133 19.3867 23.5733 19.3867C23.72 19.3867 23.8933 19.32 24.0267 19.2133C24.1467 19.12 24.24 19 24.2933 18.8667C24.2933 18.76 24.28 18.6533 24.24 18.56C24.1867 18.44 24.12 18.3333 24.0133 18.2533C23.68 17.9867 23.2533 17.8133 22.8267 17.7467C21.52 17.56 20.1867 17.5733 18.8933 17.76ZM10.2933 7.49333C10.0933 7.53333 9.92 7.62667 9.77333 7.76C9.61333 7.92 9.50666 8.12 9.48 8.34667C9.41333 8.96 9.57333 9.61333 9.96 10.1467C10.6 10.88 11.28 11.6267 11.9867 12.3467C11.92 11.4267 11.8133 10.52 11.6667 9.61333C11.6667 9.6 11.6667 9.6 11.6667 9.58667C11.5867 9.02667 11.4 8.49333 11.1067 8C11.0267 7.85333 10.8933 7.73333 10.7333 7.64C10.6 7.56 10.4533 7.50667 10.2933 7.49333Z" fill="#FF540B"/>
</svg>
