<svg width="24" height="24" viewBox="0 0 24 24" fill="none" xmlns="http://www.w3.org/2000/svg">
<path d="M5.22176 21.7782C3.8159 21.7782 2.51046 21.2762 1.50628 20.272C0.502092 19.2678 0 17.9623 0 16.5565C0 15.1506 0.502092 13.8452 1.50628 12.841L6.32636 8.02092C7.23013 7.11716 8.53557 6.51464 9.84101 6.51464C11.1464 6.41423 12.4519 6.91632 13.4561 7.82008C14.4603 8.72385 15.1632 9.92887 15.2636 11.2343C15.4644 12.5398 15.0628 13.8452 14.2594 14.9498C14.0586 15.251 13.5565 15.3515 13.2552 15.1506C12.954 14.9498 12.8536 14.4477 13.0544 14.1464C13.6569 13.3431 13.8577 12.4393 13.7573 11.5356C13.6569 10.6318 13.1548 9.72803 12.4519 9.12552C11.749 8.22176 10.8452 7.9205 9.94143 7.9205C8.93724 8.02092 8.03348 8.4226 7.43097 9.02511L2.61088 13.8452C1.90795 14.5481 1.50628 15.5523 1.50628 16.5565C1.50628 17.5607 1.90795 18.4644 2.61088 19.2678C4.01674 20.6736 6.5272 20.6736 7.93306 19.2678L8.83682 18.2636C9.13808 17.9623 9.64017 17.9623 9.94143 18.2636C10.2427 18.5649 10.2427 19.067 9.94143 19.3682L9.03766 20.272C8.03348 21.2762 6.72804 21.7782 5.22176 21.7782Z" fill="#3CB572"/>
<path d="M14.0586 18.2636C12.7531 18.2636 11.5481 17.8619 10.6443 16.9582C9.64016 16.0544 9.03765 14.8494 8.83681 13.5439C8.63598 12.2385 9.03765 10.9331 9.841 9.82845C10.0418 9.5272 10.5439 9.42678 10.8452 9.62762C11.1464 9.82845 11.2469 10.3305 11.046 10.6318C10.4435 11.4351 10.2427 12.3389 10.3431 13.2427C10.4435 14.1464 10.9456 15.0502 11.6485 15.6527C12.3515 16.2552 13.2552 16.5565 14.2594 16.5565C15.1632 16.5565 16.0669 16.1548 16.7699 15.4519L21.59 10.6318C22.1925 10.1297 22.5941 9.22594 22.5941 8.22176C22.5941 7.21757 22.1925 6.31381 21.4895 5.51046C20.0837 4.1046 17.5732 4.1046 16.1674 5.51046L15.364 6.31381C15.0628 6.61506 14.5607 6.61506 14.2594 6.31381C13.9582 6.01255 14.0586 5.51046 14.3598 5.20921L15.0628 4.50628C16.0669 3.50209 17.3724 3 18.7782 3C20.1841 3 21.4895 3.50209 22.4937 4.50628C23.4979 5.51046 24 6.8159 24 8.22176C24 9.62762 23.4979 10.9331 22.4937 11.9372L17.6736 16.7573C16.7699 17.6611 15.4644 18.2636 14.159 18.2636H14.0586Z" fill="#3CB572"/>
</svg>
