<svg width="25" height="24" viewBox="0 0 25 24" fill="none" xmlns="http://www.w3.org/2000/svg">
<path fill-rule="evenodd" clip-rule="evenodd" d="M20.6702 0C21.0932 0 21.4362 0.342931 21.4362 0.765957V4.16248C21.6746 4.21114 21.9089 4.28263 22.1358 4.37663C22.8356 4.6665 23.4337 5.15737 23.8546 5.78718C24.2754 6.41698 24.5 7.15743 24.5 7.91489C24.5 8.93062 24.0965 9.90474 23.3783 10.623C22.8433 11.1579 22.1665 11.5182 21.4362 11.6673V23.234C21.4362 23.6571 21.0932 24 20.6702 24C20.2472 24 19.9043 23.6571 19.9043 23.234V11.6673C19.4202 11.5685 18.9573 11.3764 18.5425 11.0992C17.9127 10.6784 17.4218 10.0803 17.132 9.38049C16.8421 8.68069 16.7662 7.91065 16.914 7.16774C17.0618 6.42483 17.4265 5.74243 17.9621 5.20683C18.4932 4.67574 19.1686 4.31264 19.9043 4.16249L19.9043 0.765957C19.9043 0.342931 20.2472 0 20.6702 0ZM19.0454 6.29005C19.2887 6.04675 19.5825 5.86221 19.9043 5.74844C20.0075 5.71193 20.1136 5.68271 20.2219 5.66118C20.6677 5.57251 21.1297 5.61802 21.5496 5.79194C21.917 5.94412 22.2377 6.18864 22.4812 6.50054C22.516 6.5451 22.5493 6.59103 22.5808 6.63827C22.8175 6.99253 22.9508 7.40514 22.9665 7.82981C22.9676 7.85812 22.9681 7.88649 22.9681 7.91489C22.9681 8.44815 22.7827 8.96229 22.4477 9.37119C22.3998 9.4296 22.3489 9.48587 22.2951 9.53973C22.0504 9.78438 21.7563 9.96817 21.4362 10.0813C21.1924 10.1675 20.9337 10.2128 20.6702 10.2128C20.4079 10.2128 20.149 10.1679 19.9043 10.0813C19.725 10.018 19.5534 9.93226 19.3936 9.82551C19.3463 9.79394 19.3004 9.76072 19.2559 9.72592C18.944 9.48234 18.6994 9.16165 18.5473 8.79425C18.5255 8.74177 18.5058 8.68862 18.4881 8.63493C18.3641 8.25912 18.3389 7.85663 18.4165 7.4666C18.422 7.43874 18.4281 7.41103 18.4346 7.38346C18.5329 6.97002 18.7441 6.59133 19.0454 6.29005Z" fill="#014958"/>
<path fill-rule="evenodd" clip-rule="evenodd" d="M4.32979 0C4.75281 0 5.09574 0.342931 5.09574 0.765957V4.16248C5.33413 4.21114 5.56845 4.28263 5.79538 4.37663C6.49518 4.6665 7.09332 5.15737 7.51414 5.78718C7.93496 6.41698 8.15957 7.15743 8.15957 7.91489C8.15957 8.93062 7.75608 9.90474 7.03786 10.623C6.50292 11.1579 5.82604 11.5182 5.09575 11.6673L5.09575 23.234C5.09575 23.6571 4.75281 24 4.32979 24C3.90676 24 3.56383 23.6571 3.56383 23.234L3.56383 11.6673C3.07975 11.5685 2.61691 11.3764 2.20207 11.0992C1.57227 10.6784 1.08139 10.0803 0.791527 9.38049C0.501659 8.68069 0.425817 7.91065 0.57359 7.16774C0.721363 6.42483 1.08612 5.74243 1.62172 5.20683C2.1528 4.67574 2.82822 4.31264 3.56383 4.16249L3.56383 0.765957C3.56383 0.342931 3.90676 0 4.32979 0ZM2.70495 6.29005C2.94825 6.04675 3.24203 5.86221 3.56383 5.74844C3.66708 5.71193 3.77322 5.68271 3.88149 5.66118C4.32724 5.57251 4.78926 5.61802 5.20915 5.79194C5.57654 5.94412 5.89723 6.18864 6.14082 6.50054C6.17561 6.5451 6.20884 6.59103 6.2404 6.63827C6.49289 7.01615 6.62766 7.46042 6.62766 7.91489C6.62766 8.52433 6.38556 9.1088 5.95463 9.53973C5.70998 9.78438 5.41584 9.96817 5.09575 10.0813C4.85201 10.1675 4.59323 10.2128 4.32979 10.2128C4.06747 10.2128 3.80855 10.1679 3.56383 10.0813C3.38457 10.018 3.21293 9.93226 3.05316 9.82551C3.00592 9.79394 2.95999 9.76072 2.91543 9.72592C2.60353 9.48234 2.35901 9.16165 2.20683 8.79425C2.18509 8.74177 2.16536 8.68862 2.14764 8.63493C2.02363 8.25912 1.99849 7.85663 2.07607 7.4666C2.08161 7.43874 2.08766 7.41103 2.09421 7.38346C2.19249 6.97002 2.40367 6.59133 2.70495 6.29005Z" fill="#014958"/>
<path fill-rule="evenodd" clip-rule="evenodd" d="M12.5 0C12.923 0 13.266 0.342931 13.266 0.765957L13.266 12.4024C13.9963 12.5515 14.6731 12.9118 15.2081 13.4467C15.9263 14.165 16.3298 15.1391 16.3298 16.1548C16.3298 16.9123 16.1052 17.6527 15.6844 18.2825C15.2635 18.9123 14.6654 19.4032 13.9656 19.6931C13.7387 19.7871 13.5043 19.8585 13.266 19.9072V23.234C13.266 23.6571 12.923 24 12.5 24C12.077 24 11.734 23.6571 11.734 23.234V19.9072C10.9984 19.757 10.323 19.3939 9.79193 18.8629C9.25633 18.3273 8.89158 17.6449 8.7438 16.9019C8.59603 16.159 8.67187 15.389 8.96174 14.6892C9.25161 13.9894 9.74248 13.3913 10.3723 12.9704C10.7871 12.6933 11.25 12.5012 11.734 12.4024L11.734 0.765957C11.734 0.342931 12.077 0 12.5 0ZM11.2234 14.2442C11.3831 14.1374 11.5548 14.0517 11.734 13.9883C11.9788 13.9018 12.2377 13.8569 12.5 13.8569C12.7634 13.8569 13.0222 13.9022 13.266 13.9883C13.5861 14.1015 13.8802 14.2853 14.1248 14.53C14.5558 14.9609 14.7979 15.5454 14.7979 16.1548C14.7979 16.6093 14.6631 17.0535 14.4106 17.4314C14.1581 17.8093 13.7992 18.1038 13.3794 18.2778C13.3419 18.2933 13.3041 18.3078 13.266 18.3213C12.8771 18.4587 12.4577 18.4893 12.0517 18.4085C11.9434 18.387 11.8373 18.3578 11.734 18.3213C11.4122 18.2075 11.1185 18.0229 10.8752 17.7796C10.835 17.7395 10.7964 17.6979 10.7595 17.6551C10.5011 17.3553 10.3239 16.9931 10.2463 16.6031C10.2352 16.5474 10.2262 16.4914 10.2193 16.4353C10.171 16.0425 10.2249 15.6428 10.377 15.2754C10.551 14.8556 10.8455 14.4967 11.2234 14.2442Z" fill="#014958"/>
</svg>
