<svg width="121" height="80" viewBox="0 0 121 80" fill="none" xmlns="http://www.w3.org/2000/svg">
<path d="M47.9228 75.824L43.3599 80.3869C39.2282 84.5186 33.6245 86.8398 27.7814 86.8398C21.9383 86.8398 16.3345 84.5186 12.2028 80.3869C8.07116 76.2553 5.75 70.6515 5.75 64.8084C5.75 58.9653 8.07116 53.3616 12.2028 49.2299L35.5707 25.8572C39.4884 21.9305 44.7431 19.6262 50.2855 19.4044C55.8279 19.1825 61.25 21.0594 65.469 24.6603C69.6881 28.2612 72.3936 33.3211 73.0454 38.8295C73.6971 44.3378 72.247 49.8894 68.9847 54.3754" stroke="#3CB572" stroke-width="3.26389" stroke-linecap="round" stroke-linejoin="round"/>
<path d="M74.6247 12.5036L78.2965 8.83175C82.4282 4.70006 88.032 2.37891 93.8751 2.37891C99.7182 2.37891 105.322 4.70006 109.454 8.83175C113.585 12.9634 115.906 18.5672 115.906 24.4103C115.906 30.2534 113.585 35.8571 109.454 39.9888L86.0858 63.3567C82.1673 67.2816 76.9125 69.5842 71.3707 69.8047C65.8289 70.0253 60.4078 68.1475 56.1897 64.5463C51.9717 60.9451 49.2671 55.8856 48.6158 50.3777C47.9646 44.8699 49.4147 39.3191 52.6767 34.8335" stroke="#3CB572" stroke-width="3.26389" stroke-linecap="round" stroke-linejoin="round"/>
</svg>
