<svg width="35" height="40" viewBox="0 0 35 40" fill="none" xmlns="http://www.w3.org/2000/svg">
<path fill-rule="evenodd" clip-rule="evenodd" d="M9.54505 3.29505C11.6548 1.18526 14.5163 0 17.5 0C20.4837 0 23.3452 1.18526 25.4549 3.29505C27.5647 5.40483 28.75 8.26631 28.75 11.25C28.75 14.2337 27.5647 17.0952 25.4549 19.2049C24.162 20.4979 22.5867 21.4436 20.8741 21.9821C24.2515 22.6302 27.3877 24.2428 29.8629 26.6554C33.1482 29.8575 35 34.2074 35 38.75C35 39.0815 34.8683 39.3995 34.6339 39.6339C34.3994 39.8683 34.0815 40 33.75 40H1.25C0.918479 40 0.600537 39.8683 0.366116 39.6339C0.131696 39.3995 0 39.0815 0 38.75C0 34.2074 1.85174 29.8575 5.13704 26.6554C7.6123 24.2428 10.7484 22.6302 14.1259 21.9821C12.4132 21.4436 10.838 20.4979 9.54505 19.2049C7.43526 17.0952 6.25 14.2337 6.25 11.25C6.25 8.26631 7.43526 5.40483 9.54505 3.29505ZM17.5 2.5C15.1794 2.5 12.9538 3.42187 11.3128 5.06281C9.67187 6.70376 8.75 8.92935 8.75 11.25C8.75 13.5706 9.67187 15.7962 11.3128 17.4372C12.9538 19.0781 15.1794 20 17.5 20C19.8206 20 22.0462 19.0781 23.6872 17.4372C25.3281 15.7962 26.25 13.5706 26.25 11.25C26.25 8.92935 25.3281 6.70376 23.6872 5.06281C22.0462 3.42187 19.8206 2.5 17.5 2.5ZM17.5 24.1615C13.5115 24.1615 9.69271 25.7061 6.88199 28.4457C4.3773 30.8869 2.85589 34.0981 2.55514 37.5H32.4449C32.1441 34.0981 30.6227 30.8869 28.118 28.4457C25.3073 25.7061 21.4884 24.1615 17.5 24.1615Z" fill="#014958"/>
</svg>
