<svg width="24" height="24" viewBox="0 0 24 24" fill="none" xmlns="http://www.w3.org/2000/svg">
<path fill-rule="evenodd" clip-rule="evenodd" d="M7.22703 1.97703C8.4929 0.711159 10.2098 0 12 0C13.7902 0 15.5071 0.711159 16.773 1.97703C18.0388 3.2429 18.75 4.95979 18.75 6.75C18.75 8.54021 18.0388 10.2571 16.773 11.523C15.9972 12.2987 15.052 12.8662 14.0244 13.1893C16.0509 13.5781 17.9326 14.5457 19.4178 15.9932C21.3889 17.9145 22.5 20.5244 22.5 23.25C22.5 23.4489 22.421 23.6397 22.2803 23.7803C22.1397 23.921 21.9489 24 21.75 24H2.25C2.05109 24 1.86032 23.921 1.71967 23.7803C1.57902 23.6397 1.5 23.4489 1.5 23.25C1.5 20.5244 2.61105 17.9145 4.58222 15.9932C6.06738 14.5457 7.94907 13.5781 9.97555 13.1893C8.94794 12.8662 8.00279 12.2987 7.22703 11.523C5.96116 10.2571 5.25 8.54021 5.25 6.75C5.25 4.95979 5.96116 3.2429 7.22703 1.97703ZM12 1.5C10.6076 1.5 9.27225 2.05312 8.28769 3.03769C7.30312 4.02225 6.75 5.35761 6.75 6.75C6.75 8.14238 7.30312 9.47774 8.28769 10.4623C9.27225 11.4469 10.6076 12 12 12C13.3924 12 14.7277 11.4469 15.7123 10.4623C16.6969 9.47774 17.25 8.14238 17.25 6.75C17.25 5.35761 16.6969 4.02225 15.7123 3.03769C14.7277 2.05312 13.3924 1.5 12 1.5ZM12 14.4969C9.60693 14.4969 7.31563 15.4237 5.62919 17.0674C4.12638 18.5322 3.21353 20.4588 3.03308 22.5H20.9669C20.7865 20.4588 19.8736 18.5322 18.3708 17.0674C16.6844 15.4237 14.3931 14.4969 12 14.4969Z" fill="#014958"/>
</svg>
