<svg width="25" height="24" viewBox="0 0 25 24" fill="none" xmlns="http://www.w3.org/2000/svg">
<path fill-rule="evenodd" clip-rule="evenodd" d="M11.1779 13.0408C11.1779 11.012 12.8225 9.36735 14.8513 9.36735C16.8801 9.36735 18.5248 11.012 18.5248 13.0408C18.5248 15.0696 16.8801 16.7143 14.8513 16.7143C12.8225 16.7143 11.1779 15.0696 11.1779 13.0408ZM14.8513 10.8367C13.634 10.8367 12.6472 11.8235 12.6472 13.0408C12.6472 14.2581 13.634 15.2449 14.8513 15.2449C16.0686 15.2449 17.0554 14.2581 17.0554 13.0408C17.0554 11.8235 16.0686 10.8367 14.8513 10.8367Z" fill="#3CB572"/>
<path fill-rule="evenodd" clip-rule="evenodd" d="M14.8513 6.91837C11.47 6.91837 8.72887 9.65948 8.72887 13.0408C8.72887 16.4222 11.47 19.1633 14.8513 19.1633C18.2327 19.1633 20.9738 16.4222 20.9738 13.0408C20.9738 9.65948 18.2327 6.91837 14.8513 6.91837ZM10.1983 13.0408C10.1983 10.471 12.2815 8.38776 14.8513 8.38776C17.4211 8.38776 19.5044 10.471 19.5044 13.0408C19.5044 15.6106 17.4211 17.6939 14.8513 17.6939C12.2815 17.6939 10.1983 15.6106 10.1983 13.0408Z" fill="#3CB572"/>
<path fill-rule="evenodd" clip-rule="evenodd" d="M4.56561 7.89796C3.34833 7.89796 2.36153 8.88476 2.36153 10.102C2.36153 11.3193 3.34833 12.3061 4.56561 12.3061C5.78289 12.3061 6.76969 11.3193 6.76969 10.102C6.76969 8.88476 5.78289 7.89796 4.56561 7.89796ZM3.83092 10.102C3.83092 9.69628 4.15985 9.36735 4.56561 9.36735C4.97137 9.36735 5.3003 9.69628 5.3003 10.102C5.3003 10.5078 4.97137 10.8367 4.56561 10.8367C4.15985 10.8367 3.83092 10.5078 3.83092 10.102Z" fill="#3CB572"/>
<path fill-rule="evenodd" clip-rule="evenodd" d="M10.6761 3.85957C11.1365 3.36184 11.6605 3 12.4023 3H17.3003C18.1664 3 18.7692 3.51163 19.1791 4.04989C19.567 4.55933 19.8685 5.20544 20.1192 5.74286L20.1446 5.79746C20.1643 5.83968 20.1957 5.87541 20.235 5.90044C20.2743 5.92545 20.3199 5.93875 20.3664 5.93878H21.6536C22.5039 5.93878 23.2281 6.12176 23.7353 6.59849C24.2538 7.0857 24.4023 7.74299 24.4023 8.36131V18.5373C24.4023 19.1535 24.2553 19.8269 23.769 20.3473C23.2738 20.8772 22.5457 21.1224 21.6536 21.1224H3.15108C2.25904 21.1224 1.53091 20.8772 1.03569 20.3473C0.549343 19.8269 0.402344 19.1535 0.402344 18.5373V8.36131C0.402344 7.74344 0.550521 7.09032 1.05659 6.60409C1.40497 6.26937 1.85696 6.07771 2.38031 5.99252L2.38913 5.67749C2.39704 5.23809 2.57189 4.81808 2.8783 4.50285C3.18599 4.1863 3.60305 3.99935 4.04408 3.98028C4.05465 3.97982 4.06524 3.97959 4.07582 3.97959H5.00732C5.45718 3.98374 5.8888 4.15801 6.21545 4.46734C6.5421 4.77667 6.73958 5.19817 6.76821 5.64713C6.7692 5.66269 6.7697 5.67828 6.7697 5.69388V5.93878H8.97086C9.00854 5.93833 9.04562 5.92919 9.0792 5.91206C9.11322 5.89471 9.14271 5.86964 9.16532 5.83887L9.16672 5.83697C9.31642 5.63453 9.45832 5.4395 9.59355 5.25365C10.006 4.68678 10.3564 4.20521 10.6761 3.85957ZM3.09374 7.40816C2.45538 7.40854 2.18779 7.55494 2.07463 7.66366C1.96845 7.76568 1.87173 7.95647 1.87173 8.36131V18.5373C1.87173 18.9429 1.96963 19.1946 2.10924 19.344C2.23998 19.4839 2.51888 19.6531 3.15108 19.6531H21.6536C22.2858 19.6531 22.5647 19.4839 22.6954 19.344C22.8351 19.1946 22.933 18.9429 22.933 18.5373V8.36131C22.933 7.95693 22.8366 7.77029 22.7291 7.66926C22.6104 7.55775 22.3276 7.40816 21.6536 7.40816H20.3664C20.0403 7.40812 19.7208 7.31503 19.4457 7.13983C19.1706 6.96462 18.9512 6.71456 18.8132 6.41903C18.538 5.82951 18.2961 5.3157 18.0101 4.94007C17.7327 4.57588 17.5117 4.46939 17.3003 4.46939H12.4023C12.2322 4.46939 12.0705 4.51604 11.7548 4.85733C11.4985 5.13442 11.2228 5.51309 10.8337 6.0476C10.6891 6.24612 10.5288 6.46633 10.3482 6.71062C10.1901 6.92519 9.98421 7.09996 9.74679 7.22104C9.50866 7.34248 9.24544 7.40656 8.97814 7.40815L8.97377 7.40816L3.09374 7.40816ZM3.85183 5.93878H5.30031V5.72416C5.29183 5.65184 5.25824 5.58457 5.20511 5.53426C5.14855 5.4807 5.074 5.45029 4.99618 5.44898H4.09683C4.03439 5.45426 3.9758 5.4819 3.93196 5.527C3.88562 5.57468 3.85925 5.63828 3.85827 5.70476L3.85813 5.71444L3.85183 5.93878Z" fill="#3CB572"/>
</svg>
