<?xml version="1.0" encoding="UTF-8" standalone="no"?>
<!DOCTYPE svg PUBLIC "-//W3C//DTD SVG 1.1//EN" "http://www.w3.org/Graphics/SVG/1.1/DTD/svg11.dtd">
<!-- Created with Vectornator (http://vectornator.io/) -->
<svg height="24.0pt" stroke-miterlimit="10" style="fill-rule:nonzero;clip-rule:evenodd;stroke-linecap:round;stroke-linejoin:round;" version="1.1" viewBox="0 0 24 24" width="24.0pt" xml:space="preserve" xmlns="http://www.w3.org/2000/svg" xmlns:xlink="http://www.w3.org/1999/xlink">
<defs/>
<g id="Sans-titre">
<path d="M10.7756 12.9796C10.7756 10.9508 12.4202 9.30615 14.449 9.30615C16.4778 9.30615 18.1225 10.9508 18.1225 12.9796C18.1225 15.0084 16.4778 16.6531 14.449 16.6531C12.4202 16.6531 10.7756 15.0084 10.7756 12.9796ZM14.449 10.7755C13.2317 10.7755 12.2449 11.7623 12.2449 12.9796C12.2449 14.1969 13.2317 15.1837 14.449 15.1837C15.6663 15.1837 16.6531 14.1969 16.6531 12.9796C16.6531 11.7623 15.6663 10.7755 14.449 10.7755Z" fill="#3cb572" fill-rule="evenodd" opacity="1" stroke="none"/>
<path d="M14.449 6.85717C11.0677 6.85717 8.32657 9.59828 8.32657 12.9796C8.32657 16.361 11.0677 19.1021 14.449 19.1021C17.8304 19.1021 20.5715 16.361 20.5715 12.9796C20.5715 9.59828 17.8304 6.85717 14.449 6.85717ZM9.796 12.9796C9.796 10.4098 11.8792 8.32656 14.449 8.32656C17.0188 8.32656 19.1021 10.4098 19.1021 12.9796C19.1021 15.5494 17.0188 17.6327 14.449 17.6327C11.8792 17.6327 9.796 15.5494 9.796 12.9796Z" fill="#3cb572" fill-rule="evenodd" opacity="1" stroke="none"/>
<path d="M4.16331 7.83676C2.94603 7.83676 1.95923 8.82356 1.95923 10.0408C1.95923 11.2581 2.94603 12.2449 4.16331 12.2449C5.38059 12.2449 6.36739 11.2581 6.36739 10.0408C6.36739 8.82356 5.38059 7.83676 4.16331 7.83676ZM3.42862 10.0408C3.42862 9.63508 3.75755 9.30615 4.16331 9.30615C4.56907 9.30615 4.898 9.63508 4.898 10.0408C4.898 10.4466 4.56907 10.7755 4.16331 10.7755C3.75755 10.7755 3.42862 10.4466 3.42862 10.0408Z" fill="#3cb572" fill-rule="evenodd" opacity="1" stroke="none"/>
<path d="M10.2738 3.79837C10.7342 3.30064 11.2582 2.9388 12 2.9388L16.898 2.9388C17.7641 2.9388 18.3669 3.45043 18.7768 3.98869C19.1647 4.49813 19.4662 5.14424 19.7169 5.68166L19.7423 5.73626C19.762 5.77848 19.7934 5.81421 19.8327 5.83924C19.872 5.86425 19.9176 5.87755 19.9641 5.87758L21.2513 5.87758C22.1016 5.87758 22.8258 6.06056 23.333 6.53729C23.8515 7.0245 24 7.68179 24 8.30011L24 18.4761C24 19.0923 23.853 19.7657 23.3667 20.2861C22.8715 20.816 22.1434 21.0612 21.2513 21.0612L2.74878 21.0612C1.85674 21.0612 1.12861 20.816 0.63339 20.2861C0.147043 19.7657 4.4e-05 19.0923 4.4e-05 18.4761L4.4e-05 8.30011C4.4e-05 7.68224 0.148221 7.02912 0.65429 6.54289C1.00267 6.20817 1.45466 6.01651 1.97801 5.93132L1.98683 5.61629C1.99474 5.17689 2.16959 4.75688 2.476 4.44165C2.78369 4.1251 3.20075 3.93815 3.64178 3.91908C3.65235 3.91862 3.66294 3.91839 3.67352 3.91839L4.60502 3.91839C5.05488 3.92254 5.4865 4.09681 5.81315 4.40614C6.1398 4.71547 6.33728 5.13697 6.36591 5.58593C6.3669 5.60149 6.3674 5.61708 6.3674 5.63268L6.3674 5.87758L8.56856 5.87758C8.60624 5.87713 8.64332 5.86799 8.6769 5.85086C8.71092 5.83351 8.74041 5.80844 8.76302 5.77767L8.76442 5.77577C8.91412 5.57333 9.05602 5.3783 9.19125 5.19245C9.6037 4.62558 9.9541 4.14401 10.2738 3.79837ZM2.69144 7.34696C2.05308 7.34734 1.78549 7.49374 1.67233 7.60246C1.56615 7.70448 1.46943 7.89527 1.46943 8.30011L1.46943 18.4761C1.46943 18.8817 1.56733 19.1334 1.70694 19.2828C1.83768 19.4227 2.11658 19.5919 2.74878 19.5919L21.2513 19.5919C21.8835 19.5919 22.1624 19.4227 22.2931 19.2828C22.4328 19.1334 22.5307 18.8817 22.5307 18.4761L22.5307 8.30011C22.5307 7.89573 22.4343 7.70909 22.3268 7.60806C22.2081 7.49655 21.9253 7.34696 21.2513 7.34696L19.9641 7.34696C19.638 7.34692 19.3185 7.25383 19.0434 7.07863C18.7683 6.90342 18.5489 6.65336 18.4109 6.35783C18.1357 5.76831 17.8938 5.2545 17.6078 4.87887C17.3304 4.51468 17.1094 4.40819 16.898 4.40819L12 4.40819C11.8299 4.40819 11.6682 4.45484 11.3525 4.79613C11.0962 5.07322 10.8205 5.45189 10.4314 5.9864C10.2868 6.18492 10.1265 6.40513 9.9459 6.64942C9.7878 6.86399 9.58191 7.03876 9.34449 7.15984C9.10636 7.28128 8.84314 7.34536 8.57584 7.34695L8.57147 7.34696L2.69144 7.34696ZM3.44953 5.87758L4.89801 5.87758L4.89801 5.66296C4.88953 5.59064 4.85594 5.52337 4.80281 5.47306C4.74625 5.4195 4.6717 5.38909 4.59388 5.38778L3.69453 5.38778C3.63209 5.39306 3.5735 5.4207 3.52966 5.4658C3.48332 5.51348 3.45695 5.57708 3.45597 5.64356L3.45583 5.65324L3.44953 5.87758Z" fill="#3cb572" fill-rule="evenodd" opacity="1" stroke="none"/>
</g>
</svg>
