<svg width="25" height="24" viewBox="0 0 25 24" fill="none" xmlns="http://www.w3.org/2000/svg">
<path d="M12.4999 6.4C12.9418 6.4 13.2999 6.75817 13.2999 7.2V14.8686L15.9343 12.2343C16.2467 11.9219 16.7532 11.9219 17.0656 12.2343C17.378 12.5467 17.378 13.0533 17.0656 13.3657L13.0656 17.3657C12.9889 17.4424 12.9005 17.5003 12.8062 17.5393C12.7118 17.5784 12.6084 17.6 12.4999 17.6C12.4861 17.6 12.4724 17.5997 12.4588 17.599C12.3653 17.5942 12.276 17.5734 12.1937 17.5393C12.0994 17.5003 12.011 17.4424 11.9343 17.3657L7.93425 13.3657C7.62183 13.0533 7.62183 12.5467 7.93425 12.2343C8.24667 11.9219 8.75321 11.9219 9.06562 12.2343L11.6999 14.8686V7.2C11.6999 6.75817 12.0581 6.4 12.4999 6.4Z" fill="#014958"/>
<path fill-rule="evenodd" clip-rule="evenodd" d="M12.4999 0C5.87252 0 0.499939 5.37258 0.499939 12C0.499939 18.6274 5.87252 24 12.4999 24C19.1274 24 24.4999 18.6274 24.4999 12C24.4999 5.37258 19.1274 0 12.4999 0ZM2.09994 12C2.09994 6.25624 6.75618 1.6 12.4999 1.6C18.2437 1.6 22.8999 6.25624 22.8999 12C22.8999 17.7438 18.2437 22.4 12.4999 22.4C6.75618 22.4 2.09994 17.7438 2.09994 12Z" fill="#014958"/>
</svg>
