<svg width="1024" height="1024" viewBox="0 0 1024 1024" fill="none" xmlns="http://www.w3.org/2000/svg">
<path fill-rule="evenodd" clip-rule="evenodd" d="M476.103 460.925C479.209 463.65 481.761 467.092 483.457 470.843L548.742 710.871C553.622 721.669 550.33 732.278 541.389 734.566C538.678 735.259 535.639 735.12 532.551 734.161L473.287 715.746L476.103 631.601L422.5 701.064L312.445 665.777C302.258 662.612 294 651.474 294 640.899C294 637.955 294.654 635.254 295.912 633.005L333.031 538.581C337.547 530.506 348.61 530.059 357.742 537.584C361.368 540.573 364.305 544.533 366.098 548.855L386.337 584.18L451.076 460.782C455.957 453.017 467.162 453.081 476.103 460.925Z" fill="white"/>
</svg>
