<svg width="24" height="24" viewBox="0 0 24 24" fill="none" xmlns="http://www.w3.org/2000/svg">
<path fill-rule="evenodd" clip-rule="evenodd" d="M2.25 1.5C2.05109 1.5 1.86032 1.57902 1.71967 1.71967C1.57902 1.86032 1.5 2.05109 1.5 2.25V17.25C1.5 17.4489 1.57902 17.6397 1.71967 17.7803C1.86032 17.921 2.05109 18 2.25 18H5.25C5.66421 18 6 18.3358 6 18.75V21.75L10.8 18.15C10.9298 18.0526 11.0877 18 11.25 18H21.75C21.9489 18 22.1397 17.921 22.2803 17.7803C22.421 17.6397 22.5 17.4489 22.5 17.25V2.25C22.5 2.05109 22.421 1.86032 22.2803 1.71967C22.1397 1.57902 21.9489 1.5 21.75 1.5H2.25ZM0.65901 0.65901C1.08097 0.237053 1.65326 0 2.25 0H21.75C22.3467 0 22.919 0.237053 23.341 0.65901C23.7629 1.08097 24 1.65326 24 2.25V17.25C24 17.8467 23.7629 18.419 23.341 18.841C22.919 19.2629 22.3467 19.5 21.75 19.5H11.5L5.7 23.85C5.47274 24.0204 5.16868 24.0479 4.91459 23.9208C4.6605 23.7938 4.5 23.5341 4.5 23.25V19.5H2.25C1.65326 19.5 1.08097 19.2629 0.65901 18.841C0.237053 18.419 0 17.8467 0 17.25V2.25C0 1.65326 0.237053 1.08097 0.65901 0.65901Z" fill="#3CB572"/>
<path fill-rule="evenodd" clip-rule="evenodd" d="M4.5 7.5C4.5 7.08579 4.83579 6.75 5.25 6.75H18.75C19.1642 6.75 19.5 7.08579 19.5 7.5C19.5 7.91421 19.1642 8.25 18.75 8.25H5.25C4.83579 8.25 4.5 7.91421 4.5 7.5Z" fill="#3CB572"/>
<path fill-rule="evenodd" clip-rule="evenodd" d="M4.5 12C4.5 11.5858 4.83579 11.25 5.25 11.25H15.75C16.1642 11.25 16.5 11.5858 16.5 12C16.5 12.4142 16.1642 12.75 15.75 12.75H5.25C4.83579 12.75 4.5 12.4142 4.5 12Z" fill="#3CB572"/>
</svg>
