<svg width="32" height="32" viewBox="0 0 32 32" fill="none" xmlns="http://www.w3.org/2000/svg">
<path d="M28 32H4C3.2 32 2.44 31.6933 1.88 31.12C1.32 30.56 1 29.8 1 29V3C1 2.2 1.30667 1.44 1.88 0.88C2.44 0.306667 3.2 0 4 0H24C24.7867 0 25.5333 0.306667 26.0933 0.853333L30.0933 4.69333C30.3867 4.97333 30.6133 5.30667 30.7733 5.68C30.9333 6.05333 31.0133 6.44 31.0133 6.84V29C31.0133 29.8 30.7067 30.56 30.1333 31.12C29.56 31.68 28.7867 32 28 32ZM4 2C3.73333 2 3.48 2.10667 3.29333 2.29333C3.10667 2.48 3 2.73333 3 3V29C3 29.2667 3.10667 29.52 3.29333 29.7067C3.48 29.8933 3.73333 30 4 30H28C28.2667 30 28.52 29.8933 28.7067 29.7067C28.8933 29.52 29 29.2667 29 29V6.84C29 6.70667 28.9733 6.57333 28.92 6.45333C28.8667 6.33333 28.7867 6.21333 28.6933 6.12L24.6933 2.28C24.5067 2.10667 24.2667 2 24 2H4Z" fill="#00BCD4"/>
<path d="M13.1467 23C13.12 23 13.08 23 13.0533 23C12.6933 22.9867 12.3333 22.8667 12.0267 22.68C11.72 22.48 11.4667 22.2133 11.28 21.9067C11.1067 21.5867 11.0133 21.2267 11.0133 20.8667V13.1467C11.0133 12.7867 11.1067 12.4267 11.28 12.1067C11.4533 11.7867 11.72 11.52 12.0267 11.32C12.3333 11.1333 12.6933 11.0133 13.0533 11C13.4133 10.9733 13.7867 11.0533 14.1067 11.2267L21.8267 15.0933C22.1867 15.2667 22.48 15.5467 22.6933 15.88C22.9067 16.2133 23.0133 16.6133 23.0133 17C23.0133 17.3867 22.9067 17.7867 22.6933 18.12C22.48 18.4533 22.1867 18.7333 21.8267 18.9067L14.1067 22.7733C13.8 22.92 13.4667 23 13.1467 23ZM13.0667 20.9733C13.0933 20.9867 13.2 20.9867 13.2 20.9867L20.92 17.12C20.92 17.12 21 17.0267 21 17C21 16.9733 20.92 16.88 20.92 16.88L13.2 13.0133C13.2 13.0133 13.0933 13 13.0667 13.0267C13.04 13.04 13 13.1467 13 13.1467V20.8667C13 20.8533 13.04 20.96 13.0667 20.9733Z" fill="#00BCD4"/>
</svg>
