<svg width="298" height="194" viewBox="0 0 298 194" fill="none" xmlns="http://www.w3.org/2000/svg">
<mask id="path-1-inside-1_3933_19598" fill="white">
<path d="M62.1842 78.661C56.2444 77.2104 50.0505 77.1457 44.0816 78.4719C38.1128 79.798 32.529 82.4794 27.7623 86.3088C22.9955 90.1381 19.1736 95.0127 16.5921 100.555C14.0106 106.098 12.7387 112.16 12.8749 118.273C13.0111 124.386 14.5517 130.386 17.3775 135.808C20.2033 141.23 24.2385 145.93 29.1711 149.543C34.1037 153.156 39.8013 155.586 45.8233 156.645C51.8453 157.704 58.0301 157.364 63.8994 155.65L60.2479 143.144C56.2969 144.297 52.1335 144.526 48.0798 143.814C44.026 143.101 40.1906 141.465 36.8702 139.033C33.5498 136.6 30.8334 133.437 28.9312 129.787C27.029 126.137 25.9919 122.098 25.9002 117.983C25.8085 113.868 26.6647 109.787 28.4025 106.056C30.1402 102.325 32.713 99.0435 35.9218 96.4658C39.1306 93.888 42.8894 92.083 46.9074 91.1903C50.9253 90.2976 55.0948 90.3411 59.0933 91.3176L62.1842 78.661Z"/>
</mask>
<path d="M62.1842 78.661C56.2444 77.2104 50.0505 77.1457 44.0816 78.4719C38.1128 79.798 32.529 82.4794 27.7623 86.3088C22.9955 90.1381 19.1736 95.0127 16.5921 100.555C14.0106 106.098 12.7387 112.16 12.8749 118.273C13.0111 124.386 14.5517 130.386 17.3775 135.808C20.2033 141.23 24.2385 145.93 29.1711 149.543C34.1037 153.156 39.8013 155.586 45.8233 156.645C51.8453 157.704 58.0301 157.364 63.8994 155.65L60.2479 143.144C56.2969 144.297 52.1335 144.526 48.0798 143.814C44.026 143.101 40.1906 141.465 36.8702 139.033C33.5498 136.6 30.8334 133.437 28.9312 129.787C27.029 126.137 25.9919 122.098 25.9002 117.983C25.8085 113.868 26.6647 109.787 28.4025 106.056C30.1402 102.325 32.713 99.0435 35.9218 96.4658C39.1306 93.888 42.8894 92.083 46.9074 91.1903C50.9253 90.2976 55.0948 90.3411 59.0933 91.3176L62.1842 78.661Z" fill="#3CB572" stroke="#014958" stroke-width="2" mask="url(#path-1-inside-1_3933_19598)"/>
<path fill-rule="evenodd" clip-rule="evenodd" d="M145.579 43.652C147.421 44.1019 149.279 42.9733 149.729 41.1314C150.179 39.2895 149.05 37.4317 147.208 36.9819C145.367 36.532 143.509 37.6606 143.059 39.5025C142.609 41.3444 143.738 43.2022 145.579 43.652ZM142.456 50.3607C141.882 52.7123 139.51 54.1531 137.158 53.5788C134.807 53.0045 133.366 50.6326 133.94 48.281C134.514 45.9293 136.886 44.4885 139.238 45.0628C141.59 45.6371 143.03 48.009 142.456 50.3607ZM141.988 72.6911C145.104 72.5078 147.871 70.3235 148.65 67.1323C149.607 63.2147 147.206 59.2633 143.289 58.3066C141.865 57.9589 140.437 58.0546 139.149 58.5055C138.161 57.836 137.039 57.328 135.812 57.0282C130.283 55.678 124.706 59.0655 123.356 64.5945C123.202 65.2279 123.109 65.8619 123.075 66.4901C122.803 66.281 122.484 66.1239 122.129 66.0373C120.766 65.7044 119.391 66.5397 119.058 67.9031C118.903 68.5382 119.001 69.1758 119.288 69.7095C119.215 69.6889 119.142 69.6696 119.068 69.6515C115.659 68.8191 112.221 70.9074 111.389 74.316C110.971 76.0283 111.29 77.7481 112.143 79.1413C108.68 79.6378 105.654 81.9884 104.393 85.3866C100.721 85.037 97.4863 86.3656 93.5801 87.9697C90.0606 89.415 85.9963 91.0841 80.577 91.9509C68.9832 93.8055 56.8046 67.5238 56.8046 67.5238L40.8088 168.398C40.5956 169.743 41.4493 171.026 42.7718 171.349L101.221 185.623C102.544 185.946 103.893 185.2 104.324 183.909L140.927 74.0457C141.315 73.6274 141.671 73.1748 141.988 72.6911ZM148.752 54.8767C148.422 56.2307 147.056 57.0602 145.702 56.7296C144.348 56.3989 143.518 55.0332 143.849 53.6793C144.18 52.3253 145.545 51.4957 146.899 51.8264C148.253 52.157 149.083 53.5227 148.752 54.8767Z" fill="#E3F6DC"/>
<path d="M53.7041 139.142L50.0887 163.72C49.8923 165.056 50.7446 166.322 52.0561 166.642L55.6569 167.521C56.9685 167.842 58.3083 167.111 58.7496 165.835L66.8703 142.357" stroke="#014958" stroke-linecap="round"/>
<path d="M73.4531 143.964L69.8378 168.543C69.6413 169.878 70.4936 171.144 71.8052 171.464L75.4059 172.344C76.7175 172.664 78.0573 171.934 78.4986 170.658L86.6194 147.179" stroke="#014958" stroke-linecap="round"/>
<path d="M93.2031 148.787L89.5878 173.366C89.3913 174.701 90.2436 175.967 91.5552 176.288L95.1559 177.167C96.4675 177.487 97.8073 176.757 98.2486 175.481L106.369 152.002" stroke="#014958" stroke-linecap="round"/>
<ellipse cx="63.0937" cy="100.372" rx="1.61727" ry="1.61729" transform="rotate(13.7237 63.0937 100.372)" fill="white"/>
<ellipse cx="97.2906" cy="107.058" rx="2.54122" ry="2.54122" transform="rotate(13.7237 97.2906 107.058)" fill="white"/>
<ellipse cx="101.243" cy="115.872" rx="0.847072" ry="0.847074" transform="rotate(13.7237 101.243 115.872)" fill="white"/>
<ellipse cx="67.2147" cy="130.233" rx="0.847072" ry="0.847074" transform="rotate(13.7237 67.2147 130.233)" fill="white"/>
<ellipse cx="78.0583" cy="121.545" rx="1.69414" ry="1.69415" transform="rotate(13.7237 78.0583 121.545)" fill="white"/>
<ellipse cx="100.259" cy="143.098" rx="1.27061" ry="1.27061" transform="rotate(13.7237 100.259 143.098)" fill="white"/>
<ellipse cx="124.901" cy="102.902" rx="1.27061" ry="1.27061" transform="rotate(13.7237 124.901 102.902)" fill="white"/>
<path d="M62.2599 51.7763C60.493 51.3448 58.7337 52.5122 58.4445 54.3079L40.0938 168.26C39.8355 169.864 40.8527 171.397 42.4308 171.783L101.326 186.165C102.904 186.551 104.513 185.659 105.023 184.117L141.263 74.533C141.834 72.8062 140.81 70.9593 139.044 70.5278L62.2599 51.7763Z" stroke="#014958"/>
<path d="M37.8717 169.05C37.9621 168.269 38.717 167.743 39.4813 167.93L106.548 184.309C107.313 184.495 107.74 185.31 107.46 186.045L105.968 189.963C105.733 190.58 105.076 190.925 104.435 190.768L38.3789 174.637C37.7381 174.48 37.3141 173.871 37.3899 173.216L37.8717 169.05Z" fill="#014958"/>
<mask id="path-15-inside-2_3933_19598" fill="white">
<path d="M220.646 63.3106C226.227 60.8129 232.307 59.6325 238.417 59.8607C244.528 60.089 250.503 61.7198 255.882 64.6269C261.261 67.5341 265.9 71.6397 269.438 76.6261C272.977 81.6125 275.321 87.3461 276.289 93.3834C277.257 99.4206 276.823 105.6 275.021 111.443C273.22 117.285 270.098 122.635 265.897 127.079C261.697 131.522 256.531 134.94 250.799 137.067C245.066 139.194 238.921 139.975 232.839 139.347L234.176 126.387C238.27 126.81 242.407 126.285 246.266 124.852C250.124 123.42 253.602 121.12 256.43 118.129C259.257 115.138 261.359 111.536 262.571 107.603C263.784 103.67 264.076 99.5104 263.425 95.4463C262.773 91.3823 261.195 87.5227 258.813 84.166C256.431 80.8093 253.309 78.0456 249.688 76.0886C246.067 74.1316 242.044 73.0338 237.931 72.8802C233.818 72.7266 229.725 73.5212 225.968 75.2025L220.646 63.3106Z"/>
</mask>
<path d="M220.646 63.3106C226.227 60.8129 232.307 59.6325 238.417 59.8607C244.528 60.089 250.503 61.7198 255.882 64.6269C261.261 67.5341 265.9 71.6397 269.438 76.6261C272.977 81.6125 275.321 87.3461 276.289 93.3834C277.257 99.4206 276.823 105.6 275.021 111.443C273.22 117.285 270.098 122.635 265.897 127.079C261.697 131.522 256.531 134.94 250.799 137.067C245.066 139.194 238.921 139.975 232.839 139.347L234.176 126.387C238.27 126.81 242.407 126.285 246.266 124.852C250.124 123.42 253.602 121.12 256.43 118.129C259.257 115.138 261.359 111.536 262.571 107.603C263.784 103.67 264.076 99.5104 263.425 95.4463C262.773 91.3823 261.195 87.5227 258.813 84.166C256.431 80.8093 253.309 78.0456 249.688 76.0886C246.067 74.1316 242.044 73.0338 237.931 72.8802C233.818 72.7266 229.725 73.5212 225.968 75.2025L220.646 63.3106Z" fill="#3CB572" stroke="#014958" stroke-width="2" mask="url(#path-15-inside-2_3933_19598)"/>
<path fill-rule="evenodd" clip-rule="evenodd" d="M146.973 64.9858C145.893 62.0806 147.241 58.7966 150.111 57.5124C153.1 56.1746 156.607 57.5133 157.945 60.5024C158.23 61.1391 158.394 61.7994 158.446 62.4572C158.693 62.1406 159.018 61.878 159.41 61.7025C160.691 61.1292 162.195 61.7029 162.768 62.9839C163.035 63.5802 163.053 64.2246 162.867 64.801C162.935 64.7676 163.004 64.7353 163.074 64.7041C166.277 63.2708 170.035 64.7051 171.468 67.9077C172.188 69.5167 172.184 71.2659 171.596 72.7901C175.093 72.6532 178.494 74.4197 180.347 77.5355C183.895 76.5311 187.315 77.2544 191.445 78.1276C195.168 78.9147 199.467 79.8237 204.953 79.6992C216.691 79.4331 223.932 51.3863 223.932 51.3863L257.853 147.723C258.305 149.008 257.697 150.424 256.454 150.98L201.536 175.558C200.293 176.114 198.832 175.624 198.175 174.431L141.373 71.1665C141.373 71.1665 142.258 71.7717 143.731 72.7216C143.591 69.8037 144.779 66.944 146.973 64.9858Z" fill="#E3F6DC"/>
<path d="M239.897 121.27L247.885 144.794C248.319 146.072 247.709 147.471 246.477 148.022L243.093 149.536C241.861 150.088 240.412 149.611 239.747 148.436L227.527 126.806" stroke="#014958" stroke-linecap="round"/>
<path d="M221.34 129.575L229.327 153.099C229.761 154.377 229.151 155.776 227.919 156.327L224.536 157.842C223.303 158.393 221.854 157.916 221.19 156.741L208.969 135.111" stroke="#014958" stroke-linecap="round"/>
<path d="M202.786 137.88L210.774 161.404C211.208 162.683 210.598 164.082 209.365 164.633L205.982 166.147C204.75 166.699 203.3 166.222 202.636 165.046L190.415 143.417" stroke="#014958" stroke-linecap="round"/>
<ellipse cx="1.61727" cy="1.61729" rx="1.61727" ry="1.61729" transform="matrix(-0.912758 0.408501 0.4085 0.912758 224.488 82.6924)" fill="white"/>
<ellipse cx="2.54122" cy="2.54122" rx="2.54122" ry="2.54122" transform="matrix(-0.912758 0.408501 0.4085 0.912758 192.521 94.2144)" fill="white"/>
<ellipse cx="0.847073" cy="0.847073" rx="0.847073" ry="0.847073" transform="matrix(-0.912758 0.408501 0.4085 0.912758 189.37 105.834)" fill="white"/>
<ellipse cx="0.847073" cy="0.847073" rx="0.847073" ry="0.847073" transform="matrix(-0.912758 0.408501 0.4085 0.912758 225.428 113.826)" fill="white"/>
<ellipse cx="1.69415" cy="1.69415" rx="1.69415" ry="1.69415" transform="matrix(-0.912758 0.408501 0.4085 0.912758 213.622 106.115)" fill="white"/>
<ellipse cx="1.27061" cy="1.27061" rx="1.27061" ry="1.27061" transform="matrix(-0.912758 0.408501 0.4085 0.912758 195.457 131.878)" fill="white"/>
<ellipse cx="1.27061" cy="1.27061" rx="1.27061" ry="1.27061" transform="matrix(-0.912758 0.408501 0.4085 0.912758 163.975 96.7827)" fill="white"/>
<path d="M215.723 36.8798C217.383 36.1368 219.324 36.9678 219.932 38.682L258.528 147.458C259.071 148.989 258.347 150.681 256.864 151.344L201.527 176.11C200.044 176.774 198.301 176.187 197.521 174.762L142.118 73.5075C141.245 71.9119 141.918 69.9108 143.579 69.1678L215.723 36.8798Z" stroke="#014958"/>
<path d="M260.86 147.836C260.63 147.084 259.793 146.703 259.074 147.024L196.059 175.226C195.341 175.548 195.067 176.426 195.475 177.098L197.65 180.684C197.992 181.248 198.7 181.469 199.302 181.199L261.368 153.422C261.97 153.153 262.277 152.477 262.085 151.846L260.86 147.836Z" fill="#014958"/>
<path d="M132.892 11.6957L135.339 3.98935L131.388 2.73496L128.941 10.4413L122.508 5.33298L120.061 8.54822L126.556 13.4623L120.008 18.3692L122.741 21.6609L129.221 16.5186L131.937 24.581L135.635 23.2603L133.162 15.5598L141.431 15.3342L141.094 11.2347L132.892 11.6957Z" fill="#3CB572"/>
<path d="M108.821 43.4894L109.673 40.8073L108.298 40.3708L107.447 43.0528L105.208 41.275L104.356 42.394L106.617 44.1042L104.338 45.8119L105.289 46.9575L107.544 45.1678L108.489 47.9738L109.776 47.5142L108.915 44.8342L111.794 44.7557L111.676 43.3289L108.821 43.4894Z" fill="#014958"/>
<path d="M165.405 28.0655L166.677 24.0609L164.624 23.409L163.353 27.4137L160.009 24.7591L158.738 26.4299L162.113 28.9835L158.71 31.5334L160.131 33.2439L163.498 30.5717L164.909 34.7614L166.831 34.0751L165.546 30.0735L169.843 29.9563L169.668 27.826L165.405 28.0655Z" fill="#014958"/>
</svg>
