<svg width="301" height="195" viewBox="0 0 301 195" fill="none" xmlns="http://www.w3.org/2000/svg">
<path d="M58.6947 156.311L59.1842 156.21L59.0824 155.72L56.6066 143.81L56.5048 143.32L56.0153 143.422C52.3276 144.189 48.5134 144.097 44.8671 143.153C41.2208 142.21 37.84 140.44 34.987 137.981C32.1339 135.523 29.885 132.44 28.4137 128.973C26.9424 125.506 26.2883 121.747 26.502 117.986C26.7166 114.226 27.7928 110.565 29.6478 107.288L29.6479 107.288C31.5019 104.01 34.0867 101.202 37.1998 99.0826C40.3138 96.9634 43.8733 95.5891 47.6024 95.0653L47.6025 95.0652C51.3326 94.5407 55.1333 94.8822 58.7097 96.0626L59.1846 96.2193L59.3413 95.7444L63.1523 84.1917L63.3089 83.7169L62.8341 83.5602C57.3398 81.7472 51.5017 81.2238 45.7717 82.0279C40.0425 82.8322 34.5749 84.9445 29.7925 88.2C25.009 91.4562 21.0391 95.7685 18.1905 100.803C15.3408 105.839 13.6873 111.462 13.3585 117.239C13.0298 123.015 14.0343 128.79 16.2949 134.116C18.5545 139.442 22.0103 144.177 26.3929 147.954L26.7193 147.575L26.3929 147.954C30.7755 151.731 35.9677 154.449 41.5698 155.899L41.6951 155.415L41.5698 155.899C47.171 157.348 53.03 157.489 58.6947 156.311Z" fill="#67DD95" stroke="#DCE4E5"/>
<path fill-rule="evenodd" clip-rule="evenodd" d="M146.328 43.7021C148.17 44.1519 150.028 43.0233 150.478 41.1814C150.928 39.3395 149.799 37.4817 147.957 37.0318C146.115 36.582 144.258 37.7105 143.808 39.5525C143.358 41.3944 144.486 43.2522 146.328 43.7021ZM143.205 50.4099C142.631 52.7615 140.259 54.2023 137.907 53.628C135.555 53.0537 134.115 50.6818 134.689 48.3302C135.263 45.9785 137.635 44.5377 139.987 45.112C142.338 45.6863 143.779 48.0583 143.205 50.4099ZM142.734 72.7399C145.852 72.5577 148.619 70.373 149.399 67.1809C150.356 63.2632 147.955 59.3118 144.038 58.355C142.613 58.007 141.183 58.1032 139.895 58.555C138.907 57.8854 137.785 57.3773 136.558 57.0775C131.029 55.7273 125.452 59.1148 124.102 64.6438C123.947 65.2764 123.855 65.9096 123.82 66.537C123.549 66.3291 123.231 66.1729 122.878 66.0867C121.515 65.7537 120.139 66.589 119.807 67.9525C119.652 68.5872 119.75 69.2244 120.036 69.7579C119.964 69.7374 119.89 69.7181 119.816 69.7C116.408 68.8676 112.97 70.956 112.137 74.3645C111.719 76.0772 112.038 77.7974 112.892 79.1906C109.429 79.687 106.403 82.0377 105.142 85.4361C101.47 85.0865 98.2348 86.415 94.3286 88.0192L94.3286 88.0192C90.809 89.4645 86.7446 91.1336 81.3253 92.0005C69.7315 93.855 57.5527 67.5731 57.5527 67.5731L40.8973 168.596C40.674 169.951 41.5354 171.247 42.8704 171.566L101.979 185.688C103.298 186.003 104.639 185.257 105.068 183.97L141.678 74.0895C142.064 73.6725 142.418 73.2216 142.734 72.7399ZM149.501 54.9251C149.171 56.2791 147.805 57.1087 146.451 56.778C145.097 56.4474 144.267 55.0817 144.598 53.7277C144.929 52.3737 146.294 51.5441 147.648 51.8748C149.002 52.2054 149.832 53.5711 149.501 54.9251Z" fill="#014958"/>
<path d="M54.4531 139.19L50.8377 163.769C50.6412 165.105 51.4936 166.371 52.8052 166.691L56.4059 167.57C57.7175 167.891 59.0574 167.16 59.4987 165.884L67.6195 142.406" stroke="#DCE4E5" stroke-linecap="round"/>
<path d="M74.2021 144.014L70.5868 168.592C70.3903 169.928 71.2426 171.194 72.5542 171.514L76.155 172.394C77.4665 172.714 78.8064 171.984 79.2477 170.708L87.3685 147.229" stroke="#DCE4E5" stroke-linecap="round"/>
<path d="M93.9512 148.836L90.3358 173.415C90.1393 174.751 90.9916 176.017 92.3032 176.337L95.904 177.216C97.2156 177.537 98.5554 176.806 98.9967 175.53L107.118 152.052" stroke="#DCE4E5" stroke-linecap="round"/>
<ellipse cx="63.8398" cy="100.422" rx="1.61728" ry="1.6173" transform="rotate(13.7237 63.8398 100.422)" fill="#152123"/>
<ellipse cx="98.0387" cy="107.108" rx="2.54124" ry="2.54124" transform="rotate(13.7237 98.0387 107.108)" fill="#152123"/>
<ellipse cx="101.989" cy="115.92" rx="0.847079" ry="0.847079" transform="rotate(13.7237 101.989 115.92)" fill="#152123"/>
<ellipse cx="67.9628" cy="130.283" rx="0.847079" ry="0.847079" transform="rotate(13.7237 67.9628 130.283)" fill="#152123"/>
<ellipse cx="78.8064" cy="121.595" rx="1.69416" ry="1.69416" transform="rotate(13.7237 78.8064 121.595)" fill="#152123"/>
<ellipse cx="101.008" cy="143.148" rx="1.27062" ry="1.27062" transform="rotate(13.7237 101.008 143.148)" fill="#152123"/>
<ellipse cx="125.65" cy="102.951" rx="1.27062" ry="1.27062" transform="rotate(13.7237 125.65 102.951)" fill="#152123"/>
<path d="M63.01 51.8252C61.243 51.3937 59.4837 52.561 59.1945 54.3567L40.8436 168.31C40.5854 169.914 41.6026 171.447 43.1806 171.832L102.076 186.215C103.654 186.601 105.264 185.709 105.774 184.167L142.013 74.582C142.584 72.8552 141.561 71.0083 139.794 70.5768L63.01 51.8252Z" stroke="#DCE4E5"/>
<path d="M38.6208 169.1C38.7112 168.318 39.4661 167.793 40.2303 167.979L107.298 184.358C108.062 184.545 108.49 185.359 108.21 186.094L106.718 190.013C106.483 190.629 105.826 190.974 105.185 190.818L39.1279 174.686C38.4871 174.529 38.0631 173.92 38.1389 173.265L38.6208 169.1Z" fill="#DCE4E5"/>
<path d="M216.559 76.6601L216.189 76.9965L216.526 77.3664L224.698 86.3512L225.035 86.721L225.405 86.3846C228.187 83.8542 231.513 81.9977 235.127 80.9586C238.741 79.9194 242.546 79.7255 246.247 80.392C249.947 81.0585 253.445 82.5674 256.47 84.8021C259.494 87.0367 261.964 89.9371 263.689 93.2788C265.412 96.621 266.345 100.315 266.413 104.074L266.413 104.075C266.482 107.834 265.684 111.56 264.083 114.962C262.481 118.364 260.117 121.352 257.177 123.695L257.177 123.695C254.236 126.039 250.794 127.674 247.12 128.474L246.632 128.58L246.738 129.069L249.324 140.936L249.43 141.425L249.919 141.318C255.563 140.089 260.849 137.577 265.368 133.977C269.886 130.378 273.516 125.787 275.976 120.561C278.437 115.334 279.662 109.611 279.557 103.836C279.452 98.0599 278.02 92.3851 275.371 87.2513C272.722 82.1174 268.928 77.6617 264.282 74.229C259.636 70.796 254.261 68.4782 248.576 67.4543L248.487 67.9464L248.576 67.4543C242.891 66.4305 237.046 66.728 231.494 68.3246L231.632 68.805L231.494 68.3246C225.942 69.9209 220.832 72.7728 216.559 76.6601Z" fill="#67DD95" stroke="#DCE4E5"/>
<path fill-rule="evenodd" clip-rule="evenodd" d="M147.716 65.0358C146.635 62.1304 147.984 58.8462 150.853 57.5619C153.842 56.2241 157.35 57.5628 158.688 60.5519C158.973 61.1886 159.136 61.8489 159.188 62.5068C159.435 62.1901 159.761 61.9275 160.153 61.752C161.434 61.1787 162.937 61.7524 163.511 63.0335C163.778 63.6297 163.796 64.2741 163.61 64.8505C163.678 64.8171 163.747 64.7848 163.817 64.7536C167.019 63.3203 170.778 64.7546 172.211 67.9572C172.931 69.5662 172.927 71.3155 172.339 72.8397C175.836 72.7028 179.237 74.4693 181.09 77.5851C184.638 76.5807 188.058 77.304 192.188 78.1773C195.911 78.9644 200.21 79.8733 205.696 79.7489C217.435 79.4827 224.675 51.4358 224.675 51.4358L259.179 147.711C259.642 149 259.03 150.428 257.778 150.984L202.275 175.618C201.034 176.169 199.577 175.678 198.922 174.488L142.116 71.2161C142.116 71.2161 143 71.8213 144.473 72.7712C144.334 69.8534 145.522 66.9939 147.716 65.0358Z" fill="#014958"/>
<path d="M240.641 121.32L248.628 144.844C249.062 146.122 248.452 147.521 247.22 148.073L243.837 149.587C242.604 150.138 241.155 149.661 240.491 148.486L228.27 126.856" stroke="#DCE4E5" stroke-linecap="round"/>
<path d="M222.084 129.625L230.072 153.149C230.506 154.427 229.896 155.826 228.663 156.377L225.28 157.892C224.048 158.443 222.598 157.966 221.934 156.791L209.713 135.161" stroke="#DCE4E5" stroke-linecap="round"/>
<path d="M203.529 137.93L211.517 161.454C211.951 162.733 211.341 164.132 210.109 164.683L206.725 166.197C205.493 166.749 204.043 166.272 203.379 165.096L191.158 143.467" stroke="#DCE4E5" stroke-linecap="round"/>
<ellipse cx="1.61728" cy="1.6173" rx="1.61728" ry="1.6173" transform="matrix(-0.912758 0.4085 0.4085 0.912758 225.231 82.7412)" fill="#152123"/>
<circle cx="2.54124" cy="2.54124" r="2.54124" transform="matrix(-0.912758 0.4085 0.4085 0.912758 193.265 94.2642)" fill="#152123"/>
<ellipse cx="0.847079" cy="0.847079" rx="0.847079" ry="0.847079" transform="matrix(-0.912758 0.4085 0.4085 0.912758 190.113 105.883)" fill="#152123"/>
<ellipse cx="0.847079" cy="0.847079" rx="0.847079" ry="0.847079" transform="matrix(-0.912758 0.4085 0.4085 0.912758 226.172 113.875)" fill="#152123"/>
<ellipse cx="1.69416" cy="1.69416" rx="1.69416" ry="1.69416" transform="matrix(-0.912758 0.4085 0.4085 0.912758 214.366 106.165)" fill="#152123"/>
<circle cx="1.27062" cy="1.27062" r="1.27062" transform="matrix(-0.912758 0.4085 0.4085 0.912758 196.2 131.928)" fill="#152123"/>
<circle cx="1.27062" cy="1.27062" r="1.27062" transform="matrix(-0.912758 0.4085 0.4085 0.912758 164.718 96.833)" fill="#152123"/>
<path d="M216.467 36.9292C218.127 36.1862 220.068 37.0171 220.677 38.7313L259.272 147.508C259.815 149.039 259.091 150.731 257.608 151.394L202.271 176.16C200.788 176.824 199.045 176.237 198.265 174.812L142.861 73.557C141.988 71.9614 142.662 69.9604 144.322 69.2174L216.467 36.9292Z" stroke="#DCE4E5"/>
<path d="M261.605 147.884C261.375 147.132 260.538 146.751 259.82 147.073L196.804 175.275C196.086 175.596 195.812 176.474 196.22 177.147L198.394 180.732C198.736 181.296 199.445 181.517 200.047 181.248L262.113 153.47C262.715 153.201 263.022 152.525 262.83 151.894L261.605 147.884Z" fill="#DCE4E5"/>
<path d="M133.641 11.7446L136.088 4.0382L132.137 2.78381L129.69 10.4902L123.257 5.38184L120.81 8.59711L127.305 13.5112L120.757 18.4182L123.49 21.7099L129.971 16.5675L132.686 24.63L136.384 23.3093L133.911 15.6087L142.181 15.3832L141.843 11.2836L133.641 11.7446Z" fill="#67DD95"/>
<path d="M109.571 43.5387L110.422 40.8567L109.047 40.4201L108.196 43.1021L105.957 41.3243L105.105 42.4433L107.366 44.1535L105.087 45.8613L106.038 47.0069L108.293 45.2172L109.238 48.0231L110.525 47.5635L109.665 44.8835L112.543 44.805L112.425 43.3783L109.571 43.5387Z" fill="#67DD95"/>
<path d="M166.154 28.1153L167.426 24.1107L165.373 23.4588L164.102 27.4635L160.758 24.8089L159.487 26.4797L162.862 29.0334L159.459 31.5833L160.88 33.2938L164.247 30.6216L165.658 34.8112L167.58 34.125L166.295 30.1233L170.592 30.0061L170.417 27.8758L166.154 28.1153Z" fill="#67DD95"/>
</svg>
