<svg width="299" height="195" viewBox="0 0 299 195" fill="none" xmlns="http://www.w3.org/2000/svg">
<mask id="path-1-inside-1_3933_19047" fill="white">
<path d="M62.9335 78.7104C56.9936 77.2598 50.7997 77.1951 44.8308 78.5212C38.8619 79.8474 33.2781 82.5288 28.5113 86.3582C23.7446 90.1875 19.9226 95.0621 17.341 100.605C14.7595 106.148 13.4877 112.21 13.6239 118.323C13.7601 124.436 15.3006 130.435 18.1265 135.858C20.9523 141.28 24.9876 145.979 29.9202 149.593C34.8528 153.206 40.5505 155.636 46.5725 156.695C52.5945 157.754 58.7794 157.414 64.6488 155.7L60.9973 143.193C57.0462 144.347 52.8828 144.576 48.829 143.863C44.7752 143.15 40.9397 141.515 37.6193 139.082C34.2989 136.65 31.5825 133.486 29.6802 129.836C27.778 126.186 26.7409 122.148 26.6493 118.033C26.5576 113.918 27.4137 109.837 29.1515 106.106C30.8893 102.374 33.4621 99.093 36.6709 96.5153C39.8797 93.9375 43.6386 92.1324 47.6566 91.2397C51.6746 90.347 55.8441 90.3906 59.8426 91.3671L62.9335 78.7104Z"/>
</mask>
<path d="M62.9335 78.7104C56.9936 77.2598 50.7997 77.1951 44.8308 78.5212C38.8619 79.8474 33.2781 82.5288 28.5113 86.3582C23.7446 90.1875 19.9226 95.0621 17.341 100.605C14.7595 106.148 13.4877 112.21 13.6239 118.323C13.7601 124.436 15.3006 130.435 18.1265 135.858C20.9523 141.28 24.9876 145.979 29.9202 149.593C34.8528 153.206 40.5505 155.636 46.5725 156.695C52.5945 157.754 58.7794 157.414 64.6488 155.7L60.9973 143.193C57.0462 144.347 52.8828 144.576 48.829 143.863C44.7752 143.15 40.9397 141.515 37.6193 139.082C34.2989 136.65 31.5825 133.486 29.6802 129.836C27.778 126.186 26.7409 122.148 26.6493 118.033C26.5576 113.918 27.4137 109.837 29.1515 106.106C30.8893 102.374 33.4621 99.093 36.6709 96.5153C39.8797 93.9375 43.6386 92.1324 47.6566 91.2397C51.6746 90.347 55.8441 90.3906 59.8426 91.3671L62.9335 78.7104Z" fill="#67DD95" stroke="#DCE4E5" stroke-width="2" mask="url(#path-1-inside-1_3933_19047)"/>
<path fill-rule="evenodd" clip-rule="evenodd" d="M146.327 43.7021C148.169 44.1519 150.027 43.0233 150.477 41.1814C150.927 39.3395 149.798 37.4817 147.956 37.0318C146.114 36.582 144.257 37.7105 143.807 39.5525C143.357 41.3944 144.485 43.2522 146.327 43.7021ZM143.204 50.4099C142.63 52.7615 140.258 54.2023 137.906 53.628C135.554 53.0537 134.114 50.6818 134.688 48.3302C135.262 45.9785 137.634 44.5377 139.986 45.112C142.337 45.6863 143.778 48.0583 143.204 50.4099ZM142.733 72.7399C145.851 72.5577 148.618 70.373 149.398 67.1809C150.355 63.2632 147.954 59.3118 144.037 58.355C142.612 58.007 141.182 58.1032 139.894 58.555C138.906 57.8854 137.784 57.3773 136.557 57.0775C131.028 55.7273 125.451 59.1148 124.101 64.6438C123.946 65.2764 123.854 65.9096 123.819 66.537C123.548 66.3291 123.23 66.1729 122.877 66.0867C121.514 65.7537 120.138 66.589 119.806 67.9525C119.651 68.5872 119.749 69.2244 120.035 69.7579C119.963 69.7374 119.889 69.7181 119.815 69.7C116.407 68.8676 112.969 70.956 112.137 74.3645C111.718 76.0772 112.037 77.7974 112.891 79.1906C109.428 79.687 106.402 82.0377 105.141 85.4361C101.469 85.0865 98.2338 86.415 94.3276 88.0192C90.808 89.4645 86.7437 91.1336 81.3243 92.0005C69.7305 93.855 57.5517 67.5731 57.5517 67.5731L41.5559 168.448C41.3427 169.793 42.1964 171.076 43.5189 171.399L101.969 185.673C103.291 185.996 104.641 185.25 105.071 183.959L141.677 74.0895C142.063 73.6725 142.417 73.2216 142.733 72.7399ZM149.5 54.9251C149.17 56.2791 147.804 57.1087 146.45 56.778C145.096 56.4474 144.266 55.0817 144.597 53.7277C144.928 52.3737 146.293 51.5441 147.647 51.8748C149.001 52.2054 149.831 53.5711 149.5 54.9251Z" fill="#014958"/>
<path d="M54.4521 139.19L50.8368 163.769C50.6403 165.105 51.4926 166.371 52.8042 166.691L56.405 167.57C57.7165 167.891 59.0564 167.16 59.4977 165.884L67.6185 142.406" stroke="#DCE4E5" stroke-linecap="round"/>
<path d="M74.2012 144.014L70.5858 168.592C70.3893 169.928 71.2416 171.194 72.5532 171.514L76.154 172.394C77.4656 172.714 78.8054 171.984 79.2467 170.708L87.3675 147.229" stroke="#DCE4E5" stroke-linecap="round"/>
<path d="M93.9502 148.836L90.3348 173.415C90.1383 174.751 90.9907 176.017 92.3022 176.337L95.903 177.216C97.2146 177.537 98.5544 176.806 98.9958 175.53L107.117 152.052" stroke="#DCE4E5" stroke-linecap="round"/>
<ellipse cx="63.8388" cy="100.422" rx="1.61728" ry="1.6173" transform="rotate(13.7237 63.8388 100.422)" fill="#152123"/>
<ellipse cx="98.0377" cy="107.108" rx="2.54124" ry="2.54124" transform="rotate(13.7237 98.0377 107.108)" fill="#152123"/>
<ellipse cx="101.988" cy="115.92" rx="0.847079" ry="0.847079" transform="rotate(13.7237 101.988 115.92)" fill="#152123"/>
<ellipse cx="67.9618" cy="130.283" rx="0.847079" ry="0.847079" transform="rotate(13.7237 67.9618 130.283)" fill="#152123"/>
<ellipse cx="78.8054" cy="121.595" rx="1.69416" ry="1.69416" transform="rotate(13.7237 78.8054 121.595)" fill="#152123"/>
<ellipse cx="101.007" cy="143.148" rx="1.27062" ry="1.27062" transform="rotate(13.7237 101.007 143.148)" fill="#152123"/>
<ellipse cx="125.649" cy="102.951" rx="1.27062" ry="1.27062" transform="rotate(13.7237 125.649 102.951)" fill="#152123"/>
<path d="M63.009 51.8252C61.2421 51.3937 59.4827 52.561 59.1935 54.3567L40.8426 168.31C40.5844 169.914 41.6016 171.447 43.1797 171.832L102.075 186.215C103.653 186.601 105.263 185.709 105.773 184.167L142.012 74.582C142.583 72.8552 141.56 71.0083 139.793 70.5768L63.009 51.8252Z" stroke="#DCE4E5"/>
<path d="M38.6198 169.1C38.7102 168.318 39.4651 167.793 40.2293 167.979L107.297 184.358C108.061 184.545 108.489 185.359 108.209 186.094L106.717 190.013C106.482 190.629 105.825 190.974 105.184 190.818L39.1269 174.686C38.4861 174.529 38.0621 173.92 38.1379 173.265L38.6198 169.1Z" fill="#DCE4E5"/>
<mask id="path-15-inside-2_3933_19047" fill="white">
<path d="M221.393 63.36C226.974 60.8623 233.055 59.6819 239.165 59.9101C245.276 60.1384 251.251 61.7692 256.63 64.6763C262.009 67.5835 266.648 71.6891 270.186 76.6756C273.725 81.6621 276.069 87.3957 277.037 93.433C278.005 99.4703 277.572 105.649 275.77 111.492C273.968 117.335 270.846 122.685 266.646 127.129C262.445 131.572 257.279 134.99 251.547 137.117C245.814 139.244 239.669 140.024 233.587 139.397L234.924 126.437C239.018 126.86 243.155 126.334 247.014 124.902C250.872 123.47 254.35 121.17 257.178 118.179C260.005 115.187 262.107 111.586 263.32 107.653C264.533 103.72 264.824 99.56 264.173 95.496C263.521 91.4319 261.943 87.5722 259.561 84.2155C257.179 80.8588 254.057 78.0951 250.436 76.1381C246.815 74.1811 242.792 73.0833 238.679 72.9297C234.566 72.776 230.473 73.5706 226.716 75.252L221.393 63.36Z"/>
</mask>
<path d="M221.393 63.36C226.974 60.8623 233.055 59.6819 239.165 59.9101C245.276 60.1384 251.251 61.7692 256.63 64.6763C262.009 67.5835 266.648 71.6891 270.186 76.6756C273.725 81.6621 276.069 87.3957 277.037 93.433C278.005 99.4703 277.572 105.649 275.77 111.492C273.968 117.335 270.846 122.685 266.646 127.129C262.445 131.572 257.279 134.99 251.547 137.117C245.814 139.244 239.669 140.024 233.587 139.397L234.924 126.437C239.018 126.86 243.155 126.334 247.014 124.902C250.872 123.47 254.35 121.17 257.178 118.179C260.005 115.187 262.107 111.586 263.32 107.653C264.533 103.72 264.824 99.56 264.173 95.496C263.521 91.4319 261.943 87.5722 259.561 84.2155C257.179 80.8588 254.057 78.0951 250.436 76.1381C246.815 74.1811 242.792 73.0833 238.679 72.9297C234.566 72.776 230.473 73.5706 226.716 75.252L221.393 63.36Z" fill="#67DD95" stroke="#DCE4E5" stroke-width="2" mask="url(#path-15-inside-2_3933_19047)"/>
<path fill-rule="evenodd" clip-rule="evenodd" d="M147.717 65.0373C146.636 62.1319 147.985 58.8476 150.854 57.5633C153.843 56.2256 157.351 57.5642 158.689 60.5534C158.974 61.1901 159.137 61.8504 159.189 62.5082C159.436 62.1916 159.762 61.929 160.154 61.7535C161.435 61.1802 162.938 61.7539 163.512 63.0349C163.779 63.6312 163.797 64.2756 163.611 64.852C163.679 64.8186 163.748 64.7863 163.818 64.7551C167.02 63.3218 170.779 64.7561 172.212 67.9587C172.932 69.5677 172.928 71.3169 172.34 72.8411C175.837 72.7042 179.238 74.4708 181.091 77.5866C184.639 76.5821 188.059 77.3055 192.189 78.1787C195.912 78.9658 200.211 79.8748 205.697 79.7504C217.436 79.4842 224.676 51.4372 224.676 51.4372L258.597 147.775C259.049 149.059 258.441 150.475 257.199 151.031L202.28 175.61C201.037 176.166 199.576 175.676 198.919 174.483L142.117 71.2176C142.117 71.2176 143.001 71.8228 144.474 72.7727C144.335 69.8548 145.523 66.9954 147.717 65.0373Z" fill="#014958"/>
<path d="M240.642 121.321L248.629 144.845C249.063 146.124 248.453 147.523 247.221 148.074L243.838 149.588C242.605 150.14 241.156 149.663 240.492 148.487L228.271 126.858" stroke="#DCE4E5" stroke-linecap="round"/>
<path d="M222.085 129.626L230.073 153.15C230.507 154.429 229.897 155.827 228.664 156.379L225.281 157.893C224.049 158.445 222.599 157.968 221.935 156.792L209.714 135.162" stroke="#DCE4E5" stroke-linecap="round"/>
<path d="M203.53 137.932L211.518 161.456C211.952 162.734 211.342 164.133 210.109 164.685L206.726 166.199C205.494 166.75 204.044 166.273 203.38 165.098L191.159 143.468" stroke="#DCE4E5" stroke-linecap="round"/>
<ellipse cx="1.61728" cy="1.6173" rx="1.61728" ry="1.6173" transform="matrix(-0.912758 0.4085 0.4085 0.912758 225.232 82.7427)" fill="#152123"/>
<circle cx="2.54124" cy="2.54124" r="2.54124" transform="matrix(-0.912758 0.4085 0.4085 0.912758 193.266 94.2656)" fill="#152123"/>
<ellipse cx="0.847079" cy="0.847079" rx="0.847079" ry="0.847079" transform="matrix(-0.912758 0.4085 0.4085 0.912758 190.114 105.885)" fill="#152123"/>
<ellipse cx="0.847079" cy="0.847079" rx="0.847079" ry="0.847079" transform="matrix(-0.912758 0.4085 0.4085 0.912758 226.173 113.876)" fill="#152123"/>
<ellipse cx="1.69416" cy="1.69416" rx="1.69416" ry="1.69416" transform="matrix(-0.912758 0.4085 0.4085 0.912758 214.367 106.166)" fill="#152123"/>
<circle cx="1.27062" cy="1.27062" r="1.27062" transform="matrix(-0.912758 0.4085 0.4085 0.912758 196.201 131.929)" fill="#152123"/>
<circle cx="1.27062" cy="1.27062" r="1.27062" transform="matrix(-0.912758 0.4085 0.4085 0.912758 164.719 96.8345)" fill="#152123"/>
<path d="M216.468 36.9306C218.128 36.1876 220.069 37.0186 220.678 38.7327L259.273 147.51C259.816 149.041 259.092 150.732 257.609 151.396L202.272 176.162C200.789 176.825 199.046 176.238 198.266 174.813L142.862 73.5585C141.989 71.9629 142.663 69.9618 144.323 69.2188L216.468 36.9306Z" stroke="#DCE4E5"/>
<path d="M261.606 147.886C261.376 147.133 260.539 146.753 259.821 147.074L196.805 175.276C196.087 175.598 195.813 176.476 196.221 177.148L198.395 180.734C198.737 181.298 199.446 181.519 200.048 181.249L262.114 153.472C262.716 153.202 263.023 152.527 262.831 151.896L261.606 147.886Z" fill="#DCE4E5"/>
<path d="M133.64 11.7446L136.087 4.0382L132.136 2.78381L129.689 10.4902L123.256 5.38184L120.809 8.59711L127.304 13.5112L120.756 18.4182L123.489 21.7099L129.97 16.5675L132.685 24.63L136.383 23.3093L133.91 15.6087L142.18 15.3832L141.842 11.2836L133.64 11.7446Z" fill="#67DD95"/>
<path d="M109.57 43.5387L110.421 40.8567L109.046 40.4201L108.195 43.1021L105.956 41.3243L105.104 42.4433L107.365 44.1535L105.086 45.8613L106.037 47.0069L108.292 45.2172L109.237 48.0231L110.524 47.5635L109.664 44.8835L112.542 44.805L112.424 43.3783L109.57 43.5387Z" fill="#67DD95"/>
<path d="M166.154 28.1153L167.426 24.1107L165.373 23.4588L164.102 27.4635L160.758 24.8089L159.487 26.4797L162.862 29.0334L159.459 31.5833L160.88 33.2938L164.247 30.6216L165.658 34.8112L167.58 34.125L166.295 30.1233L170.592 30.0061L170.417 27.8758L166.154 28.1153Z" fill="#67DD95"/>
</svg>
