<svg width="265" height="120" viewBox="0 0 265 120" fill="none" xmlns="http://www.w3.org/2000/svg">
<mask id="path-1-inside-1_928_19148" fill="white">
<path d="M82.8023 47.4643C79.3089 46.6111 75.6661 46.5731 72.1556 47.353C68.6452 48.133 65.3612 49.71 62.5577 51.9621C59.7542 54.2143 57.5064 57.0812 55.9881 60.341C54.4699 63.6009 53.7218 67.1663 53.8019 70.7614C53.882 74.3566 54.7881 77.8852 56.45 81.0742C58.112 84.2632 60.4853 87.0271 63.3863 89.1521C66.2873 91.2772 69.6382 92.7064 73.18 93.3292C76.7217 93.9521 80.3592 93.7518 83.8111 92.7439L81.6636 85.3885C79.3399 86.067 76.8912 86.2018 74.5071 85.7825C72.1229 85.3633 69.8672 84.4012 67.9143 82.9707C65.9615 81.5402 64.3639 79.6796 63.2451 77.5329C62.1264 75.3862 61.5165 73.0109 61.4625 70.5908C61.4086 68.1706 61.9122 65.7705 62.9342 63.5761C63.9562 61.3817 65.4694 59.4519 67.3566 57.9358C69.2438 56.4198 71.4544 55.3581 73.8175 54.8331C76.1806 54.3081 78.6329 54.3337 80.9845 54.908L82.8023 47.4643Z"/>
</mask>
<path d="M82.8023 47.4643C79.3089 46.6111 75.6661 46.5731 72.1556 47.353C68.6452 48.133 65.3612 49.71 62.5577 51.9621C59.7542 54.2143 57.5064 57.0812 55.9881 60.341C54.4699 63.6009 53.7218 67.1663 53.8019 70.7614C53.882 74.3566 54.7881 77.8852 56.45 81.0742C58.112 84.2632 60.4853 87.0271 63.3863 89.1521C66.2873 91.2772 69.6382 92.7064 73.18 93.3292C76.7217 93.9521 80.3592 93.7518 83.8111 92.7439L81.6636 85.3885C79.3399 86.067 76.8912 86.2018 74.5071 85.7825C72.1229 85.3633 69.8672 84.4012 67.9143 82.9707C65.9615 81.5402 64.3639 79.6796 63.2451 77.5329C62.1264 75.3862 61.5165 73.0109 61.4625 70.5908C61.4086 68.1706 61.9122 65.7705 62.9342 63.5761C63.9562 61.3817 65.4694 59.4519 67.3566 57.9358C69.2438 56.4198 71.4544 55.3581 73.8175 54.8331C76.1806 54.3081 78.6329 54.3337 80.9845 54.908L82.8023 47.4643Z" fill="#3CB572" stroke="#014958" stroke-width="2" mask="url(#path-1-inside-1_928_19148)"/>
<path fill-rule="evenodd" clip-rule="evenodd" d="M131.849 26.8747C132.932 27.1393 134.025 26.4756 134.289 25.3923C134.554 24.309 133.89 23.2163 132.807 22.9518C131.723 22.6872 130.631 23.351 130.366 24.4343C130.102 25.5175 130.765 26.6102 131.849 26.8747ZM130.012 30.8203C129.674 32.2034 128.279 33.0507 126.896 32.713C125.513 32.3752 124.665 30.9802 125.003 29.5972C125.341 28.2141 126.736 27.3667 128.119 27.7045C129.502 28.0422 130.349 29.4372 130.012 30.8203ZM129.736 43.9536C131.569 43.8458 133.196 42.5611 133.655 40.6843C134.217 38.3802 132.806 36.0562 130.501 35.4936C129.664 35.289 128.824 35.3454 128.067 35.6105C127.486 35.2168 126.826 34.918 126.104 34.7417C122.852 33.9476 119.573 35.9399 118.778 39.1917C118.687 39.5642 118.633 39.9371 118.613 40.3065C118.453 40.1836 118.265 40.0912 118.057 40.0402C117.255 39.8444 116.446 40.3357 116.25 41.1376C116.159 41.5111 116.217 41.8861 116.386 42.2C116.343 42.1879 116.3 42.1765 116.256 42.1659C114.252 41.6763 112.23 42.9045 111.74 44.9092C111.494 45.9163 111.682 46.9278 112.183 47.7471C110.147 48.0391 108.367 49.4216 107.626 51.4202C105.466 51.2146 103.563 51.9959 101.266 52.9394C99.1962 53.7894 96.8058 54.7711 93.6185 55.2809C86.7999 56.3716 79.6372 40.9145 79.6372 40.9145L70.2296 100.242C70.1042 101.033 70.6063 101.787 71.3841 101.977L105.76 110.372C106.538 110.562 107.332 110.124 107.585 109.364L129.112 44.7502C129.341 44.5042 129.55 44.238 129.736 43.9536ZM133.715 33.4763C133.52 34.2726 132.717 34.7605 131.921 34.5661C131.124 34.3716 130.637 33.5684 130.831 32.7721C131.025 31.9758 131.829 31.4879 132.625 31.6823C133.421 31.8768 133.909 32.68 133.715 33.4763Z" fill="#E3F6DC"/>
<path d="M77.8145 83.0352L75.6881 97.4907C75.5726 98.2762 76.0739 99.0207 76.8452 99.2091L78.963 99.7263C79.7343 99.9146 80.5223 99.485 80.7819 98.7346L85.5579 84.9262" stroke="#014958" stroke-linecap="round"/>
<path d="M89.4297 85.8711L87.3034 100.327C87.1878 101.112 87.6891 101.857 88.4605 102.045L90.5782 102.562C91.3496 102.751 92.1376 102.321 92.3971 101.571L97.1732 87.7621" stroke="#014958" stroke-linecap="round"/>
<path d="M101.045 88.708L98.9186 103.164C98.8031 103.949 99.3043 104.694 100.076 104.882L102.193 105.399C102.965 105.587 103.753 105.158 104.012 104.407L108.788 90.5991" stroke="#014958" stroke-linecap="round"/>
<ellipse cx="83.337" cy="60.2337" rx="0.951168" ry="0.951178" transform="rotate(13.7237 83.337 60.2337)" fill="white"/>
<circle cx="103.449" cy="64.1659" r="1.49457" transform="rotate(13.7237 103.449 64.1659)" fill="white"/>
<circle cx="105.774" cy="69.3492" r="0.498191" transform="rotate(13.7237 105.774 69.3492)" fill="white"/>
<circle cx="85.7603" cy="77.7955" r="0.498191" transform="rotate(13.7237 85.7603 77.7955)" fill="white"/>
<circle cx="92.1378" cy="72.6858" r="0.996383" transform="rotate(13.7237 92.1378 72.6858)" fill="white"/>
<circle cx="105.195" cy="85.3622" r="0.747287" transform="rotate(13.7237 105.195 85.3622)" fill="white"/>
<circle cx="119.687" cy="61.7216" r="0.747287" transform="rotate(13.7237 119.687 61.7216)" fill="white"/>
<path d="M82.8957 31.4526C81.7398 31.1703 80.5888 31.934 80.3996 33.1088L69.6069 100.128C69.438 101.177 70.1034 102.18 71.1359 102.432L105.774 110.891C106.806 111.143 107.859 110.56 108.193 109.551L129.507 45.1013C129.88 43.9715 129.211 42.7633 128.055 42.481L82.8957 31.4526Z" stroke="#014958"/>
<path d="M68.5034 100.625C68.5566 100.166 69.0005 99.8567 69.45 99.9665L108.894 109.599C109.344 109.709 109.595 110.188 109.431 110.62L108.553 112.925C108.415 113.287 108.029 113.49 107.652 113.398L68.8016 103.911C68.4248 103.819 68.1754 103.461 68.22 103.075L68.5034 100.625Z" fill="#014958"/>
<mask id="path-15-inside-2_928_19148" fill="white">
<path d="M175.998 38.4364C179.28 36.9674 182.856 36.2732 186.45 36.4074C190.043 36.5416 193.558 37.5007 196.721 39.2105C199.885 40.9203 202.613 43.3349 204.694 46.2676C206.775 49.2003 208.154 52.5724 208.723 56.1231C209.292 59.6738 209.037 63.3079 207.978 66.7443C206.918 70.1807 205.082 73.3272 202.612 75.9405C200.141 78.5537 197.103 80.5637 193.731 81.8149C190.36 83.066 186.746 83.5249 183.169 83.1559L183.955 75.5338C186.363 75.7822 188.796 75.4734 191.065 74.6311C193.335 73.7889 195.38 72.4358 197.043 70.6767C198.706 68.9175 199.942 66.7994 200.655 64.4862C201.369 62.173 201.541 59.7266 201.157 57.3364C200.774 54.9462 199.846 52.6763 198.445 50.7021C197.044 48.7279 195.208 47.1025 193.078 45.9515C190.949 44.8006 188.583 44.1549 186.164 44.0646C183.745 43.9742 181.337 44.4415 179.128 45.4304L175.998 38.4364Z"/>
</mask>
<path d="M175.998 38.4364C179.28 36.9674 182.856 36.2732 186.45 36.4074C190.043 36.5416 193.558 37.5007 196.721 39.2105C199.885 40.9203 202.613 43.3349 204.694 46.2676C206.775 49.2003 208.154 52.5724 208.723 56.1231C209.292 59.6738 209.037 63.3079 207.978 66.7443C206.918 70.1807 205.082 73.3272 202.612 75.9405C200.141 78.5537 197.103 80.5637 193.731 81.8149C190.36 83.066 186.746 83.5249 183.169 83.1559L183.955 75.5338C186.363 75.7822 188.796 75.4734 191.065 74.6311C193.335 73.7889 195.38 72.4358 197.043 70.6767C198.706 68.9175 199.942 66.7994 200.655 64.4862C201.369 62.173 201.541 59.7266 201.157 57.3364C200.774 54.9462 199.846 52.6763 198.445 50.7021C197.044 48.7279 195.208 47.1025 193.078 45.9515C190.949 44.8006 188.583 44.1549 186.164 44.0646C183.745 43.9742 181.337 44.4415 179.128 45.4304L175.998 38.4364Z" fill="#3CB572" stroke="#014958" stroke-width="2" mask="url(#path-15-inside-2_928_19148)"/>
<path fill-rule="evenodd" clip-rule="evenodd" d="M132.669 39.4224C132.033 37.7137 132.827 35.7823 134.514 35.027C136.272 34.2402 138.335 35.0276 139.122 36.7855C139.289 37.16 139.386 37.5484 139.416 37.9353C139.561 37.749 139.753 37.5946 139.984 37.4914C140.737 37.1542 141.621 37.4916 141.958 38.245C142.115 38.5957 142.126 38.9747 142.017 39.3137C142.057 39.2941 142.097 39.2751 142.138 39.2567C144.022 38.4137 146.232 39.2573 147.075 41.1408C147.499 42.0871 147.496 43.1159 147.151 44.0123C149.207 43.9318 151.207 44.9708 152.297 46.8033C154.384 46.2125 156.396 46.6379 158.825 47.1515C161.014 47.6144 163.542 48.149 166.769 48.0758C173.673 47.9193 177.931 31.4241 177.931 31.4241L197.881 88.083C198.147 88.8383 197.789 89.6712 197.058 89.9982L164.759 104.454C164.028 104.781 163.169 104.492 162.783 103.791L129.375 43.0575C129.375 43.0575 129.896 43.4134 130.762 43.9721C130.68 42.2559 131.378 40.5741 132.669 39.4224Z" fill="#E3F6DC"/>
<path d="M187.32 72.5244L192.018 86.3597C192.273 87.1115 191.915 87.9342 191.19 88.2585L189.2 89.1491C188.475 89.4734 187.623 89.1929 187.232 88.5016L180.045 75.7806" stroke="#014958" stroke-linecap="round"/>
<path d="M176.406 77.4092L181.104 91.2444C181.359 91.9963 181 92.8189 180.276 93.1433L178.286 94.0338C177.561 94.3582 176.709 94.0777 176.318 93.3864L169.131 80.6654" stroke="#014958" stroke-linecap="round"/>
<path d="M165.494 82.2939L170.192 96.1292C170.447 96.8811 170.088 97.7037 169.364 98.0281L167.374 98.9186C166.649 99.243 165.796 98.9625 165.406 98.2711L158.218 85.5501" stroke="#014958" stroke-linecap="round"/>
<ellipse cx="0.951168" cy="0.951178" rx="0.951168" ry="0.951178" transform="matrix(-0.912758 0.4085 0.4085 0.912758 178.258 49.8359)" fill="white"/>
<circle cx="1.49457" cy="1.49457" r="1.49457" transform="matrix(-0.912758 0.4085 0.4085 0.912758 159.457 56.6123)" fill="white"/>
<circle cx="0.498191" cy="0.498191" r="0.498191" transform="matrix(-0.912758 0.4085 0.4085 0.912758 157.604 63.4463)" fill="white"/>
<circle cx="0.498191" cy="0.498191" r="0.498191" transform="matrix(-0.912758 0.4085 0.4085 0.912758 178.811 68.1465)" fill="white"/>
<circle cx="0.996383" cy="0.996383" r="0.996383" transform="matrix(-0.912758 0.4085 0.4085 0.912758 171.867 63.6113)" fill="white"/>
<circle cx="0.747287" cy="0.747287" r="0.747287" transform="matrix(-0.912758 0.4085 0.4085 0.912758 161.184 78.7637)" fill="white"/>
<circle cx="0.747287" cy="0.747287" r="0.747287" transform="matrix(-0.912758 0.4085 0.4085 0.912758 142.668 58.123)" fill="white"/>
<path d="M173.019 22.7039C174.105 22.2178 175.375 22.7614 175.773 23.8829L198.472 87.8578C198.827 88.8594 198.353 89.9659 197.383 90.4001L164.838 104.966C163.868 105.4 162.727 105.016 162.217 104.083L129.633 44.5326C129.061 43.4887 129.502 42.1796 130.588 41.6935L173.019 22.7039Z" stroke="#014958"/>
<path d="M199.649 88.1488C199.514 87.7063 199.022 87.4824 198.599 87.6714L161.538 104.258C161.116 104.447 160.955 104.963 161.194 105.359L162.473 107.468C162.674 107.799 163.091 107.929 163.445 107.771L199.948 91.4342C200.302 91.2757 200.483 90.8783 200.37 90.5073L199.649 88.1488Z" fill="#014958"/>
<path d="M124.387 8.07979L125.826 3.54743L123.503 2.80969L122.064 7.34205L118.28 4.33767L116.841 6.22865L120.661 9.11877L116.81 12.0047L118.417 13.9407L122.229 10.9163L123.826 15.658L126.001 14.8813L124.546 10.3524L129.41 10.2197L129.211 7.80868L124.387 8.07979Z" fill="#3CB572"/>
<path d="M110.231 26.7787L110.732 25.2013L109.923 24.9446L109.422 26.522L108.105 25.4763L107.605 26.1345L108.934 27.1403L107.594 28.1447L108.153 28.8184L109.48 27.7659L110.035 29.4161L110.792 29.1458L110.286 27.5696L111.979 27.5235L111.91 26.6844L110.231 26.7787Z" fill="#014958"/>
<path d="M143.51 17.7073L144.258 15.3521L143.05 14.9687L142.302 17.3239L140.336 15.7627L139.588 16.7454L141.573 18.2472L139.572 19.7469L140.407 20.7529L142.388 19.1813L143.218 21.6454L144.348 21.2417L143.592 18.8883L146.12 18.8193L146.016 17.5664L143.51 17.7073Z" fill="#014958"/>
</svg>
