<svg width="301" height="194" viewBox="0 0 301 194" fill="none" xmlns="http://www.w3.org/2000/svg">
<path d="M58.6947 156.311L59.1842 156.21L59.0824 155.72L56.6066 143.81L56.5048 143.32L56.0153 143.422C52.3276 144.189 48.5134 144.097 44.8671 143.153C41.2208 142.21 37.84 140.44 34.987 137.981C32.1339 135.523 29.885 132.44 28.4137 128.973C26.9424 125.506 26.2883 121.747 26.502 117.986C26.7166 114.226 27.7928 110.565 29.6478 107.288L29.6479 107.288C31.5019 104.01 34.0867 101.202 37.1998 99.0826C40.3138 96.9634 43.8733 95.5891 47.6024 95.0653L47.6025 95.0652C51.3326 94.5407 55.1333 94.8822 58.7097 96.0626L59.1846 96.2193L59.3413 95.7444L63.1523 84.1917L63.3089 83.7169L62.8341 83.5602C57.3398 81.7472 51.5017 81.2238 45.7717 82.0279C40.0425 82.8322 34.5749 84.9445 29.7925 88.2C25.009 91.4562 21.0391 95.7685 18.1905 100.803C15.3408 105.839 13.6873 111.462 13.3585 117.239C13.0298 123.015 14.0343 128.79 16.2949 134.116C18.5545 139.442 22.0103 144.177 26.3929 147.954L26.7193 147.575L26.3929 147.954C30.7755 151.731 35.9677 154.449 41.5698 155.899L41.6951 155.415L41.5698 155.899C47.171 157.348 53.03 157.489 58.6947 156.311Z" fill="#3CB572" stroke="#014958"/>
<path fill-rule="evenodd" clip-rule="evenodd" d="M146.579 43.652C148.421 44.1019 150.279 42.9733 150.729 41.1314C151.179 39.2895 150.05 37.4317 148.208 36.9819C146.367 36.532 144.509 37.6606 144.059 39.5025C143.609 41.3444 144.738 43.2022 146.579 43.652ZM143.456 50.3607C142.882 52.7123 140.51 54.1531 138.158 53.5788C135.807 53.0045 134.366 50.6326 134.94 48.281C135.514 45.9293 137.886 44.4885 140.238 45.0628C142.59 45.6371 144.03 48.009 143.456 50.3607ZM142.988 72.6911C146.104 72.5078 148.871 70.3235 149.65 67.1323C150.607 63.2147 148.206 59.2633 144.289 58.3066C142.865 57.9589 141.437 58.0546 140.149 58.5055C139.161 57.836 138.039 57.328 136.812 57.0282C131.283 55.678 125.706 59.0655 124.356 64.5945C124.202 65.2279 124.109 65.8619 124.075 66.4901C123.803 66.281 123.484 66.1239 123.129 66.0373C121.766 65.7044 120.391 66.5397 120.058 67.9031C119.903 68.5382 120.001 69.1758 120.288 69.7095C120.215 69.6889 120.142 69.6696 120.068 69.6515C116.659 68.8191 113.221 70.9074 112.389 74.316C111.971 76.0283 112.29 77.7481 113.143 79.1413C109.68 79.6378 106.654 81.9884 105.393 85.3866C101.721 85.037 98.4863 86.3656 94.5801 87.9697L94.5801 87.9697L94.58 87.9697C91.0605 89.4151 86.9962 91.0841 81.577 91.951C69.9832 93.8055 57.8046 67.5238 57.8046 67.5238L41.3894 168.601C41.1698 169.954 42.0308 171.246 43.3632 171.565L102.23 185.637C103.549 185.952 104.891 185.207 105.32 183.92L141.927 74.0457C142.315 73.6274 142.671 73.1748 142.988 72.6911ZM149.752 54.8767C149.422 56.2307 148.056 57.0602 146.702 56.7296C145.348 56.3989 144.518 55.0332 144.849 53.6793C145.18 52.3253 146.545 51.4957 147.899 51.8264C149.253 52.157 150.083 53.5227 149.752 54.8767Z" fill="#E3F6DC"/>
<path d="M54.7041 139.142L51.0887 163.72C50.8923 165.056 51.7446 166.322 53.0561 166.642L56.6569 167.521C57.9685 167.842 59.3083 167.111 59.7496 165.835L67.8703 142.357" stroke="#014958" stroke-linecap="round"/>
<path d="M74.4531 143.964L70.8378 168.543C70.6413 169.878 71.4936 171.144 72.8052 171.464L76.4059 172.344C77.7175 172.664 79.0573 171.934 79.4986 170.658L87.6194 147.179" stroke="#014958" stroke-linecap="round"/>
<path d="M94.2031 148.787L90.5878 173.366C90.3913 174.701 91.2436 175.967 92.5552 176.288L96.1559 177.167C97.4675 177.487 98.8073 176.757 99.2486 175.481L107.369 152.002" stroke="#014958" stroke-linecap="round"/>
<ellipse cx="64.0937" cy="100.372" rx="1.61727" ry="1.61729" transform="rotate(13.7237 64.0937 100.372)" fill="white"/>
<ellipse cx="98.2906" cy="107.058" rx="2.54122" ry="2.54122" transform="rotate(13.7237 98.2906 107.058)" fill="white"/>
<ellipse cx="102.243" cy="115.872" rx="0.847072" ry="0.847074" transform="rotate(13.7237 102.243 115.872)" fill="white"/>
<ellipse cx="68.2147" cy="130.233" rx="0.847072" ry="0.847074" transform="rotate(13.7237 68.2147 130.233)" fill="white"/>
<ellipse cx="79.0583" cy="121.545" rx="1.69414" ry="1.69415" transform="rotate(13.7237 79.0583 121.545)" fill="white"/>
<ellipse cx="101.259" cy="143.098" rx="1.27061" ry="1.27061" transform="rotate(13.7237 101.259 143.098)" fill="white"/>
<ellipse cx="125.901" cy="102.902" rx="1.27061" ry="1.27061" transform="rotate(13.7237 125.901 102.902)" fill="white"/>
<path d="M63.2599 51.7763C61.493 51.3448 59.7337 52.5122 59.4445 54.3079L41.0938 168.26C40.8355 169.864 41.8527 171.397 43.4308 171.783L102.326 186.165C103.904 186.551 105.513 185.659 106.023 184.117L142.263 74.533C142.834 72.8062 141.81 70.9593 140.044 70.5278L63.2599 51.7763Z" stroke="#014958"/>
<path d="M38.8717 169.05C38.9621 168.269 39.717 167.743 40.4813 167.93L107.548 184.309C108.313 184.495 108.74 185.31 108.46 186.045L106.968 189.963C106.733 190.58 106.076 190.925 105.435 190.768L39.3789 174.637C38.7381 174.48 38.3141 173.871 38.3899 173.216L38.8717 169.05Z" fill="#014958"/>
<path d="M216.558 77.6601L216.188 77.9965L216.525 78.3664L224.697 87.3512L225.034 87.721L225.404 87.3846C228.186 84.8542 231.512 82.9977 235.126 81.9586C238.74 80.9194 242.545 80.7255 246.246 81.392C249.947 82.0585 253.444 83.5674 256.469 85.8021C259.493 88.0367 261.963 90.9371 263.688 94.2788C265.411 97.621 266.344 101.315 266.412 105.074L266.412 105.075C266.481 108.834 265.683 112.56 264.082 115.962C262.48 119.364 260.117 122.352 257.176 124.695L257.176 124.695C254.235 127.039 250.793 128.674 247.119 129.474L246.631 129.58L246.737 130.069L249.323 141.936L249.429 142.425L249.918 142.318C255.562 141.089 260.848 138.577 265.367 134.977C269.885 131.378 273.515 126.787 275.975 121.561C278.436 116.334 279.661 110.611 279.556 104.836C279.451 99.0599 278.019 93.3851 275.37 88.2513C272.721 83.1174 268.927 78.6617 264.281 75.229C259.635 71.796 254.26 69.4782 248.575 68.4543L248.486 68.9464L248.575 68.4543C242.89 67.4305 237.046 67.728 231.493 69.3246L231.631 69.805L231.493 69.3246C225.941 70.9209 220.831 73.7728 216.558 77.6601Z" fill="#3CB572" stroke="#014958"/>
<path fill-rule="evenodd" clip-rule="evenodd" d="M147.972 64.9858C146.892 62.0806 148.24 58.7966 151.11 57.5124C154.099 56.1746 157.606 57.5133 158.944 60.5024C159.229 61.1391 159.393 61.7994 159.445 62.4572C159.692 62.1406 160.017 61.878 160.409 61.7025C161.69 61.1292 163.194 61.7029 163.767 62.9839C164.034 63.5802 164.052 64.2246 163.866 64.801C163.934 64.7676 164.003 64.7353 164.073 64.7041C167.276 63.2708 171.034 64.7051 172.467 67.9077C173.187 69.5167 173.183 71.2659 172.595 72.7901C176.092 72.6532 179.493 74.4197 181.346 77.5355C184.894 76.5311 188.314 77.2544 192.445 78.1276C196.167 78.9147 200.466 79.8237 205.952 79.6992C217.691 79.4331 224.931 51.3863 224.931 51.3863L259.189 147.718C259.647 149.006 259.036 150.429 257.787 150.985L202.532 175.565C201.29 176.118 199.832 175.627 199.177 174.436L142.372 71.1665C142.372 71.1665 143.257 71.7717 144.73 72.7216C144.59 69.8037 145.778 66.944 147.972 64.9858Z" fill="#E3F6DC"/>
<path d="M240.896 121.27L248.884 144.794C249.318 146.072 248.708 147.471 247.476 148.022L244.092 149.536C242.86 150.088 241.411 149.611 240.746 148.436L228.526 126.806" stroke="#014958" stroke-linecap="round"/>
<path d="M222.339 129.575L230.326 153.099C230.76 154.377 230.15 155.776 228.918 156.327L225.535 157.842C224.303 158.393 222.853 157.916 222.189 156.741L209.968 135.111" stroke="#014958" stroke-linecap="round"/>
<path d="M203.785 137.88L211.773 161.404C212.207 162.683 211.597 164.082 210.364 164.633L206.981 166.147C205.749 166.699 204.299 166.222 203.635 165.046L191.414 143.417" stroke="#014958" stroke-linecap="round"/>
<ellipse cx="1.61727" cy="1.61729" rx="1.61727" ry="1.61729" transform="matrix(-0.912758 0.408501 0.4085 0.912758 225.487 82.6924)" fill="white"/>
<ellipse cx="2.54122" cy="2.54122" rx="2.54122" ry="2.54122" transform="matrix(-0.912758 0.408501 0.4085 0.912758 193.521 94.2144)" fill="white"/>
<ellipse cx="0.847073" cy="0.847073" rx="0.847073" ry="0.847073" transform="matrix(-0.912758 0.408501 0.4085 0.912758 190.369 105.834)" fill="white"/>
<ellipse cx="0.847073" cy="0.847073" rx="0.847073" ry="0.847073" transform="matrix(-0.912758 0.408501 0.4085 0.912758 226.427 113.826)" fill="white"/>
<ellipse cx="1.69415" cy="1.69415" rx="1.69415" ry="1.69415" transform="matrix(-0.912758 0.408501 0.4085 0.912758 214.621 106.115)" fill="white"/>
<ellipse cx="1.27061" cy="1.27061" rx="1.27061" ry="1.27061" transform="matrix(-0.912758 0.408501 0.4085 0.912758 196.456 131.878)" fill="white"/>
<ellipse cx="1.27061" cy="1.27061" rx="1.27061" ry="1.27061" transform="matrix(-0.912758 0.408501 0.4085 0.912758 164.974 96.7827)" fill="white"/>
<path d="M216.722 36.8798C218.382 36.1368 220.323 36.9678 220.931 38.682L259.527 147.458C260.07 148.989 259.346 150.681 257.863 151.344L202.526 176.11C201.043 176.774 199.3 176.187 198.52 174.762L143.117 73.5075C142.244 71.9119 142.917 69.9108 144.578 69.1678L216.722 36.8798Z" stroke="#014958"/>
<path d="M261.859 147.836C261.629 147.084 260.792 146.703 260.073 147.024L197.058 175.226C196.34 175.548 196.066 176.426 196.474 177.098L198.649 180.684C198.991 181.248 199.699 181.469 200.301 181.199L262.367 153.422C262.969 153.153 263.276 152.477 263.084 151.846L261.859 147.836Z" fill="#014958"/>
<path d="M133.892 11.6957L136.339 3.98935L132.388 2.73496L129.941 10.4413L123.508 5.33298L121.061 8.54822L127.556 13.4623L121.008 18.3692L123.741 21.6609L130.221 16.5186L132.937 24.581L136.635 23.2603L134.162 15.5598L142.431 15.3342L142.094 11.2347L133.892 11.6957Z" fill="#3CB572"/>
<path d="M109.821 43.4894L110.673 40.8073L109.298 40.3708L108.447 43.0528L106.208 41.275L105.356 42.394L107.617 44.1042L105.338 45.8119L106.289 46.9575L108.544 45.1678L109.489 47.9738L110.776 47.5142L109.915 44.8342L112.794 44.7557L112.676 43.3289L109.821 43.4894Z" fill="#014958"/>
<path d="M166.405 28.0655L167.677 24.0609L165.624 23.409L164.353 27.4137L161.009 24.7591L159.738 26.4299L163.113 28.9835L159.71 31.5334L161.131 33.2439L164.498 30.5717L165.909 34.7614L167.831 34.0751L166.546 30.0735L170.843 29.9563L170.668 27.826L166.405 28.0655Z" fill="#014958"/>
</svg>
