<svg width="240" height="240" viewBox="0 0 240 240" fill="none" xmlns="http://www.w3.org/2000/svg">
<rect width="240" height="240" fill="white"/>
<path d="M125.231 165.052C125.095 167.664 122.935 169.74 120.289 169.74C117.644 169.74 115.484 167.664 115.348 165.052H125.231Z" fill="#014958" stroke="#014958" stroke-width="0.520833"/>
<path d="M112.478 151.51H128.103C129.685 151.51 130.967 152.793 130.967 154.375C130.967 155.957 129.685 157.24 128.103 157.24H112.478C110.895 157.24 109.613 155.957 109.613 154.375C109.613 152.793 110.895 151.51 112.478 151.51Z" fill="#014958" stroke="#014958" stroke-width="0.520833"/>
<path d="M112.478 158.281H128.103C129.685 158.281 130.967 159.563 130.967 161.146C130.967 162.728 129.685 164.01 128.103 164.01H112.478C110.895 164.01 109.613 162.728 109.613 161.146C109.613 159.563 110.895 158.281 112.478 158.281Z" fill="#014958" stroke="#014958" stroke-width="0.520833"/>
<path d="M98.9834 107.625C98.9834 99.2717 105.755 92.5 114.108 92.5H126.858C135.212 92.5 141.983 99.2717 141.983 107.625V128.31C141.983 132.215 140.473 135.969 137.768 138.786L132.937 143.816C132.02 144.772 131.507 146.045 131.507 147.37C131.507 149.651 129.658 151.5 127.377 151.5H113.59C111.309 151.5 109.46 149.651 109.46 147.37C109.46 146.045 108.947 144.772 108.03 143.816L103.199 138.786C100.494 135.969 98.9834 132.215 98.9834 128.31V107.625Z" fill="white" stroke="#014958"/>
<circle cx="120.29" cy="115.833" r="15.625" fill="#E3F6DC"/>
<path d="M124.983 151C124.983 151 125.069 139.66 126.233 132.5C127.005 127.752 129.34 121.523 130.927 117.642C131.464 116.329 130.13 114.974 128.82 115.517L126.831 116.34C126.448 116.498 126.018 116.498 125.636 116.34L120.581 114.247C120.198 114.089 119.768 114.089 119.386 114.247L114.331 116.34C113.948 116.498 113.518 116.498 113.136 116.34L111.147 115.517C109.836 114.974 108.503 116.329 109.04 117.642C110.627 121.523 112.962 127.752 113.733 132.5C114.897 139.66 114.983 151 114.983 151" stroke="#3CB572" stroke-width="2.60417"/>
<path d="M88 81.4414H92.0208L97.1408 97.8607H95.8006L88 81.4414Z" fill="#014958"/>
<path d="M151.969 81.4414H147.948L142.828 97.8607H144.168L151.969 81.4414Z" fill="#014958"/>
<path d="M121.854 70L118.208 70L119.392 86.6667L120.607 86.6667L121.854 70Z" fill="#3CB572"/>
</svg>
