<svg width="24" height="24" viewBox="0 0 24 24" fill="none" xmlns="http://www.w3.org/2000/svg">
<path fill-rule="evenodd" clip-rule="evenodd" d="M7.92768 0.0145863C6.68116 0.116159 5.65695 1.07173 5.45314 2.32324C5.41066 2.58418 5.41051 2.64661 5.45039 3.51938C5.47946 4.15559 5.48479 4.47947 5.46765 4.56721C5.38154 5.00813 5.01049 5.38123 4.56687 5.473C4.44549 5.49811 4.2591 5.49569 3.58508 5.46027C3.12327 5.43601 2.65359 5.42399 2.52948 5.43325C2.03661 5.47002 1.50527 5.67243 1.09281 5.98051C-0.0204179 6.81206 -0.326356 8.3712 0.386148 9.58201C0.539793 9.8431 0.726667 10.0535 1.13377 10.4239C2.12921 11.3296 2.17335 11.3779 2.26034 11.6567C2.317 11.8383 2.32195 12.1765 2.27046 12.3477C2.19271 12.6062 2.08933 12.7275 1.46528 13.2929C0.605689 14.0716 0.479815 14.2157 0.265885 14.6663C-0.220807 15.6911 -0.0276602 16.9149 0.74949 17.7304C1.15575 18.1568 1.69934 18.4541 2.24713 18.5497C2.51999 18.5973 2.8434 18.5975 3.72357 18.5506C4.49692 18.5094 4.64042 18.5224 4.88605 18.6562C5.06081 18.7514 5.279 18.9748 5.36598 19.1478C5.5004 19.415 5.50542 19.4859 5.45631 20.4273C5.43185 20.8962 5.41887 21.3728 5.42752 21.4864C5.4853 22.2481 5.91857 23.0248 6.53243 23.467C7.03208 23.8269 7.56291 24.0008 8.15936 24C8.85203 23.9991 9.44669 23.7815 9.95988 23.3414C10.0385 23.274 10.2846 23.0179 10.5069 22.7724C11.1714 22.038 11.3731 21.8458 11.551 21.7773C11.7565 21.698 12.1357 21.6781 12.3348 21.736C12.5877 21.8095 12.7425 21.9412 13.2851 22.544C13.5656 22.8556 13.8822 23.1923 13.9886 23.2923C14.335 23.6176 14.781 23.8422 15.2889 23.9472C15.6559 24.023 16.1792 24.0072 16.5365 23.9094C17.4974 23.6464 18.2475 22.888 18.4908 21.9334C18.5797 21.5849 18.5885 21.3112 18.54 20.4066C18.5082 19.8129 18.5041 19.5723 18.5242 19.4625C18.6064 19.0129 18.9956 18.6202 19.4417 18.5369C19.5403 18.5185 19.7884 18.5221 20.3072 18.5495C21.2771 18.6008 21.486 18.5988 21.7985 18.5354C22.3253 18.4285 22.7665 18.1906 23.1675 17.797C23.4412 17.5285 23.58 17.3372 23.7287 17.0241C24.1254 16.1887 24.0802 15.2209 23.6072 14.4247C23.4161 14.1029 23.2802 13.962 22.3879 13.1605C21.9291 12.7485 21.8227 12.6201 21.7365 12.3751C21.6914 12.247 21.6843 12.1786 21.6926 11.9542C21.7014 11.7167 21.7117 11.6673 21.7836 11.5185C21.8836 11.3115 21.944 11.2483 22.6441 10.6175C22.9526 10.3395 23.2704 10.0359 23.3503 9.94299C23.8191 9.39729 24.0645 8.60573 23.9853 7.89494C23.9316 7.41302 23.7243 6.88028 23.4492 6.51726C23.0781 6.02749 22.4937 5.64112 21.9045 5.49612C21.5996 5.42108 21.224 5.412 20.3572 5.45879C19.6514 5.49691 19.5585 5.49722 19.4067 5.46201C19.1877 5.41121 19.0573 5.34278 18.9014 5.19689C18.737 5.04311 18.637 4.89589 18.5734 4.71405C18.5124 4.53966 18.5093 4.34958 18.5532 3.49663C18.6089 2.4154 18.564 2.07343 18.2955 1.53155C17.8717 0.676381 17.0692 0.119808 16.1071 0.0138974C15.566 -0.045679 14.9354 0.0890121 14.4599 0.365691C14.1299 0.557688 13.9523 0.72417 13.227 1.52155C12.5644 2.25012 12.492 2.29568 11.9973 2.29568C11.7524 2.29568 11.6803 2.28619 11.56 2.23807C11.3657 2.16033 11.2636 2.06526 10.6391 1.3802C10.0965 0.785073 9.92267 0.617009 9.68714 0.459891C9.18681 0.126187 8.5466 -0.0358559 7.92768 0.0145863ZM8.04461 1.6109C7.74586 1.66315 7.54486 1.76003 7.37015 1.93598C7.20284 2.1045 7.10976 2.26624 7.05699 2.48021C7.019 2.63429 7.01788 2.72017 7.04557 3.35428C7.08576 4.27472 7.08387 4.60763 7.037 4.85481C6.87326 5.71843 6.33268 6.42288 5.53273 6.81504C4.98497 7.08358 4.71848 7.11637 3.53792 7.06046C2.83825 7.02732 2.63602 7.02523 2.51836 7.04993C1.92704 7.17403 1.52014 7.75614 1.61623 8.3405C1.65252 8.5612 1.73093 8.73784 1.86328 8.8971C1.91788 8.9628 2.22701 9.25673 2.55024 9.5503C3.28584 10.2184 3.40861 10.3601 3.62728 10.7933C4.07758 11.6855 3.99225 12.7796 3.4084 13.5999C3.22989 13.8507 3.10565 13.9769 2.50897 14.5137C2.22043 14.7733 1.93129 15.0447 1.86644 15.1168C1.66733 15.3384 1.55882 15.7237 1.61319 16.0162C1.68202 16.3865 1.9203 16.7092 2.24116 16.8666C2.49653 16.9919 2.63398 17.0034 3.3839 16.962C4.18331 16.9178 4.74467 16.9315 5.00996 17.0019C5.5286 17.1394 5.94494 17.3826 6.31243 17.763C6.60776 18.0686 6.80736 18.3919 6.93994 18.7793C7.0956 19.2343 7.10802 19.4091 7.05773 20.4347C7.01061 21.3952 7.01844 21.5171 7.14321 21.7682C7.23114 21.9452 7.45555 22.1827 7.60879 22.2609C7.98366 22.4522 8.44454 22.4436 8.76106 22.2393C8.92557 22.1331 9.00761 22.051 9.55614 21.444C9.82959 21.1414 10.1091 20.8444 10.1774 20.784C11.0199 20.0386 12.2486 19.8815 13.2548 20.3907C13.621 20.576 13.8225 20.7558 14.5086 21.5094C15.0417 22.0949 15.1366 22.1857 15.3056 22.2714C15.4842 22.3619 15.6317 22.3951 15.8477 22.3934C16.2808 22.39 16.6468 22.1602 16.8528 21.7624C16.9734 21.5294 16.9834 21.4156 16.9491 20.6619C16.895 19.4723 16.9082 19.2292 17.0507 18.7921C17.3017 18.0217 17.9403 17.3693 18.7235 17.0834C19.1181 16.9393 19.3004 16.9202 20.0429 16.9453C20.4076 16.9576 20.896 16.9677 21.1282 16.9677L21.5504 16.9678L21.7421 16.873C22.0768 16.7074 22.3116 16.3915 22.3821 16.0121C22.4369 15.7176 22.3372 15.3607 22.1313 15.1139C22.0767 15.0484 21.7904 14.7771 21.4951 14.5109C21.1997 14.2447 20.8784 13.9404 20.781 13.8347C19.8483 12.8219 19.8489 11.1879 20.7825 10.1742C20.8807 10.0676 21.1962 9.76919 21.4838 9.51108C22.0571 8.99643 22.2015 8.84212 22.29 8.64997C22.3804 8.45379 22.4177 8.18963 22.3821 7.99838C22.3112 7.61658 22.0744 7.29946 21.74 7.13818C21.4996 7.02224 21.333 7.01053 20.5403 7.0537C19.7283 7.09797 19.3948 7.09292 19.1031 7.03199C18.0009 6.8017 17.1507 5.92298 16.9565 4.8132C16.9103 4.54958 16.91 4.2208 16.9551 3.38135C16.999 2.56448 16.9817 2.42267 16.8041 2.1439C16.7111 1.99793 16.507 1.79958 16.3849 1.73638C16.1468 1.61317 15.8364 1.5722 15.5861 1.6309C15.2408 1.71189 15.1915 1.75207 14.4709 2.53983C14.1948 2.8418 13.9068 3.14468 13.831 3.2129C13.3329 3.66122 12.6666 3.91708 11.9973 3.91708C11.329 3.91708 10.6616 3.66112 10.1654 3.21454C10.0906 3.1472 9.81105 2.85006 9.54418 2.55422C9.01342 1.96583 8.90005 1.85331 8.74375 1.7598C8.5605 1.65019 8.22661 1.57906 8.04461 1.6109ZM11.5383 6.73824C11.5032 6.74421 11.3712 6.76177 11.245 6.77723C10.4362 6.8763 9.5313 7.25267 8.81467 7.78809C8.57233 7.96916 8.11509 8.40916 7.91279 8.65601C7.32947 9.36777 6.9416 10.2289 6.77778 11.176C6.71558 11.5356 6.71571 12.4765 6.77799 12.8334C6.982 14.0022 7.48526 14.9734 8.30196 15.7743C8.73952 16.2033 9.11747 16.471 9.67801 16.7488C11.1323 17.4694 12.8634 17.4693 14.3166 16.7486C15.1823 16.3192 15.8488 15.7368 16.3895 14.9371C16.8011 14.3283 17.0877 13.5985 17.2165 12.8314C17.2802 12.4521 17.2802 11.5452 17.2166 11.176C17.0656 10.2995 16.7321 9.51748 16.2123 8.82096C16.0313 8.5785 15.5915 8.12103 15.3448 7.91862C14.64 7.34041 13.7576 6.94167 12.8388 6.78626C12.6094 6.74745 11.6842 6.71329 11.5383 6.73824ZM11.4235 8.36949C10.6533 8.49214 9.99257 8.82768 9.42476 9.38458C8.84167 9.95646 8.49547 10.6268 8.36171 11.443C8.31454 11.7308 8.31561 12.2783 8.36388 12.5785C8.61798 14.1583 9.84339 15.3855 11.4228 15.6418C11.7181 15.6897 12.2765 15.6897 12.5718 15.6418C13.3419 15.5168 14.0345 15.1644 14.5816 14.6193C15.2993 13.9041 15.6686 13.016 15.6686 12.0053C15.6686 10.9868 15.2972 10.1011 14.5689 9.38241C14.0128 8.83367 13.32 8.48611 12.5456 8.36729C12.2656 8.32435 11.7001 8.32545 11.4235 8.36949Z" fill="#3CB572"/>
</svg>
