<svg xmlns="http://www.w3.org/2000/svg" width="137" height="100" fill="none"><path fill="#014958" stroke="#014958" stroke-linecap="round" stroke-linejoin="round" stroke-width=".446" d="m114.429 15.46-1.817-.627a3.136 3.136 0 0 0-1.754-.13 3.24 3.24 0 0 0-1.571.832l-3.228 3.22a.806.806 0 0 0-.205.386.785.785 0 0 0 .03.433.913.913 0 0 0 .657.598l4.383 1.028M121.595 22.58l.626 1.817c.21.556.256 1.164.131 1.753a3.24 3.24 0 0 1-.832 1.572l-3.219 3.227a.808.808 0 0 1-.388.205.78.78 0 0 1-.432-.03.924.924 0 0 1-.598-.656l-1.028-4.383"/><path fill="#fff" stroke="#014958" stroke-linecap="round" stroke-linejoin="round" stroke-width=".446" d="m132.971 3.593-7.774-.301h0-.013a7.317 7.317 0 0 0-6.004 3.362h0l-.003.005-8.549 14.158a.224.224 0 0 0 .033.273l5.116 5.122a.223.223 0 0 0 .273.034l14.158-8.542h0l.005-.003a7.302 7.302 0 0 0 3.376-6.004h0v-.013l-.302-7.775 1.057-1.057 1.126-1.126a.224.224 0 0 0-.316-.315l-1.126 1.125-1.057 1.057Z"/><path fill="#014958" stroke="#014958" stroke-linecap="round" stroke-linejoin="round" stroke-width=".446" d="M133.171 11.805a.223.223 0 0 0 .416-.121l-.306-7.873a.223.223 0 0 0-.214-.214l-7.872-.305a.224.224 0 0 0-.122.415l.113-.192-.113.192h.001l.001.002.007.003.026.016.1.06a41.738 41.738 0 0 1 1.614 1.029c.978.658 2.146 1.509 2.938 2.301.792.792 1.644 1.96 2.302 2.939a41.022 41.022 0 0 1 1.028 1.613l.061.1.015.027.004.006.001.002h0l.192-.113-.192.113Z"/><path fill="#F5F5F5" stroke="#014958" stroke-linecap="round" stroke-linejoin="round" stroke-width=".446" d="M124.159 15.56a2.843 2.843 0 1 0 0-5.687 2.843 2.843 0 0 0 0 5.686Z"/><path fill="#fff" stroke="#014958" stroke-width=".446" d="M111.574 30.104c-.312.312-.843.556-1.498.739-.649.181-1.39.296-2.095.366a23.302 23.302 0 0 1-2.426.112 23.574 23.574 0 0 1 .112-2.426c.071-.704.185-1.446.366-2.095.183-.655.427-1.186.739-1.498a3.396 3.396 0 0 1 4.802 4.802Z"/><path fill="#fff" stroke="#014958" stroke-width=".446" d="M110.479 28.57c-.131.13-.365.242-.678.33-.306.085-.659.14-.998.173a11.2 11.2 0 0 1-1.052.054l.002-.163c.005-.233.018-.551.052-.889.034-.339.088-.692.174-.998.088-.313.2-.547.33-.677a1.534 1.534 0 0 1 2.17 2.17Z"/><rect width="35.428" height="46.743" x="28.992" y="53.033" fill="#fff" stroke="#014958" stroke-width=".446" rx=".881"/><rect width="35.428" height="51.71" x="34.788" y="48.066" fill="#E3F6DC" stroke="#014958" stroke-width=".446" rx=".881"/><mask id="a" fill="#fff"><path fill-rule="evenodd" d="M87.827 39.284H58.029L40.297 56.84v42.11c0 .579.468 1.047 1.046 1.047h46.484c.577 0 1.045-.468 1.045-1.046V40.33c0-.578-.468-1.046-1.045-1.046Zm-2.983 5.748a1.796 1.796 0 1 0 0-3.592 1.796 1.796 0 0 0 0 3.592Z" clip-rule="evenodd"/></mask><path fill="#fff" fill-rule="evenodd" d="M87.827 39.284H58.029L40.297 56.84v42.11c0 .579.468 1.047 1.046 1.047h46.484c.577 0 1.045-.468 1.045-1.046V40.33c0-.578-.468-1.046-1.045-1.046Zm-2.983 5.748a1.796 1.796 0 1 0 0-3.592 1.796 1.796 0 0 0 0 3.592Z" clip-rule="evenodd"/><path fill="#014958" d="M58.03 39.284v-.446h-.184l-.13.129.313.317ZM40.296 56.84l-.314-.317-.133.131v.186h.447Zm17.732-17.108h29.798v-.893H58.029v.893ZM40.611 57.157 58.343 39.6l-.628-.634-17.732 17.555.628.635Zm.132 41.793V56.84h-.893v42.11h.893Zm.6.6a.6.6 0 0 1-.6-.6h-.893c0 .824.669 1.492 1.493 1.492v-.893Zm46.484 0H41.343v.892h46.484v-.893Zm.599-.6a.6.6 0 0 1-.6.6v.892c.825 0 1.493-.668 1.493-1.492h-.893Zm0-58.62v58.62h.893V40.33h-.893Zm-.6-.6a.6.6 0 0 1 .6.6h.893c0-.824-.668-1.492-1.492-1.492v.893Zm-1.632 3.506a1.35 1.35 0 0 1-1.35 1.35v.892a2.243 2.243 0 0 0 2.243-2.242h-.893Zm-1.35-1.35c.745 0 1.35.604 1.35 1.35h.892a2.243 2.243 0 0 0-2.242-2.243v.893Zm-1.35 1.35c0-.746.604-1.35 1.35-1.35v-.893a2.243 2.243 0 0 0-2.243 2.243h.893Zm1.35 1.35a1.35 1.35 0 0 1-1.35-1.35h-.893a2.243 2.243 0 0 0 2.243 2.242v-.892Z" mask="url(#a)"/><path fill="#5AC78A" fill-rule="evenodd" d="M60.2 60.124c0-.735.717-1.26 1.427-1.044l12.133 3.697c.462.14.778.564.778 1.043v11.912c0 .735-.718 1.26-1.427 1.044L60.978 73.08a1.093 1.093 0 0 1-.779-1.044V60.124Z" clip-rule="evenodd" opacity=".5"/><path fill="#4EC483" fill-rule="evenodd" d="M57.441 62.198c0-.734.718-1.26 1.428-1.044l12.133 3.697c.463.14.778.564.778 1.044v11.912c0 .734-.718 1.26-1.427 1.043L58.22 75.154a1.093 1.093 0 0 1-.779-1.044V62.198Z" clip-rule="evenodd" opacity=".8"/><path fill="#3BB471" fill-rule="evenodd" d="M54.684 64.273c0-.734.718-1.26 1.427-1.043l12.133 3.696c.463.141.779.564.779 1.044v11.912c0 .734-.718 1.26-1.428 1.044l-12.133-3.697a1.093 1.093 0 0 1-.778-1.043V64.273Z" clip-rule="evenodd"/><path fill="#fff" fill-rule="evenodd" d="M63.418 68.365a.95.95 0 0 1 .245.319l2.173 7.715c.163.347.053.688-.244.762a.56.56 0 0 1-.295-.013l-1.972-.592.093-2.705-1.784 2.233-3.663-1.134c-.34-.102-.615-.46-.615-.8 0-.095.022-.181.064-.254l1.236-3.035c.15-.26.518-.274.822-.032.121.096.219.224.279.363l.673 1.135 2.155-3.966c.163-.25.536-.248.833.004Z" clip-rule="evenodd"/><path fill="#3CB572" stroke="#014958" stroke-width=".446" d="m41.014 56.616 16.792-16.793v15.97a.822.822 0 0 1-.822.823h-15.97Z"/><path stroke="#35A165" stroke-width=".446" d="M88.79 43.959c1.681 1.262 3.715 3.304 5.57 5.693 3.826 4.93 5.785 9.815 4.374 10.91-1.41 1.094-5.656-2.015-9.482-6.945-.13-.167-.258-.334-.383-.501-2.308-3.072-3.869-6.078-4.317-8.105-.245-1.111-.157-1.929.325-2.303.376-.291 1.042-.266 1.758-.007"/><path fill="#FF8500" d="m131.935 36.67-.63-3.557-1.824.323.631 3.557-3.606-.687-.301 1.78 3.589.598-1.573 3.3 1.764.735 1.498-3.379 2.747 2.627 1.19-1.29-2.577-2.534 3.226-1.804-.984-1.552-3.15 1.883ZM7.083 38.47l-1.637-3.22-1.65.839 1.636 3.22-3.65.39.23 1.791 3.608-.471-.547 3.614 1.902.192.451-3.669 3.392 1.716.764-1.58-3.202-1.676 2.562-2.664-1.392-1.2-2.467 2.718Z"/><path fill="#FFC10A" d="m43.483 22.64.514-2.43-1.236-.262-.514 2.43-2.104-1.362-.647 1.058 2.117 1.301-1.842 1.702.927.922 1.814-1.772 1.063 2.38 1.083-.517-.979-2.277 2.504-.324-.224-1.242-2.476.393ZM83.293 3.612V0h-1.851v3.612l-3.43-1.305-.608 1.7 3.43 1.214-2.124 2.975 1.609 1.033 2.064-3.067 2.246 3.067 1.397-1.063-2.095-2.945 3.491-1.214-.698-1.7-3.43 1.305ZM131.872 64.747v-2.26h-1.159v2.26l-2.146-.816-.379 1.063 2.146.76-1.33 1.861 1.007.646 1.291-1.918 1.406 1.918.873-.665-1.31-1.842 2.184-.76-.437-1.063-2.146.816Z"/></svg>