<svg width="327" height="200" viewBox="0 0 327 200" fill="none" xmlns="http://www.w3.org/2000/svg">
<path d="M280.447 83.6961L279.284 77.1292L275.918 77.7256L277.081 84.2925L270.425 83.0243L269.869 86.3101L276.495 87.4127L273.591 93.5051L276.848 94.8632L279.613 88.6248L284.684 93.4749L286.88 91.0938L282.124 86.4155L288.079 83.0839L286.262 80.2185L280.447 83.6961Z" fill="#FF8500"/>
<path d="M49.9542 87.0202L46.9327 81.0748L43.8851 82.6236L46.9065 88.569L40.1691 89.2898L40.5918 92.5954L47.253 91.7248L46.244 98.3983L49.7552 98.7513L50.5881 91.9787L56.8497 95.1459L58.2593 92.2293L52.3491 89.135L57.079 84.2166L54.508 82.0028L49.9542 87.0202Z" fill="#FF8500"/>
<path d="M117.155 57.7902L118.105 53.3032L115.823 52.8203L114.873 57.3074L110.989 54.7916L109.794 56.7448L113.702 59.1475L110.302 62.2887L112.013 63.9902L115.363 60.7201L117.325 65.1142L119.325 64.1586L117.518 59.9549L122.139 59.3569L121.725 57.0633L117.155 57.7902Z" fill="#FFC10A"/>
<path d="M190.648 22.6633V15.9941H187.229V22.6633L180.896 20.2534L179.775 23.3918L186.108 25.6335L182.185 31.1258L185.156 33.0312L188.966 27.3709L193.114 33.0312L195.692 31.0697L191.825 25.6335L198.27 23.3918L196.981 20.2534L190.648 22.6633Z" fill="#FFC10A"/>
<path d="M280.331 135.53V131.358H278.193V135.53L274.231 134.023L273.529 135.986L277.491 137.389L275.037 140.825L276.895 142.017L279.28 138.476L281.874 142.017L283.487 140.79L281.068 137.389L285.1 135.986L284.294 134.023L280.331 135.53Z" fill="#FFC10A"/>
<path d="M229.949 63.2134L226.896 62.1615C225.961 61.8089 224.939 61.7325 223.95 61.9411C222.961 62.1498 222.045 62.6348 221.31 63.3395L215.888 68.7479C215.715 68.9295 215.595 69.155 215.543 69.3985C215.491 69.6421 215.509 69.8938 215.594 70.1249C215.678 70.3725 215.822 70.594 216.015 70.7693C216.208 70.9447 216.442 71.0684 216.697 71.1293L224.06 72.8565" fill="#014958"/>
<path d="M229.949 63.2134L226.896 62.1615C225.961 61.8089 224.939 61.7325 223.95 61.9411C222.961 62.1498 222.045 62.6348 221.31 63.3395L215.888 68.7479C215.715 68.9295 215.595 69.155 215.543 69.3985C215.491 69.6421 215.509 69.8938 215.594 70.1249C215.678 70.3725 215.822 70.594 216.015 70.7693C216.208 70.9447 216.442 71.0684 216.697 71.1293L224.06 72.8565L229.949 63.2134Z" stroke="#014958" stroke-width="0.5" stroke-linecap="round" stroke-linejoin="round"/>
<path d="M241.989 75.1729L243.041 78.2257C243.393 79.1604 243.47 80.1823 243.261 81.1717C243.052 82.161 242.567 83.0767 241.863 83.8116L236.454 89.2338C236.273 89.4068 236.047 89.5262 235.804 89.5782C235.56 89.6303 235.308 89.6129 235.077 89.528C234.83 89.444 234.608 89.2992 234.433 89.1066C234.257 88.9141 234.134 88.6798 234.073 88.425L232.346 81.0612" fill="#014958"/>
<path d="M241.989 75.1729L243.041 78.2257C243.393 79.1604 243.47 80.1823 243.261 81.1717C243.052 82.161 242.567 83.0767 241.863 83.8116L236.454 89.2338C236.273 89.4068 236.047 89.5262 235.804 89.5782C235.56 89.6303 235.308 89.6129 235.077 89.528C234.83 89.444 234.608 89.2992 234.433 89.1066C234.257 88.9141 234.134 88.6798 234.073 88.425L232.346 81.0612L241.989 75.1729Z" stroke="#014958" stroke-width="0.5" stroke-linecap="round" stroke-linejoin="round"/>
<path d="M262.013 56.888C262.013 56.883 262.013 56.878 262.013 56.873L261.5 43.6478C261.495 43.5174 261.39 43.4128 261.26 43.4077L248.035 42.8955C248.03 42.8953 248.025 42.8953 248.02 42.8954C246.025 42.9366 244.07 43.4681 242.329 44.4429C240.588 45.4177 239.114 46.806 238.037 48.4855L238.037 48.4855L238.034 48.4912L223.672 72.2756C223.613 72.374 223.628 72.5002 223.709 72.5815L232.303 81.1873C232.385 81.2686 232.511 81.2841 232.609 81.2247L256.394 66.8747L256.394 66.8748L256.399 66.8715C258.084 65.798 259.477 64.3255 260.457 62.5841C261.436 60.8427 261.97 58.8863 262.013 56.888Z" fill="white" stroke="#014958" stroke-width="0.5" stroke-linecap="round" stroke-linejoin="round"/>
<path d="M261.495 43.6481C261.49 43.5177 261.385 43.4131 261.255 43.408L248.031 42.8958C247.916 42.8914 247.813 42.9654 247.781 43.0754C247.749 43.1854 247.795 43.3032 247.894 43.3612L248.021 43.1456L247.894 43.3612L247.894 43.3613L247.895 43.3617L247.898 43.3633L247.909 43.3698L247.953 43.3957C247.991 43.4187 248.048 43.4528 248.122 43.4972C248.27 43.586 248.484 43.716 248.749 43.8806C249.281 44.2099 250.017 44.6771 250.838 45.2287C252.484 46.3347 254.454 47.7705 255.794 49.1102C257.133 50.4499 258.569 52.4203 259.675 54.0659C260.227 54.8868 260.694 55.6232 261.023 56.1544C261.188 56.4199 261.318 56.6341 261.407 56.7816C261.451 56.8554 261.485 56.9126 261.508 56.9512L261.534 56.995L261.541 57.006L261.542 57.0087L261.542 57.0093L261.543 57.0095L261.758 56.883L261.543 57.0095C261.601 57.1084 261.718 57.1551 261.828 57.1229C261.938 57.0907 262.012 56.9878 262.008 56.8733L261.495 43.6481Z" fill="#014958" stroke="#014958" stroke-width="0.5" stroke-linecap="round" stroke-linejoin="round"/>
<path d="M246.297 63.3791C248.935 63.3791 251.073 61.2407 251.073 58.6028C251.073 55.9649 248.935 53.8265 246.297 53.8265C243.659 53.8265 241.521 55.9649 241.521 58.6028C241.521 61.2407 243.659 63.3791 246.297 63.3791Z" fill="#F5F5F5" stroke="#014958" stroke-width="0.5" stroke-linecap="round" stroke-linejoin="round"/>
<path d="M225.243 87.9021C224.696 88.4491 223.779 88.8659 222.672 89.1754C221.572 89.4828 220.319 89.6754 219.131 89.7949C217.945 89.9144 216.831 89.9602 216.014 89.9761C215.605 89.9841 215.271 89.9846 215.039 89.9831C214.996 89.9828 214.956 89.9824 214.919 89.9821C214.919 89.9458 214.919 89.9058 214.918 89.8621C214.917 89.6304 214.917 89.2963 214.925 88.8877C214.941 88.0702 214.987 86.9566 215.107 85.7703C215.226 84.5828 215.419 83.3294 215.726 82.2299C216.036 81.123 216.452 80.2058 216.999 79.6588C219.276 77.3825 222.966 77.3825 225.243 79.6588C227.519 81.9351 227.519 85.6258 225.243 87.9021Z" fill="white" stroke="#014958" stroke-width="0.5"/>
<path d="M223.403 85.323C223.161 85.5647 222.742 85.7599 222.211 85.9085C221.686 86.0551 221.086 86.1477 220.513 86.2053C219.941 86.2629 219.404 86.285 219.009 86.2927C218.849 86.2958 218.713 86.2966 218.608 86.2964C218.608 86.1911 218.608 86.0549 218.611 85.8951C218.619 85.5003 218.641 84.9631 218.699 84.3913C218.756 83.8184 218.849 83.2176 218.996 82.6934C219.144 82.1619 219.339 81.7427 219.581 81.5009C220.637 80.4455 222.348 80.4455 223.403 81.5009C224.459 82.5563 224.459 84.2675 223.403 85.323Z" fill="white" stroke="#014958" stroke-width="0.5"/>
<rect x="114.248" y="119.742" width="48.5455" height="64.0136" rx="1.25909" fill="white" stroke="#014958" stroke-width="0.5"/>
<rect x="122.17" y="112.951" width="48.5455" height="70.8045" rx="1.25909" fill="#E3F6DC" stroke="#014958" stroke-width="0.5"/>
<mask id="path-17-inside-1_7652_3864" fill="white">
<path fill-rule="evenodd" clip-rule="evenodd" d="M194.739 101.002H154.002L129.76 125.002V182.572C129.76 183.362 130.4 184.002 131.189 184.002H194.739C195.528 184.002 196.168 183.362 196.168 182.572V102.432C196.168 101.642 195.528 101.002 194.739 101.002ZM190.66 108.861C192.016 108.861 193.116 107.761 193.116 106.405C193.116 105.049 192.016 103.949 190.66 103.949C189.304 103.949 188.205 105.049 188.205 106.405C188.205 107.761 189.304 108.861 190.66 108.861Z"/>
</mask>
<path fill-rule="evenodd" clip-rule="evenodd" d="M194.739 101.002H154.002L129.76 125.002V182.572C129.76 183.362 130.4 184.002 131.189 184.002H194.739C195.528 184.002 196.168 183.362 196.168 182.572V102.432C196.168 101.642 195.528 101.002 194.739 101.002ZM190.66 108.861C192.016 108.861 193.116 107.761 193.116 106.405C193.116 105.049 192.016 103.949 190.66 103.949C189.304 103.949 188.205 105.049 188.205 106.405C188.205 107.761 189.304 108.861 190.66 108.861Z" fill="white"/>
<path d="M154.002 101.002V100.502H153.796L153.65 100.647L154.002 101.002ZM129.76 125.002L129.408 124.647L129.26 124.793V125.002H129.76ZM154.002 101.502H194.739V100.502H154.002V101.502ZM130.112 125.357L154.354 101.357L153.65 100.647L129.408 124.647L130.112 125.357ZM130.26 182.572V125.002H129.26V182.572H130.26ZM131.189 183.502C130.676 183.502 130.26 183.086 130.26 182.572H129.26C129.26 183.638 130.124 184.502 131.189 184.502V183.502ZM194.739 183.502H131.189V184.502H194.739V183.502ZM195.668 182.572C195.668 183.086 195.252 183.502 194.739 183.502V184.502C195.804 184.502 196.668 183.638 196.668 182.572H195.668ZM195.668 102.432V182.572H196.668V102.432H195.668ZM194.739 101.502C195.252 101.502 195.668 101.918 195.668 102.432H196.668C196.668 101.366 195.804 100.502 194.739 100.502V101.502ZM192.616 106.405C192.616 107.485 191.74 108.361 190.66 108.361V109.361C192.293 109.361 193.616 108.037 193.616 106.405H192.616ZM190.66 104.449C191.74 104.449 192.616 105.325 192.616 106.405H193.616C193.616 104.773 192.293 103.449 190.66 103.449V104.449ZM188.705 106.405C188.705 105.325 189.58 104.449 190.66 104.449V103.449C189.028 103.449 187.705 104.773 187.705 106.405H188.705ZM190.66 108.361C189.58 108.361 188.705 107.485 188.705 106.405H187.705C187.705 108.037 189.028 109.361 190.66 109.361V108.361Z" fill="#014958" mask="url(#path-17-inside-1_7652_3864)"/>
<path opacity="0.5" fill-rule="evenodd" clip-rule="evenodd" d="M156.969 129.493C156.969 128.488 157.95 127.77 158.92 128.066L175.507 133.119C176.14 133.312 176.572 133.89 176.572 134.546V150.831C176.572 151.836 175.59 152.553 174.621 152.258L158.033 147.205C157.401 147.012 156.969 146.433 156.969 145.778V129.493Z" fill="#5AC78A"/>
<path opacity="0.8" fill-rule="evenodd" clip-rule="evenodd" d="M153.197 132.331C153.197 131.326 154.179 130.609 155.149 130.904L171.736 135.957C172.369 136.15 172.8 136.729 172.8 137.384V153.669C172.8 154.674 171.819 155.392 170.849 155.096L154.262 150.043C153.629 149.85 153.197 149.272 153.197 148.616V132.331Z" fill="#4EC483"/>
<path fill-rule="evenodd" clip-rule="evenodd" d="M149.428 135.165C149.428 134.16 150.409 133.443 151.379 133.738L167.966 138.791C168.599 138.984 169.031 139.563 169.031 140.218V156.503C169.031 157.508 168.049 158.226 167.08 157.93L150.492 152.877C149.859 152.684 149.428 152.105 149.428 151.45V135.165Z" fill="#3BB471"/>
<path fill-rule="evenodd" clip-rule="evenodd" d="M161.369 140.757C161.511 140.877 161.627 141.028 161.704 141.193L164.675 151.741C164.897 152.215 164.747 152.681 164.341 152.782C164.217 152.812 164.079 152.806 163.938 152.764L161.241 151.955L161.369 148.257L158.93 151.31L153.921 149.759C153.458 149.62 153.082 149.131 153.082 148.666C153.082 148.537 153.112 148.418 153.169 148.319L154.858 144.17C155.064 143.815 155.567 143.795 155.983 144.126C156.148 144.257 156.282 144.431 156.363 144.621L157.284 146.174L160.23 140.751C160.453 140.41 160.963 140.413 161.369 140.757Z" fill="white"/>
<path d="M130.606 124.752L153.752 101.606V123.572C153.752 124.224 153.224 124.752 152.572 124.752H130.606Z" fill="#3CB572" stroke="#014958" stroke-width="0.5"/>
<path d="M196.054 107.39C198.353 109.117 201.134 111.907 203.669 115.174C208.9 121.914 211.578 128.592 209.649 130.088C207.721 131.585 201.917 127.334 196.685 120.594C196.508 120.366 196.334 120.137 196.162 119.909C193.007 115.709 190.874 111.601 190.261 108.829C189.925 107.31 190.046 106.192 190.705 105.68C191.219 105.282 192.129 105.317 193.108 105.671" stroke="#35A165" stroke-width="0.5"/>
</svg>
