<svg xmlns="http://www.w3.org/2000/svg" width="153" height="112" fill="none"><path fill="#3C4F52" d="m127.94 17.316-2.035-.701a3.511 3.511 0 0 0-1.964-.147c-.66.139-1.271.462-1.76.932l-3.615 3.606a.9.9 0 0 0-.23.434.876.876 0 0 0 .033.484 1.03 1.03 0 0 0 .736.67l4.909 1.151"/><path stroke="#DCE4E5" stroke-linecap="round" stroke-linejoin="round" stroke-width=".5" d="m127.94 17.316-2.035-.701a3.511 3.511 0 0 0-1.964-.147c-.66.139-1.271.462-1.76.932l-3.615 3.606a.9.9 0 0 0-.23.434.876.876 0 0 0 .033.484 1.03 1.03 0 0 0 .736.67l4.909 1.151 3.926-6.429Z"/><path fill="#3C4F52" d="m135.968 25.29.702 2.035c.235.623.286 1.305.147 1.964-.14.66-.463 1.27-.933 1.76l-3.605 3.615a.91.91 0 0 1-.434.23.873.873 0 0 1-.484-.034 1.023 1.023 0 0 1-.67-.735l-1.152-4.91"/><path stroke="#DCE4E5" stroke-linecap="round" stroke-linejoin="round" stroke-width=".5" d="m135.968 25.29.702 2.035c.235.623.286 1.305.147 1.964-.14.66-.463 1.27-.933 1.76l-3.605 3.615a.91.91 0 0 1-.434.23.873.873 0 0 1-.484-.034 1.023 1.023 0 0 1-.67-.735l-1.152-4.91 6.429-3.925Z"/><path fill="#2B383B" stroke="#DCE4E5" stroke-linecap="round" stroke-linejoin="round" stroke-width=".5" d="M149.401 13.101v-.007l-.001-.008-.342-8.817a.25.25 0 0 0-.24-.24l-8.816-.342h-.015a8.19 8.19 0 0 0-6.724 3.766h0l-.004.005-9.574 15.857a.248.248 0 0 0 .037.306l5.729 5.737a.25.25 0 0 0 .306.038l15.857-9.567h0l.005-.003a8.182 8.182 0 0 0 3.782-6.724Z"/><path fill="#3C4F52" stroke="#DCE4E5" stroke-linecap="round" stroke-linejoin="round" stroke-width=".5" d="M149.055 4.27a.25.25 0 0 0-.24-.24l-8.816-.342a.25.25 0 0 0-.137.465l.127-.216-.127.216h.001l.002.001.007.005.029.017.113.067a42.384 42.384 0 0 1 1.807 1.152c1.096.737 2.404 1.69 3.291 2.578.887.887 1.841 2.195 2.578 3.291a45.392 45.392 0 0 1 1.152 1.807l.067.113.017.03.005.006.001.002h0l.216-.126-.216.127a.25.25 0 0 0 .465-.137l-.342-8.817Z"/><path fill="#DCE4E5" stroke="#DCE4E5" stroke-linecap="round" stroke-linejoin="round" stroke-width=".5" d="M138.84 17.427a3.184 3.184 0 1 0-.001-6.369 3.184 3.184 0 0 0 .001 6.37Z"/><path fill="#fff" stroke="#DCE4E5" stroke-width=".5" d="M124.744 33.717c-.35.35-.944.622-1.678.828-.727.203-1.557.33-2.346.41a26.18 26.18 0 0 1-2.717.125 25.83 25.83 0 0 1 .125-2.717c.079-.79.207-1.62.41-2.346.205-.734.479-1.329.828-1.678a3.803 3.803 0 0 1 5.378 5.378Z"/><path fill="#1A1A1A" stroke="#DCE4E5" stroke-width=".5" d="M123.518 31.997c-.146.146-.408.272-.759.37a6.803 6.803 0 0 1-1.118.195 12.568 12.568 0 0 1-1.178.06l.002-.182c.006-.262.02-.618.058-.996.039-.38.1-.775.196-1.118.098-.35.223-.613.369-.759a1.718 1.718 0 1 1 2.43 2.43Z"/><rect width="39.68" height="52.352" x="32.25" y="59.398" fill="#3C4F52" stroke="#DCE4E5" stroke-width=".5" rx=".986"/><rect width="39.68" height="57.916" x="38.74" y="53.835" fill="#3C4F52" stroke="#DCE4E5" stroke-width=".5" rx=".986"/><mask id="a" fill="#fff"><path fill-rule="evenodd" d="M98.145 44H64.772l-19.86 19.662v47.164c0 .646.525 1.171 1.171 1.171h52.062c.647 0 1.172-.525 1.172-1.171V45.171c0-.647-.525-1.171-1.172-1.171Zm-3.34 6.438a2.012 2.012 0 1 0 0-4.024 2.012 2.012 0 0 0 0 4.024Z" clip-rule="evenodd"/></mask><path fill="#2B383B" fill-rule="evenodd" d="M98.145 44H64.772l-19.86 19.662v47.164c0 .646.525 1.171 1.171 1.171h52.062c.647 0 1.172-.525 1.172-1.171V45.171c0-.647-.525-1.171-1.172-1.171Zm-3.34 6.438a2.012 2.012 0 1 0 0-4.024 2.012 2.012 0 0 0 0 4.024Z" clip-rule="evenodd"/><path fill="#DCE4E5" d="M64.772 44v-.5h-.205l-.146.145.351.355Zm-19.86 19.662-.352-.356-.148.147v.209h.5ZM64.772 44.5h33.373v-1H64.772v1ZM45.264 64.017l19.86-19.662-.703-.71-19.86 19.661.703.711Zm.148 46.809V63.662h-1v47.164h1Zm.671.671a.671.671 0 0 1-.67-.671h-1c0 .923.747 1.671 1.67 1.671v-1Zm52.062 0H46.083v1h52.062v-1Zm.672-.671c0 .37-.3.671-.672.671v1c.923 0 1.672-.748 1.672-1.671h-1Zm0-65.655v65.655h1V45.171h-1Zm-.672-.671c.371 0 .672.3.672.671h1c0-.923-.749-1.671-1.672-1.671v1Zm-1.829 3.926c0 .835-.677 1.512-1.512 1.512v1a2.512 2.512 0 0 0 2.512-2.512h-1Zm-1.512-1.512c.835 0 1.512.677 1.512 1.512h1a2.512 2.512 0 0 0-2.512-2.512v1Zm-1.511 1.512c0-.835.676-1.512 1.511-1.512v-1a2.512 2.512 0 0 0-2.511 2.512h1Zm1.511 1.512a1.512 1.512 0 0 1-1.511-1.512h-1a2.512 2.512 0 0 0 2.511 2.512v-1Z" mask="url(#a)"/><path fill="#5AC78A" fill-rule="evenodd" d="M67.201 67.34c0-.823.804-1.41 1.599-1.169l13.589 4.14c.518.158.872.632.872 1.17v13.34c0 .823-.804 1.412-1.599 1.17l-13.589-4.14a1.225 1.225 0 0 1-.872-1.17v-13.34Z" clip-rule="evenodd" opacity=".5"/><path fill="#4EC483" fill-rule="evenodd" d="M64.111 69.664c0-.823.805-1.41 1.599-1.169l13.589 4.14c.518.158.872.632.872 1.169v13.341c0 .823-.804 1.412-1.599 1.17l-13.589-4.14a1.225 1.225 0 0 1-.872-1.17v-13.34Z" clip-rule="evenodd" opacity=".8"/><path fill="#3BB471" fill-rule="evenodd" d="M61.023 71.988c0-.823.805-1.41 1.6-1.169l13.588 4.14c.518.158.872.632.872 1.169v13.341c0 .823-.804 1.412-1.599 1.17l-13.588-4.14a1.225 1.225 0 0 1-.873-1.17V71.99Z" clip-rule="evenodd"/><path fill="#fff" fill-rule="evenodd" d="M70.807 76.57c.116.098.21.222.274.357l2.434 8.641c.182.389.06.77-.274.853a.626.626 0 0 1-.33-.014l-2.21-.663.106-3.03-1.999 2.501-4.103-1.27c-.38-.114-.687-.515-.687-.896 0-.106.024-.203.07-.284l1.385-3.4c.168-.29.58-.306.921-.035.135.108.245.25.312.406l.754 1.271 2.414-4.442c.182-.28.6-.277.933.005Z" clip-rule="evenodd"/><path fill="#67DD95" stroke="#DCE4E5" stroke-width=".5" d="M45.713 63.412 64.52 44.604V62.49a.921.921 0 0 1-.921.92H45.713Z"/><path stroke="#67DD95" stroke-width=".5" d="M99.225 49.234c1.882 1.414 4.161 3.7 6.238 6.377 4.285 5.522 6.479 10.992 4.899 12.218-1.58 1.226-6.335-2.256-10.62-7.777a45.527 45.527 0 0 1-.429-.562c-2.585-3.44-4.333-6.806-4.835-9.078-.275-1.244-.176-2.16.365-2.579.42-.326 1.166-.297 1.967-.007"/><path fill="#FF8500" d="m147.548 41.07-.706-3.983-2.042.361.706 3.984-4.038-.769-.337 1.994 4.02.668-1.762 3.697 1.976.823 1.677-3.784 3.077 2.942 1.332-1.444-2.885-2.839 3.612-2.02-1.102-1.74-3.528 2.11ZM7.713 43.086 5.88 39.48l-1.849.94 1.833 3.606-4.087.437.256 2.006 4.041-.529-.612 4.05 2.13.213.506-4.108 3.798 1.921.856-1.77-3.586-1.877 2.87-2.983-1.56-1.344-2.763 3.044Z"/><path fill="#FFC10A" d="m48.481 25.357.576-2.722-1.384-.293-.576 2.722-2.357-1.526-.725 1.185 2.371 1.457-2.063 1.906 1.038 1.032 2.033-1.984 1.19 2.666 1.213-.58-1.096-2.55 2.803-.363-.25-1.391-2.773.44ZM93.069 4.046V0h-2.074v4.046l-3.842-1.462-.68 1.904 3.842 1.36-2.38 3.332 1.802 1.156 2.312-3.434 2.516 3.434 1.564-1.19-2.346-3.298 3.91-1.36-.782-1.904-3.842 1.462ZM147.476 72.517v-2.532h-1.297v2.532l-2.404-.915-.425 1.191 2.403.851-1.489 2.085 1.128.723 1.446-2.148 1.574 2.148.979-.745-1.468-2.063 2.446-.85-.489-1.192-2.404.915Z"/></svg>