<svg width="153" height="112" viewBox="0 0 153 112" fill="none" xmlns="http://www.w3.org/2000/svg">
<path d="M127.94 17.3163L125.905 16.615C125.281 16.38 124.6 16.329 123.941 16.4681C123.281 16.6072 122.67 16.9306 122.181 17.4004L118.566 21.0062C118.45 21.1272 118.371 21.2775 118.336 21.4399C118.301 21.6023 118.313 21.7701 118.369 21.9242C118.425 22.0893 118.522 22.2369 118.65 22.3538C118.779 22.4707 118.935 22.5532 119.105 22.5938L124.014 23.7453" fill="#014958"/>
<path d="M127.94 17.3163L125.905 16.615C125.281 16.38 124.6 16.329 123.941 16.4681C123.281 16.6072 122.67 16.9306 122.181 17.4004L118.566 21.0062C118.45 21.1272 118.371 21.2775 118.336 21.4399C118.301 21.6023 118.313 21.7701 118.369 21.9242C118.425 22.0893 118.522 22.2369 118.65 22.3538C118.779 22.4707 118.935 22.5532 119.105 22.5938L124.014 23.7453L127.94 17.3163Z" stroke="#014958" stroke-width="0.5" stroke-linecap="round" stroke-linejoin="round"/>
<path d="M135.968 25.2896L136.67 27.3249C136.905 27.9481 136.956 28.6294 136.817 29.289C136.677 29.9485 136.354 30.5591 135.884 31.049L132.279 34.6639C132.157 34.7792 132.007 34.8588 131.845 34.8935C131.682 34.9282 131.515 34.9166 131.361 34.8601C131.195 34.804 131.048 34.7075 130.931 34.5791C130.814 34.4507 130.731 34.2946 130.691 34.1247L129.539 29.2153" fill="#014958"/>
<path d="M135.968 25.2896L136.67 27.3249C136.905 27.9481 136.956 28.6294 136.817 29.289C136.677 29.9485 136.354 30.5591 135.884 31.049L132.279 34.6639C132.157 34.7792 132.007 34.8588 131.845 34.8935C131.682 34.9282 131.515 34.9166 131.361 34.8601C131.195 34.804 131.048 34.7075 130.931 34.5791C130.814 34.4507 130.731 34.2946 130.691 34.1247L129.539 29.2153L135.968 25.2896Z" stroke="#014958" stroke-width="0.5" stroke-linecap="round" stroke-linejoin="round"/>
<path d="M149.401 13.1014C149.401 13.0989 149.401 13.0965 149.401 13.0941C149.401 13.0915 149.401 13.0889 149.4 13.0864L149.058 4.26929C149.053 4.13882 148.949 4.03422 148.818 4.02917L140.002 3.6877C139.997 3.6875 139.992 3.68746 139.987 3.68756C138.643 3.71534 137.326 4.07327 136.154 4.72987C134.981 5.38646 133.988 6.32155 133.263 7.45277L133.263 7.45272L133.259 7.45851L123.685 23.3153C123.625 23.4137 123.64 23.5399 123.722 23.6212L129.451 29.3586C129.533 29.4399 129.659 29.4554 129.757 29.396L145.614 19.829L145.614 19.8291L145.619 19.8258C146.754 19.1028 147.693 18.1109 148.352 16.938C149.012 15.7651 149.372 14.4473 149.401 13.1014Z" fill="white" stroke="#014958" stroke-width="0.5" stroke-linecap="round" stroke-linejoin="round"/>
<path d="M149.055 4.26951C149.05 4.13904 148.946 4.03444 148.815 4.02939L139.999 3.68792C139.884 3.68348 139.781 3.7575 139.749 3.8675C139.717 3.9775 139.764 4.09531 139.862 4.15333L139.989 3.93773L139.862 4.15333L139.863 4.15339L139.863 4.15363L139.865 4.15466L139.872 4.15894L139.901 4.17612C139.927 4.19133 139.965 4.21397 140.014 4.24349C140.112 4.30252 140.254 4.38903 140.431 4.49856C140.784 4.71766 141.274 5.02858 141.821 5.39568C142.917 6.13246 144.225 7.08604 145.112 7.97316C145.999 8.86029 146.953 10.1683 147.69 11.2646C148.057 11.8109 148.368 12.301 148.587 12.6544C148.696 12.8311 148.783 12.9736 148.842 13.0717C148.871 13.1207 148.894 13.1587 148.909 13.1843L148.926 13.2133L148.931 13.2206L148.932 13.2223L148.932 13.2227L148.932 13.2228L149.148 13.0963L148.932 13.2228C148.99 13.3217 149.108 13.3684 149.218 13.3362C149.328 13.304 149.402 13.2011 149.397 13.0866L149.055 4.26951Z" fill="#014958" stroke="#014958" stroke-width="0.5" stroke-linecap="round" stroke-linejoin="round"/>
<path d="M138.84 17.4268C140.598 17.4268 142.024 16.0012 142.024 14.2425C142.024 12.4839 140.598 11.0582 138.84 11.0582C137.081 11.0582 135.656 12.4839 135.656 14.2425C135.656 16.0012 137.081 17.4268 138.84 17.4268Z" fill="#F5F5F5" stroke="#014958" stroke-width="0.5" stroke-linecap="round" stroke-linejoin="round"/>
<path d="M124.744 33.7167C124.394 34.0659 123.8 34.3391 123.066 34.5443C122.339 34.7475 121.509 34.8753 120.72 34.9547C119.932 35.034 119.192 35.0645 118.648 35.0751C118.378 35.0804 118.157 35.0807 118.003 35.0797C118.002 34.926 118.002 34.7047 118.007 34.4344C118.018 33.8909 118.048 33.1508 118.128 32.3628C118.207 31.5736 118.335 30.7432 118.538 30.0165C118.743 29.2825 119.017 28.6881 119.366 28.3389C120.851 26.8538 123.259 26.8538 124.744 28.3389C126.229 29.8239 126.229 32.2317 124.744 33.7167Z" fill="white" stroke="#014958" stroke-width="0.5"/>
<path d="M123.518 31.9975C123.372 32.1432 123.11 32.2686 122.759 32.3666C122.416 32.4625 122.021 32.5236 121.641 32.5618C121.263 32.5999 120.907 32.6146 120.646 32.6197C120.578 32.621 120.517 32.6217 120.463 32.6219C120.463 32.5684 120.464 32.5071 120.465 32.4395C120.471 32.1778 120.485 31.822 120.523 31.4437C120.562 31.0642 120.623 30.6689 120.719 30.3258C120.817 29.9753 120.942 29.7129 121.088 29.5672C121.759 28.8961 122.847 28.8961 123.518 29.5672C124.189 30.2383 124.189 31.3264 123.518 31.9975Z" fill="white" stroke="#014958" stroke-width="0.5"/>
<rect x="32.25" y="59.3975" width="39.68" height="52.3521" rx="0.986306" fill="white" stroke="#014958" stroke-width="0.5"/>
<rect x="38.7402" y="53.835" width="39.68" height="57.9155" rx="0.986306" fill="#E3F6DC" stroke="#014958" stroke-width="0.5"/>
<mask id="path-12-inside-1_7088_3958" fill="white">
<path fill-rule="evenodd" clip-rule="evenodd" d="M98.1454 44H64.7723L44.9121 63.6617V110.826C44.9121 111.472 45.4365 111.997 46.0833 111.997H98.1454C98.7922 111.997 99.3166 111.472 99.3166 110.826V45.1712C99.3166 44.5244 98.7922 44 98.1454 44ZM94.8042 50.4377C95.9153 50.4377 96.816 49.537 96.816 48.426C96.816 47.3149 95.9153 46.4142 94.8042 46.4142C93.6932 46.4142 92.7925 47.3149 92.7925 48.426C92.7925 49.537 93.6932 50.4377 94.8042 50.4377Z"/>
</mask>
<path fill-rule="evenodd" clip-rule="evenodd" d="M98.1454 44H64.7723L44.9121 63.6617V110.826C44.9121 111.472 45.4365 111.997 46.0833 111.997H98.1454C98.7922 111.997 99.3166 111.472 99.3166 110.826V45.1712C99.3166 44.5244 98.7922 44 98.1454 44ZM94.8042 50.4377C95.9153 50.4377 96.816 49.537 96.816 48.426C96.816 47.3149 95.9153 46.4142 94.8042 46.4142C93.6932 46.4142 92.7925 47.3149 92.7925 48.426C92.7925 49.537 93.6932 50.4377 94.8042 50.4377Z" fill="white"/>
<path d="M64.7723 44V43.5H64.5666L64.4205 43.6447L64.7723 44ZM44.9121 63.6617L44.5603 63.3064L44.4121 63.4532V63.6617H44.9121ZM64.7723 44.5H98.1454V43.5H64.7723V44.5ZM45.2639 64.0171L65.124 44.3553L64.4205 43.6447L44.5603 63.3064L45.2639 64.0171ZM45.4121 110.826V63.6617H44.4121V110.826H45.4121ZM46.0833 111.497C45.7126 111.497 45.4121 111.196 45.4121 110.826H44.4121C44.4121 111.749 45.1603 112.497 46.0833 112.497V111.497ZM98.1454 111.497H46.0833V112.497H98.1454V111.497ZM98.8166 110.826C98.8166 111.196 98.5161 111.497 98.1454 111.497V112.497C99.0684 112.497 99.8166 111.749 99.8166 110.826H98.8166ZM98.8166 45.1712V110.826H99.8166V45.1712H98.8166ZM98.1454 44.5C98.5161 44.5 98.8166 44.8005 98.8166 45.1712H99.8166C99.8166 44.2482 99.0684 43.5 98.1454 43.5V44.5ZM96.316 48.426C96.316 49.2609 95.6391 49.9377 94.8042 49.9377V50.9377C96.1914 50.9377 97.316 49.8132 97.316 48.426H96.316ZM94.8042 46.9142C95.6391 46.9142 96.316 47.591 96.316 48.426H97.316C97.316 47.0388 96.1914 45.9142 94.8042 45.9142V46.9142ZM93.2925 48.426C93.2925 47.591 93.9693 46.9142 94.8042 46.9142V45.9142C93.417 45.9142 92.2925 47.0388 92.2925 48.426H93.2925ZM94.8042 49.9377C93.9693 49.9377 93.2925 49.2609 93.2925 48.426H92.2925C92.2925 49.8132 93.417 50.9377 94.8042 50.9377V49.9377Z" fill="#014958" mask="url(#path-12-inside-1_7088_3958)"/>
<path opacity="0.5" fill-rule="evenodd" clip-rule="evenodd" d="M67.2012 67.3402C67.2012 66.5173 68.0054 65.9291 68.7998 66.1711L82.3888 70.311C82.9071 70.4689 83.2609 70.9431 83.2609 71.4801V84.8215C83.2609 85.6444 82.4566 86.2325 81.6622 85.9905L68.0732 81.8506C67.5549 81.6927 67.2012 81.2186 67.2012 80.6816V67.3402Z" fill="#5AC78A"/>
<path opacity="0.8" fill-rule="evenodd" clip-rule="evenodd" d="M64.1113 69.6639C64.1113 68.841 64.9156 68.2528 65.71 68.4949L79.299 72.6347C79.8173 72.7926 80.171 73.2668 80.171 73.8038V87.1452C80.171 87.9681 79.3668 88.5563 78.5724 88.3142L64.9834 84.1744C64.465 84.0165 64.1113 83.5423 64.1113 83.0053V69.6639Z" fill="#4EC483"/>
<path fill-rule="evenodd" clip-rule="evenodd" d="M61.0234 71.9881C61.0234 71.1652 61.8277 70.5771 62.6221 70.8191L76.2111 74.959C76.7294 75.1169 77.0831 75.591 77.0831 76.128V89.4694C77.0831 90.2924 76.2789 90.8805 75.4845 90.6385L61.8955 86.4986C61.3772 86.3407 61.0234 85.8665 61.0234 85.3295V71.9881Z" fill="#3BB471"/>
<path fill-rule="evenodd" clip-rule="evenodd" d="M70.807 76.5707C70.9227 76.6688 71.0179 76.7927 71.0811 76.9278L73.5151 85.5687C73.6971 85.9574 73.5744 86.3393 73.241 86.4217C73.1399 86.4467 73.0266 86.4417 72.9115 86.4071L70.7019 85.7442L70.807 82.715L68.8085 85.2157L64.7053 83.9453C64.3255 83.8314 64.0176 83.4304 64.0176 83.0497C64.0176 82.9438 64.042 82.8465 64.0888 82.7656L65.4728 79.3663C65.6411 79.0756 66.0536 79.0595 66.3941 79.3304C66.5293 79.438 66.6388 79.5806 66.7056 79.7362L67.4602 81.0079L69.8738 76.5656C70.0558 76.286 70.4736 76.2883 70.807 76.5707Z" fill="white"/>
<path d="M45.7129 63.4117L64.5211 44.6036V62.4906C64.5211 62.9993 64.1087 63.4117 63.5999 63.4117H45.7129Z" fill="#3CB572" stroke="#014958" stroke-width="0.5"/>
<path d="M99.2245 49.2339C101.107 50.6481 103.386 52.9343 105.463 55.6108C109.748 61.1325 111.942 66.6028 110.362 67.829C108.782 69.0552 104.027 65.5729 99.7416 60.0512C99.5963 59.864 99.4534 59.6769 99.313 59.4899C96.728 56.0489 94.9802 52.6832 94.4782 50.4123C94.2032 49.168 94.3022 48.2523 94.8425 47.833C95.263 47.5067 96.0088 47.5353 96.8104 47.8257" stroke="#35A165" stroke-width="0.5"/>
<path d="M147.548 41.0706L146.842 37.0867L144.8 37.4485L145.506 41.4324L141.468 40.663L141.131 42.6565L145.151 43.3254L143.389 47.0215L145.365 47.8454L147.042 44.0607L150.119 47.0032L151.451 45.5586L148.566 42.7204L152.178 40.6992L151.076 38.9608L147.548 41.0706Z" fill="#FF8500"/>
<path d="M7.71321 43.0864L5.88018 39.4795L4.03126 40.4191L5.86429 44.026L1.77688 44.4633L2.03328 46.4687L6.07448 45.9405L5.46232 49.9892L7.59249 50.2034L8.09781 46.0946L11.8965 48.0161L12.7517 46.2466L9.16612 44.3694L12.0356 41.3855L10.4759 40.0425L7.71321 43.0864Z" fill="#FF8500"/>
<path d="M48.481 25.3569L49.057 22.6347L47.6726 22.3418L47.0966 25.064L44.7403 23.5377L44.0154 24.7227L46.3862 26.1803L44.3232 28.086L45.3615 29.1183L47.3936 27.1344L48.584 29.8002L49.7974 29.2204L48.701 26.6701L51.5045 26.3074L51.2536 24.9159L48.481 25.3569Z" fill="#FFC10A"/>
<path d="M93.0686 4.04598V0H90.9946V4.04598L87.1526 2.58399L86.4727 4.48797L90.3146 5.84797L87.9346 9.17995L89.7366 10.3359L92.0486 6.90196L94.5646 10.3359L96.1286 9.14595L93.7826 5.84797L97.6926 4.48797L96.9106 2.58399L93.0686 4.04598Z" fill="#FFC10A"/>
<path d="M147.476 72.5167V69.9854H146.179V72.5167L143.775 71.602L143.35 72.7932L145.753 73.6441L144.264 75.7287L145.392 76.4519L146.838 74.3035L148.412 76.4519L149.391 75.7074L147.923 73.6441L150.369 72.7932L149.88 71.602L147.476 72.5167Z" fill="#FFC10A"/>
</svg>
