<svg width="327" height="200" viewBox="0 0 327 200" fill="none" xmlns="http://www.w3.org/2000/svg">
<path d="M280.447 83.6966L279.284 77.1297L275.918 77.7261L277.081 84.293L270.425 83.0248L269.869 86.3106L276.495 87.4132L273.591 93.5056L276.848 94.8637L279.613 88.6253L284.684 93.4754L286.88 91.0943L282.124 86.416L288.079 83.0844L286.262 80.219L280.447 83.6966Z" fill="#FF8500"/>
<path d="M49.9542 87.0207L46.9327 81.0753L43.8851 82.6241L46.9065 88.5695L40.1691 89.2902L40.5918 92.5959L47.253 91.7253L46.244 98.3988L49.7552 98.7518L50.5881 91.9792L56.8497 95.1464L58.2593 92.2298L52.3491 89.1355L57.079 84.2171L54.508 82.0032L49.9542 87.0207Z" fill="#FF8500"/>
<path d="M117.154 57.7902L118.104 53.3032L115.822 52.8203L114.872 57.3074L110.988 54.7916L109.794 56.7448L113.701 59.1475L110.301 62.2887L112.012 63.9902L115.362 60.7201L117.324 65.1142L119.324 64.1586L117.517 59.9549L122.138 59.3569L121.724 57.0633L117.154 57.7902Z" fill="#FFC10A"/>
<path d="M190.647 22.6633V15.9941H187.228V22.6633L180.895 20.2534L179.774 23.3918L186.107 25.6335L182.184 31.1258L185.155 33.0312L188.965 27.3709L193.113 33.0312L195.691 31.0697L191.824 25.6335L198.269 23.3918L196.98 20.2534L190.647 22.6633Z" fill="#FFC10A"/>
<path d="M280.331 135.531V131.358H278.193V135.531L274.231 134.023L273.529 135.987L277.491 137.389L275.037 140.825L276.895 142.017L279.28 138.476L281.874 142.017L283.487 140.79L281.068 137.389L285.1 135.987L284.294 134.023L280.331 135.531Z" fill="#FFC10A"/>
<path d="M229.95 63.2134L226.897 62.1615C225.962 61.8089 224.94 61.7325 223.951 61.9411C222.962 62.1498 222.046 62.6348 221.311 63.3395L215.889 68.7479C215.716 68.9295 215.596 69.155 215.544 69.3985C215.492 69.6421 215.51 69.8938 215.595 70.1249C215.679 70.3725 215.823 70.594 216.016 70.7693C216.209 70.9447 216.443 71.0684 216.698 71.1293L224.061 72.8565" fill="#014958"/>
<path d="M229.95 63.2134L226.897 62.1615C225.962 61.8089 224.94 61.7325 223.951 61.9411C222.962 62.1498 222.046 62.6348 221.311 63.3395L215.889 68.7479C215.716 68.9295 215.596 69.155 215.544 69.3985C215.492 69.6421 215.51 69.8938 215.595 70.1249C215.679 70.3725 215.823 70.594 216.016 70.7693C216.209 70.9447 216.443 71.0684 216.698 71.1293L224.061 72.8565L229.95 63.2134Z" stroke="#014958" stroke-width="0.5" stroke-linecap="round" stroke-linejoin="round"/>
<path d="M241.99 75.1734L243.042 78.2262C243.394 79.1609 243.471 80.1828 243.262 81.1722C243.053 82.1615 242.568 83.0772 241.864 83.812L236.455 89.2342C236.274 89.4073 236.048 89.5266 235.805 89.5787C235.561 89.6308 235.309 89.6134 235.078 89.5285C234.831 89.4445 234.609 89.2996 234.434 89.1071C234.258 88.9145 234.135 88.6803 234.074 88.4255L232.347 81.0617" fill="#014958"/>
<path d="M241.99 75.1734L243.042 78.2262C243.394 79.1609 243.471 80.1828 243.262 81.1722C243.053 82.1615 242.568 83.0772 241.864 83.812L236.455 89.2342C236.274 89.4073 236.048 89.5266 235.805 89.5787C235.561 89.6308 235.309 89.6134 235.078 89.5285C234.831 89.4445 234.609 89.2996 234.434 89.1071C234.258 88.9145 234.135 88.6803 234.074 88.4255L232.347 81.0617L241.99 75.1734Z" stroke="#014958" stroke-width="0.5" stroke-linecap="round" stroke-linejoin="round"/>
<path d="M262.013 56.8885C262.013 56.8835 262.013 56.8785 262.013 56.8735L261.5 43.6483C261.495 43.5178 261.39 43.4132 261.26 43.4082L248.035 42.896C248.03 42.8958 248.025 42.8958 248.02 42.8959C246.025 42.9371 244.07 43.4685 242.329 44.4434C240.588 45.4182 239.114 46.8065 238.037 48.486L238.037 48.4859L238.034 48.4917L223.672 72.2761C223.613 72.3745 223.628 72.5007 223.709 72.582L232.303 81.1878C232.385 81.2691 232.511 81.2846 232.609 81.2252L256.394 66.8752L256.394 66.8753L256.399 66.872C258.084 65.7985 259.477 64.326 260.457 62.5846C261.436 60.8432 261.97 58.8868 262.013 56.8885Z" fill="white" stroke="#014958" stroke-width="0.5" stroke-linecap="round" stroke-linejoin="round"/>
<path d="M261.496 43.6486C261.491 43.5181 261.386 43.4135 261.256 43.4085L248.032 42.8963C247.917 42.8919 247.814 42.9659 247.782 43.0759C247.75 43.1859 247.796 43.3037 247.895 43.3617L248.022 43.1461L247.895 43.3617L247.895 43.3618L247.896 43.3622L247.899 43.3638L247.91 43.3703L247.954 43.3962C247.992 43.4192 248.049 43.4532 248.123 43.4976C248.271 43.5865 248.485 43.7165 248.75 43.8811C249.282 44.2103 250.018 44.6776 250.839 45.2292C252.484 46.3352 254.455 47.771 255.795 49.1107C257.134 50.4503 258.57 52.4208 259.676 54.0664C260.228 54.8873 260.695 55.6237 261.024 56.1549C261.189 56.4204 261.319 56.6346 261.408 56.7821C261.452 56.8559 261.486 56.9131 261.509 56.9517L261.535 56.9954L261.541 57.0065L261.543 57.0092L261.543 57.0098L261.544 57.01L261.759 56.8834L261.544 57.01C261.602 57.1088 261.719 57.1556 261.829 57.1234C261.939 57.0912 262.013 56.9883 262.009 56.8738L261.496 43.6486Z" fill="#014958" stroke="#014958" stroke-width="0.5" stroke-linecap="round" stroke-linejoin="round"/>
<path d="M246.297 63.3796C248.935 63.3796 251.073 61.2412 251.073 58.6033C251.073 55.9654 248.935 53.827 246.297 53.827C243.659 53.827 241.521 55.9654 241.521 58.6033C241.521 61.2412 243.659 63.3796 246.297 63.3796Z" fill="#F5F5F5" stroke="#014958" stroke-width="0.5" stroke-linecap="round" stroke-linejoin="round"/>
<path d="M225.242 87.9021C224.695 88.4491 223.778 88.8659 222.671 89.1754C221.571 89.4828 220.318 89.6754 219.13 89.7949C217.944 89.9144 216.83 89.9602 216.013 89.9761C215.604 89.9841 215.27 89.9846 215.038 89.9831C214.995 89.9828 214.955 89.9824 214.918 89.9821C214.918 89.9458 214.918 89.9058 214.917 89.8621C214.916 89.6304 214.916 89.2963 214.924 88.8877C214.94 88.0702 214.986 86.9566 215.106 85.7703C215.225 84.5828 215.418 83.3294 215.725 82.2299C216.035 81.123 216.451 80.2058 216.998 79.6588C219.275 77.3825 222.965 77.3825 225.242 79.6588C227.518 81.9351 227.518 85.6258 225.242 87.9021Z" fill="white" stroke="#014958" stroke-width="0.5"/>
<path d="M223.402 85.323C223.16 85.5647 222.741 85.7599 222.21 85.9085C221.686 86.0551 221.085 86.1477 220.512 86.2053C219.94 86.2629 219.403 86.285 219.008 86.2927C218.848 86.2958 218.712 86.2966 218.607 86.2964C218.607 86.1911 218.607 86.0549 218.61 85.8951C218.618 85.5003 218.64 84.9631 218.698 84.3913C218.755 83.8184 218.848 83.2176 218.995 82.6934C219.143 82.1619 219.338 81.7427 219.58 81.5009C220.636 80.4455 222.347 80.4455 223.402 81.5009C224.458 82.5563 224.458 84.2675 223.402 85.323Z" fill="white" stroke="#014958" stroke-width="0.5"/>
<rect x="114.248" y="119.742" width="48.5455" height="64.0136" rx="1.25909" fill="white" stroke="#014958" stroke-width="0.5"/>
<rect x="122.171" y="112.951" width="48.5455" height="70.8045" rx="1.25909" fill="#E3F6DC" stroke="#014958" stroke-width="0.5"/>
<mask id="path-17-inside-1_4564_4205" fill="white">
<path fill-rule="evenodd" clip-rule="evenodd" d="M194.739 101.002H154.002L129.76 125.002V182.572C129.76 183.362 130.4 184.002 131.189 184.002H194.739C195.528 184.002 196.168 183.362 196.168 182.572V102.432C196.168 101.642 195.528 101.002 194.739 101.002ZM190.66 108.861C192.016 108.861 193.116 107.761 193.116 106.405C193.116 105.049 192.016 103.949 190.66 103.949C189.304 103.949 188.205 105.049 188.205 106.405C188.205 107.761 189.304 108.861 190.66 108.861Z"/>
</mask>
<path fill-rule="evenodd" clip-rule="evenodd" d="M194.739 101.002H154.002L129.76 125.002V182.572C129.76 183.362 130.4 184.002 131.189 184.002H194.739C195.528 184.002 196.168 183.362 196.168 182.572V102.432C196.168 101.642 195.528 101.002 194.739 101.002ZM190.66 108.861C192.016 108.861 193.116 107.761 193.116 106.405C193.116 105.049 192.016 103.949 190.66 103.949C189.304 103.949 188.205 105.049 188.205 106.405C188.205 107.761 189.304 108.861 190.66 108.861Z" fill="white"/>
<path d="M154.002 101.002V100.502H153.796L153.65 100.647L154.002 101.002ZM129.76 125.002L129.408 124.647L129.26 124.793V125.002H129.76ZM154.002 101.502H194.739V100.502H154.002V101.502ZM130.112 125.357L154.354 101.357L153.65 100.647L129.408 124.647L130.112 125.357ZM130.26 182.572V125.002H129.26V182.572H130.26ZM131.189 183.502C130.676 183.502 130.26 183.086 130.26 182.572H129.26C129.26 183.638 130.124 184.502 131.189 184.502V183.502ZM194.739 183.502H131.189V184.502H194.739V183.502ZM195.668 182.572C195.668 183.086 195.252 183.502 194.739 183.502V184.502C195.804 184.502 196.668 183.638 196.668 182.572H195.668ZM195.668 102.432V182.572H196.668V102.432H195.668ZM194.739 101.502C195.252 101.502 195.668 101.918 195.668 102.432H196.668C196.668 101.366 195.804 100.502 194.739 100.502V101.502ZM192.616 106.405C192.616 107.485 191.74 108.361 190.66 108.361V109.361C192.293 109.361 193.616 108.037 193.616 106.405H192.616ZM190.66 104.449C191.74 104.449 192.616 105.325 192.616 106.405H193.616C193.616 104.773 192.293 103.449 190.66 103.449V104.449ZM188.705 106.405C188.705 105.325 189.58 104.449 190.66 104.449V103.449C189.028 103.449 187.705 104.773 187.705 106.405H188.705ZM190.66 108.361C189.58 108.361 188.705 107.485 188.705 106.405H187.705C187.705 108.037 189.028 109.361 190.66 109.361V108.361Z" fill="#014958" mask="url(#path-17-inside-1_4564_4205)"/>
<path opacity="0.5" fill-rule="evenodd" clip-rule="evenodd" d="M156.969 129.492C156.969 128.488 157.95 127.77 158.92 128.065L175.507 133.118C176.14 133.311 176.572 133.89 176.572 134.545V150.831C176.572 151.835 175.59 152.553 174.621 152.258L158.033 147.204C157.401 147.011 156.969 146.433 156.969 145.777V129.492Z" fill="#5AC78A"/>
<path opacity="0.8" fill-rule="evenodd" clip-rule="evenodd" d="M153.199 132.33C153.199 131.325 154.181 130.608 155.151 130.903L171.738 135.956C172.371 136.149 172.802 136.728 172.802 137.383V153.668C172.802 154.673 171.821 155.391 170.851 155.095L154.264 150.042C153.631 149.849 153.199 149.271 153.199 148.615V132.33Z" fill="#4EC483"/>
<path fill-rule="evenodd" clip-rule="evenodd" d="M149.429 135.165C149.429 134.16 150.41 133.443 151.38 133.738L167.967 138.791C168.6 138.984 169.032 139.563 169.032 140.218V156.503C169.032 157.508 168.05 158.226 167.08 157.93L150.493 152.877C149.86 152.684 149.429 152.105 149.429 151.45V135.165Z" fill="#3BB471"/>
<path fill-rule="evenodd" clip-rule="evenodd" d="M161.371 140.757C161.513 140.877 161.629 141.028 161.706 141.193L164.677 151.741C164.899 152.215 164.749 152.681 164.342 152.782C164.219 152.812 164.081 152.806 163.94 152.764L161.243 151.955L161.371 148.257L158.932 151.31L153.923 149.759C153.46 149.62 153.084 149.131 153.084 148.666C153.084 148.537 153.114 148.418 153.171 148.319L154.86 144.17C155.066 143.815 155.569 143.795 155.985 144.126C156.15 144.257 156.284 144.431 156.365 144.621L157.286 146.174L160.232 140.751C160.455 140.41 160.964 140.413 161.371 140.757Z" fill="white"/>
<path d="M130.606 124.752L153.752 101.606V123.572C153.752 124.224 153.224 124.752 152.572 124.752H130.606Z" fill="#3CB572" stroke="#014958" stroke-width="0.5"/>
<path d="M196.055 107.391C198.354 109.117 201.134 111.908 203.67 115.175C208.901 121.915 211.579 128.592 209.65 130.089C207.722 131.586 201.918 127.335 196.686 120.595C196.509 120.366 196.335 120.138 196.163 119.91C193.008 115.709 190.874 111.601 190.262 108.829C189.926 107.31 190.047 106.193 190.706 105.681C191.22 105.282 192.13 105.317 193.109 105.672" stroke="#35A165" stroke-width="0.5"/>
</svg>
