<svg width="16" height="16" viewBox="0 0 16 16" fill="none" xmlns="http://www.w3.org/2000/svg">
<g clip-path="url(#clip0_862_3306)">
<path fill-rule="evenodd" clip-rule="evenodd" d="M2.69621 2.6967C4.10273 1.29018 6.01039 0.5 7.99951 0.5C9.98864 0.5 11.8963 1.29018 13.3028 2.6967C14.7093 4.10322 15.4995 6.01088 15.4995 8C15.4995 9.98912 14.7093 11.8968 13.3028 13.3033C11.8963 14.7098 9.98864 15.5 7.99951 15.5C6.01039 15.5 4.10273 14.7098 2.69621 13.3033C1.28969 11.8968 0.499512 9.98912 0.499512 8C0.499512 6.01088 1.28969 4.10322 2.69621 2.6967ZM7.99951 1.5C6.2756 1.5 4.6223 2.18482 3.40332 3.40381C2.18433 4.62279 1.49951 6.27609 1.49951 8C1.49951 9.72391 2.18433 11.3772 3.40332 12.5962C4.6223 13.8152 6.2756 14.5 7.99951 14.5C9.72342 14.5 11.3767 13.8152 12.5957 12.5962C13.8147 11.3772 14.4995 9.72391 14.4995 8C14.4995 6.27609 13.8147 4.62279 12.5957 3.40381C11.3767 2.18482 9.72342 1.5 7.99951 1.5Z" fill="#3CB572"/>
<path fill-rule="evenodd" clip-rule="evenodd" d="M7.99951 5C8.27565 5 8.49951 5.22386 8.49951 5.5V8C8.49951 8.27614 8.27565 8.5 7.99951 8.5C7.72337 8.5 7.49951 8.27614 7.49951 8V5.5C7.49951 5.22386 7.72337 5 7.99951 5Z" fill="#3CB572"/>
<path fill-rule="evenodd" clip-rule="evenodd" d="M7.646 7.64641C7.84128 7.45117 8.15786 7.4512 8.3531 7.64648L11.4778 10.7718C11.673 10.9671 11.673 11.2837 11.4777 11.4789C11.2824 11.6742 10.9658 11.6741 10.7706 11.4788L7.64592 8.35352C7.45068 8.15823 7.45071 7.84165 7.646 7.64641Z" fill="#3CB572"/>
</g>
<defs>
<clipPath id="clip0_862_3306">
<rect width="16" height="16" fill="white"/>
</clipPath>
</defs>
</svg>
