<svg width="32" height="32" viewBox="0 0 32 32" fill="none" xmlns="http://www.w3.org/2000/svg">
<path d="M27.9733 32H4.02667C3.24 32 2.46667 31.68 1.90667 31.12C1.34667 30.56 1.02667 29.8 1.02667 29V3C1.02667 2.21333 1.34667 1.44 1.90667 0.88C2.46667 0.32 3.24 0 4.02667 0H24.0267C24.8133 0 25.56 0.306667 26.12 0.853333L30.0533 4.70667C30.3467 4.98667 30.56 5.32 30.72 5.69333C30.88 6.06667 30.96 6.45333 30.96 6.85333V29.0133C30.96 29.8133 30.6533 30.5733 30.08 31.1333C29.5333 31.68 28.76 32 27.9733 32ZM4.02667 2C3.76 2 3.50667 2.10667 3.32 2.29333C3.13333 2.48 3.02667 2.73333 3.02667 3V29C3.02667 29.2667 3.13333 29.52 3.32 29.7067C3.50667 29.8933 3.76 30 4.02667 30H27.96C28.2267 30 28.48 29.8933 28.6667 29.7067C28.8533 29.52 28.96 29.2667 28.96 29V6.84C28.96 6.70667 28.9333 6.57333 28.88 6.45333C28.8267 6.33333 28.7467 6.21333 28.6533 6.12L24.72 2.28C24.5333 2.09333 24.28 2 24.0267 2H4.02667Z" fill="#FF9802"/>
<path d="M18 10C17.4533 10 17 10.4533 17 11V16.9733L11.1467 17C11.1333 17 11.12 17.0133 11.0933 17.0133C11.0667 17.0133 11.0267 17 11 17C10.4533 17 10 17.4533 10 18C10 22.4133 13.5867 26 18 26C22.4133 26 26 22.4133 26 18C26 13.5867 22.4133 10 18 10ZM18 24C15.04 24 12.5867 21.84 12.1067 19L18.0133 18.9733C18.56 18.9733 19.0133 18.52 19.0133 17.9733V12.1067C21.8267 12.5867 24 15.04 24 18C24 21.3067 21.3067 24 18 24Z" fill="#FF9802"/>
<path d="M15 7C15 6.45333 14.5467 6 14 6C9.58667 6 6 9.58667 6 14C6 14.5467 6.45333 15 7 15C7.02667 15 7.05333 14.9867 7.08 14.9867C7.10667 14.9867 7.13333 15 7.16 15L14 14.9733C14.5467 14.9733 15 14.52 15 13.9733V7ZM8.10667 13C8.53333 10.4933 10.5067 8.53333 13 8.10667V12.9867L8.10667 13Z" fill="#FF9802"/>
</svg>
