<svg width="24" height="24" viewBox="0 0 24 24" fill="none" xmlns="http://www.w3.org/2000/svg">
<path fill-rule="evenodd" clip-rule="evenodd" d="M2.21739 4.5C0.977305 4.5 0 5.52298 0 6.75V18.75C0 19.977 0.977305 21 2.21739 21H21.7826C23.0227 21 24 19.977 24 18.75V6.75C24 5.52298 23.0227 4.5 21.7826 4.5H2.21739ZM1.5 6.95273V18.75C1.5 19.1798 1.83664 19.5 2.21739 19.5H21.7826C22.1634 19.5 22.5 19.1798 22.5 18.75V6.95428L12.4752 15.1519C12.199 15.3778 11.8019 15.3778 11.5256 15.1519L1.5 6.95273ZM21.2974 6H2.70445L12.0005 13.6025L21.2974 6Z" fill="#3CB572"/>
</svg>
