<svg width="24" height="23" viewBox="0 0 24 23" fill="none" xmlns="http://www.w3.org/2000/svg">
<path fill-rule="evenodd" clip-rule="evenodd" d="M1.96592 0.017393C1.70332 0.0519259 1.49994 0.113601 1.25821 0.231981C0.675716 0.51724 0.271873 0.999298 0.0766542 1.6424L0.00947443 1.86369L0.0019562 11.1149C-0.00352318 17.8378 0.00221102 20.4211 0.0229307 20.5671C0.155557 21.5019 0.798633 22.2144 1.72202 22.4498L1.94632 22.5069H8.26672H14.5871L14.8165 22.4488C15.6238 22.2441 16.2377 21.6435 16.4634 20.8376L16.524 20.621V18.0852V15.5494L16.4574 15.4092C16.3161 15.1117 16.0561 14.9448 15.734 14.9448C15.5884 14.9448 15.517 14.9588 15.4111 15.0081C15.2159 15.0991 15.0361 15.2929 14.9682 15.4857C14.9558 15.5207 14.9396 16.6561 14.9321 18.0087L14.9184 20.4681L14.8466 20.5902C14.7562 20.7441 14.6084 20.8522 14.4387 20.8886C14.3436 20.909 12.6014 20.9147 8.18958 20.9091L2.07237 20.9014L1.94586 20.8362C1.80347 20.763 1.66833 20.603 1.62892 20.4611C1.59207 20.3285 1.59207 2.18172 1.62892 2.0491C1.66833 1.90719 1.80347 1.74722 1.94586 1.67395L2.07237 1.60883L8.18958 1.60106C12.6014 1.59548 14.3436 1.60119 14.4387 1.6216C14.6084 1.65797 14.7562 1.76608 14.8466 1.91996L14.9184 2.04209L14.9312 4.50144L14.9439 6.96079L15.0105 7.10096C15.1519 7.3985 15.4118 7.56535 15.734 7.56535C16.0561 7.56535 16.3161 7.3985 16.4574 7.10096L16.524 6.96079V4.42498V1.88917L16.4634 1.67255C16.3326 1.20545 16.0345 0.750407 15.683 0.481C15.4565 0.307443 15.1074 0.136079 14.8292 0.0619417L14.6126 0.00419151L8.36866 0.000343271C4.93449 -0.00174654 2.05326 0.00592456 1.96592 0.017393ZM19.3076 6.74515C19.0842 6.78272 18.8677 6.95049 18.7498 7.17741C18.6996 7.27426 18.6903 7.32977 18.6906 7.53421C18.6909 7.73853 18.7003 7.79424 18.7509 7.89101C18.7908 7.96729 19.2215 8.41759 20.0367 9.23537L21.2626 10.465H14.3169C6.49943 10.465 7.24302 10.4443 6.99749 10.6687C6.81859 10.8323 6.74157 10.9899 6.72969 11.2169C6.71201 11.554 6.88857 11.842 7.20347 11.9896L7.34924 12.0579L14.3061 12.0646L21.2629 12.0713L20.0251 13.3134C19.1992 14.1422 18.7715 14.5894 18.7397 14.6574C18.6665 14.8142 18.6603 15.1075 18.7264 15.2836C18.7891 15.4506 18.9532 15.6267 19.1303 15.7169C19.228 15.7667 19.2899 15.7785 19.4549 15.7786C19.842 15.7789 19.7101 15.8913 21.9156 13.6815C23.4501 12.144 23.8794 11.6999 23.9263 11.6017C24.014 11.4179 24.0242 11.1815 23.9527 10.9875C23.8986 10.8404 23.8215 10.7595 21.9305 8.86415C20.8492 7.7804 19.9187 6.86667 19.8626 6.83364C19.7792 6.78448 19.5003 6.70993 19.4438 6.72168C19.4359 6.72331 19.3746 6.73389 19.3076 6.74515Z" fill="#3CB572"/>
</svg>
