<svg width="24" height="24" viewBox="0 0 24 24" fill="none" xmlns="http://www.w3.org/2000/svg">
<path fill-rule="evenodd" clip-rule="evenodd" d="M21.182 1.87456C18.2872 0.611033 15.1584 -0.0274165 12 0.000902474C8.84166 -0.0274165 5.71282 0.611033 2.81801 1.87456L2.80579 1.87989C2.41387 2.05931 2.08218 2.34825 1.85053 2.71174C1.61938 3.07444 1.4977 3.49607 1.50003 3.92612V11.5379C1.50005 14.0962 2.27529 16.5944 3.72355 18.7032C5.1718 20.812 7.22509 22.4324 9.61276 23.3509L10.6538 23.7509C11.087 23.9175 11.5436 24.0009 12 24.0009C12.4564 24.0009 12.9131 23.9175 13.3463 23.7509L14.3873 23.3509C16.775 22.4324 18.8283 20.812 20.2765 18.7032C21.7248 16.5944 22.5 14.0962 22.5 11.5379V3.92612C22.5024 3.49607 22.3807 3.07444 22.1495 2.71174C21.9179 2.34825 21.5862 2.05931 21.1943 1.87989L21.182 1.87456ZM12.8078 22.3509C12.5478 22.4509 12.2739 22.5009 12 22.5009C11.7261 22.5009 11.4523 22.4509 11.1923 22.3509L10.1513 21.9509C8.04672 21.1413 6.2366 19.7128 4.96004 17.854C3.68341 15.9951 3.00005 13.793 3.00003 11.5379V3.91892C2.99908 3.77691 3.03916 3.63765 3.11548 3.5179C3.19081 3.3997 3.29826 3.30547 3.42518 3.2462C6.12658 2.06829 9.04612 1.47369 11.9931 1.50103L12.007 1.5009C14.9539 1.47356 17.8735 2.06829 20.5749 3.2462C20.7018 3.30547 20.8092 3.3997 20.8846 3.5179C20.9609 3.63765 21.001 3.77691 21 3.91892V11.5379C21 13.793 20.3166 15.9951 19.04 17.854C17.7635 19.7128 15.9533 21.1413 13.8488 21.9509L12.8078 22.3509Z" fill="#3CB572"/>
</svg>
