<svg width="24" height="24" viewBox="0 0 24 24" fill="none" xmlns="http://www.w3.org/2000/svg">
<path fill-rule="evenodd" clip-rule="evenodd" d="M11.2993 0.00839606C9.9803 0.136739 8.98316 0.422549 7.87202 0.990672C7.31589 1.27503 6.84936 1.57855 6.3304 1.99362C6.00264 2.2558 5.26404 2.99566 5.00201 3.32427C4.32242 4.17657 3.82332 5.07535 3.47624 6.0719C3.27975 6.63604 3.07944 7.55412 3.03964 8.07293L3.02323 8.28655L2.94409 8.30347C2.63472 8.36966 2.12514 8.57726 1.83295 8.75619C0.943905 9.30063 0.290232 10.2204 0.0877832 11.2117C0.0125623 11.58 0 11.907 0 13.4962C0 15.4269 0.0175312 15.6561 0.207698 16.2147C0.637314 17.4764 1.69576 18.4136 3.02076 18.7054C3.23631 18.7529 3.37755 18.7626 4.00001 18.773C4.82193 18.7866 4.97179 18.7698 5.44964 18.61C6.25348 18.3412 6.70304 17.9509 6.80112 17.4367C6.8438 17.2129 6.82601 9.56206 6.78252 9.43614C6.71803 9.2494 6.5539 9.01625 6.38776 8.87537C6.05747 8.59526 5.43394 8.33086 4.90126 8.24502C4.69682 8.21209 4.63589 8.19318 4.63589 8.16267C4.63592 8.06874 4.74467 7.4671 4.80422 7.23145C5.26905 5.39248 6.34748 3.86649 7.93035 2.80794C8.79108 2.23234 9.8677 1.81951 10.9062 1.66684C12.7668 1.39334 14.6633 1.83376 16.2044 2.89725C17.8574 4.03794 18.9901 5.82675 19.3124 7.80577C19.3408 7.98029 19.3641 8.1409 19.3641 8.16267C19.3641 8.19318 19.3032 8.21209 19.0987 8.24502C18.5661 8.33086 17.9425 8.59526 17.6122 8.87537C17.4461 9.01625 17.282 9.2494 17.2175 9.43614C17.1746 9.56017 17.1561 17.2126 17.1981 17.4329C17.2774 17.8487 17.5419 18.1464 18.0667 18.4108C18.4422 18.6 19.0592 18.78 19.332 18.78H19.4216L19.4037 18.9396C19.3716 19.2246 19.313 19.4261 19.1865 19.6862C18.9663 20.1389 18.6322 20.4738 18.1792 20.6957C17.7597 20.9012 17.7304 20.9054 16.6218 20.9174L15.6504 20.9279L15.5719 20.76C15.2762 20.1269 14.7126 19.6636 14.0258 19.4892C13.7977 19.4313 13.7865 19.4309 12 19.4309C10.2222 19.4309 10.2012 19.4315 9.9793 19.4882C9.09864 19.7131 8.44525 20.3863 8.2653 21.2543C8.20736 21.5337 8.21266 21.9619 8.27743 22.2351C8.47313 23.0605 9.04753 23.6688 9.87771 23.9296L10.1016 24H12H13.8984L14.1271 23.9272C14.7921 23.7156 15.3198 23.2599 15.5786 22.6737L15.641 22.5323L16.426 22.5319C17.2595 22.5314 17.6876 22.507 18.0033 22.4416C18.4744 22.3442 19.0375 22.0936 19.4455 21.8C19.7094 21.61 20.0997 21.219 20.2894 20.9546C20.7047 20.3756 20.9869 19.5833 20.9975 18.9666C21.0013 18.7425 21.0208 18.6969 21.1231 18.6723C22.336 18.3822 23.3824 17.4187 23.7923 16.2147C23.9825 15.6561 24 15.4269 24 13.4962C24 11.907 23.9874 11.58 23.9122 11.2117C23.7147 10.2443 23.0713 9.32325 22.218 8.78621C21.9286 8.60409 21.4272 8.39205 21.1068 8.31639L20.9767 8.28566L20.9605 8.07673C20.9362 7.76353 20.8516 7.27456 20.7499 6.85957C20.1948 4.59453 18.7965 2.64973 16.8032 1.37077C16.4777 1.16187 15.8222 0.824909 15.4206 0.660013C14.698 0.363304 13.9827 0.172041 13.1594 0.0553887C12.8928 0.0176108 11.5525 -0.0162617 11.2993 0.00839606ZM3.42553 9.83835C3.02642 9.89137 2.57514 10.1289 2.24483 10.4597C2.03963 10.6653 1.91446 10.8446 1.79465 11.1047C1.60894 11.5078 1.61636 11.4083 1.61636 13.4962C1.61636 15.6259 1.60458 15.4921 1.8332 15.9594C2.09056 16.4855 2.53972 16.8785 3.10701 17.074L3.34909 17.1575L3.98676 17.1669C4.66291 17.1769 4.74839 17.1671 5.08477 17.041L5.22197 16.9895V13.497V10.0044L5.03723 9.93897C4.93561 9.90301 4.80662 9.86168 4.75056 9.84718C4.65521 9.82253 3.59779 9.81546 3.42553 9.83835ZM19.2367 9.84782C19.1876 9.86166 19.0644 9.90255 18.9628 9.93869L18.778 10.0044V13.497V16.9895L18.9152 17.041C19.2516 17.1671 19.3371 17.1769 20.0132 17.1669L20.6509 17.1575L20.893 17.074C21.4603 16.8785 21.9094 16.4855 22.1668 15.9594C22.3954 15.4921 22.3836 15.6259 22.3836 13.4962C22.3836 11.3656 22.3953 11.4977 22.1664 11.033C21.9396 10.5728 21.5304 10.1795 21.0828 9.99153C20.7305 9.84364 20.696 9.83856 19.9884 9.83034C19.6046 9.8259 19.2883 9.83325 19.2367 9.84782ZM10.2904 21.0659C10.1395 21.1125 9.95594 21.2752 9.88217 21.4279C9.75402 21.693 9.83707 22.0719 10.0625 22.2508C10.2836 22.4262 10.1818 22.4174 12 22.4174C13.8182 22.4174 13.7164 22.4262 13.9375 22.2508C14.1629 22.0719 14.246 21.693 14.1178 21.4279C14.0412 21.2693 13.8604 21.1125 13.6989 21.0644C13.5141 21.0094 10.4691 21.0108 10.2904 21.0659Z" fill="#3CB572"/>
</svg>
