<svg width="296" height="210" viewBox="0 0 296 210" fill="none" xmlns="http://www.w3.org/2000/svg">
<path d="M270.051 200.236C277.994 201.724 286.507 197.975 290.179 187.152" stroke="#67DD95" stroke-width="2" stroke-linecap="round"/>
<path d="M278.148 206.604C283.638 207.662 289.48 205.219 291.928 198.003" stroke="#67DD95" stroke-width="2" stroke-linecap="round"/>
<path d="M43.2769 8.95234C34.9291 7.89601 26.3121 12.3186 23.1636 23.7943" stroke="white" stroke-width="2" stroke-linecap="round"/>
<path d="M34.4672 2.8333C28.696 2.07257 22.7747 4.97252 20.6758 12.623" stroke="white" stroke-width="2" stroke-linecap="round"/>
<rect x="145.612" y="50.3599" width="87.8889" height="159" rx="3.05556" transform="rotate(-15 145.612 50.3599)" fill="#3C4F52" stroke="#DCE4E5"/>
<rect x="162.542" y="67.3921" width="64" height="71.1111" rx="1.77778" transform="rotate(-15 162.542 67.3921)" fill="#67DD95"/>
<ellipse cx="202.654" cy="93.4541" rx="21.3333" ry="21.3333" transform="rotate(-15 202.654 93.4541)" fill="#1A1A1A"/>
<path d="M192.466 89.0243C191.263 89.3468 190.587 90.5911 190.903 91.7724L193.664 102.076C193.98 103.257 195.188 103.997 196.392 103.674L213.19 99.1729C214.394 98.8504 215.07 97.6061 214.753 96.4248L211.992 86.1216C211.676 84.9402 210.468 84.2006 209.265 84.5231L192.466 89.0243ZM195.435 101.601L192.857 91.9814L202.871 96.4979C203.268 96.6772 203.737 96.5516 203.992 96.1975L210.405 87.2809L212.982 96.8993C213.046 97.1384 212.906 97.3511 212.716 97.4021L195.917 101.903C195.727 101.954 195.499 101.84 195.435 101.601ZM194.036 90.5017L208.646 86.5869L202.941 94.5185L194.036 90.5017Z" fill="#67DD95" stroke="#67DD95" stroke-width="0.5" stroke-linecap="round" stroke-linejoin="round"/>
<path d="M210.688 150.772L206.248 143.819L208.284 151.416L207.058 151.744L204.723 143.03L206.778 142.479L210.947 149.143L211.226 141.287L213.281 140.736L215.616 149.451L214.39 149.78L212.355 142.183L211.986 150.424L210.688 150.772ZM216.671 147.339C216.262 145.813 217.862 144.907 220.438 143.895L220.396 143.739C220.08 142.561 219.313 142.341 218.507 142.557C217.606 142.799 217.209 143.433 217.373 144.239L216.243 144.542C215.978 143.119 216.995 142.009 218.257 141.671C220.036 141.194 221.07 141.832 221.544 143.65L221.932 145.144C222.21 146.229 222.469 146.958 222.754 147.539L221.648 147.835C221.547 147.604 221.441 147.35 221.325 146.968C221.106 147.735 220.536 148.301 219.394 148.606C218.18 148.932 216.99 148.529 216.671 147.339ZM220.754 144.738C218.825 145.474 217.64 146.1 217.879 146.99C218.043 147.603 218.621 147.886 219.402 147.677C220.424 147.403 221.272 146.673 220.863 145.147L220.754 144.738ZM222.986 138.136L223.34 139.458L222.247 139.751L221.892 138.429L222.986 138.136ZM223.588 140.384L225.321 146.851L224.227 147.144L222.495 140.677L223.588 140.384ZM228.15 146.093L227.056 146.386L224.721 137.671L225.815 137.378L228.15 146.093Z" fill="white"/>
<rect x="41.7647" y="27.6129" width="87.8889" height="159" rx="3.05556" transform="rotate(15 41.7647 27.6129)" fill="#3C4F52" stroke="#DCE4E5"/>
<rect x="46.1924" y="50.3677" width="65.7778" height="71.1111" rx="1.77778" transform="rotate(15 46.1924 50.3677)" fill="#67DD95"/>
<path d="M56.0817 69.9507L56.6338 67.8901L54.5732 67.338L54.0211 69.3986L56.0817 69.9507Z" fill="#1A1A1A"/>
<path d="M55.528 72.0112L56.0801 69.9507L54.0195 69.3986L53.4674 71.4591L55.528 72.0112Z" fill="#1A1A1A"/>
<path d="M54.9782 74.0718L55.5303 72.0112L53.4697 71.4591L52.9176 73.5197L54.9782 74.0718Z" fill="#1A1A1A"/>
<path d="M54.4254 76.1323L54.9775 74.0718L52.917 73.5197L52.3649 75.5802L54.4254 76.1323Z" fill="#1A1A1A"/>
<path d="M53.8717 78.1929L54.4238 76.1323L52.3633 75.5802L51.8112 77.6407L53.8717 78.1929Z" fill="#1A1A1A"/>
<path d="M53.3199 80.2534L53.8721 78.1929L51.8115 77.6407L51.2594 79.7013L53.3199 80.2534Z" fill="#1A1A1A"/>
<path d="M58.1412 70.5024L58.6934 68.4419L56.6328 67.8898L56.0807 69.9503L58.1412 70.5024Z" fill="#1A1A1A"/>
<path d="M55.3795 80.8062L55.9316 78.7456L53.8711 78.1935L53.319 80.254L55.3795 80.8062Z" fill="#1A1A1A"/>
<path d="M60.2037 71.0552L60.7559 68.9946L58.6953 68.4425L58.1432 70.5031L60.2037 71.0552Z" fill="#1A1A1A"/>
<path d="M59.0983 75.1763L59.6504 73.1157L57.5898 72.5636L57.0377 74.6241L59.0983 75.1763Z" fill="#1A1A1A"/>
<path d="M58.5465 77.2368L59.0986 75.1763L57.0381 74.6241L56.486 76.6847L58.5465 77.2368Z" fill="#1A1A1A"/>
<path d="M57.441 81.3579L57.9932 79.2974L55.9326 78.7452L55.3805 80.8058L57.441 81.3579Z" fill="#1A1A1A"/>
<path d="M62.2633 71.6069L62.8154 69.5464L60.7549 68.9943L60.2028 71.0548L62.2633 71.6069Z" fill="#1A1A1A"/>
<path d="M61.1598 75.728L61.7119 73.6675L59.6514 73.1154L59.0992 75.1759L61.1598 75.728Z" fill="#1A1A1A"/>
<path d="M60.6061 77.7886L61.1582 75.728L59.0977 75.1759L58.5455 77.2365L60.6061 77.7886Z" fill="#1A1A1A"/>
<path d="M59.5026 81.9097L60.0547 79.8491L57.9941 79.297L57.442 81.3575L59.5026 81.9097Z" fill="#1A1A1A"/>
<path d="M64.3248 72.1606L64.877 70.1001L62.8164 69.548L62.2643 71.6085L64.3248 72.1606Z" fill="#1A1A1A"/>
<path d="M61.5612 82.4624L62.1133 80.4019L60.0527 79.8497L59.5006 81.9103L61.5612 82.4624Z" fill="#1A1A1A"/>
<path d="M66.3834 72.7124L66.9355 70.6519L64.875 70.0997L64.3229 72.1603L66.3834 72.7124Z" fill="#1A1A1A"/>
<path d="M65.8317 74.7729L66.3838 72.7124L64.3232 72.1603L63.7711 74.2208L65.8317 74.7729Z" fill="#1A1A1A"/>
<path d="M65.2789 76.8335L65.8311 74.7729L63.7705 74.2208L63.2184 76.2814L65.2789 76.8335Z" fill="#1A1A1A"/>
<path d="M64.7282 78.894L65.2803 76.8335L63.2197 76.2814L62.6676 78.3419L64.7282 78.894Z" fill="#1A1A1A"/>
<path d="M64.1754 80.9546L64.7275 78.894L62.667 78.3419L62.1149 80.4025L64.1754 80.9546Z" fill="#1A1A1A"/>
<path d="M63.6227 83.0151L64.1748 80.9546L62.1143 80.4025L61.5621 82.463L63.6227 83.0151Z" fill="#1A1A1A"/>
<path d="M77.152 106.443L77.7041 104.383L75.6436 103.831L75.0914 105.891L77.152 106.443Z" fill="#1A1A1A"/>
<path d="M76.6002 108.505L77.1523 106.444L75.0918 105.892L74.5397 107.953L76.6002 108.505Z" fill="#1A1A1A"/>
<path d="M76.0475 110.564L76.5996 108.504L74.5391 107.952L73.9869 110.012L76.0475 110.564Z" fill="#1A1A1A"/>
<path d="M75.4957 112.626L76.0479 110.565L73.9873 110.013L73.4352 112.074L75.4957 112.626Z" fill="#1A1A1A"/>
<path d="M74.944 114.687L75.4961 112.626L73.4355 112.074L72.8834 114.134L74.944 114.687Z" fill="#1A1A1A"/>
<path d="M74.3922 116.747L74.9443 114.687L72.8838 114.134L72.3317 116.195L74.3922 116.747Z" fill="#1A1A1A"/>
<path d="M79.2135 106.997L79.7656 104.937L77.7051 104.384L77.153 106.445L79.2135 106.997Z" fill="#1A1A1A"/>
<path d="M76.4518 117.299L77.0039 115.238L74.9434 114.686L74.3912 116.747L76.4518 117.299Z" fill="#1A1A1A"/>
<path d="M81.2731 107.549L81.8252 105.488L79.7646 104.936L79.2125 106.997L81.2731 107.549Z" fill="#1A1A1A"/>
<path d="M80.1696 111.671L80.7217 109.61L78.6611 109.058L78.109 111.119L80.1696 111.671Z" fill="#1A1A1A"/>
<path d="M79.6168 113.729L80.1689 111.669L78.1084 111.117L77.5563 113.177L79.6168 113.729Z" fill="#1A1A1A"/>
<path d="M78.5123 117.851L79.0645 115.79L77.0039 115.238L76.4518 117.298L78.5123 117.851Z" fill="#1A1A1A"/>
<path d="M83.3336 108.101L83.8857 106.04L81.8252 105.488L81.2731 107.548L83.3336 108.101Z" fill="#1A1A1A"/>
<path d="M82.2291 112.221L82.7812 110.16L80.7207 109.608L80.1686 111.669L82.2291 112.221Z" fill="#1A1A1A"/>
<path d="M81.6774 114.282L82.2295 112.222L80.1689 111.67L79.6168 113.73L81.6774 114.282Z" fill="#1A1A1A"/>
<path d="M80.5729 118.403L81.125 116.343L79.0645 115.791L78.5123 117.851L80.5729 118.403Z" fill="#1A1A1A"/>
<path d="M85.3942 108.652L85.9463 106.592L83.8857 106.04L83.3336 108.1L85.3942 108.652Z" fill="#1A1A1A"/>
<path d="M82.6334 118.954L83.1855 116.894L81.125 116.341L80.5729 118.402L82.6334 118.954Z" fill="#1A1A1A"/>
<path d="M87.4547 109.204L88.0068 107.144L85.9463 106.591L85.3942 108.652L87.4547 109.204Z" fill="#1A1A1A"/>
<path d="M86.903 111.266L87.4551 109.205L85.3945 108.653L84.8424 110.714L86.903 111.266Z" fill="#1A1A1A"/>
<path d="M86.3502 113.326L86.9023 111.266L84.8418 110.714L84.2897 112.774L86.3502 113.326Z" fill="#1A1A1A"/>
<path d="M85.7975 115.386L86.3496 113.325L84.2891 112.773L83.7369 114.834L85.7975 115.386Z" fill="#1A1A1A"/>
<path d="M85.2457 117.446L85.7979 115.386L83.7373 114.834L83.1852 116.894L85.2457 117.446Z" fill="#1A1A1A"/>
<path d="M84.6949 119.507L85.2471 117.446L83.1865 116.894L82.6344 118.955L84.6949 119.507Z" fill="#1A1A1A"/>
<path d="M52.1764 84.3628L52.7285 82.3022L50.668 81.7501L50.1158 83.8107L52.1764 84.3628Z" fill="#1A1A1A"/>
<path d="M51.6237 86.4243L52.1758 84.3638L50.1152 83.8116L49.5631 85.8722L51.6237 86.4243Z" fill="#1A1A1A"/>
<path d="M51.0709 88.4849L51.623 86.4243L49.5625 85.8722L49.0104 87.9327L51.0709 88.4849Z" fill="#1A1A1A"/>
<path d="M50.5192 90.5454L51.0713 88.4849L49.0107 87.9327L48.4586 89.9933L50.5192 90.5454Z" fill="#1A1A1A"/>
<path d="M49.4157 94.6665L49.9678 92.606L47.9072 92.0538L47.3551 94.1144L49.4157 94.6665Z" fill="#1A1A1A"/>
<path d="M48.8639 96.727L49.416 94.6665L47.3555 94.1144L46.8033 96.1749L48.8639 96.727Z" fill="#1A1A1A"/>
<path d="M48.3112 98.7876L48.8633 96.7271L46.8027 96.1749L46.2506 98.2355L48.3112 98.7876Z" fill="#1A1A1A"/>
<path d="M47.2076 102.91L47.7598 100.849L45.6992 100.297L45.1471 102.358L47.2076 102.91Z" fill="#1A1A1A"/>
<path d="M46.6549 104.969L47.207 102.909L45.1465 102.357L44.5944 104.417L46.6549 104.969Z" fill="#1A1A1A"/>
<path d="M46.1032 107.03L46.6553 104.969L44.5947 104.417L44.0426 106.478L46.1032 107.03Z" fill="#1A1A1A"/>
<path d="M45.5504 109.09L46.1025 107.03L44.042 106.478L43.4899 108.538L45.5504 109.09Z" fill="#1A1A1A"/>
<path d="M54.2369 84.9155L54.7891 82.855L52.7285 82.3029L52.1764 84.3634L54.2369 84.9155Z" fill="#1A1A1A"/>
<path d="M53.6862 86.977L54.2383 84.9165L52.1777 84.3644L51.6256 86.4249L53.6862 86.977Z" fill="#1A1A1A"/>
<path d="M50.9254 97.2788L51.4775 95.2183L49.417 94.6661L48.8649 96.7267L50.9254 97.2788Z" fill="#1A1A1A"/>
<path d="M49.8199 101.401L50.3721 99.3403L48.3115 98.7882L47.7594 100.849L49.8199 101.401Z" fill="#1A1A1A"/>
<path d="M48.7155 105.522L49.2676 103.461L47.207 102.909L46.6549 104.97L48.7155 105.522Z" fill="#1A1A1A"/>
<path d="M47.6119 109.643L48.1641 107.583L46.1035 107.03L45.5514 109.091L47.6119 109.643Z" fill="#1A1A1A"/>
<path d="M56.2985 85.4673L56.8506 83.4067L54.79 82.8546L54.2379 84.9152L56.2985 85.4673Z" fill="#1A1A1A"/>
<path d="M54.6403 91.6499L55.1924 89.5894L53.1318 89.0372L52.5797 91.0978L54.6403 91.6499Z" fill="#1A1A1A"/>
<path d="M52.4332 99.8921L52.9854 97.8315L50.9248 97.2794L50.3727 99.34L52.4332 99.8921Z" fill="#1A1A1A"/>
<path d="M51.8805 101.954L52.4326 99.8931L50.3721 99.3409L49.8199 101.401L51.8805 101.954Z" fill="#1A1A1A"/>
<path d="M51.3287 104.014L51.8809 101.954L49.8203 101.401L49.2682 103.462L51.3287 104.014Z" fill="#1A1A1A"/>
<path d="M50.2242 108.134L50.7764 106.074L48.7158 105.522L48.1637 107.582L50.2242 108.134Z" fill="#1A1A1A"/>
<path d="M49.6725 110.195L50.2246 108.134L48.1641 107.582L47.6119 109.643L49.6725 110.195Z" fill="#1A1A1A"/>
<path d="M56.1491 94.2622L56.7012 92.2017L54.6406 91.6495L54.0885 93.7101L56.1491 94.2622Z" fill="#1A1A1A"/>
<path d="M55.0455 98.3833L55.5977 96.3228L53.5371 95.7706L52.985 97.8312L55.0455 98.3833Z" fill="#1A1A1A"/>
<path d="M54.4928 100.444L55.0449 98.3833L52.9844 97.8312L52.4323 99.8917L54.4928 100.444Z" fill="#1A1A1A"/>
<path d="M53.941 102.504L54.4932 100.444L52.4326 99.8917L51.8805 101.952L53.941 102.504Z" fill="#1A1A1A"/>
<path d="M53.3893 104.566L53.9414 102.505L51.8809 101.953L51.3287 104.014L53.3893 104.566Z" fill="#1A1A1A"/>
<path d="M52.8375 106.626L53.3896 104.566L51.3291 104.014L50.777 106.074L52.8375 106.626Z" fill="#1A1A1A"/>
<path d="M52.2848 108.687L52.8369 106.626L50.7764 106.074L50.2242 108.135L52.2848 108.687Z" fill="#1A1A1A"/>
<path d="M51.7321 110.748L52.2842 108.687L50.2236 108.135L49.6715 110.195L51.7321 110.748Z" fill="#1A1A1A"/>
<path d="M60.4196 86.5728L60.9717 84.5122L58.9111 83.9601L58.359 86.0206L60.4196 86.5728Z" fill="#1A1A1A"/>
<path d="M59.8668 88.6333L60.4189 86.5728L58.3584 86.0206L57.8063 88.0812L59.8668 88.6333Z" fill="#1A1A1A"/>
<path d="M59.3151 90.6938L59.8672 88.6333L57.8066 88.0812L57.2545 90.1417L59.3151 90.6938Z" fill="#1A1A1A"/>
<path d="M58.7623 92.7544L59.3145 90.6938L57.2539 90.1417L56.7018 92.2023L58.7623 92.7544Z" fill="#1A1A1A"/>
<path d="M56.0035 103.056L56.5557 100.996L54.4951 100.443L53.943 102.504L56.0035 103.056Z" fill="#1A1A1A"/>
<path d="M55.4508 105.118L56.0029 103.057L53.9424 102.505L53.3903 104.566L55.4508 105.118Z" fill="#1A1A1A"/>
<path d="M54.3444 109.239L54.8965 107.178L52.8359 106.626L52.2838 108.687L54.3444 109.239Z" fill="#1A1A1A"/>
<path d="M60.8229 93.3062L61.375 91.2456L59.3145 90.6935L58.7623 92.754L60.8229 93.3062Z" fill="#1A1A1A"/>
<path d="M60.2701 95.3667L60.8223 93.3062L58.7617 92.754L58.2096 94.8146L60.2701 95.3667Z" fill="#1A1A1A"/>
<path d="M58.6149 101.548L59.167 99.4878L57.1064 98.9357L56.5543 100.996L58.6149 101.548Z" fill="#1A1A1A"/>
<path d="M58.0621 103.609L58.6143 101.548L56.5537 100.996L56.0016 103.057L58.0621 103.609Z" fill="#1A1A1A"/>
<path d="M57.5104 105.669L58.0625 103.609L56.002 103.057L55.4498 105.117L57.5104 105.669Z" fill="#1A1A1A"/>
<path d="M55.8541 111.852L56.4062 109.792L54.3457 109.239L53.7936 111.3L55.8541 111.852Z" fill="#1A1A1A"/>
<path d="M61.2282 100.041L61.7803 97.98L59.7197 97.4279L59.1676 99.4884L61.2282 100.041Z" fill="#1A1A1A"/>
<path d="M59.5709 106.221L60.123 104.161L58.0625 103.609L57.5104 105.669L59.5709 106.221Z" fill="#1A1A1A"/>
<path d="M58.4664 110.342L59.0186 108.282L56.958 107.73L56.4059 109.79L58.4664 110.342Z" fill="#1A1A1A"/>
<path d="M70.4664 73.8032L71.0186 71.7427L68.958 71.1906L68.4059 73.2511L70.4664 73.8032Z" fill="#1A1A1A"/>
<path d="M67.7047 84.1069L68.2568 82.0464L66.1963 81.4943L65.6442 83.5548L67.7047 84.1069Z" fill="#1A1A1A"/>
<path d="M62.4967 87.1372L63.0488 85.0767L60.9883 84.5245L60.4362 86.5851L62.4967 87.1372Z" fill="#1A1A1A"/>
<path d="M63.2877 100.592L63.8398 98.5317L61.7793 97.9796L61.2272 100.04L63.2877 100.592Z" fill="#1A1A1A"/>
<path d="M62.1842 104.712L62.7363 102.652L60.6758 102.1L60.1237 104.16L62.1842 104.712Z" fill="#1A1A1A"/>
<path d="M61.6324 106.774L62.1846 104.713L60.124 104.161L59.5719 106.222L61.6324 106.774Z" fill="#1A1A1A"/>
<path d="M61.0797 108.833L61.6318 106.773L59.5713 106.221L59.0192 108.281L61.0797 108.833Z" fill="#1A1A1A"/>
<path d="M59.9752 112.955L60.5273 110.894L58.4668 110.342L57.9147 112.402L59.9752 112.955Z" fill="#1A1A1A"/>
<path d="M72.526 74.356L73.0781 72.2954L71.0176 71.7433L70.4655 73.8038L72.526 74.356Z" fill="#1A1A1A"/>
<path d="M71.9742 76.4165L72.5264 74.356L70.4658 73.8038L69.9137 75.8644L71.9742 76.4165Z" fill="#1A1A1A"/>
<path d="M71.4235 78.478L71.9756 76.4175L69.915 75.8654L69.3629 77.9259L71.4235 78.478Z" fill="#1A1A1A"/>
<path d="M70.8698 80.5376L71.4219 78.4771L69.3613 77.9249L68.8092 79.9855L70.8698 80.5376Z" fill="#1A1A1A"/>
<path d="M70.318 82.5991L70.8701 80.5386L68.8096 79.9865L68.2574 82.047L70.318 82.5991Z" fill="#1A1A1A"/>
<path d="M69.7662 84.6597L70.3184 82.5991L68.2578 82.047L67.7057 84.1075L69.7662 84.6597Z" fill="#1A1A1A"/>
<path d="M66.2301 110.214L66.7822 108.154L64.7217 107.602L64.1696 109.662L66.2301 110.214Z" fill="#1A1A1A"/>
<path d="M62.5885 111.447L63.1406 109.386L61.0801 108.834L60.528 110.895L62.5885 111.447Z" fill="#1A1A1A"/>
<path d="M62.0358 113.506L62.5879 111.446L60.5273 110.894L59.9752 112.954L62.0358 113.506Z" fill="#1A1A1A"/>
<path d="M74.5885 74.9087L75.1406 72.8481L73.0801 72.296L72.528 74.3566L74.5885 74.9087Z" fill="#1A1A1A"/>
<path d="M74.0358 76.9692L74.5879 74.9087L72.5273 74.3566L71.9752 76.4171L74.0358 76.9692Z" fill="#1A1A1A"/>
<path d="M72.3776 83.1509L72.9297 81.0903L70.8691 80.5382L70.317 82.5988L72.3776 83.1509Z" fill="#1A1A1A"/>
<path d="M71.8258 85.2114L72.3779 83.1509L70.3174 82.5988L69.7653 84.6593L71.8258 85.2114Z" fill="#1A1A1A"/>
<path d="M64.5582 87.689L65.1104 85.6284L63.0498 85.0763L62.4977 87.1368L64.5582 87.689Z" fill="#1A1A1A"/>
<path d="M65.2008 109.939L65.7529 107.878L63.6924 107.326L63.1403 109.387L65.2008 109.939Z" fill="#1A1A1A"/>
<path d="M64.6481 111.999L65.2002 109.938L63.1396 109.386L62.5875 111.446L64.6481 111.999Z" fill="#1A1A1A"/>
<path d="M64.0963 114.059L64.6484 111.999L62.5879 111.446L62.0358 113.507L64.0963 114.059Z" fill="#1A1A1A"/>
<path d="M75.5426 79.5825L76.0947 77.522L74.0342 76.9699L73.4821 79.0304L75.5426 79.5825Z" fill="#1A1A1A"/>
<path d="M74.9918 81.6421L75.5439 79.5815L73.4834 79.0294L72.9313 81.09L74.9918 81.6421Z" fill="#1A1A1A"/>
<path d="M61.7203 97.9722L62.2725 95.9116L60.2882 95.3799L59.7361 97.4405L61.7203 97.9722Z" fill="#1A1A1A"/>
<path d="M68.3658 106.371L68.918 104.31L66.8574 103.758L66.3053 105.818L68.3658 106.371Z" fill="#1A1A1A"/>
<path d="M66.8737 103.769L67.4258 101.708L65.3652 101.156L64.8131 103.217L66.8737 103.769Z" fill="#1A1A1A"/>
<path d="M67.8141 108.431L68.3662 106.371L66.3057 105.818L65.7535 107.879L67.8141 108.431Z" fill="#1A1A1A"/>
<path d="M67.2604 110.491L67.8125 108.43L65.752 107.878L65.1998 109.939L67.2604 110.491Z" fill="#1A1A1A"/>
<path d="M66.7086 112.551L67.2607 110.491L65.2002 109.939L64.6481 111.999L66.7086 112.551Z" fill="#1A1A1A"/>
<path d="M66.1569 114.612L66.709 112.551L64.6484 111.999L64.0963 114.06L66.1569 114.612Z" fill="#1A1A1A"/>
<path d="M78.7076 76.0132L79.2598 73.9526L77.1992 73.4005L76.6471 75.4611L78.7076 76.0132Z" fill="#1A1A1A"/>
<path d="M77.6032 80.1343L78.1553 78.0737L76.0947 77.5216L75.5426 79.5822L77.6032 80.1343Z" fill="#1A1A1A"/>
<path d="M77.0504 82.1948L77.6025 80.1343L75.542 79.5822L74.9899 81.6427L77.0504 82.1948Z" fill="#1A1A1A"/>
<path d="M75.9459 86.3159L76.498 84.2554L74.4375 83.7032L73.8854 85.7638L75.9459 86.3159Z" fill="#1A1A1A"/>
<path d="M70.9948 104.874L71.5469 102.813L69.4863 102.261L68.9342 104.321L70.9948 104.874Z" fill="#1A1A1A"/>
<path d="M70.4254 106.922L70.9775 104.862L68.917 104.31L68.3649 106.37L70.4254 106.922Z" fill="#1A1A1A"/>
<path d="M79.6647 80.687L80.2168 78.6265L78.1563 78.0743L77.6041 80.1349L79.6647 80.687Z" fill="#1A1A1A"/>
<path d="M78.5592 84.8071L79.1113 82.7466L77.0508 82.1945L76.4987 84.255L78.5592 84.8071Z" fill="#1A1A1A"/>
<path d="M78.0074 86.8677L78.5596 84.8071L76.499 84.255L75.9469 86.3156L78.0074 86.8677Z" fill="#1A1A1A"/>
<path d="M77.4723 88.9419L78.0244 86.8813L75.9639 86.3292L75.4117 88.3898L77.4723 88.9419Z" fill="#1A1A1A"/>
<path d="M78.9811 91.5542L79.5332 89.4937L77.4727 88.9415L76.9205 91.0021L78.9811 91.5542Z" fill="#1A1A1A"/>
<path d="M76.2213 101.858L76.7734 99.7974L74.7129 99.2452L74.1608 101.306L76.2213 101.858Z" fill="#1A1A1A"/>
<path d="M64.8131 103.217L65.3652 101.157L63.3047 100.605L62.7526 102.665L64.8131 103.217Z" fill="#1A1A1A"/>
<path d="M73.5914 103.353L74.1436 101.292L72.083 100.74L71.5309 102.801L73.5914 103.353Z" fill="#1A1A1A"/>
<path d="M73.0377 105.414L73.5898 103.353L71.5293 102.801L70.9772 104.861L73.0377 105.414Z" fill="#1A1A1A"/>
<path d="M71.9342 109.535L72.4863 107.474L70.4258 106.922L69.8737 108.983L71.9342 109.535Z" fill="#1A1A1A"/>
<path d="M71.3815 111.595L71.9336 109.535L69.873 108.983L69.3209 111.043L71.3815 111.595Z" fill="#1A1A1A"/>
<path d="M70.8287 113.656L71.3809 111.595L69.3203 111.043L68.7682 113.104L70.8287 113.656Z" fill="#1A1A1A"/>
<path d="M84.8912 77.6694L85.4434 75.6089L83.3828 75.0568L82.8307 77.1173L84.8912 77.6694Z" fill="#1A1A1A"/>
<path d="M84.3375 79.729L84.8896 77.6685L82.8291 77.1163L82.277 79.1769L84.3375 79.729Z" fill="#1A1A1A"/>
<path d="M83.7867 81.7905L84.3389 79.73L82.2783 79.1779L81.7262 81.2384L83.7867 81.7905Z" fill="#1A1A1A"/>
<path d="M83.233 83.8511L83.7852 81.7905L81.7246 81.2384L81.1725 83.299L83.233 83.8511Z" fill="#1A1A1A"/>
<path d="M82.6813 85.9116L83.2334 83.8511L81.1729 83.299L80.6207 85.3595L82.6813 85.9116Z" fill="#1A1A1A"/>
<path d="M82.1295 87.9722L82.6816 85.9116L80.6211 85.3595L80.069 87.42L82.1295 87.9722Z" fill="#1A1A1A"/>
<path d="M81.026 92.0942L81.5781 90.0337L79.5176 89.4816L78.9655 91.5421L81.026 92.0942Z" fill="#1A1A1A"/>
<path d="M80.4733 94.1548L81.0254 92.0942L78.9648 91.5421L78.4127 93.6027L80.4733 94.1548Z" fill="#1A1A1A"/>
<path d="M79.3698 98.2759L79.9219 96.2153L77.8613 95.6632L77.3092 97.7238L79.3698 98.2759Z" fill="#1A1A1A"/>
<path d="M78.817 100.336L79.3691 98.2759L77.3086 97.7238L76.7565 99.7843L78.817 100.336Z" fill="#1A1A1A"/>
<path d="M78.2643 102.397L78.8164 100.336L76.7559 99.7843L76.2037 101.845L78.2643 102.397Z" fill="#1A1A1A"/>
<path d="M86.9508 78.2212L87.5029 76.1606L85.4424 75.6085L84.8903 77.6691L86.9508 78.2212Z" fill="#1A1A1A"/>
<path d="M84.1901 88.5239L84.7422 86.4634L82.6816 85.9113L82.1295 87.9718L84.1901 88.5239Z" fill="#1A1A1A"/>
<path d="M82.5328 94.7065L83.085 92.646L81.0244 92.0939L80.4723 94.1544L82.5328 94.7065Z" fill="#1A1A1A"/>
<path d="M81.9821 96.7661L82.5342 94.7056L80.4736 94.1534L79.9215 96.214L81.9821 96.7661Z" fill="#1A1A1A"/>
<path d="M81.4283 98.8276L81.9805 96.7671L79.9199 96.215L79.3678 98.2755L81.4283 98.8276Z" fill="#1A1A1A"/>
<path d="M80.3248 102.949L80.877 100.888L78.8164 100.336L78.2643 102.397L80.3248 102.949Z" fill="#1A1A1A"/>
<path d="M89.0104 78.7729L89.5625 76.7124L87.502 76.1603L86.9498 78.2208L89.0104 78.7729Z" fill="#1A1A1A"/>
<path d="M87.9069 82.895L88.459 80.8345L86.3984 80.2824L85.8463 82.3429L87.9069 82.895Z" fill="#1A1A1A"/>
<path d="M87.3551 84.9546L87.9072 82.894L85.8467 82.3419L85.2946 84.4025L87.3551 84.9546Z" fill="#1A1A1A"/>
<path d="M86.2496 89.0767L86.8018 87.0161L84.7412 86.464L84.1891 88.5245L86.2496 89.0767Z" fill="#1A1A1A"/>
<path d="M84.5934 95.2583L85.1455 93.1978L83.085 92.6456L82.5328 94.7062L84.5934 95.2583Z" fill="#1A1A1A"/>
<path d="M84.0407 97.3188L84.5928 95.2583L82.5322 94.7062L81.9801 96.7667L84.0407 97.3188Z" fill="#1A1A1A"/>
<path d="M83.4899 99.3794L84.042 97.3188L81.9814 96.7667L81.4293 98.8273L83.4899 99.3794Z" fill="#1A1A1A"/>
<path d="M82.9362 101.44L83.4883 99.3794L81.4277 98.8273L80.8756 100.888L82.9362 101.44Z" fill="#1A1A1A"/>
<path d="M82.3854 103.5L82.9375 101.44L80.877 100.888L80.3248 102.948L82.3854 103.5Z" fill="#1A1A1A"/>
<path d="M91.0729 79.3247L91.625 77.2642L89.5645 76.712L89.0123 78.7726L91.0729 79.3247Z" fill="#1A1A1A"/>
<path d="M89.9674 83.4468L90.5195 81.3862L88.459 80.8341L87.9069 82.8947L89.9674 83.4468Z" fill="#1A1A1A"/>
<path d="M89.4166 85.5073L89.9688 83.4468L87.9082 82.8947L87.3561 84.9552L89.4166 85.5073Z" fill="#1A1A1A"/>
<path d="M88.3121 89.6294L88.8643 87.5688L86.8037 87.0167L86.2516 89.0773L88.3121 89.6294Z" fill="#1A1A1A"/>
<path d="M87.2076 93.7505L87.7598 91.6899L85.6992 91.1378L85.1471 93.1984L87.2076 93.7505Z" fill="#1A1A1A"/>
<path d="M85.5504 99.9321L86.1025 97.8716L84.042 97.3195L83.4899 99.38L85.5504 99.9321Z" fill="#1A1A1A"/>
<path d="M93.1315 79.8774L93.6836 77.8169L91.623 77.2648L91.0709 79.3253L93.1315 79.8774Z" fill="#1A1A1A"/>
<path d="M90.3717 90.1812L90.9238 88.1206L88.8633 87.5685L88.3112 89.629L90.3717 90.1812Z" fill="#1A1A1A"/>
<path d="M89.2672 94.3022L89.8193 92.2417L87.7588 91.6896L87.2067 93.7501L89.2672 94.3022Z" fill="#1A1A1A"/>
<path d="M88.7145 96.3628L89.2666 94.3022L87.2061 93.7501L86.6539 95.8107L88.7145 96.3628Z" fill="#1A1A1A"/>
<path d="M88.1627 98.4233L88.7148 96.3628L86.6543 95.8107L86.1022 97.8712L88.1627 98.4233Z" fill="#1A1A1A"/>
<path d="M87.61 100.484L88.1621 98.4233L86.1016 97.8712L85.5494 99.9318L87.61 100.484Z" fill="#1A1A1A"/>
<path d="M87.0582 102.544L87.6104 100.484L85.5498 99.9318L84.9977 101.992L87.0582 102.544Z" fill="#1A1A1A"/>
<path d="M86.5065 104.606L87.0586 102.545L84.998 101.993L84.4459 104.054L86.5065 104.606Z" fill="#1A1A1A"/>
<path d="M95.194 80.4302L95.7461 78.3696L93.6855 77.8175L93.1334 79.8781L95.194 80.4302Z" fill="#1A1A1A"/>
<path d="M94.6422 82.4907L95.1943 80.4302L93.1338 79.8781L92.5817 81.9386L94.6422 82.4907Z" fill="#1A1A1A"/>
<path d="M94.0885 84.5513L94.6406 82.4907L92.5801 81.9386L92.028 83.9991L94.0885 84.5513Z" fill="#1A1A1A"/>
<path d="M93.5377 86.6108L94.0898 84.5503L92.0293 83.9982L91.4772 86.0587L93.5377 86.6108Z" fill="#1A1A1A"/>
<path d="M92.985 88.6724L93.5371 86.6118L91.4766 86.0597L90.9244 88.1202L92.985 88.6724Z" fill="#1A1A1A"/>
<path d="M92.4323 90.7329L92.9844 88.6724L90.9238 88.1202L90.3717 90.1808L92.4323 90.7329Z" fill="#1A1A1A"/>
<path d="M90.2242 98.9761L90.7764 96.9155L88.7158 96.3634L88.1637 98.424L90.2242 98.9761Z" fill="#1A1A1A"/>
<path d="M89.1198 103.097L89.6719 101.037L87.6113 100.484L87.0592 102.545L89.1198 103.097Z" fill="#1A1A1A"/>
<path d="M75.4239 88.9116L67.0011 86.6547C66.4196 86.4989 65.8128 86.878 65.6458 87.5014L63.226 96.5321C63.059 97.1555 63.3949 97.7872 63.9764 97.943L72.3992 100.2C72.9807 100.356 73.5875 99.9766 73.7545 99.3532L76.1743 90.3225C76.3414 89.6991 76.0054 89.0674 75.4239 88.9116Z" fill="#1A1A1A"/>
<path d="M54.0438 147.463L54.8006 148.774L53.8556 149.32L53.0725 147.963C52.3347 148.217 51.5042 148.239 50.6267 148.004C48.1144 147.331 47.0454 145.021 47.7508 142.389C48.4562 139.756 50.5333 138.303 53.0455 138.976C55.5578 139.65 56.63 141.947 55.9247 144.579C55.5833 145.853 54.9175 146.847 54.0438 147.463ZM50.9037 146.97C51.4446 147.115 51.9761 147.103 52.4829 146.942L51.8933 145.921L52.8415 145.363L53.4279 146.397C53.9791 145.926 54.4137 145.218 54.6745 144.244C55.2768 141.996 54.3552 140.435 52.7686 140.01C51.1819 139.585 49.6032 140.476 49.0009 142.724C48.3986 144.972 49.317 146.545 50.9037 146.97ZM60.8164 146.624C60.5968 146.578 60.3805 146.52 60.1521 146.459L58.6135 146.047L57.6311 149.713L56.405 149.385L58.7401 140.67L61.5048 141.411C63.6324 141.981 65.0223 142.804 64.4618 144.895C64.0914 146.278 63.2532 146.762 62.106 146.764L63.0884 151.175L61.718 150.808L60.8164 146.624ZM59.6892 142.032L58.8905 145.013L60.5252 145.451C61.7994 145.793 62.8325 145.928 63.1933 144.581C63.554 143.235 62.5982 142.811 61.324 142.47L59.6892 142.032Z" fill="white"/>
<rect x="87.5" y="13.5005" width="99" height="179" rx="3.5" fill="#2B383B" stroke="#DCE4E5"/>
<rect x="101" y="37.0005" width="72" height="80" rx="2" fill="#67DD95"/>
<circle cx="137" cy="77.0005" r="24" fill="#1A1A1A"/>
<path d="M137.854 78.9969L137.854 78.9967L137.846 79.0083C137.701 79.2265 137.674 79.4988 137.721 79.7357C137.769 79.9727 137.898 80.2136 138.117 80.3591C138.335 80.5047 138.607 80.5315 138.844 80.4841C139.079 80.4371 139.319 80.3091 139.464 80.0935C140.295 78.9496 140.721 77.584 140.512 76.2062C140.403 74.8267 139.662 73.5691 138.623 72.6347C137.577 71.6934 136.21 71.162 134.831 71.2651C133.456 71.2681 132.093 71.9013 131.15 72.8446L126.33 77.6647C125.275 78.7189 124.75 80.0893 124.75 81.557C124.75 83.0247 125.275 84.3951 126.329 85.4492C127.384 86.5034 128.754 87.0287 130.222 87.0287C131.787 87.0287 133.159 86.505 134.214 85.4492L135.118 84.5455C135.517 84.1466 135.517 83.4862 135.118 83.0873C134.719 82.6884 134.059 82.6884 133.66 83.0873L133.66 83.0871L133.651 83.0969L132.752 84.0961C131.445 85.3978 129.101 85.3982 127.794 84.0973C127.125 83.3313 126.756 82.486 126.756 81.557C126.756 80.6164 127.134 79.6766 127.788 79.0225L132.608 74.2024C133.161 73.6496 134.002 73.2687 134.954 73.171C135.791 73.1737 136.611 73.4518 137.255 74.2795L137.27 74.2994L137.289 74.3158C137.948 74.8802 138.416 75.7274 138.509 76.5637C138.603 77.4096 138.416 78.2486 137.854 78.9969ZM136.246 75.7823L136.246 75.7825L136.254 75.771C136.4 75.5527 136.426 75.2805 136.379 75.0435C136.332 74.8066 136.202 74.5656 135.984 74.4201C135.766 74.2746 135.493 74.2477 135.256 74.2951C135.021 74.3422 134.782 74.4702 134.636 74.6857C133.803 75.8323 133.377 77.2014 133.59 78.5824C133.798 79.9376 134.424 81.1949 135.472 82.1401C136.432 83.0968 137.704 83.5141 139.059 83.5141H139.159C140.538 83.5141 141.905 82.8801 142.85 81.9346L147.67 77.1145C148.725 76.0604 149.25 74.6899 149.25 73.2222C149.25 71.7545 148.725 70.3841 147.67 69.33C146.616 68.2759 145.246 67.7505 143.778 67.7505C142.311 67.7505 140.94 68.2759 139.886 69.33L139.183 70.0329C138.995 70.2206 138.868 70.472 138.836 70.731C138.803 70.9934 138.868 71.2761 139.083 71.4911C139.482 71.89 140.142 71.89 140.541 71.4911L141.344 70.6877C142.65 69.3814 144.998 69.3795 146.307 70.6819C146.975 71.4479 147.344 72.2932 147.344 73.2222C147.344 74.1663 146.965 74.994 146.43 75.4402L146.421 75.4475L146.413 75.4555L141.593 80.2756C140.931 80.9376 140.089 81.307 139.259 81.307C138.306 81.307 137.463 81.0217 136.811 80.4634C136.153 79.8991 135.684 79.0518 135.592 78.2156C135.498 77.3697 135.685 76.5306 136.246 75.7823Z" fill="#67DD95" stroke="#67DD95" stroke-width="0.5"/>
<path d="M126.904 140.768H132.266V142H125.476V131.85H126.904V140.768ZM134.553 131.85V133.39H133.279V131.85H134.553ZM134.553 134.468V142H133.279V134.468H134.553ZM137.847 135.602C138.281 134.888 139.009 134.342 140.283 134.342C142.103 134.342 142.761 135.518 142.761 137.24V142H141.487V137.618C141.487 136.456 141.291 135.448 139.835 135.448C138.603 135.448 137.847 136.302 137.847 137.912V142H136.573V134.468H137.847V135.602ZM145.941 131.85V137.856L148.979 134.468H150.547L147.677 137.59L150.939 142H149.385L146.823 138.528L145.941 139.48V142H144.667V131.85H145.941Z" fill="white"/>
</svg>
