<svg width="24" height="24" viewBox="0 0 24 24" fill="none" xmlns="http://www.w3.org/2000/svg">
<g clip-path="url(#clip0_3306_4336)">
<path d="M5.25 9C4.836 9 4.5 8.664 4.5 8.25V5.25C4.5 4.836 4.836 4.5 5.25 4.5H8.25C8.664 4.5 9 4.836 9 5.25V8.25C9 8.664 8.664 9 8.25 9H5.25ZM7.5 7.5V6H6V7.5H7.5Z" fill="#3CB572"/>
<path d="M5.25 19.5C4.836 19.5 4.5 19.164 4.5 18.75V15.75C4.5 15.336 4.836 15 5.25 15H8.25C8.664 15 9 15.336 9 15.75V18.75C9 19.164 8.664 19.5 8.25 19.5H5.25ZM7.5 18V16.5H6V18H7.5Z" fill="#3CB572"/>
<path d="M15.75 9C15.336 9 15 8.664 15 8.25V5.25C15 4.836 15.336 4.5 15.75 4.5H18.75C19.164 4.5 19.5 4.836 19.5 5.25V8.25C19.5 8.664 19.164 9 18.75 9H15.75ZM18 7.5V6H16.5V7.5H18Z" fill="#3CB572"/>
<path d="M11.25 15C10.836 15 10.5 14.664 10.5 14.25V13.5H5.25C4.836 13.5 4.5 13.164 4.5 12.75C4.5 12.336 4.836 12 5.25 12H11.25C11.664 12 12 12.336 12 12.75V14.25C12 14.664 11.664 15 11.25 15Z" fill="#3CB572"/>
<path d="M14.25 19.5C13.836 19.5 13.5 19.164 13.5 18.75V14.25C13.5 13.836 13.836 13.5 14.25 13.5C14.664 13.5 15 13.836 15 14.25V18H18V15H17.25C16.836 15 16.5 14.664 16.5 14.25C16.5 13.836 16.836 13.5 17.25 13.5H18.75C19.164 13.5 19.5 13.836 19.5 14.25V18.75C19.5 19.164 19.164 19.5 18.75 19.5H14.25Z" fill="#3CB572"/>
<path d="M11.25 19.5C10.836 19.5 10.5 19.164 10.5 18.75V17.25C10.5 16.836 10.836 16.5 11.25 16.5C11.664 16.5 12 16.836 12 17.25V18.75C12 19.164 11.664 19.5 11.25 19.5Z" fill="#3CB572"/>
<path d="M11.25 10.5C10.836 10.5 10.5 10.164 10.5 9.75V5.25C10.5 4.836 10.836 4.5 11.25 4.5C11.664 4.5 12 4.836 12 5.25V9H12.75C13.164 9 13.5 9.336 13.5 9.75C13.5 10.164 13.164 10.5 12.75 10.5H11.25Z" fill="#3CB572"/>
<path d="M15.75 12C15.336 12 15 11.664 15 11.25C15 10.836 15.336 10.5 15.75 10.5H18.75C19.164 10.5 19.5 10.836 19.5 11.25C19.5 11.664 19.164 12 18.75 12H15.75Z" fill="#3CB572"/>
<path d="M0.75 6.75C0.336 6.75 0 6.414 0 6V2.25C0 1.009 1.009 0 2.25 0H6C6.414 0 6.75 0.336 6.75 0.75C6.75 1.164 6.414 1.5 6 1.5H2.25C1.836 1.5 1.5 1.836 1.5 2.25V6C1.5 6.414 1.164 6.75 0.75 6.75Z" fill="#3CB572"/>
<path d="M23.25 6.75C22.836 6.75 22.5 6.414 22.5 6V2.25C22.5 1.836 22.164 1.5 21.75 1.5H18C17.586 1.5 17.25 1.164 17.25 0.75C17.25 0.336 17.586 0 18 0H21.75C22.991 0 24 1.009 24 2.25V6C24 6.414 23.664 6.75 23.25 6.75Z" fill="#3CB572"/>
<path d="M18 24C17.586 24 17.25 23.664 17.25 23.25C17.25 22.836 17.586 22.5 18 22.5H21.75C22.164 22.5 22.5 22.164 22.5 21.75V18C22.5 17.586 22.836 17.25 23.25 17.25C23.664 17.25 24 17.586 24 18V21.75C24 22.991 22.991 24 21.75 24H18Z" fill="#3CB572"/>
<path d="M2.25 24C1.009 24 0 22.991 0 21.75V18C0 17.586 0.336 17.25 0.75 17.25C1.164 17.25 1.5 17.586 1.5 18V21.75C1.5 22.164 1.836 22.5 2.25 22.5H6C6.414 22.5 6.75 22.836 6.75 23.25C6.75 23.664 6.414 24 6 24H2.25Z" fill="#3CB572"/>
</g>
<defs>
<clipPath id="clip0_3306_4336">
<rect width="24" height="24" fill="white"/>
</clipPath>
</defs>
</svg>
