<svg width="343" height="210" viewBox="0 0 343 210" fill="none" xmlns="http://www.w3.org/2000/svg">
<rect x="141" y="66.5" width="129" height="143" fill="white" stroke="#014958"/>
<rect x="203.5" y="95" width="5" height="88" rx="2.5" fill="#3CB572"/>
<rect x="250" y="136.5" width="5" height="88" rx="2.5" transform="rotate(90 250 136.5)" fill="#3CB572"/>
<rect x="238.881" y="168.345" width="5" height="88" rx="2.5" transform="rotate(135 238.881 168.345)" fill="#3CB572"/>
<rect x="176.654" y="171.881" width="5" height="88" rx="2.5" transform="rotate(-135 176.654 171.881)" fill="#3CB572"/>
<rect x="91" y="66.5" width="50" height="143" fill="#3CB572" stroke="#014958"/>
<circle cx="206.5" cy="139" r="34" fill="#014958"/>
<circle cx="206.5" cy="139" r="23.5" stroke="#E3F6DC"/>
<circle cx="262.5" cy="74" r="2.5" fill="#E3F6DC" stroke="#014958"/>
<circle cx="262.5" cy="201" r="2.5" fill="#E3F6DC" stroke="#014958"/>
<circle cx="149.5" cy="74" r="2.5" fill="#E3F6DC" stroke="#014958"/>
<circle cx="149.5" cy="201" r="2.5" fill="#E3F6DC" stroke="#014958"/>
<rect x="137.5" y="111" width="7" height="7" rx="1" fill="#014958"/>
<rect x="137.5" y="153" width="7" height="7" rx="1" fill="#014958"/>
<path d="M86.5718 38.057L83.2994 31.7394L80.0609 33.4168L83.3333 39.7345L76.1517 40.559L76.6299 44.0821L83.729 43.0982L82.7077 50.226L86.4564 50.5735L87.289 43.3415L93.9951 46.6687L95.4747 43.5455L89.1441 40.2933L94.1494 35.0073L91.3884 32.6668L86.5718 38.057Z" fill="#3CB572"/>
<path d="M101.222 13.8593L102.191 11.5795L101.023 11.0828L100.054 13.3627L98.239 11.6189L97.3999 12.5289L99.2391 14.2152L97.1002 15.5228L97.8387 16.6057L99.9638 15.2244L100.559 17.7619L101.725 17.4658L101.193 15.0457L103.722 15.2156L103.737 13.9555L101.222 13.8593Z" fill="#014958"/>
<path d="M136.651 36.152L134.324 31.6595L132.021 32.8523L134.348 37.3449L129.241 37.9312L129.581 40.4364L134.629 39.7368L133.903 44.8054L136.569 45.0526L137.161 39.9098L141.93 42.2758L142.982 40.0549L138.48 37.7422L142.039 33.9833L140.076 32.319L136.651 36.152Z" fill="#E3F6DC"/>
</svg>
