<svg width="17" height="17" viewBox="0 0 17 17" fill="none" xmlns="http://www.w3.org/2000/svg">
<path fill-rule="evenodd" clip-rule="evenodd" d="M5.86338 0.638821C5.5837 0.680438 5.3266 0.79191 5.11002 0.965452C4.87045 1.15742 4.69418 1.42158 4.59699 1.73423L4.54944 1.88724L4.54431 3.25153L4.53917 4.61583L3.71106 4.61611C2.83317 4.61644 2.77008 4.62108 2.55366 4.70144C2.05068 4.88823 1.68973 5.31465 1.58001 5.85171C1.54903 6.00339 1.54815 6.16067 1.55282 10.6801L1.55765 15.3517L1.59334 15.4707C1.64837 15.6542 1.69313 15.7608 1.76695 15.8844C1.98386 16.2474 2.329 16.4967 2.7518 16.5959C2.87625 16.6251 3.07152 16.6267 6.57206 16.6267H10.2612L10.4142 16.5879C10.7227 16.5097 11.0446 16.3067 11.2342 16.0707C11.3511 15.9253 11.4632 15.7115 11.5222 15.5217L11.5698 15.3687L11.5749 14.0044L11.58 12.6401L12.4082 12.6398C13.2861 12.6395 13.3491 12.6348 13.5656 12.5545C14.0396 12.3784 14.3781 12.0015 14.5255 11.4854L14.5623 11.3565L14.5668 7.65059C14.5709 4.35291 14.5684 3.92905 14.5448 3.80317C14.4962 3.54362 14.4026 3.32863 14.2546 3.13678C14.215 3.08535 13.7095 2.57156 13.1314 1.99504C12.0336 0.900272 11.9802 0.852653 11.7331 0.748729C11.673 0.723483 11.5659 0.686303 11.4951 0.666106L11.3662 0.629402L8.66313 0.62692C7.17643 0.62556 5.91654 0.630915 5.86338 0.638821ZM5.90709 1.71912C5.80784 1.75446 5.70679 1.84727 5.65553 1.95012L5.61153 2.03842V3.32657V4.6147L7.02683 4.61951L8.44212 4.62433L8.58663 4.67257C8.76173 4.73104 8.94678 4.82782 9.07665 4.92884C9.12973 4.97013 9.64763 5.4808 10.2276 6.06366C11.1663 7.00714 11.291 7.13865 11.364 7.26247C11.4562 7.41899 11.5343 7.63029 11.5607 7.79493C11.5722 7.86665 11.5785 8.5516 11.5786 9.74667L11.5787 11.5879L12.365 11.5827C13.2403 11.577 13.209 11.581 13.3461 11.4571C13.3853 11.4218 13.4339 11.3617 13.4543 11.3237L13.4913 11.2545L13.4957 7.60979L13.5001 3.96503L13.4567 3.86967C13.419 3.78695 13.281 3.6421 12.4153 2.77718C11.7398 2.10238 11.3925 1.76715 11.3407 1.74015L11.2642 1.70023L8.62063 1.69721C6.33606 1.69461 5.96754 1.69758 5.90709 1.71912ZM2.9815 5.68759C2.94219 5.69541 2.89369 5.71056 2.87373 5.72123C2.80646 5.75724 2.70223 5.86256 2.66497 5.93221L2.62794 6.00137L2.62313 10.583C2.61969 13.8601 2.62362 15.184 2.63691 15.2327C2.66855 15.3484 2.75753 15.4521 2.87591 15.5112L2.98187 15.5642H6.55476C10.5148 15.5642 10.2105 15.5731 10.3512 15.4527C10.3889 15.4205 10.4395 15.3544 10.4637 15.3058L10.5077 15.2175L10.5075 11.5785L10.5073 7.93943L10.4668 7.85443C10.4346 7.78702 10.2155 7.55928 9.40864 6.75424C8.69594 6.04317 8.37075 5.72996 8.32312 5.7087C8.25889 5.68004 8.11073 5.67822 5.65403 5.67586C4.22344 5.67448 3.02079 5.67975 2.9815 5.68759Z" fill="black"/>
</svg>
