<?xml version="1.0" encoding="UTF-8" standalone="no"?>
<!DOCTYPE svg PUBLIC "-//W3C//DTD SVG 1.1//EN" "http://www.w3.org/Graphics/SVG/1.1/DTD/svg11.dtd">
<!-- Created with Vectornator (http://vectornator.io/) -->
<svg height="16.0pt" stroke-miterlimit="10" style="fill-rule:nonzero;clip-rule:evenodd;stroke-linecap:round;stroke-linejoin:round;" version="1.1" viewBox="0 0 16 16" width="16.0pt" xml:space="preserve" xmlns="http://www.w3.org/2000/svg" xmlns:xlink="http://www.w3.org/1999/xlink">
<defs/>
<g id="Sans-titre">
<path d="M5.80381 0.0121166C5.52413 0.0537336 5.26703 0.165206 5.05045 0.338748C4.81088 0.530716 4.63461 0.794876 4.53742 1.10753L4.48987 1.26054L4.48474 2.62483L4.4796 3.98913L3.65149 3.98941C2.7736 3.98974 2.71051 3.99438 2.49409 4.07474C1.99111 4.26153 1.63016 4.68795 1.52044 5.22501C1.48946 5.37669 1.48858 5.53397 1.49325 10.0534L1.49808 14.725L1.53377 14.844C1.5888 15.0275 1.63356 15.1341 1.70738 15.2577C1.92429 15.6207 2.26943 15.87 2.69223 15.9692C2.81668 15.9984 3.01195 16 6.51249 16L10.2016 16L10.3546 15.9612C10.6631 15.883 10.985 15.68 11.1746 15.444C11.2915 15.2986 11.4036 15.0848 11.4626 14.895L11.5102 14.742L11.5153 13.3777L11.5204 12.0134L12.3486 12.0131C13.2265 12.0128 13.2895 12.0081 13.506 11.9278C13.98 11.7517 14.3185 11.3748 14.4659 10.8587L14.5027 10.7298L14.5072 7.02389C14.5113 3.72621 14.5088 3.30235 14.4852 3.17647C14.4366 2.91692 14.343 2.70193 14.195 2.51008C14.1554 2.45865 13.6499 1.94486 13.0718 1.36834C11.974 0.273568 11.9206 0.225949 11.6735 0.122025C11.6134 0.0967786 11.5063 0.0595986 11.4355 0.0394016L11.3066 0.00269756L8.60356 0.000215562C7.11686-0.00114444 5.85697 0.00421056 5.80381 0.0121166ZM5.84752 1.09242C5.74827 1.12776 5.64722 1.22057 5.59596 1.32342L5.55196 1.41172L5.55196 2.69987L5.55196 3.988L6.96726 3.99281L8.38255 3.99763L8.52706 4.04587C8.70216 4.10434 8.88721 4.20112 9.01708 4.30214C9.07016 4.34343 9.58806 4.8541 10.168 5.43696C11.1067 6.38044 11.2314 6.51195 11.3044 6.63577C11.3966 6.79229 11.4747 7.00359 11.5011 7.16823C11.5126 7.23995 11.5189 7.9249 11.519 9.11997L11.5191 10.9612L12.3054 10.956C13.1807 10.9503 13.1494 10.9543 13.2865 10.8304C13.3257 10.7951 13.3743 10.735 13.3947 10.697L13.4317 10.6278L13.4361 6.98309L13.4405 3.33833L13.3971 3.24297C13.3594 3.16025 13.2214 3.0154 12.3557 2.15048C11.6802 1.47568 11.3329 1.14045 11.2811 1.11345L11.2046 1.07353L8.56106 1.07051C6.27649 1.06791 5.90797 1.07088 5.84752 1.09242ZM2.92193 5.06089C2.88262 5.06871 2.83412 5.08386 2.81416 5.09453C2.74689 5.13054 2.64266 5.23586 2.6054 5.30551L2.56837 5.37467L2.56356 9.9563C2.56012 13.2334 2.56405 14.5573 2.57734 14.606C2.60898 14.7217 2.69796 14.8254 2.81634 14.8845L2.9223 14.9375L6.49519 14.9375C10.4552 14.9375 10.1509 14.9464 10.2916 14.826C10.3293 14.7938 10.3799 14.7277 10.4041 14.6791L10.4481 14.5908L10.4479 10.9518L10.4477 7.31273L10.4072 7.22773C10.375 7.16032 10.1559 6.93258 9.34907 6.12754C8.63637 5.41647 8.31118 5.10326 8.26355 5.082C8.19932 5.05334 8.05116 5.05152 5.59446 5.04916C4.16387 5.04778 2.96122 5.05305 2.92193 5.06089Z" fill="#000000" fill-rule="evenodd" opacity="1" stroke="none"/>
</g>
</svg>
