<svg width="16" height="16" viewBox="0 0 16 16" fill="none" xmlns="http://www.w3.org/2000/svg">
<path d="M12.5 0C12.6894 7.55791e-06 12.8626 0.107014 12.9473 0.276367L13.9473 2.27637C13.982 2.34577 14 2.42241 14 2.5V15.5C14 15.7761 13.7761 16 13.5 16H2.5C2.22386 16 2 15.7761 2 15.5V2.5C2.00001 2.42241 2.01803 2.34577 2.05273 2.27637L3.05273 0.276367C3.13744 0.107018 3.31064 0 3.5 0H12.5ZM3 15H6V14C6.00002 13.4696 6.21091 12.961 6.58594 12.5859C6.96099 12.211 7.46959 12 8 12C8.53043 12 9.03901 12.211 9.41406 12.5859C9.78901 12.961 9.99998 13.4696 10 14V15H13V3H3V15ZM8 13C7.73488 13 7.48057 13.1055 7.29297 13.293C7.10547 13.4805 7.00002 13.7349 7 14V15H9V14C8.99998 13.7349 8.89452 13.4805 8.70703 13.293C8.51945 13.1055 8.26508 13 8 13ZM4.99609 9.75C5.41028 9.75 5.74605 10.0858 5.74609 10.5C5.74609 10.9142 5.41031 11.25 4.99609 11.25C4.58191 11.25 4.24609 10.9142 4.24609 10.5C4.24614 10.0858 4.58193 9.75003 4.99609 9.75ZM8 9.75C8.41418 9.75001 8.74996 10.0858 8.75 10.5C8.75 10.9142 8.41421 11.25 8 11.25C7.58578 11.25 7.25 10.9142 7.25 10.5C7.25004 10.0858 7.58581 9.75 8 9.75ZM10.9961 9.75C11.4103 9.75 11.746 10.0858 11.7461 10.5C11.7461 10.9142 11.4103 11.25 10.9961 11.25C10.5819 11.25 10.2461 10.9142 10.2461 10.5C10.2461 10.0858 10.5819 9.75003 10.9961 9.75ZM4.99609 6.75C5.41028 6.75 5.74605 7.08582 5.74609 7.5C5.74609 7.91422 5.41031 8.25 4.99609 8.25C4.58191 8.24997 4.24609 7.9142 4.24609 7.5C4.24614 7.08584 4.58193 6.75003 4.99609 6.75ZM8 6.75C8.41418 6.75001 8.74996 7.08583 8.75 7.5C8.75 7.91421 8.41421 8.24999 8 8.25C7.58578 8.25 7.25 7.91422 7.25 7.5C7.25004 7.08582 7.58581 6.75 8 6.75ZM10.9961 6.75C11.4103 6.75 11.746 7.08582 11.7461 7.5C11.7461 7.91422 11.4103 8.25 10.9961 8.25C10.5819 8.24997 10.2461 7.9142 10.2461 7.5C10.2461 7.08584 10.5819 6.75003 10.9961 6.75ZM4.99609 3.75C5.41028 3.75 5.74605 4.08582 5.74609 4.5C5.74609 4.91422 5.41031 5.25 4.99609 5.25C4.58191 5.24997 4.24609 4.9142 4.24609 4.5C4.24614 4.08584 4.58193 3.75003 4.99609 3.75ZM8 3.75C8.41418 3.75001 8.74996 4.08583 8.75 4.5C8.75 4.91421 8.41421 5.24999 8 5.25C7.58578 5.25 7.25 4.91422 7.25 4.5C7.25004 4.08582 7.58581 3.75 8 3.75ZM10.9961 3.75C11.4103 3.75 11.746 4.08582 11.7461 4.5C11.7461 4.91422 11.4103 5.25 10.9961 5.25C10.5819 5.24997 10.2461 4.9142 10.2461 4.5C10.2461 4.08584 10.5819 3.75003 10.9961 3.75ZM3.30859 2H12.6914L12.1914 1H3.80859L3.30859 2Z" fill="#85A2B6"/>
</svg>
