<svg width="24" height="24" viewBox="0 0 24 24" fill="none" xmlns="http://www.w3.org/2000/svg">
<path d="M21.3613 18.3105C21.6541 18.0181 22.129 18.0183 22.4219 18.3105L23.7803 19.668C24.0729 19.9608 24.0729 20.4356 23.7803 20.7285C23.4875 21.0213 23.0127 21.0212 22.7197 20.7285L22.5254 20.5342C22.4011 21.0681 22.1786 21.5778 21.8672 22.0361C21.3628 22.7784 20.6468 23.3525 19.8125 23.6836C18.9783 24.0146 18.0638 24.0876 17.1875 23.8936C16.3111 23.6995 15.5128 23.2472 14.8965 22.5947C14.6123 22.2937 14.626 21.8196 14.9268 21.5352C15.2278 21.2508 15.7029 21.2634 15.9873 21.5645C16.3974 21.9985 16.9282 22.3005 17.5117 22.4297C18.0952 22.5589 18.7044 22.5094 19.2598 22.2891C19.815 22.0686 20.2915 21.687 20.627 21.1934C20.6916 21.0982 20.7508 20.9996 20.8037 20.8984C20.5355 21.0013 20.2191 20.9448 20.0029 20.7285C19.7104 20.4356 19.7112 19.9607 20.0039 19.668L21.3613 18.3105ZM16.3271 14.7637C17.1957 14.4522 18.1394 14.4161 19.0293 14.6602C19.9192 14.9043 20.7121 15.4168 21.2998 16.1279C21.5637 16.4472 21.5185 16.9197 21.1992 17.1836C20.8799 17.4473 20.4074 17.4022 20.1436 17.083C19.7526 16.6101 19.225 16.269 18.6328 16.1064C18.0403 15.944 17.4112 15.9683 16.833 16.1758C16.255 16.3833 15.7548 16.764 15.4014 17.2656C15.2322 17.5059 15.1001 17.7683 15.0088 18.0439C15.303 17.8176 15.7267 17.8398 15.9961 18.1094C16.2888 18.4024 16.289 18.8772 15.9961 19.1699L14.6641 20.5C14.5268 20.6516 14.328 20.7471 14.1074 20.7471C13.887 20.7469 13.6889 20.6516 13.5518 20.5L12.2197 19.1699C11.9268 18.8772 11.9271 18.4024 12.2197 18.1094C12.5125 17.8165 12.9873 17.8157 13.2803 18.1084L13.418 18.2471C13.5278 17.586 13.7862 16.9544 14.1758 16.4014C14.7071 15.6473 15.4587 15.0753 16.3271 14.7637ZM8.9834 0C10.526 1.79317e-05 12.0059 0.613281 13.0967 1.7041C14.1872 2.79484 14.7997 4.27401 14.7998 5.81641C14.7998 7.359 14.1874 8.83887 13.0967 9.92969C12.528 10.4984 11.853 10.9368 11.1191 11.2266C12.3458 11.5199 13.5005 12.0646 14.5039 12.8281C14.8335 13.079 14.8973 13.5493 14.6465 13.8789C14.3956 14.2083 13.9252 14.2723 13.5957 14.0215C12.2874 13.0259 10.6656 12.4756 8.9834 12.4756C6.99258 12.4756 5.08658 13.2458 3.68457 14.6123C2.46656 15.7995 1.71578 17.3516 1.54004 19H9.9834C10.3976 19 10.7334 19.3358 10.7334 19.75C10.7334 20.1642 10.3976 20.5 9.9834 20.5H0.75C0.551088 20.5 0.360379 20.4209 0.219727 20.2803C0.0790744 20.1396 0 19.9489 0 19.75C0 17.4165 0.950949 15.1821 2.6377 13.5381C3.80889 12.3966 5.26828 11.6041 6.84668 11.2266C6.11305 10.9368 5.43867 10.4982 4.87012 9.92969C3.77934 8.83886 3.16699 7.35904 3.16699 5.81641C3.16706 4.27398 3.77955 2.79485 4.87012 1.7041C5.96095 0.613265 7.44072 0 8.9834 0ZM8.9834 1.5C7.83855 1.5 6.7402 1.95512 5.93066 2.76465C5.1214 3.57409 4.66706 4.6718 4.66699 5.81641C4.66699 6.96121 5.12119 8.05962 5.93066 8.86914C6.7402 9.67867 7.83855 10.1338 8.9834 10.1338C10.1282 10.1338 11.2266 9.67866 12.0361 8.86914C12.8456 8.05962 13.2998 6.96118 13.2998 5.81641C13.2997 4.67183 12.8454 3.57408 12.0361 2.76465C11.2266 1.95513 10.1282 1.50002 8.9834 1.5Z" fill="#3CB572"/>
</svg>
