<svg width="16" height="16" viewBox="0 0 16 16" fill="none" xmlns="http://www.w3.org/2000/svg">
<g clip-path="url(#clip0_830_7400)">
<path fill-rule="evenodd" clip-rule="evenodd" d="M8.31802 8.31802C9.16193 7.47411 10.3065 7 11.5 7C12.6935 7 13.8381 7.47411 14.682 8.31802C15.5259 9.16193 16 10.3065 16 11.5C16 12.6935 15.5259 13.8381 14.682 14.682C13.8381 15.5259 12.6935 16 11.5 16C10.3065 16 9.16193 15.5259 8.31802 14.682C7.47411 13.8381 7 12.6935 7 11.5C7 10.3065 7.47411 9.16193 8.31802 8.31802ZM11.5 8C10.5717 8 9.6815 8.36875 9.02513 9.02513C8.36875 9.6815 8 10.5717 8 11.5C8 12.4283 8.36875 13.3185 9.02513 13.9749C9.6815 14.6313 10.5717 15 11.5 15C12.4283 15 13.3185 14.6313 13.9749 13.9749C14.6313 13.3185 15 12.4283 15 11.5C15 10.5717 14.6313 9.6815 13.9749 9.02513C13.3185 8.36875 12.4283 8 11.5 8Z" fill="#3CB572"/>
<path fill-rule="evenodd" clip-rule="evenodd" d="M11.5 9C11.7761 9 12 9.22386 12 9.5V13.5C12 13.7761 11.7761 14 11.5 14C11.2239 14 11 13.7761 11 13.5V9.5C11 9.22386 11.2239 9 11.5 9Z" fill="#3CB572"/>
<path fill-rule="evenodd" clip-rule="evenodd" d="M13.3536 11.6464C13.5488 11.8417 13.5488 12.1583 13.3536 12.3536L11.8536 13.8536C11.6583 14.0488 11.3417 14.0488 11.1464 13.8536C10.9512 13.6583 10.9512 13.3417 11.1464 13.1464L12.6464 11.6464C12.8417 11.4512 13.1583 11.4512 13.3536 11.6464Z" fill="#3CB572"/>
<path fill-rule="evenodd" clip-rule="evenodd" d="M9.64645 11.6464C9.84171 11.4512 10.1583 11.4512 10.3536 11.6464L11.8536 13.1464C12.0488 13.3417 12.0488 13.6583 11.8536 13.8536C11.6583 14.0488 11.3417 14.0488 11.1464 13.8536L9.64645 12.3536C9.45118 12.1583 9.45118 11.8417 9.64645 11.6464Z" fill="#3CB572"/>
<path fill-rule="evenodd" clip-rule="evenodd" d="M1.5 1C1.36739 1 1.24021 1.05268 1.14645 1.14645C1.05268 1.24021 1 1.36739 1 1.5V12.5C1 12.6326 1.05268 12.7598 1.14645 12.8536C1.24022 12.9473 1.36739 13 1.5 13H5.5C5.77614 13 6 13.2239 6 13.5C6 13.7761 5.77614 14 5.5 14H1.5C1.10217 14 0.720644 13.842 0.43934 13.5607C0.158036 13.2794 0 12.8978 0 12.5V1.5C0 1.10218 0.158035 0.720644 0.43934 0.43934C0.720644 0.158035 1.10218 0 1.5 0H8.586C8.98355 8.4877e-05 9.36491 0.157982 9.64611 0.439L11.5609 2.35378C11.8419 2.63498 11.9999 3.01635 12 3.41389V5.5C12 5.77614 11.7761 6 11.5 6C11.2239 6 11 5.77614 11 5.5V3.41411C11 3.41407 11 3.41414 11 3.41411C10.9999 3.28163 10.9473 3.15448 10.8537 3.06077L8.93923 1.14633C8.93919 1.1463 8.93926 1.14637 8.93923 1.14633C8.84553 1.05276 8.71842 1.00006 8.586 1C8.58597 1 8.58604 1 8.586 1H1.5Z" fill="#3CB572"/>
</g>
<defs>
<clipPath id="clip0_830_7400">
<rect width="16" height="16" fill="white"/>
</clipPath>
</defs>
</svg>
