<?xml version="1.0" encoding="UTF-8" standalone="no"?>
<!DOCTYPE svg PUBLIC "-//W3C//DTD SVG 1.1//EN" "http://www.w3.org/Graphics/SVG/1.1/DTD/svg11.dtd">
<!-- Created with Vectornator (http://vectornator.io/) -->
<svg height="156.0pt" stroke-miterlimit="10" style="fill-rule:nonzero;clip-rule:evenodd;stroke-linecap:round;stroke-linejoin:round;" version="1.1" viewBox="0 0 156 156" width="156.0pt" xml:space="preserve" xmlns="http://www.w3.org/2000/svg" xmlns:xlink="http://www.w3.org/1999/xlink">
<defs/>
<g id="Sans-titre">
<path d="M60.1757 12.7727C55.9402 11.4823 51.652 14.6181 51.652 19.0058L51.652 89.5308L53.0434 91.8759L65.9127 68.1906C66.8829 66.7001 69.1103 66.7124 70.8878 68.218C71.5051 68.741 72.0125 69.4018 72.3494 70.1216L81.9445 104.184L128.755 118.445C132.99 119.735 137.279 116.599 137.279 112.212L137.279 41.0787C137.279 38.2157 135.393 35.6875 132.629 34.8456L60.1757 12.7727Z" fill="#ffffff" fill-rule="evenodd" opacity="0.5" stroke="none"/>
<path d="M43.7099 25.1633C39.4743 23.873 35.1862 27.0087 35.1862 31.3965L35.1862 100.956L42.4468 83.1229C43.3446 81.5728 45.5438 81.4871 47.3589 82.9314C48.0799 83.5051 48.6636 84.2652 49.0201 85.0948L53.0432 91.8753L65.9124 68.19C66.8826 66.6994 69.11 66.7117 70.8875 68.2174C71.5048 68.7403 72.0122 69.4011 72.3492 70.1209L85.3269 116.192C86.2971 118.265 85.6427 120.301 83.8652 120.74C83.3264 120.873 82.7223 120.847 82.1085 120.662L70.3276 117.128L70.8875 100.977L60.2319 114.31L38.3547 107.537C37.7154 107.345 37.1144 107.001 36.5911 106.555C37.4004 107.577 38.5184 108.361 39.8358 108.763L112.289 130.835C116.525 132.126 120.813 128.99 120.813 124.602L120.813 53.4693C120.813 50.6064 118.927 48.0782 116.163 47.2362L43.7099 25.1633Z" fill="#ffffff" fill-rule="evenodd" opacity="0.7" stroke="none"/>
<path d="M27.2446 37.5549C23.009 36.2646 18.7209 39.4003 18.7209 43.7881L18.7209 114.921C18.7209 117.784 20.6068 120.312 23.3705 121.154L95.8238 143.227C100.059 144.517 104.347 141.382 104.347 136.994L104.347 65.8609C104.347 62.998 102.462 60.4698 99.6981 59.6278L27.2446 37.5549ZM72.3492 70.123C72.0122 69.4032 71.5048 68.7424 70.8875 68.2195C69.11 66.7138 66.8826 66.7015 65.9124 68.192L53.0432 91.8773L49.0201 85.0969C48.6636 84.2673 48.0799 83.5071 47.3589 82.9335C45.5438 81.4892 43.3446 81.5749 42.4468 83.1249L35.068 101.248C34.8181 101.68 34.6881 102.199 34.6881 102.764C34.6881 104.793 36.3297 106.931 38.3547 107.539L60.2319 114.312L70.8875 100.979L70.3276 117.13L82.1085 120.665C82.7223 120.849 83.3264 120.875 83.8652 120.742C85.6427 120.303 86.2971 118.267 85.3269 116.194L72.3492 70.123Z" fill="#ffffff" fill-rule="evenodd" opacity="1" stroke="none"/>
</g>
</svg>
