<svg width="157" height="156" viewBox="0 0 157 156" fill="none" xmlns="http://www.w3.org/2000/svg">
<path opacity="0.5" fill-rule="evenodd" clip-rule="evenodd" d="M60.6726 12.7733C56.4371 11.4829 52.1489 14.6187 52.1489 19.0064V89.5314L53.5403 91.8765L66.4096 68.1912C67.3798 66.7007 69.6072 66.713 71.3847 68.2186C72.002 68.7416 72.5094 69.4024 72.8463 70.1222L82.4414 104.185L129.252 118.446C133.487 119.736 137.776 116.6 137.776 112.213V41.0793C137.776 38.2163 135.89 35.6881 133.126 34.8462L60.6726 12.7733Z" fill="white"/>
<path opacity="0.7" fill-rule="evenodd" clip-rule="evenodd" d="M44.2068 25.1639C39.9712 23.8736 35.6831 27.0093 35.6831 31.3971V100.957L42.9437 83.1235C43.8415 81.5734 46.0407 81.4877 47.8558 82.932C48.5768 83.5057 49.1605 84.2658 49.517 85.0954L53.5401 91.8759L66.4093 68.1906C67.3795 66.7 69.6069 66.7123 71.3844 68.218C72.0017 68.7409 72.5091 69.4017 72.8461 70.1215L85.8238 116.193C86.794 118.266 86.1396 120.302 84.3621 120.741C83.8233 120.874 83.2192 120.848 82.6054 120.663L70.8245 117.129L71.3844 100.978L60.7288 114.311L38.8516 107.538C38.2123 107.346 37.6113 107.002 37.088 106.556C37.8973 107.578 39.0153 108.362 40.3327 108.764L112.786 130.836C117.022 132.127 121.31 128.991 121.31 124.603V53.4699C121.31 50.607 119.424 48.0788 116.66 47.2368L44.2068 25.1639Z" fill="white"/>
<path fill-rule="evenodd" clip-rule="evenodd" d="M27.7415 37.5555C23.5059 36.2652 19.2178 39.4009 19.2178 43.7887V114.922C19.2178 117.785 21.1037 120.313 23.8674 121.155L96.3207 143.228C100.556 144.518 104.844 141.383 104.844 136.995V65.8615C104.844 62.9986 102.959 60.4704 100.195 59.6284L27.7415 37.5555ZM72.8461 70.1236C72.5091 69.4038 72.0017 68.743 71.3844 68.2201C69.6069 66.7144 67.3795 66.7021 66.4093 68.1926L53.5401 91.8779L49.517 85.0975C49.1605 84.2679 48.5768 83.5077 47.8558 82.9341C46.0407 81.4898 43.8415 81.5755 42.9437 83.1255L35.5649 101.249C35.315 101.681 35.185 102.2 35.185 102.765C35.185 104.794 36.8266 106.932 38.8516 107.54L60.7288 114.313L71.3844 100.98L70.8245 117.131L82.6054 120.666C83.2192 120.85 83.8233 120.876 84.3621 120.743C86.1396 120.304 86.794 118.268 85.8238 116.195L72.8461 70.1236Z" fill="white"/>
</svg>
