<svg width="138" height="90" viewBox="0 0 138 90" fill="none" xmlns="http://www.w3.org/2000/svg">
<g clip-path="url(#clip0_981_9771)">
<path d="M24.3145 66.3262L38.7482 57.9928L30.415 43.5592L15.9812 51.8926L24.3145 66.3262Z" stroke="#3CB572" stroke-width="2.77778" stroke-linecap="round" stroke-linejoin="round"/>
<path d="M103.998 87.6748L118.432 79.3415L110.099 64.9079L95.6648 73.2412L103.998 87.6748Z" stroke="#3CB572" stroke-width="2.77778" stroke-linecap="round" stroke-linejoin="round"/>
<path d="M32.647 80.7568L61.5145 64.0902L57.3479 56.8734" stroke="#3CB572" stroke-width="2.77778" stroke-linecap="round" stroke-linejoin="round"/>
<path d="M71.7817 48.54L59.2819 26.8896L80.9325 14.3896L93.4324 36.04L86.2155 40.2067" stroke="#3CB572" stroke-width="2.77778" stroke-linecap="round" stroke-linejoin="round"/>
<path d="M49.0142 42.4395L44.8475 35.2227" stroke="#3CB572" stroke-width="2.77778" stroke-linecap="round" stroke-linejoin="round"/>
<path d="M82.3477 100.175L69.8478 78.5244L77.0647 74.3577" stroke="#3CB572" stroke-width="2.77778" stroke-linecap="round" stroke-linejoin="round"/>
<path d="M87.333 58.8096L101.767 50.4762" stroke="#3CB572" stroke-width="2.77778" stroke-linecap="round" stroke-linejoin="round"/>
</g>
<defs>
<clipPath id="clip0_981_9771">
<rect width="100" height="100" fill="white" transform="matrix(0.866025 -0.5 -0.5 -0.866025 50.4668 136.623)"/>
</clipPath>
</defs>
</svg>
