<svg width="265" height="157" fill="none" xmlns="http://www.w3.org/2000/svg"><g clip-path="url(#a)"><path d="m181.297 59.5808 20.889-3.9412-2.587 35.3561-20.092-6.9387c-2.563-.885-4.762-2.5087-5.551-4.9589-.628-1.9506-1.132-4.603-.897-7.8163.235-3.2133 1.12-5.7642 2.025-7.6026 1.137-2.3093 3.549-3.5958 6.213-4.0984Z" fill="#E3F6DC" stroke="#014958"/><path d="M220.61 74.5592c-.74 10.1214-8.645 17.7921-17.655 17.133-9.011-.659-15.715-9.3983-14.975-19.5197.741-10.1213 8.645-17.7921 17.656-17.133 9.01.6591 15.714 9.3983 14.974 19.5197Z" fill="#014958" stroke="#014958"/><path fill-rule="evenodd" clip-rule="evenodd" d="M193.976 86.4726a11.453 11.453 0 0 0 3.242.7182c6.973.51 13.088-5.3803 13.657-13.1565.568-7.7762-4.624-14.4935-11.598-15.0035a11.445 11.445 0 0 0-3.311.239c-3.991 2.7685-6.806 7.5471-7.216 13.1463-.409 5.5994 1.681 10.7369 5.226 14.0565Z" fill="#3CB572"/><ellipse cx="132.041" cy="136.531" rx="132.041" ry="20.5308" fill="#014958"/><path d="m181.956 87.8932-3.569 22.1938-6.323-21.5715c-.774-2.6407.695-5.4176 3.314-6.2637 3.611-1.167 7.181 1.8941 6.578 5.6414Z" fill="#fff" stroke="#014958"/><path d="M90.1333 62.6218C92.447 41.22 110.515 25 132.042 25c21.526 0 39.594 16.22 41.908 37.6218L183.991 155.5l-11.077.5c-7.127-9.786-21.49-10.439-29.476-1.34l-2.053 2.34h-18.687l-2.053-2.34c-7.986-9.099-22.3488-8.446-29.476 1.34l-11.0655-.603 10.0298-92.7752Z" fill="#fff"/><path d="M183.991 155.5 173.95 62.6218C171.636 41.22 153.568 25 132.042 25c-21.527 0-39.595 16.22-41.9087 37.6218L80.1035 155.397M91.169 156c7.1272-9.786 21.49-10.439 29.476-1.34l2.053 2.34m18.687 0 2.053-2.34c7.986-9.099 22.349-8.446 29.476 1.34" stroke="#014958"/><path d="m116.521 68.7791 25.633-5.4866-1.518 20.7487-24.561-9.1581c-1.328-.4949-2.169-1.8065-2.066-3.2194.104-1.4129 1.127-2.5881 2.512-2.8846Z" fill="#fff" stroke="#014958"/><path d="m144.373 61.5808 20.889-3.9412-2.587 35.3561-20.092-6.9387c-2.563-.885-4.762-2.5087-5.551-4.9589-.628-1.9506-1.132-4.603-.897-7.8163.235-3.2133 1.12-5.7642 2.025-7.6026 1.137-2.3093 3.549-3.5958 6.213-4.0984Z" fill="#E3F6DC" stroke="#014958"/><path d="M183.686 76.5592c-.74 10.1214-8.645 17.7921-17.655 17.133-9.011-.659-15.715-9.3983-14.975-19.5197.741-10.1213 8.645-17.7921 17.656-17.133 9.01.6591 15.714 9.3983 14.974 19.5197Z" fill="#014958" stroke="#014958"/><path fill-rule="evenodd" clip-rule="evenodd" d="M156.976 88.4726a11.453 11.453 0 0 0 3.242.7182c6.973.51 13.088-5.3803 13.657-13.1565.568-7.7762-4.624-14.4935-11.598-15.0035a11.445 11.445 0 0 0-3.311.239c-3.991 2.7685-6.806 7.5471-7.216 13.1463-.409 5.5994 1.681 10.7369 5.226 14.0565Z" fill="#3CB572"/><path d="m134.224 96.1644 6.574-11.2133c2.031-3.4649.869-7.9203-2.596-9.9514-3.465-2.0312-7.921-.8689-9.952 2.596l-6.573 11.2133c-2.031 3.4648-.869 7.9202 2.596 9.9514 3.465 2.0306 7.92.8688 9.951-2.596Z" fill="#fff"/><path d="m130.548 102.438 10.251-17.4869c2.031-3.4649.869-7.9203-2.596-9.9514-3.465-2.0312-7.921-.8689-9.952 2.596L118 95.0827" stroke="#014958"/><path d="M93.2948 14.9594c.7155 1.2798.3175 2.6869-.2672 3.7918-.5339 1.0058-.6947 1.4139-.2805 2.1548l.2334.4176-1.2528.7004-.256-.458c-.6327-1.1316-.359-1.9388.36-3.2778.4519-.8362.703-1.6838.2135-2.5594-.4745-.8487-1.5376-.9793-2.5749-.3994-1.5088.8435-1.4063 2.1653-1.0008 3.0172l-1.2259.6853c-.9656-1.7587-.2316-3.672 1.6813-4.7414 1.5222-.851 3.4587-.9611 4.3699.6689Zm-.0917 9.9883-.8661-1.5492 1.5492-.8661.8661 1.5492-1.5492.8661Z" fill="#3CB572"/><path d="M162.742 1.8546c-.004.9914-.705 1.6881-1.417 2.1448-.648.4151-.879.6021-.881 1.1762l-.001.3235-.97-.0035.001-.3548c.003-.8767.432-1.2613 1.301-1.8113.544-.3425.973-.7584.975-1.4367.003-.6575-.58-1.0875-1.384-1.0904-1.169-.0042-1.547.8085-1.591 1.445l-.95-.0035c.015-1.3566 1.083-2.24 2.565-2.2346 1.179.0042 2.356.5825 2.352 1.8453Zm-3.371 5.8532.004-1.2002 1.2.0043-.004 1.2002-1.2-.0043Z" fill="#014958"/><path d="M179.528 15.0453c-.631 1.7603-2.318 2.5565-3.871 2.9198-1.414.329-1.942.5163-2.307 1.5355l-.206.5744-1.724-.6182.226-.6301c.559-1.5565 1.564-1.9696 3.455-2.3999 1.183-.2658 2.208-.7345 2.641-1.939.418-1.1674-.347-2.2994-1.774-2.8113-2.075-.7445-3.261.4615-3.74 1.5653l-1.687-.6049c.883-2.4023 3.338-3.2994 5.97-2.3554 2.094.7512 3.822 2.5216 3.017 4.7638Zm-9.684 8.2801.765-2.131 2.131.7645-.765 2.131-2.131-.7645Z" fill="#3CB572"/></g><defs><clipPath id="a"><path fill="#fff" d="M0 0h265v157H0z"/></clipPath></defs></svg>