<svg width="25" height="24" viewBox="0 0 25 24" fill="none" xmlns="http://www.w3.org/2000/svg">
<g clip-path="url(#clip0_517_6012)">
<path d="M12.501 7.49701V16.497" stroke="#014958" stroke-width="1.5" stroke-linecap="round" stroke-linejoin="round"/>
<path d="M8.75101 11.247L12.501 7.49701L16.251 11.247" stroke="#014958" stroke-width="1.5" stroke-linecap="round" stroke-linejoin="round"/>
<path d="M1.25101 11.997C1.25101 14.9807 2.43627 17.8422 4.54606 19.952C6.65584 22.0617 9.51732 23.247 12.501 23.247C15.4847 23.247 18.3462 22.0617 20.456 19.952C22.5657 17.8422 23.751 14.9807 23.751 11.997C23.751 9.01332 22.5657 6.15184 20.456 4.04206C18.3462 1.93227 15.4847 0.747009 12.501 0.747009C9.51732 0.747009 6.65584 1.93227 4.54606 4.04206C2.43627 6.15184 1.25101 9.01332 1.25101 11.997Z" stroke="#014958" stroke-width="1.5" stroke-linecap="round" stroke-linejoin="round"/>
</g>
<defs>
<clipPath id="clip0_517_6012">
<rect width="24" height="24" fill="white" transform="translate(0.5)"/>
</clipPath>
</defs>
</svg>
