<svg width="16" height="16" viewBox="0 0 16 16" fill="none" xmlns="http://www.w3.org/2000/svg">
<path d="M8.56431 8.96266H1.52697C1.12863 8.96266 0.73029 8.82987 0.46473 8.49792C0.19917 8.23236 0 7.83402 0 7.43568V1.46058C0 1.06224 0.13278 0.6639 0.46473 0.39834C0.796681 0.13278 1.12863 0 1.52697 0H13.4772C13.8755 0 14.2739 0.13278 14.5394 0.46473C14.805 0.79668 15.0041 1.12863 15.0041 1.52697V5.51037C15.0041 5.77593 14.805 6.04149 14.473 6.04149C14.1411 6.04149 14.0083 5.77593 14.0083 5.44398V1.46058C14.0083 1.3278 13.9419 1.19502 13.8755 1.12863C13.8091 1.06224 13.6763 0.995851 13.5436 0.995851H1.59336C1.39419 0.995851 1.3278 1.06224 1.19502 1.12863C1.12863 1.26141 1.06224 1.39419 1.06224 1.46058V7.43568C1.06224 7.56846 1.12863 7.70124 1.19502 7.76763C1.3278 7.90041 1.39419 7.9668 1.52697 7.9668H8.49792C8.76348 7.9668 9.02905 8.16597 9.02905 8.49792C9.02905 8.76348 8.82987 8.96266 8.56431 8.96266Z" fill="#3CB572"/>
<path d="M3.51867 5.24481C3.45228 5.24481 3.3195 5.24481 3.25311 5.17842C3.12033 5.11203 2.98755 5.04564 2.92116 4.91286C2.85477 4.78008 2.78838 4.6473 2.78838 4.44813C2.78838 4.31535 2.78838 4.24896 2.85477 4.18257C2.92116 4.11618 2.92116 4.04979 3.05394 3.9834C3.12033 3.91701 3.18672 3.85062 3.3195 3.85062C3.58506 3.78423 3.78423 3.78423 4.04979 3.91701C4.18257 3.9834 4.24896 4.11618 4.31535 4.24896C4.31535 4.31535 4.31535 4.51452 4.31535 4.6473C4.31535 4.78008 4.24896 4.91286 4.11618 5.04564C3.9834 5.11203 3.85062 5.17842 3.71784 5.24481C3.65145 5.24481 3.58506 5.24481 3.51867 5.24481Z" fill="#3CB572"/>
<path d="M7.50207 5.24481C7.43568 5.24481 7.3029 5.24481 7.23651 5.17842C7.10373 5.11203 6.97095 5.04564 6.90456 4.91286C6.83817 4.78008 6.77178 4.6473 6.77178 4.51452C6.77178 4.38174 6.77178 4.31535 6.83817 4.24896C6.90456 4.18257 6.90456 4.04979 6.97095 3.9834C7.03734 3.91701 7.10373 3.85062 7.23651 3.85062C7.50207 3.78423 7.76763 3.78423 7.9668 3.91701C8.09958 3.9834 8.16597 4.11618 8.23236 4.24896C8.29875 4.38174 8.29875 4.51452 8.29875 4.71369C8.29875 4.84647 8.23237 4.97925 8.09959 5.11203C7.9668 5.24481 7.83402 5.3112 7.70124 5.3112C7.63485 5.24481 7.56846 5.24481 7.50207 5.24481Z" fill="#3CB572"/>
<path d="M11.4855 5.24481C11.4191 5.24481 11.2863 5.24481 11.2199 5.17842C11.0871 5.11203 10.9544 5.04564 10.888 4.91286C10.8216 4.78008 10.7552 4.6473 10.7552 4.44813C10.7552 4.38174 10.7552 4.24896 10.8216 4.18257C10.888 4.11618 10.888 3.9834 10.9544 3.91701C11.0207 3.85062 11.0871 3.78423 11.2199 3.78423C11.4855 3.71784 11.751 3.71784 11.9502 3.85062C12.083 3.91701 12.1494 4.04979 12.2158 4.18257C12.2822 4.31535 12.2822 4.44813 12.2822 4.58091C12.2822 4.71369 12.1494 4.84647 12.083 4.97925C11.9502 5.11203 11.8174 5.17842 11.6846 5.17842C11.6183 5.24481 11.5519 5.24481 11.4855 5.24481Z" fill="#3CB572"/>
<path fill-rule="evenodd" clip-rule="evenodd" d="M15.1369 9.82573C15.0705 9.82573 15.0041 9.75934 15.0041 9.69295V9.02905C15.0041 7.76763 13.9419 6.70539 12.6805 6.70539C11.4191 6.70539 10.3568 7.76763 10.3568 9.02905V9.69295C10.3568 9.75934 10.2905 9.82573 10.2241 9.82573C9.75934 9.89212 9.361 10.2905 9.361 10.8216V14.473C9.361 15.0041 9.82573 15.4689 10.3568 15.4689H15.0041C15.5353 15.4689 16 15.0041 16 14.473V10.8216C16 10.2905 15.668 9.89212 15.1369 9.82573ZM12.6805 13.61C12.2822 13.61 12.0166 13.3444 12.0166 12.9461C12.0166 12.5477 12.2822 12.2822 12.6805 12.2822C13.0788 12.2822 13.3444 12.5477 13.3444 12.9461C13.3444 13.3444 13.0788 13.61 12.6805 13.61ZM13.4772 9.75934C13.5436 9.75934 13.61 9.69295 13.61 9.62656V8.96266C13.61 8.43153 13.1452 7.9668 12.6141 7.9668C12.083 7.9668 11.6183 8.43153 11.6183 8.96266V9.62656C11.6183 9.69295 11.6846 9.75934 11.751 9.75934H13.4772Z" fill="#3CB572"/>
</svg>
