<?xml version="1.0" encoding="UTF-8" standalone="no"?>
<!DOCTYPE svg PUBLIC "-//W3C//DTD SVG 1.1//EN" "http://www.w3.org/Graphics/SVG/1.1/DTD/svg11.dtd">
<!-- Created with Vectornator (http://vectornator.io/) -->
<svg height="24.0pt" stroke-miterlimit="10" style="fill-rule:nonzero;clip-rule:evenodd;stroke-linecap:round;stroke-linejoin:round;" version="1.1" viewBox="0 0 24 24" width="24.0pt" xml:space="preserve" xmlns="http://www.w3.org/2000/svg" xmlns:xlink="http://www.w3.org/1999/xlink">
<defs/>
<g id="Sans-titre">
<path d="M17.3468 8.04072C17.4209 8.04072 17.4935 8.06271 17.5551 8.10392C17.6168 8.14512 17.6649 8.20369 17.6932 8.27221C17.7216 8.34074 17.729 8.41614 17.7146 8.48888C17.7001 8.56162 17.6644 8.62844 17.6119 8.68088C17.5595 8.73333 17.4927 8.76909 17.4199 8.78349C17.3472 8.79799 17.2718 8.79059 17.2033 8.76217C17.1348 8.73379 17.0762 8.68573 17.035 8.62406C16.9938 8.56239 16.9718 8.48989 16.9718 8.41572C16.9716 8.36644 16.9813 8.31761 17.0001 8.27206C17.0189 8.2265 17.0465 8.18511 17.0813 8.15026C17.1162 8.11541 17.1576 8.0878 17.2031 8.069C17.2487 8.0502 17.2975 8.04059 17.3468 8.04072" fill="none" opacity="1" stroke="#000000" stroke-linecap="round" stroke-linejoin="round" stroke-width="1.5"/>
<path d="M11.3468 8.04072C11.4209 8.04072 11.4935 8.06271 11.5551 8.10392C11.6168 8.14512 11.6649 8.20369 11.6932 8.27221C11.7216 8.34074 11.729 8.41614 11.7146 8.48888C11.7001 8.56162 11.6644 8.62844 11.6119 8.68088C11.5595 8.73333 11.4927 8.76909 11.4199 8.78349C11.3472 8.79799 11.2718 8.79059 11.2033 8.76217C11.1348 8.73379 11.0762 8.68573 11.035 8.62406C10.9938 8.56239 10.9718 8.48989 10.9718 8.41572C10.9716 8.36644 10.9813 8.31761 11.0001 8.27206C11.0189 8.2265 11.0465 8.18511 11.0813 8.15026C11.1162 8.11541 11.1576 8.0878 11.2031 8.069C11.2487 8.0502 11.2975 8.04059 11.3468 8.04072" fill="none" opacity="1" stroke="#000000" stroke-linecap="round" stroke-linejoin="round" stroke-width="1.5"/>
<path d="M5.34674 8.04072C5.42091 8.04072 5.49341 8.06271 5.55508 8.10392C5.61675 8.14512 5.66481 8.20369 5.6932 8.27221C5.72158 8.34074 5.729 8.41614 5.71454 8.48888C5.70007 8.56162 5.66435 8.62844 5.61191 8.68088C5.55946 8.73333 5.49264 8.76909 5.4199 8.78349C5.34716 8.79799 5.27176 8.79059 5.20323 8.76217C5.13471 8.73379 5.07615 8.68573 5.03494 8.62406C4.99373 8.56239 4.97174 8.48989 4.97174 8.41572C4.97161 8.36644 4.98122 8.31761 5.00002 8.27206C5.01882 8.2265 5.04643 8.18511 5.08128 8.15026C5.11613 8.11541 5.15752 8.0878 5.20308 8.069C5.24864 8.0502 5.29746 8.04059 5.34674 8.04072" fill="none" opacity="1" stroke="#000000" stroke-linecap="round" stroke-linejoin="round" stroke-width="1.5"/>
<path d="M11.6048 14.4157L2.34674 14.4157C1.94891 14.4157 1.56738 14.2577 1.28608 13.9764C1.00477 13.6951 0.84674 13.3136 0.84674 12.9157L0.84674 3.91572C0.84674 3.51789 1.00477 3.13636 1.28608 2.85506C1.56738 2.57375 1.94891 2.41572 2.34674 2.41572L21.6533 2.41572C22.0511 2.41572 22.4326 2.57375 22.7139 2.85506C22.9952 3.13636 23.1533 3.51789 23.1533 3.91572L23.1533 11.5512" fill="none" opacity="1" stroke="#000000" stroke-linecap="round" stroke-linejoin="round" stroke-width="1.5"/>
<path d="M16.6303 13.1221C16.982 12.803 17.4736 12.6125 18.0001 12.6125C18.5266 12.6125 19.0182 12.803 19.3699 13.1221C19.719 13.439 19.8991 13.8519 19.8991 14.2647L19.8991 15.2212L16.1011 15.2212L16.1011 14.2647C16.1011 13.8519 16.2812 13.439 16.6303 13.1221ZM22.2161 21.5691C23.0001 21.5691 23.0001 21.5699 23.0001 21.5699L22.2161 21.5691ZM23.0001 21.5726L23.0001 21.5699L23.0001 16.6995C23.0001 16.3724 22.9066 16.0769 22.7286 15.8345C22.5569 15.6009 22.3398 15.4612 22.1573 15.3783C21.976 15.2961 21.8051 15.2588 21.6868 15.2409C21.6257 15.2317 21.5732 15.2268 21.5333 15.2242C21.5132 15.2229 21.496 15.2222 21.4819 15.2218L21.467 15.2214L21.467 14.2647C21.467 13.386 21.0817 12.5603 20.4246 11.964C19.7699 11.3699 18.8967 11.0473 18.0001 11.0473C17.1035 11.0473 16.2303 11.3699 15.5756 11.964C14.9185 12.5603 14.5332 13.386 14.5332 14.2647L14.5332 15.2213C14.2256 15.224 13.9433 15.2967 13.7011 15.4433C13.4559 15.5916 13.2949 15.7894 13.193 15.9745C13.0934 16.1552 13.0473 16.3278 13.0249 16.4497C13.0134 16.5123 13.0073 16.5664 13.004 16.6083C13.0023 16.6294 13.0014 16.6478 13.0008 16.663L13.0002 16.6836L13.0001 16.6922L13.0001 16.696L13.0001 16.6978L13.0001 16.6995L13.0001 21.5691C13.0001 21.8962 13.0936 22.1917 13.2716 22.434C13.4433 22.6677 13.6604 22.8074 13.8429 22.8902C14.0242 22.9725 14.1951 23.0097 14.3134 23.0276C14.3745 23.0369 14.427 23.0417 14.4669 23.0443C14.487 23.0456 14.5042 23.0464 14.5183 23.0468L14.5369 23.0472L14.5444 23.0473L14.5477 23.0473L14.5492 23.0473L14.5506 23.0473L21.4496 23.0473C21.764 23.0473 22.0523 22.9746 22.2991 22.8253C22.5443 22.6769 22.7053 22.4791 22.8072 22.294C22.9068 22.1134 22.9529 21.9408 22.9753 21.8189C22.9868 21.7563 22.9929 21.7021 22.9962 21.6603C22.9979 21.6392 22.9988 21.6208 22.9994 21.6055L23 21.5849L23.0001 21.5764L23.0001 21.5726ZM18.7501 18.4431C18.7501 18.0288 18.4143 17.6931 18.0001 17.6931C17.5859 17.6931 17.2501 18.0288 17.2501 18.4431L17.2501 19.9431C17.2501 20.3573 17.5859 20.6931 18.0001 20.6931C18.4143 20.6931 18.7501 20.3573 18.7501 19.9431L18.7501 18.4431Z" fill="#000000" fill-rule="evenodd" opacity="1" stroke="none"/>
</g>
</svg>
