<svg width="501" height="500" viewBox="0 0 501 500" fill="none" xmlns="http://www.w3.org/2000/svg">
<ellipse cx="238.104" cy="84.5" rx="5.5" ry="31" transform="rotate(-90 238.104 84.5)" fill="#014958"/>
<path d="M218.504 278.84L219.004 278.829C219.004 278.829 219.004 278.829 219.004 278.829C219.198 287.575 219.771 293.56 220.604 297.348C221.022 299.246 221.498 300.554 221.999 301.375C222.502 302.199 222.967 302.439 223.355 302.439C223.786 302.439 224.235 302.274 224.705 301.725C225.193 301.155 225.692 300.181 226.16 298.592C227.095 295.418 227.856 289.969 228.282 280.916C228.758 270.811 229.375 262.793 230.091 257.243C230.449 254.47 230.833 252.296 231.242 250.781C231.446 250.026 231.662 249.412 231.895 248.962C232.011 248.737 232.141 248.537 232.288 248.378C232.435 248.22 232.623 248.077 232.858 248.02C233.229 247.929 233.582 248.039 233.871 248.3C234.137 248.54 234.353 248.907 234.541 249.368C234.921 250.297 235.264 251.806 235.571 254.079C236.187 258.641 236.677 266.433 236.943 279.198C237.104 286.992 237.343 295.264 238.07 301.585C238.434 304.75 238.918 307.392 239.561 309.232C239.884 310.154 240.235 310.838 240.605 311.284C240.971 311.724 241.317 311.891 241.653 311.891C242.196 311.891 242.68 311.759 243.132 311.356C243.602 310.937 244.08 310.187 244.511 308.861C245.374 306.202 245.983 301.434 246.138 293.049L246.138 293.049C246.465 275.36 246.851 264.255 247.353 257.57C247.603 254.231 247.884 251.971 248.208 250.537C248.369 249.825 248.548 249.279 248.761 248.901C248.965 248.536 249.282 248.19 249.757 248.19C250.117 248.19 250.365 248.432 250.511 248.626C250.669 248.836 250.804 249.115 250.925 249.429C251.168 250.062 251.397 250.956 251.612 252.035C252.044 254.201 252.442 257.202 252.794 260.569C253.499 267.307 254.025 275.563 254.267 281.649C254.51 287.73 254.853 293.168 255.612 297.081C255.992 299.041 256.469 300.574 257.063 301.605C257.655 302.632 258.301 303.067 259.015 303.067C259.327 303.067 259.627 302.933 259.93 302.597C260.243 302.25 260.54 301.706 260.808 300.947C261.343 299.431 261.714 297.201 261.952 294.398C262.426 288.803 262.359 281.075 262.115 272.564L262.115 272.564C262.026 269.436 261.933 266.594 261.85 264.037C261.708 259.644 261.592 256.092 261.568 253.373C261.548 251.224 261.584 249.569 261.713 248.42C261.776 247.849 261.866 247.373 261.996 247.014C262.115 246.685 262.324 246.3 262.733 246.176L262.756 246.169L262.78 246.164C262.997 246.121 263.184 246.192 263.315 246.276C263.441 246.357 263.544 246.469 263.627 246.578C263.794 246.797 263.953 247.105 264.107 247.471C264.417 248.209 264.749 249.295 265.078 250.677C265.738 253.449 266.401 257.479 266.846 262.467L266.846 262.467C266.895 263.014 266.941 263.554 266.987 264.084C267.27 267.354 267.523 270.274 268.002 272.451C268.281 273.719 268.625 274.672 269.056 275.284C269.467 275.868 269.928 276.107 270.51 276.057C270.753 276.036 271.087 275.805 271.434 275.01C271.765 274.25 272.033 273.135 272.238 271.723C272.648 268.908 272.792 265.048 272.789 260.811C272.784 254.759 272.478 247.996 272.23 242.499C272.13 240.301 272.04 238.306 271.982 236.639L271.982 236.639C271.937 235.343 271.9 233.813 271.86 232.101C271.618 221.833 271.222 205.045 267.815 193.269L268.296 193.13L267.815 193.269C265.969 186.883 263.819 181.638 262.023 177.671C261.217 175.891 260.482 174.368 259.875 173.112C259.806 172.968 259.738 172.827 259.672 172.69C259.036 171.372 258.549 170.348 258.32 169.676L258.32 169.676C258.156 169.195 258.033 168.452 257.938 167.52C257.84 166.576 257.767 165.401 257.715 164.031C257.611 161.291 257.589 157.753 257.628 153.697C257.706 145.585 258.029 135.383 258.432 125.321C259.202 106.087 260.264 87.3304 260.461 84.6454C260.294 84.5258 260.058 84.3989 259.742 84.2705C259.307 84.0937 258.755 83.9274 258.096 83.7735C256.776 83.4658 255.066 83.2171 253.084 83.0242C249.123 82.6387 244.125 82.4805 239.095 82.5018C234.065 82.5231 229.015 82.7237 224.951 83.0535C222.919 83.2184 221.14 83.4152 219.736 83.6367C218.579 83.8194 217.717 84.0134 217.181 84.2045C217.057 84.2488 216.95 84.293 216.861 84.3368L216.652 83.9196C216.842 85.9754 217.028 87.9795 217.209 89.9337C222.152 143.315 223.645 159.446 220.009 174.254C217.558 184.232 214.858 202.72 216.681 227.525C218.054 246.199 218.176 255.915 218.316 267.048C218.362 270.703 218.41 274.511 218.504 278.84ZM218.504 278.84C218.892 296.349 220.798 302.939 223.355 302.939C225.731 302.939 227.928 299.058 228.782 280.939C229.733 260.74 231.246 248.93 232.977 248.505C234.481 248.136 235.912 253.683 236.443 279.209C236.766 294.789 237.398 312.391 241.653 312.391C244.205 312.391 246.328 309.834 246.637 293.058M218.504 278.84L246.637 293.058M246.637 293.058C247.293 257.68 248.179 248.69 249.757 248.69C251.668 248.69 253.283 269.513 253.768 281.669C254.252 293.824 255.143 303.567 259.015 303.567C262.887 303.567 263.104 289.569 262.614 272.549C262.525 269.414 262.433 266.569 262.35 264.011C261.982 252.679 261.797 246.982 262.878 246.655L246.637 293.058Z" fill="#CF9E1B" stroke="#014958"/>
<path d="M373.129 411.235C381.072 412.723 389.585 408.974 393.257 398.151" stroke="#3CB572" stroke-width="2" stroke-linecap="round"/>
<path d="M381.226 417.603C386.716 418.661 392.558 416.218 395.006 409.003" stroke="#3CB572" stroke-width="2" stroke-linecap="round"/>
<path d="M146.355 219.952C138.007 218.896 129.39 223.318 126.242 234.794" stroke="#014958" stroke-width="2" stroke-linecap="round"/>
<path d="M137.545 213.833C131.774 213.072 125.853 215.972 123.754 223.622" stroke="#014958" stroke-width="2" stroke-linecap="round"/>
<rect x="248.69" y="261.359" width="87.8889" height="159" rx="3.05556" transform="rotate(-15 248.69 261.359)" fill="white" stroke="#014958"/>
<rect x="265.62" y="278.392" width="64" height="71.1111" rx="1.77778" transform="rotate(-15 265.62 278.392)" fill="#E3F6DC"/>
<ellipse cx="305.732" cy="304.454" rx="21.3333" ry="21.3333" transform="rotate(-15 305.732 304.454)" fill="white"/>
<path d="M295.544 300.024C294.341 300.346 293.665 301.591 293.981 302.772L296.742 313.075C297.059 314.256 298.266 314.996 299.47 314.674L316.268 310.172C317.472 309.85 318.148 308.606 317.831 307.424L315.071 297.121C314.754 295.94 313.547 295.2 312.343 295.523L295.544 300.024ZM298.513 312.601L295.935 302.981L305.949 307.497C306.346 307.677 306.815 307.551 307.07 307.197L313.483 298.28L316.06 307.899C316.125 308.138 315.984 308.351 315.794 308.402L298.995 312.903C298.805 312.954 298.577 312.84 298.513 312.601ZM297.114 301.501L311.724 297.586L306.019 305.518L297.114 301.501Z" fill="#3CB572" stroke="#3CB572" stroke-width="0.5" stroke-linecap="round" stroke-linejoin="round"/>
<path d="M313.766 361.771L309.326 354.819L311.362 362.415L310.136 362.744L307.801 354.029L309.856 353.478L314.025 360.143L314.304 352.287L316.359 351.736L318.694 360.451L317.468 360.779L315.433 353.182L315.064 361.423L313.766 361.771ZM319.749 358.339C319.34 356.812 320.94 355.907 323.516 354.894L323.474 354.738C323.158 353.56 322.391 353.341 321.585 353.556C320.684 353.798 320.287 354.433 320.452 355.239L319.322 355.542C319.056 354.118 320.073 353.008 321.335 352.67C323.114 352.193 324.148 352.831 324.622 354.649L325.01 356.143C325.288 357.228 325.547 357.957 325.832 358.538L324.726 358.835C324.626 358.604 324.519 358.349 324.404 357.968C324.184 358.735 323.614 359.3 322.472 359.606C321.258 359.931 320.068 359.529 319.749 358.339ZM323.832 355.737C321.903 356.473 320.718 357.1 320.957 357.989C321.121 358.602 321.699 358.885 322.481 358.676C323.502 358.402 324.35 357.673 323.941 356.146L323.832 355.737ZM326.064 349.135L326.419 350.458L325.325 350.751L324.97 349.429L326.064 349.135ZM326.667 351.383L328.399 357.85L327.306 358.143L325.573 351.676L326.667 351.383ZM331.228 357.092L330.135 357.385L327.799 348.671L328.893 348.377L331.228 357.092Z" fill="#014958"/>
<rect x="144.843" y="238.612" width="87.8889" height="159" rx="3.05556" transform="rotate(15 144.843 238.612)" fill="white" stroke="#014958"/>
<rect x="149.271" y="261.367" width="65.7778" height="71.1111" rx="1.77778" transform="rotate(15 149.271 261.367)" fill="#E3F6DC"/>
<path d="M159.16 280.95L159.712 278.89L157.651 278.338L157.099 280.398L159.16 280.95Z" fill="#014958"/>
<path d="M158.606 283.011L159.158 280.95L157.098 280.398L156.546 282.459L158.606 283.011Z" fill="#014958"/>
<path d="M158.056 285.071L158.608 283.011L156.548 282.459L155.996 284.519L158.056 285.071Z" fill="#014958"/>
<path d="M157.504 287.132L158.056 285.071L155.995 284.519L155.443 286.58L157.504 287.132Z" fill="#014958"/>
<path d="M156.95 289.192L157.502 287.132L155.441 286.58L154.889 288.64L156.95 289.192Z" fill="#014958"/>
<path d="M156.398 291.253L156.95 289.192L154.89 288.64L154.338 290.701L156.398 291.253Z" fill="#014958"/>
<path d="M161.219 281.502L161.771 279.441L159.711 278.889L159.159 280.95L161.219 281.502Z" fill="#014958"/>
<path d="M158.458 291.806L159.01 289.745L156.949 289.193L156.397 291.254L158.458 291.806Z" fill="#014958"/>
<path d="M163.282 282.055L163.834 279.994L161.773 279.442L161.221 281.503L163.282 282.055Z" fill="#014958"/>
<path d="M162.176 286.176L162.729 284.115L160.668 283.563L160.116 285.624L162.176 286.176Z" fill="#014958"/>
<path d="M161.625 288.236L162.177 286.176L160.116 285.624L159.564 287.684L161.625 288.236Z" fill="#014958"/>
<path d="M160.519 292.357L161.071 290.297L159.011 289.745L158.459 291.805L160.519 292.357Z" fill="#014958"/>
<path d="M165.341 282.606L165.894 280.546L163.833 279.994L163.281 282.054L165.341 282.606Z" fill="#014958"/>
<path d="M164.238 286.728L164.79 284.667L162.729 284.115L162.177 286.175L164.238 286.728Z" fill="#014958"/>
<path d="M163.684 288.788L164.236 286.728L162.176 286.175L161.624 288.236L163.684 288.788Z" fill="#014958"/>
<path d="M162.581 292.909L163.133 290.849L161.072 290.297L160.52 292.357L162.581 292.909Z" fill="#014958"/>
<path d="M167.403 283.16L167.955 281.1L165.895 280.547L165.342 282.608L167.403 283.16Z" fill="#014958"/>
<path d="M164.639 293.462L165.191 291.401L163.131 290.849L162.579 292.91L164.639 293.462Z" fill="#014958"/>
<path d="M169.462 283.712L170.014 281.651L167.953 281.099L167.401 283.16L169.462 283.712Z" fill="#014958"/>
<path d="M168.91 285.772L169.462 283.712L167.401 283.16L166.849 285.22L168.91 285.772Z" fill="#014958"/>
<path d="M168.357 287.833L168.909 285.772L166.849 285.22L166.297 287.281L168.357 287.833Z" fill="#014958"/>
<path d="M167.806 289.894L168.358 287.833L166.298 287.281L165.746 289.341L167.806 289.894Z" fill="#014958"/>
<path d="M167.254 291.954L167.806 289.894L165.745 289.341L165.193 291.402L167.254 291.954Z" fill="#014958"/>
<path d="M166.701 294.015L167.253 291.954L165.192 291.402L164.64 293.463L166.701 294.015Z" fill="#014958"/>
<path d="M180.23 317.443L180.782 315.382L178.722 314.83L178.17 316.891L180.23 317.443Z" fill="#014958"/>
<path d="M179.678 319.504L180.23 317.444L178.17 316.892L177.618 318.952L179.678 319.504Z" fill="#014958"/>
<path d="M179.126 321.564L179.678 319.503L177.617 318.951L177.065 321.012L179.126 321.564Z" fill="#014958"/>
<path d="M178.574 323.625L179.126 321.565L177.065 321.013L176.513 323.073L178.574 323.625Z" fill="#014958"/>
<path d="M178.022 325.686L178.574 323.625L176.514 323.073L175.962 325.134L178.022 325.686Z" fill="#014958"/>
<path d="M177.47 327.747L178.022 325.686L175.962 325.134L175.41 327.194L177.47 327.747Z" fill="#014958"/>
<path d="M182.292 317.997L182.844 315.936L180.783 315.384L180.231 317.444L182.292 317.997Z" fill="#014958"/>
<path d="M179.53 328.298L180.082 326.238L178.021 325.686L177.469 327.746L179.53 328.298Z" fill="#014958"/>
<path d="M184.351 318.548L184.903 316.488L182.843 315.936L182.291 317.996L184.351 318.548Z" fill="#014958"/>
<path d="M183.248 322.67L183.8 320.61L181.739 320.058L181.187 322.118L183.248 322.67Z" fill="#014958"/>
<path d="M182.695 324.729L183.247 322.668L181.187 322.116L180.634 324.177L182.695 324.729Z" fill="#014958"/>
<path d="M181.59 328.85L182.143 326.79L180.082 326.237L179.53 328.298L181.59 328.85Z" fill="#014958"/>
<path d="M186.412 319.1L186.964 317.04L184.903 316.487L184.351 318.548L186.412 319.1Z" fill="#014958"/>
<path d="M185.307 323.22L185.859 321.16L183.799 320.608L183.247 322.668L185.307 323.22Z" fill="#014958"/>
<path d="M184.755 325.282L185.308 323.221L183.247 322.669L182.695 324.73L184.755 325.282Z" fill="#014958"/>
<path d="M183.651 329.403L184.203 327.342L182.143 326.79L181.59 328.851L183.651 329.403Z" fill="#014958"/>
<path d="M188.472 319.652L189.024 317.591L186.964 317.039L186.412 319.1L188.472 319.652Z" fill="#014958"/>
<path d="M185.712 329.954L186.264 327.893L184.203 327.341L183.651 329.401L185.712 329.954Z" fill="#014958"/>
<path d="M190.533 320.204L191.085 318.143L189.024 317.591L188.472 319.651L190.533 320.204Z" fill="#014958"/>
<path d="M189.981 322.265L190.533 320.205L188.473 319.652L187.921 321.713L189.981 322.265Z" fill="#014958"/>
<path d="M189.428 324.326L189.98 322.265L187.92 321.713L187.368 323.774L189.428 324.326Z" fill="#014958"/>
<path d="M188.876 326.385L189.428 324.325L187.367 323.773L186.815 325.833L188.876 326.385Z" fill="#014958"/>
<path d="M188.324 328.446L188.876 326.385L186.815 325.833L186.263 327.894L188.324 328.446Z" fill="#014958"/>
<path d="M187.773 330.506L188.325 328.446L186.265 327.894L185.713 329.954L187.773 330.506Z" fill="#014958"/>
<path d="M155.255 295.362L155.807 293.302L153.746 292.75L153.194 294.81L155.255 295.362Z" fill="#014958"/>
<path d="M154.702 297.424L155.254 295.363L153.193 294.811L152.641 296.872L154.702 297.424Z" fill="#014958"/>
<path d="M154.149 299.484L154.701 297.424L152.641 296.872L152.089 298.932L154.149 299.484Z" fill="#014958"/>
<path d="M153.597 301.545L154.149 299.484L152.089 298.932L151.537 300.993L153.597 301.545Z" fill="#014958"/>
<path d="M152.494 305.666L153.046 303.605L150.985 303.053L150.433 305.114L152.494 305.666Z" fill="#014958"/>
<path d="M151.942 307.727L152.494 305.666L150.434 305.114L149.881 307.174L151.942 307.727Z" fill="#014958"/>
<path d="M151.389 309.787L151.941 307.727L149.881 307.174L149.329 309.235L151.389 309.787Z" fill="#014958"/>
<path d="M150.286 313.909L150.838 311.849L148.777 311.297L148.225 313.357L150.286 313.909Z" fill="#014958"/>
<path d="M149.733 315.969L150.285 313.908L148.225 313.356L147.672 315.417L149.733 315.969Z" fill="#014958"/>
<path d="M149.181 318.029L149.733 315.969L147.673 315.417L147.121 317.477L149.181 318.029Z" fill="#014958"/>
<path d="M148.629 320.09L149.181 318.029L147.12 317.477L146.568 319.538L148.629 320.09Z" fill="#014958"/>
<path d="M157.315 295.915L157.867 293.854L155.807 293.302L155.255 295.363L157.315 295.915Z" fill="#014958"/>
<path d="M156.764 297.977L157.316 295.916L155.256 295.364L154.704 297.424L156.764 297.977Z" fill="#014958"/>
<path d="M154.004 308.278L154.556 306.218L152.495 305.666L151.943 307.726L154.004 308.278Z" fill="#014958"/>
<path d="M152.898 312.4L153.45 310.34L151.39 309.788L150.838 311.848L152.898 312.4Z" fill="#014958"/>
<path d="M151.794 316.521L152.346 314.461L150.285 313.909L149.733 315.969L151.794 316.521Z" fill="#014958"/>
<path d="M150.69 320.643L151.242 318.582L149.182 318.03L148.63 320.09L150.69 320.643Z" fill="#014958"/>
<path d="M159.377 296.467L159.929 294.406L157.868 293.854L157.316 295.915L159.377 296.467Z" fill="#014958"/>
<path d="M157.718 302.649L158.271 300.589L156.21 300.037L155.658 302.097L157.718 302.649Z" fill="#014958"/>
<path d="M155.511 310.892L156.063 308.831L154.003 308.279L153.451 310.339L155.511 310.892Z" fill="#014958"/>
<path d="M154.959 312.953L155.511 310.893L153.45 310.34L152.898 312.401L154.959 312.953Z" fill="#014958"/>
<path d="M154.407 315.014L154.959 312.953L152.898 312.401L152.346 314.462L154.407 315.014Z" fill="#014958"/>
<path d="M153.302 319.134L153.854 317.073L151.794 316.521L151.242 318.582L153.302 319.134Z" fill="#014958"/>
<path d="M152.751 321.194L153.303 319.134L151.242 318.582L150.69 320.642L152.751 321.194Z" fill="#014958"/>
<path d="M159.227 305.262L159.779 303.201L157.719 302.649L157.167 304.71L159.227 305.262Z" fill="#014958"/>
<path d="M158.124 309.383L158.676 307.322L156.615 306.77L156.063 308.831L158.124 309.383Z" fill="#014958"/>
<path d="M157.571 311.443L158.123 309.383L156.063 308.831L155.51 310.891L157.571 311.443Z" fill="#014958"/>
<path d="M157.019 313.504L157.571 311.443L155.511 310.891L154.959 312.952L157.019 313.504Z" fill="#014958"/>
<path d="M156.467 315.565L157.02 313.505L154.959 312.953L154.407 315.013L156.467 315.565Z" fill="#014958"/>
<path d="M155.916 317.626L156.468 315.565L154.407 315.013L153.855 317.074L155.916 317.626Z" fill="#014958"/>
<path d="M155.363 319.687L155.915 317.626L153.854 317.074L153.302 319.134L155.363 319.687Z" fill="#014958"/>
<path d="M154.81 321.747L155.362 319.687L153.302 319.134L152.75 321.195L154.81 321.747Z" fill="#014958"/>
<path d="M163.498 297.572L164.05 295.512L161.989 294.96L161.437 297.02L163.498 297.572Z" fill="#014958"/>
<path d="M162.945 299.633L163.497 297.572L161.437 297.02L160.884 299.081L162.945 299.633Z" fill="#014958"/>
<path d="M162.393 301.693L162.945 299.633L160.885 299.081L160.333 301.141L162.393 301.693Z" fill="#014958"/>
<path d="M161.84 303.754L162.393 301.693L160.332 301.141L159.78 303.202L161.84 303.754Z" fill="#014958"/>
<path d="M159.082 314.056L159.634 311.995L157.573 311.443L157.021 313.504L159.082 314.056Z" fill="#014958"/>
<path d="M158.529 316.117L159.081 314.057L157.021 313.505L156.468 315.565L158.529 316.117Z" fill="#014958"/>
<path d="M157.422 320.238L157.975 318.178L155.914 317.626L155.362 319.686L157.422 320.238Z" fill="#014958"/>
<path d="M163.901 304.306L164.453 302.245L162.393 301.693L161.84 303.754L163.901 304.306Z" fill="#014958"/>
<path d="M163.348 306.366L163.9 304.306L161.84 303.754L161.288 305.814L163.348 306.366Z" fill="#014958"/>
<path d="M161.693 312.548L162.245 310.487L160.185 309.935L159.632 311.996L161.693 312.548Z" fill="#014958"/>
<path d="M161.14 314.608L161.692 312.548L159.632 311.996L159.08 314.056L161.14 314.608Z" fill="#014958"/>
<path d="M160.589 316.669L161.141 314.608L159.08 314.056L158.528 316.117L160.589 316.669Z" fill="#014958"/>
<path d="M158.932 322.852L159.484 320.791L157.424 320.239L156.872 322.299L158.932 322.852Z" fill="#014958"/>
<path d="M164.306 311.04L164.858 308.979L162.798 308.427L162.246 310.488L164.306 311.04Z" fill="#014958"/>
<path d="M162.649 317.221L163.201 315.16L161.141 314.608L160.589 316.669L162.649 317.221Z" fill="#014958"/>
<path d="M161.545 321.342L162.097 319.281L160.036 318.729L159.484 320.79L161.545 321.342Z" fill="#014958"/>
<path d="M173.545 284.803L174.097 282.742L172.036 282.19L171.484 284.251L173.545 284.803Z" fill="#014958"/>
<path d="M170.783 295.106L171.335 293.046L169.274 292.494L168.722 294.554L170.783 295.106Z" fill="#014958"/>
<path d="M165.575 298.137L166.127 296.076L164.066 295.524L163.514 297.585L165.575 298.137Z" fill="#014958"/>
<path d="M166.366 311.592L166.918 309.531L164.857 308.979L164.305 311.04L166.366 311.592Z" fill="#014958"/>
<path d="M165.262 315.712L165.814 313.651L163.754 313.099L163.202 315.16L165.262 315.712Z" fill="#014958"/>
<path d="M164.711 317.773L165.263 315.713L163.202 315.161L162.65 317.221L164.711 317.773Z" fill="#014958"/>
<path d="M164.158 319.833L164.71 317.772L162.649 317.22L162.097 319.281L164.158 319.833Z" fill="#014958"/>
<path d="M163.053 323.954L163.605 321.894L161.545 321.341L160.993 323.402L163.053 323.954Z" fill="#014958"/>
<path d="M175.604 285.355L176.156 283.295L174.096 282.743L173.544 284.803L175.604 285.355Z" fill="#014958"/>
<path d="M175.052 287.416L175.604 285.355L173.544 284.803L172.992 286.864L175.052 287.416Z" fill="#014958"/>
<path d="M174.502 289.478L175.054 287.417L172.993 286.865L172.441 288.925L174.502 289.478Z" fill="#014958"/>
<path d="M173.948 291.537L174.5 289.477L172.439 288.924L171.887 290.985L173.948 291.537Z" fill="#014958"/>
<path d="M173.396 293.599L173.948 291.538L171.888 290.986L171.336 293.047L173.396 293.599Z" fill="#014958"/>
<path d="M172.844 295.659L173.396 293.599L171.336 293.047L170.784 295.107L172.844 295.659Z" fill="#014958"/>
<path d="M169.308 321.214L169.86 319.153L167.8 318.601L167.248 320.662L169.308 321.214Z" fill="#014958"/>
<path d="M165.667 322.446L166.219 320.386L164.158 319.834L163.606 321.894L165.667 322.446Z" fill="#014958"/>
<path d="M165.114 324.506L165.666 322.445L163.605 321.893L163.053 323.954L165.114 324.506Z" fill="#014958"/>
<path d="M177.667 285.908L178.219 283.848L176.158 283.296L175.606 285.356L177.667 285.908Z" fill="#014958"/>
<path d="M177.114 287.969L177.666 285.908L175.605 285.356L175.053 287.417L177.114 287.969Z" fill="#014958"/>
<path d="M175.456 294.15L176.008 292.09L173.947 291.538L173.395 293.598L175.456 294.15Z" fill="#014958"/>
<path d="M174.904 296.211L175.456 294.15L173.396 293.598L172.843 295.659L174.904 296.211Z" fill="#014958"/>
<path d="M167.636 298.688L168.188 296.628L166.128 296.076L165.576 298.136L167.636 298.688Z" fill="#014958"/>
<path d="M168.279 320.938L168.831 318.878L166.771 318.326L166.218 320.386L168.279 320.938Z" fill="#014958"/>
<path d="M167.726 322.998L168.278 320.938L166.218 320.385L165.666 322.446L167.726 322.998Z" fill="#014958"/>
<path d="M167.174 325.059L167.727 322.998L165.666 322.446L165.114 324.506L167.174 325.059Z" fill="#014958"/>
<path d="M178.621 290.582L179.173 288.521L177.112 287.969L176.56 290.03L178.621 290.582Z" fill="#014958"/>
<path d="M178.07 292.642L178.622 290.581L176.562 290.029L176.009 292.089L178.07 292.642Z" fill="#014958"/>
<path d="M164.798 308.972L165.351 306.911L163.366 306.379L162.814 308.44L164.798 308.972Z" fill="#014958"/>
<path d="M171.444 317.37L171.996 315.31L169.936 314.757L169.383 316.818L171.444 317.37Z" fill="#014958"/>
<path d="M169.952 314.769L170.504 312.708L168.443 312.156L167.891 314.216L169.952 314.769Z" fill="#014958"/>
<path d="M170.892 319.431L171.444 317.37L169.384 316.818L168.832 318.879L170.892 319.431Z" fill="#014958"/>
<path d="M170.339 321.49L170.891 319.43L168.83 318.878L168.278 320.938L170.339 321.49Z" fill="#014958"/>
<path d="M169.787 323.551L170.339 321.49L168.278 320.938L167.726 322.999L169.787 323.551Z" fill="#014958"/>
<path d="M169.235 325.611L169.787 323.551L167.727 322.999L167.174 325.059L169.235 325.611Z" fill="#014958"/>
<path d="M181.786 287.013L182.338 284.952L180.277 284.4L179.725 286.461L181.786 287.013Z" fill="#014958"/>
<path d="M180.681 291.134L181.233 289.073L179.173 288.521L178.621 290.582L180.681 291.134Z" fill="#014958"/>
<path d="M180.129 293.194L180.681 291.134L178.62 290.582L178.068 292.642L180.129 293.194Z" fill="#014958"/>
<path d="M179.024 297.315L179.576 295.255L177.516 294.703L176.964 296.763L179.024 297.315Z" fill="#014958"/>
<path d="M174.073 315.873L174.625 313.812L172.564 313.26L172.012 315.321L174.073 315.873Z" fill="#014958"/>
<path d="M173.504 317.922L174.056 315.861L171.995 315.309L171.443 317.37L173.504 317.922Z" fill="#014958"/>
<path d="M182.743 291.687L183.295 289.626L181.234 289.074L180.682 291.134L182.743 291.687Z" fill="#014958"/>
<path d="M181.637 295.807L182.189 293.746L180.129 293.194L179.577 295.255L181.637 295.807Z" fill="#014958"/>
<path d="M181.086 297.867L181.638 295.807L179.577 295.255L179.025 297.315L181.086 297.867Z" fill="#014958"/>
<path d="M180.55 299.941L181.103 297.881L179.042 297.329L178.49 299.389L180.55 299.941Z" fill="#014958"/>
<path d="M182.059 302.554L182.611 300.493L180.551 299.941L179.999 302.002L182.059 302.554Z" fill="#014958"/>
<path d="M179.299 312.857L179.852 310.797L177.791 310.245L177.239 312.305L179.299 312.857Z" fill="#014958"/>
<path d="M167.891 314.217L168.443 312.156L166.383 311.604L165.831 313.665L167.891 314.217Z" fill="#014958"/>
<path d="M176.67 314.353L177.222 312.292L175.161 311.74L174.609 313.8L176.67 314.353Z" fill="#014958"/>
<path d="M176.116 316.413L176.668 314.353L174.607 313.8L174.055 315.861L176.116 316.413Z" fill="#014958"/>
<path d="M175.012 320.534L175.564 318.474L173.504 317.922L172.952 319.982L175.012 320.534Z" fill="#014958"/>
<path d="M174.46 322.595L175.012 320.534L172.951 319.982L172.399 322.043L174.46 322.595Z" fill="#014958"/>
<path d="M173.907 324.655L174.459 322.595L172.398 322.043L171.846 324.103L173.907 324.655Z" fill="#014958"/>
<path d="M187.969 288.669L188.521 286.608L186.461 286.056L185.909 288.117L187.969 288.669Z" fill="#014958"/>
<path d="M187.416 290.729L187.968 288.668L185.907 288.116L185.355 290.176L187.416 290.729Z" fill="#014958"/>
<path d="M186.865 292.79L187.417 290.729L185.356 290.177L184.804 292.238L186.865 292.79Z" fill="#014958"/>
<path d="M186.311 294.851L186.863 292.79L184.803 292.238L184.251 294.298L186.311 294.851Z" fill="#014958"/>
<path d="M185.759 296.911L186.312 294.851L184.251 294.298L183.699 296.359L185.759 296.911Z" fill="#014958"/>
<path d="M185.208 298.972L185.76 296.911L183.699 296.359L183.147 298.42L185.208 298.972Z" fill="#014958"/>
<path d="M184.104 303.094L184.656 301.033L182.596 300.481L182.044 302.542L184.104 303.094Z" fill="#014958"/>
<path d="M183.551 305.154L184.104 303.094L182.043 302.542L181.491 304.602L183.551 305.154Z" fill="#014958"/>
<path d="M182.448 309.275L183 307.215L180.939 306.663L180.387 308.723L182.448 309.275Z" fill="#014958"/>
<path d="M181.895 311.336L182.447 309.275L180.387 308.723L179.835 310.784L181.895 311.336Z" fill="#014958"/>
<path d="M181.342 313.396L181.895 311.336L179.834 310.784L179.282 312.844L181.342 313.396Z" fill="#014958"/>
<path d="M190.029 289.221L190.581 287.16L188.521 286.608L187.968 288.669L190.029 289.221Z" fill="#014958"/>
<path d="M187.268 299.523L187.82 297.463L185.76 296.911L185.208 298.971L187.268 299.523Z" fill="#014958"/>
<path d="M185.611 305.706L186.163 303.646L184.103 303.093L183.55 305.154L185.611 305.706Z" fill="#014958"/>
<path d="M185.06 307.766L185.612 305.705L183.552 305.153L183 307.214L185.06 307.766Z" fill="#014958"/>
<path d="M184.506 309.827L185.059 307.767L182.998 307.214L182.446 309.275L184.506 309.827Z" fill="#014958"/>
<path d="M183.403 313.948L183.955 311.888L181.895 311.336L181.342 313.396L183.403 313.948Z" fill="#014958"/>
<path d="M192.089 289.772L192.641 287.712L190.58 287.16L190.028 289.22L192.089 289.772Z" fill="#014958"/>
<path d="M190.985 293.895L191.537 291.834L189.477 291.282L188.924 293.342L190.985 293.895Z" fill="#014958"/>
<path d="M190.433 295.954L190.985 293.894L188.925 293.341L188.373 295.402L190.433 295.954Z" fill="#014958"/>
<path d="M189.328 300.076L189.88 298.016L187.819 297.464L187.267 299.524L189.328 300.076Z" fill="#014958"/>
<path d="M187.672 306.258L188.224 304.197L186.163 303.645L185.611 305.706L187.672 306.258Z" fill="#014958"/>
<path d="M187.119 308.318L187.671 306.258L185.61 305.706L185.058 307.766L187.119 308.318Z" fill="#014958"/>
<path d="M186.568 310.379L187.12 308.318L185.06 307.766L184.507 309.827L186.568 310.379Z" fill="#014958"/>
<path d="M186.014 312.439L186.566 310.379L184.506 309.827L183.954 311.887L186.014 312.439Z" fill="#014958"/>
<path d="M185.464 314.5L186.016 312.439L183.955 311.887L183.403 313.948L185.464 314.5Z" fill="#014958"/>
<path d="M194.151 290.324L194.703 288.264L192.643 287.712L192.09 289.772L194.151 290.324Z" fill="#014958"/>
<path d="M193.046 294.446L193.598 292.386L191.537 291.834L190.985 293.894L193.046 294.446Z" fill="#014958"/>
<path d="M192.495 296.507L193.047 294.446L190.986 293.894L190.434 295.955L192.495 296.507Z" fill="#014958"/>
<path d="M191.39 300.629L191.942 298.568L189.882 298.016L189.33 300.077L191.39 300.629Z" fill="#014958"/>
<path d="M190.286 304.75L190.838 302.689L188.777 302.137L188.225 304.198L190.286 304.75Z" fill="#014958"/>
<path d="M188.629 310.932L189.181 308.871L187.12 308.319L186.568 310.38L188.629 310.932Z" fill="#014958"/>
<path d="M196.21 290.877L196.762 288.816L194.701 288.264L194.149 290.325L196.21 290.877Z" fill="#014958"/>
<path d="M193.45 301.181L194.002 299.12L191.941 298.568L191.389 300.629L193.45 301.181Z" fill="#014958"/>
<path d="M192.345 305.302L192.897 303.241L190.837 302.689L190.285 304.75L192.345 305.302Z" fill="#014958"/>
<path d="M191.793 307.362L192.345 305.302L190.284 304.75L189.732 306.81L191.793 307.362Z" fill="#014958"/>
<path d="M191.241 309.423L191.793 307.362L189.732 306.81L189.18 308.871L191.241 309.423Z" fill="#014958"/>
<path d="M190.688 311.483L191.24 309.423L189.18 308.871L188.628 310.931L190.688 311.483Z" fill="#014958"/>
<path d="M190.136 313.544L190.688 311.483L188.628 310.931L188.076 312.992L190.136 313.544Z" fill="#014958"/>
<path d="M189.585 315.605L190.137 313.545L188.076 312.993L187.524 315.053L189.585 315.605Z" fill="#014958"/>
<path d="M198.272 291.43L198.824 289.369L196.764 288.817L196.212 290.878L198.272 291.43Z" fill="#014958"/>
<path d="M197.72 293.49L198.272 291.43L196.212 290.878L195.66 292.938L197.72 293.49Z" fill="#014958"/>
<path d="M197.167 295.551L197.719 293.49L195.658 292.938L195.106 294.999L197.167 295.551Z" fill="#014958"/>
<path d="M196.616 297.61L197.168 295.55L195.107 294.998L194.555 297.058L196.616 297.61Z" fill="#014958"/>
<path d="M196.063 299.672L196.615 297.611L194.555 297.059L194.003 299.12L196.063 299.672Z" fill="#014958"/>
<path d="M195.51 301.732L196.062 299.672L194.002 299.12L193.45 301.18L195.51 301.732Z" fill="#014958"/>
<path d="M193.302 309.976L193.854 307.915L191.794 307.363L191.242 309.423L193.302 309.976Z" fill="#014958"/>
<path d="M192.198 314.097L192.75 312.036L190.689 311.484L190.137 313.545L192.198 314.097Z" fill="#014958"/>
<path d="M178.502 299.911L170.079 297.654C169.498 297.498 168.891 297.877 168.724 298.501L166.304 307.532C166.137 308.155 166.473 308.787 167.055 308.943L175.477 311.199C176.059 311.355 176.666 310.976 176.833 310.353L179.252 301.322C179.419 300.699 179.084 300.067 178.502 299.911Z" fill="#014958"/>
<path d="M157.122 358.463L157.879 359.774L156.934 360.319L156.151 358.963C155.413 359.216 154.582 359.238 153.705 359.003C151.193 358.33 150.124 356.021 150.829 353.388C151.534 350.756 153.611 349.303 156.124 349.976C158.636 350.649 159.708 352.946 159.003 355.579C158.661 356.853 157.996 357.847 157.122 358.463ZM153.982 357.969C154.523 358.114 155.054 358.102 155.561 357.942L154.971 356.921L155.92 356.363L156.506 357.396C157.057 356.925 157.492 356.217 157.753 355.244C158.355 352.996 157.433 351.435 155.847 351.01C154.26 350.584 152.681 351.476 152.079 353.723C151.477 355.971 152.395 357.544 153.982 357.969ZM163.895 357.624C163.675 357.578 163.459 357.52 163.23 357.459L161.692 357.046L160.709 360.713L159.483 360.384L161.818 351.669L164.583 352.41C166.711 352.98 168.1 353.803 167.54 355.895C167.17 357.277 166.331 357.761 165.184 357.763L166.166 362.175L164.796 361.808L163.895 357.624ZM162.767 353.032L161.969 356.013L163.603 356.451C164.878 356.792 165.911 356.927 166.271 355.581C166.632 354.235 165.676 353.811 164.402 353.47L162.767 353.032Z" fill="#014958"/>
<rect x="190.578" y="224.5" width="99" height="179" rx="3.5" fill="#3CB572" stroke="#014958"/>
<rect x="204.078" y="248" width="72" height="80" rx="2" fill="#E3F6DC"/>
<circle cx="240.078" cy="288" r="24" fill="white"/>
<path d="M240.933 289.996L240.932 289.996L240.925 290.008C240.779 290.226 240.752 290.498 240.8 290.735C240.847 290.972 240.976 291.213 241.195 291.359C241.413 291.504 241.685 291.531 241.922 291.484C242.157 291.437 242.397 291.309 242.542 291.093C243.373 289.949 243.799 288.584 243.59 287.206C243.481 285.826 242.74 284.569 241.701 283.634C240.655 282.693 239.288 282.162 237.91 282.265C236.534 282.268 235.171 282.901 234.228 283.844L229.408 288.664C228.353 289.718 227.828 291.089 227.828 292.556C227.828 294.024 228.353 295.395 229.408 296.449C230.462 297.503 231.832 298.028 233.3 298.028C234.865 298.028 236.237 297.505 237.293 296.449L238.196 295.545C238.595 295.146 238.595 294.486 238.196 294.087C237.797 293.688 237.137 293.688 236.738 294.087L236.738 294.087L236.729 294.096L235.83 295.096C234.523 296.397 232.179 296.398 230.872 295.097C230.203 294.331 229.834 293.486 229.834 292.556C229.834 291.616 230.212 290.676 230.866 290.022L235.686 285.202C236.239 284.649 237.08 284.268 238.032 284.171C238.869 284.173 239.689 284.451 240.333 285.279L240.348 285.299L240.367 285.315C241.026 285.88 241.494 286.727 241.587 287.563C241.681 288.409 241.494 289.248 240.933 289.996ZM239.324 286.782L239.324 286.782L239.332 286.77C239.478 286.552 239.505 286.28 239.457 286.043C239.41 285.806 239.28 285.565 239.062 285.42C238.844 285.274 238.571 285.247 238.335 285.295C238.099 285.342 237.86 285.47 237.714 285.685C236.882 286.832 236.455 288.201 236.668 289.582C236.876 290.937 237.503 292.194 238.55 293.14C239.51 294.096 240.782 294.514 242.137 294.514H242.237C243.616 294.514 244.983 293.88 245.929 292.934L250.749 288.114C251.803 287.06 252.328 285.689 252.328 284.222C252.328 282.754 251.803 281.384 250.749 280.33C249.694 279.275 248.324 278.75 246.856 278.75C245.389 278.75 244.018 279.275 242.964 280.33L242.261 281.032C242.073 281.22 241.946 281.471 241.914 281.73C241.881 281.993 241.946 282.276 242.161 282.491C242.56 282.889 243.22 282.889 243.619 282.491L244.422 281.687C245.729 280.381 248.076 280.379 249.385 281.681C250.053 282.447 250.422 283.293 250.422 284.222C250.422 285.166 250.044 285.993 249.508 286.44L249.499 286.447L249.491 286.455L244.671 291.275C244.009 291.937 243.167 292.306 242.338 292.306C241.384 292.306 240.541 292.021 239.889 291.463C239.231 290.899 238.763 290.051 238.67 289.215C238.576 288.369 238.763 287.53 239.324 286.782Z" fill="#3CB572" stroke="#3CB572" stroke-width="0.5"/>
<path d="M229.983 351.768H235.345V353H228.555V342.85H229.983V351.768ZM237.631 342.85V344.39H236.357V342.85H237.631ZM237.631 345.468V353H236.357V345.468H237.631ZM240.926 346.602C241.36 345.888 242.088 345.342 243.362 345.342C245.182 345.342 245.84 346.518 245.84 348.24V353H244.566V348.618C244.566 347.456 244.37 346.448 242.914 346.448C241.682 346.448 240.926 347.302 240.926 348.912V353H239.652V345.468H240.926V346.602ZM249.019 342.85V348.856L252.057 345.468H253.625L250.755 348.59L254.017 353H252.463L249.901 349.528L249.019 350.48V353H247.745V342.85H249.019Z" fill="white"/>
<path d="M220.604 176C220.604 176 235.564 181.698 238.665 186.913C241.194 191.172 242.804 196.304 242.804 201.718C242.804 210.228 243.972 215.235 244.535 216.038C246.335 218.622 251.559 224.091 255.754 230.109C259.949 236.127 259.28 244.212 257.822 245.066C256.294 245.745 253.017 241.176 241.411 234.235C239.154 232.887 237.774 231.641 233.971 226.874C232.448 224.968 230.538 222.494 228.032 219.222C224.021 213.993 219.033 208.543 218.34 202.373C216.914 189.672 220.604 176 220.604 176Z" fill="#CF9E1B"/>
<path d="M221.839 175.98L221.839 175.97M238.665 186.913C241.194 191.172 242.804 196.304 242.804 201.718C242.804 210.228 243.972 215.235 244.535 216.038C246.335 218.622 251.559 224.091 255.754 230.109C259.949 236.127 259.28 244.212 257.822 245.066C256.294 245.745 253.017 241.176 241.411 234.235C239.154 232.887 237.774 231.641 233.971 226.874C232.448 224.968 230.538 222.494 228.032 219.222C224.021 213.993 219.033 208.543 218.34 202.373" stroke="#014958"/>
</svg>
