<svg width="240" height="240" viewBox="0 0 240 240" fill="none" xmlns="http://www.w3.org/2000/svg">
<rect x="89" y="76.4995" width="129" height="143" fill="white" stroke="#014958"/>
<rect x="151.5" y="105" width="5" height="88" rx="2.5" fill="#3CB572"/>
<rect x="198" y="146.5" width="5" height="88" rx="2.5" transform="rotate(90 198 146.5)" fill="#3CB572"/>
<rect x="186.881" y="178.345" width="5" height="88" rx="2.5" transform="rotate(135 186.881 178.345)" fill="#3CB572"/>
<rect x="124.654" y="181.88" width="5" height="88" rx="2.5" transform="rotate(-135 124.654 181.88)" fill="#3CB572"/>
<rect x="39" y="76.4995" width="50" height="143" fill="#3CB572" stroke="#014958"/>
<circle cx="154.5" cy="149" r="34" fill="#014958"/>
<circle cx="154.5" cy="149" r="23.5" stroke="#E3F6DC"/>
<circle cx="210.5" cy="83.9995" r="2.5" fill="#E3F6DC" stroke="#014958"/>
<circle cx="210.5" cy="211" r="2.5" fill="#E3F6DC" stroke="#014958"/>
<circle cx="97.5" cy="83.9995" r="2.5" fill="#E3F6DC" stroke="#014958"/>
<circle cx="97.5" cy="211" r="2.5" fill="#E3F6DC" stroke="#014958"/>
<rect x="85.5" y="121" width="7" height="7" rx="1" fill="#014958"/>
<rect x="85.5" y="163" width="7" height="7" rx="1" fill="#014958"/>
<path d="M34.5718 48.0575L31.2994 41.7399L28.0609 43.4173L31.3333 49.735L24.1517 50.5595L24.6299 54.0825L31.729 53.0987L30.7077 60.2264L34.4564 60.574L35.289 53.342L41.9951 56.6691L43.4747 53.546L37.1441 50.2938L42.1494 45.0078L39.3884 42.6673L34.5718 48.0575Z" fill="#3CB572"/>
<path d="M49.2225 23.8593L50.1913 21.5795L49.0227 21.0828L48.0538 23.3627L46.239 21.6189L45.3999 22.5289L47.2391 24.2152L45.1002 25.5228L45.8387 26.6057L47.9638 25.2244L48.5592 27.7619L49.7255 27.4658L49.1933 25.0457L51.7221 25.2156L51.7374 23.9555L49.2225 23.8593Z" fill="#014958"/>
<path d="M84.6509 46.152L82.3239 41.6595L80.021 42.8523L82.3481 47.3449L77.2412 47.9312L77.5812 50.4364L82.6294 49.7368L81.9032 54.8054L84.5689 55.0526L85.161 49.9098L89.9297 52.2758L90.9819 50.0549L86.4801 47.7422L90.0394 43.9833L88.0761 42.319L84.6509 46.152Z" fill="#E3F6DC"/>
</svg>
