<svg width="153" height="160" viewBox="0 0 153 160" fill="none" xmlns="http://www.w3.org/2000/svg">
<path d="M49.8246 40.4391C52.3305 17.7068 71.5383 0.5 94.4084 0.5C117.313 0.5 136.539 17.758 139.002 40.5302L151.729 158.192L138.337 139.814C130.975 129.709 115.903 129.709 108.54 139.814C101.583 149.362 87.1849 149.18 80.2157 139.616C72.892 129.565 57.8439 129.074 50.1344 138.857L37.161 155.319L49.8246 40.4391Z" fill="white" stroke="#014958"/>
<path d="M30.3263 154.531L17.5 159.282V82C17.5 76.7533 21.7533 72.5 27 72.5H75.5V98.6765H72H71.5V99.1765V159.299L57.663 154.527L57.494 154.469L57.3263 154.531L44 159.467L30.6737 154.531L30.5 154.467L30.3263 154.531Z" fill="#FAFAFA" stroke="#014958"/>
<path d="M71 77C71 74.2386 73.2386 72 76 72C78.7614 72 81 74.2386 81 77V108H71V77Z" fill="#014958"/>
<rect x="25" y="81" width="31" height="2" rx="1" fill="#F1F1F1"/>
<rect x="25" y="109" width="17" height="2" rx="1" fill="#FF8500"/>
<rect x="44" y="109" width="20" height="2" rx="1" fill="#FF8500"/>
<rect x="25" y="104" width="21" height="2" rx="1" fill="#FF8500"/>
<rect x="48" y="104" width="11" height="2" rx="1" fill="#FF8500"/>
<rect x="61" y="104" width="3" height="2" rx="1" fill="#FF8500"/>
<rect x="25" y="98" width="14" height="2" rx="1" fill="#F1F1F1"/>
<rect x="41" y="98" width="6" height="2" rx="1" fill="#F1F1F1"/>
<rect x="49" y="98" width="15" height="2" rx="1" fill="#F1F1F1"/>
<rect x="25" y="93" width="11" height="2" rx="1" fill="#F1F1F1"/>
<rect x="38" y="93" width="26" height="2" rx="1" fill="#F1F1F1"/>
<rect x="25" y="130" width="17" height="2" rx="1" fill="#F1F1F1"/>
<rect x="25" y="119" width="21" height="2" rx="1" fill="#F1F1F1"/>
<rect x="48" y="119" width="11" height="2" rx="1" fill="#FF8500"/>
<rect x="61" y="119" width="3" height="2" rx="1" fill="#F1F1F1"/>
<rect x="25" y="125" width="14" height="2" rx="1" fill="#F1F1F1"/>
<rect x="41" y="125" width="6" height="2" rx="1" fill="#F1F1F1"/>
<rect x="49" y="125" width="15" height="2" rx="1" fill="#F1F1F1"/>
<rect x="25" y="114" width="11" height="2" rx="1" fill="#F1F1F1"/>
<rect x="38" y="114" width="26" height="2" rx="1" fill="#F1F1F1"/>
<path d="M46.3089 97.3325C42.2723 97.3325 39 94.0602 39 90.0236L39 72.9999L53.6179 72.9999L53.6179 90.0236C53.6179 94.0602 50.3455 97.3325 46.3089 97.3325Z" fill="white"/>
<path d="M39 72.9999L39 90.0236C39 94.0602 42.2723 97.3325 46.3089 97.3325V97.3325C50.3455 97.3325 53.6179 94.0602 53.6179 90.0236L53.6179 72.9999" stroke="#014958"/>
<rect x="78.7188" y="55.7305" width="8.98876" height="10.7865" rx="4.49438" fill="#3CB572"/>
<rect x="101.191" y="55.7305" width="8.98876" height="10.7865" rx="4.49438" fill="#3CB572"/>
<rect x="66.4609" y="116.336" width="54.1389" height="2" rx="1" transform="rotate(-17.5619 66.4609 116.336)" fill="#014958"/>
<path d="M114.331 103.138C111.939 99.8868 112.636 95.3118 115.887 92.9197L134.808 78.9999L143.47 90.7746L124.55 104.694C121.298 107.086 116.723 106.39 114.331 103.138Z" fill="white"/>
<path d="M134.808 78.9999L115.887 92.9197C112.636 95.3118 111.939 99.8868 114.331 103.138V103.138C116.723 106.39 121.298 107.086 124.55 104.694L143.47 90.7746" stroke="#014958"/>
<path d="M7.79085 67.3629L3.27233 62.9873L0.142698 59.5149L1.68067 58.1288L4.8103 61.6011L8.69461 66.5484L7.79085 67.3629ZM10.3606 71.1387L8.71723 69.3153L10.5406 67.6719L12.184 69.4953L10.3606 71.1387Z" fill="#FF8500"/>
<path d="M21.1777 60.6301L20.4267 54.0361L20.2025 49.1089L22.3848 49.0096L22.609 53.9368L22.4601 60.5717L21.1777 60.6301ZM20.7423 65.4294L20.6245 62.8421L23.2118 62.7244L23.3296 65.3117L20.7423 65.4294Z" fill="#FFAA4C"/>
</svg>
