<svg width="16" height="17" viewBox="0 0 16 17" fill="none" xmlns="http://www.w3.org/2000/svg">
<path fill-rule="evenodd" clip-rule="evenodd" d="M7.91006 0.861589C7.73908 0.888398 7.59211 0.999889 7.51087 1.1644L7.45769 1.27207V5.57346V9.87483L6.58932 8.99779C5.60964 8.00831 5.63454 8.02847 5.39064 8.0275C5.23294 8.02687 5.11167 8.0763 5.00533 8.18452C4.89144 8.30045 4.84967 8.4032 4.84902 8.56908C4.84805 8.82051 4.77033 8.72914 6.3136 10.2907C7.84701 11.8422 7.75822 11.7645 7.99873 11.7645C8.23923 11.7645 8.15044 11.8422 9.68385 10.2907C11.2271 8.72914 11.1494 8.82051 11.1484 8.56908C11.1478 8.4032 11.106 8.30045 10.9921 8.18452C10.8858 8.0763 10.7645 8.02687 10.6068 8.0275C10.3629 8.02847 10.3878 8.00831 9.40813 8.99779L8.53976 9.87483V5.57346V1.27207L8.48659 1.1644C8.37749 0.943481 8.14997 0.823972 7.91006 0.861589ZM0.369764 14.7658C0.134587 14.851 0.00122964 15.0393 7.935e-06 15.288C-0.00138829 15.5718 0.181588 15.7899 0.459088 15.8353C0.618049 15.8612 15.3794 15.8612 15.5384 15.8353C15.7263 15.8045 15.8832 15.6832 15.9593 15.5097C16.0168 15.3787 16.0129 15.1822 15.9503 15.0526C15.899 14.9465 15.8064 14.8526 15.6919 14.7908L15.6169 14.7503L8.02491 14.7466C1.84704 14.7436 0.421145 14.7472 0.369764 14.7658Z" fill="black"/>
</svg>
