<svg width="265" height="242" viewBox="0 0 265 242" fill="none" xmlns="http://www.w3.org/2000/svg">
<path d="M171.064 128.223C170.29 125.583 171.759 122.806 174.378 121.96C177.989 120.793 181.559 123.854 180.956 127.601L177.387 149.795L171.064 128.223Z" fill="white" stroke="#014958"/>
<path d="M90.6292 104.024C92.9155 82.8762 110.769 66.8486 132.04 66.8486C153.312 66.8486 171.165 82.8762 173.452 104.024L182.354 186.369L172.626 182.768C163.681 179.457 154.219 177.761 144.681 177.761H132.04H105.069H82.6576L90.6292 104.024Z" fill="white" stroke="#014958"/>
<ellipse cx="132.041" cy="179.469" rx="132.041" ry="20.5308" fill="#014958"/>
<mask id="mask0_1222_6901" style="mask-type:alpha" maskUnits="userSpaceOnUse" x="0" y="158" width="265" height="42">
<ellipse cx="132.041" cy="179.469" rx="132.041" ry="20.5308" fill="#E3F6DC"/>
</mask>
<g mask="url(#mask0_1222_6901)">
<path d="M90.6301 104.024C92.9164 82.8762 110.77 66.8486 132.041 66.8486C153.312 66.8486 171.166 82.8762 173.452 104.024L185.286 213.489L172.903 196.485C166.04 187.062 151.986 187.062 145.123 196.485C138.66 205.36 125.423 205.36 118.96 196.485C112.097 187.062 98.042 187.062 91.1794 196.485L78.7961 213.489L90.6301 104.024Z" fill="white" stroke="#014958"/>
</g>
<path d="M93.2944 57.9595C94.0099 59.2393 93.6119 60.6464 93.0272 61.7513C92.4933 62.7571 92.3325 63.1652 92.7467 63.9061L92.9801 64.3237L91.7273 65.0241L91.4713 64.5661C90.8386 63.4345 91.1123 62.6273 91.8313 61.2883C92.2832 60.4521 92.5343 59.6045 92.0448 58.7289C91.5703 57.8802 90.5072 57.7496 89.4699 58.3295C87.9611 59.173 88.0636 60.4948 88.4691 61.3467L87.2432 62.032C86.2776 60.2733 87.0116 58.36 88.9245 57.2906C90.4467 56.4396 92.3832 56.3295 93.2944 57.9595ZM93.2027 67.9478L92.3366 66.3986L93.8858 65.5325L94.7519 67.0817L93.2027 67.9478Z" fill="#3CB572"/>
<path d="M162.742 44.8544C162.738 45.8459 162.037 46.5426 161.325 46.9993C160.677 47.4144 160.446 47.6014 160.444 48.1754L160.443 48.4989L159.473 48.4955L159.474 48.1406C159.477 47.264 159.906 46.8794 160.775 46.3294C161.319 45.9869 161.748 45.571 161.75 44.8926C161.753 44.2351 161.17 43.8051 160.366 43.8023C159.197 43.7981 158.819 44.6108 158.775 45.2472L157.825 45.2438C157.84 43.8871 158.908 43.0039 160.39 43.0092C161.569 43.0134 162.746 43.5916 162.742 44.8544ZM159.371 50.7076L159.375 49.5075L160.575 49.5118L160.571 50.7119L159.371 50.7076Z" fill="#014958"/>
<path d="M179.528 58.0453C178.897 59.8056 177.21 60.6018 175.657 60.9651C174.243 61.2941 173.715 61.4814 173.35 62.5006L173.144 63.075L171.42 62.4568L171.646 61.8267C172.205 60.2702 173.21 59.8571 175.101 59.4268C176.284 59.161 177.309 58.6923 177.742 57.4878C178.16 56.3204 177.395 55.1884 175.968 54.6765C173.893 53.932 172.707 55.138 172.228 56.2418L170.541 55.6369C171.424 53.2346 173.879 52.3376 176.511 53.2815C178.605 54.0327 180.333 55.8031 179.528 58.0453ZM169.844 66.3254L170.609 64.1944L172.74 64.9589L171.975 67.0899L169.844 66.3254Z" fill="#3CB572"/>
<path d="M152.361 110.808C152.46 109.46 153.436 108.339 154.757 108.056L179.339 102.795L177.886 122.661L154.331 113.878C153.065 113.406 152.263 112.155 152.361 110.808Z" fill="white" stroke="#014958"/>
<path d="M175.544 105.07C176.632 102.861 178.94 101.628 181.495 101.146L201.522 97.3677L199.043 131.258L179.779 124.605C177.322 123.757 175.218 122.201 174.463 119.857C173.86 117.987 173.377 115.443 173.602 112.361C173.828 109.279 174.676 106.833 175.544 105.07Z" fill="#E3F6DC" stroke="#014958"/>
<path d="M215.945 115.459C215.25 124.956 207.852 132.053 199.53 131.444C191.209 130.836 184.922 122.738 185.617 113.241C186.312 103.743 193.709 96.6464 202.031 97.2551C210.353 97.8638 216.639 105.962 215.945 115.459Z" fill="#014958" stroke="#014958"/>
<ellipse cx="200.781" cy="114.35" rx="14.4135" ry="16.1345" transform="rotate(4.1834 200.781 114.35)" fill="#014958"/>
<mask id="mask1_1222_6901" style="mask-type:alpha" maskUnits="userSpaceOnUse" x="186" y="98" width="30" height="33">
<ellipse cx="200.781" cy="114.35" rx="14.4135" ry="16.1345" transform="rotate(4.1834 200.781 114.35)" fill="#5D2323"/>
</mask>
<g mask="url(#mask1_1222_6901)">
<ellipse cx="195.525" cy="113.965" rx="12.1546" ry="13.553" transform="rotate(4.1834 195.525 113.965)" fill="#3CB572"/>
</g>
<path d="M115.362 113.664C115.466 112.251 116.489 111.076 117.874 110.779L143.507 105.292L141.989 126.041L117.428 116.883C116.1 116.388 115.259 115.077 115.362 113.664Z" fill="white" stroke="#014958"/>
<path d="M139.513 107.679C140.65 105.37 143.062 104.083 145.726 103.581L166.615 99.6396L164.028 134.996L143.936 128.057C141.373 127.172 139.174 125.548 138.385 123.098C137.757 121.148 137.253 118.495 137.488 115.282C137.723 112.068 138.608 109.518 139.513 107.679Z" fill="#E3F6DC" stroke="#014958"/>
<path d="M182.134 118.548C181.394 128.669 173.489 136.34 164.479 135.681C155.468 135.022 148.764 126.283 149.504 116.161C150.245 106.04 158.149 98.3692 167.16 99.0283C176.17 99.6874 182.874 108.427 182.134 118.548Z" fill="#014958"/>
<path d="M182.134 118.548C181.394 128.669 173.489 136.34 164.479 135.681C155.468 135.022 148.764 126.283 149.504 116.161C150.245 106.04 158.149 98.3692 167.16 99.0283C176.17 99.6874 182.874 108.427 182.134 118.548Z" stroke="#014958"/>
<ellipse cx="165.82" cy="117.354" rx="15.014" ry="16.8067" transform="rotate(4.1834 165.82 117.354)" fill="#014958"/>
<mask id="mask2_1222_6901" style="mask-type:alpha" maskUnits="userSpaceOnUse" x="150" y="100" width="31" height="35">
<ellipse cx="165.821" cy="117.354" rx="15.014" ry="16.8067" transform="rotate(4.1834 165.821 117.354)" fill="#5D2323"/>
</mask>
<g mask="url(#mask2_1222_6901)">
<ellipse cx="160.345" cy="116.954" rx="12.661" ry="14.1176" transform="rotate(4.1834 160.345 116.954)" fill="#3CB572"/>
</g>
<path d="M135.382 139.498L141.956 128.285C143.987 124.82 142.825 120.365 139.36 118.333C135.895 116.302 131.439 117.465 129.408 120.929L122.835 132.143C120.804 135.608 121.966 140.063 125.431 142.094C128.896 144.125 133.351 142.963 135.382 139.498Z" fill="white"/>
<path d="M131.705 145.772L141.956 128.285C143.987 124.82 142.825 120.365 139.36 118.333V118.333C135.895 116.302 131.439 117.465 129.408 120.929L119.157 138.416" stroke="#014958"/>
</svg>
