<svg width="283" height="24" viewBox="0 0 283 24" fill="none" xmlns="http://www.w3.org/2000/svg">
<path d="M0 5.12242H3.84659V7.72315H0V5.12242ZM0 8.91555H3.84659V18.8866H0V8.91555ZM6.0514 8.91555H9.63336V10.5398C10.1689 9.87634 10.7108 9.40221 11.2589 9.11741C11.8071 8.83261 12.475 8.69021 13.2626 8.69021C14.3274 8.69021 15.1607 9.00474 15.7624 9.6338C16.3641 10.2629 16.665 11.2346 16.665 12.5491V18.8866H12.7995V13.4035C12.7995 12.7775 12.6829 12.3347 12.4498 12.0749C12.2166 11.8152 11.889 11.6853 11.4669 11.6853C11.0006 11.6853 10.6226 11.8605 10.3327 12.2111C10.0429 12.5616 9.89799 13.1906 9.89799 14.0982V18.8866H6.0514V8.91555ZM22.9904 8.91555H24.8239V11.7134H22.9904V18.8866H19.1344V11.7134H17.6978V8.91555H19.1344V8.46488C19.1344 8.05802 19.1785 7.61049 19.2667 7.12226C19.3549 6.63403 19.5203 6.23501 19.7629 5.92517C20.0055 5.61534 20.3457 5.36497 20.7836 5.17406C21.2215 4.98315 21.8626 4.8877 22.7069 4.8877L23.0398 4.89325C23.6898 4.91362 24.5586 4.99001 25.6462 5.12242L25.2209 7.4321C24.7609 7.35698 24.3892 7.31943 24.1057 7.31943C23.7591 7.31943 23.5102 7.37733 23.359 7.49312C23.2078 7.60892 23.1007 7.792 23.0377 8.04238C23.0062 8.18008 22.9904 8.47114 22.9904 8.91555ZM25.1858 13.9292C25.1858 12.4082 25.7024 11.1548 26.7358 10.169C27.7691 9.18313 29.1647 8.69021 30.9226 8.69021C32.9325 8.69021 34.451 9.26919 35.478 10.4272C36.3034 11.3598 36.7161 12.5084 36.7161 13.8729C36.7161 15.4064 36.2042 16.663 35.1803 17.6426C34.1564 18.6221 32.7404 19.1119 30.9321 19.1119C29.3191 19.1119 28.0148 18.7051 27.0193 17.8914C25.797 16.8836 25.1858 15.5629 25.1858 13.9292ZM29.0418 13.9198C29.0418 14.8087 29.223 15.4659 29.5853 15.8915C29.9476 16.3172 30.4028 16.53 30.951 16.53C31.5054 16.53 31.9606 16.3203 32.3166 15.9009C32.6726 15.4815 32.8506 14.8087 32.8506 13.8823C32.8506 13.0185 32.6711 12.3754 32.3119 11.9529C31.9528 11.5304 31.5086 11.3191 30.9793 11.3191C30.4185 11.3191 29.9554 11.5335 29.59 11.9623C29.2246 12.391 29.0418 13.0435 29.0418 13.9198ZM38.3444 8.91555H41.9358V10.3708C42.4525 9.76368 42.9739 9.33179 43.5 9.07516C44.0261 8.81853 44.6609 8.69021 45.4044 8.69021C46.2046 8.69021 46.8378 8.83104 47.304 9.11271C47.7703 9.39438 48.1515 9.81375 48.4476 10.3708C49.0525 9.71986 49.6038 9.27702 50.1015 9.0423C50.5993 8.80757 51.2136 8.69021 51.9445 8.69021C53.0219 8.69021 53.8631 9.00787 54.4679 9.64319C55.0728 10.2785 55.3752 11.2722 55.3752 12.6242V18.8866H51.5192V13.2063C51.5192 12.7556 51.431 12.4207 51.2546 12.2017C50.9962 11.8574 50.6749 11.6853 50.2906 11.6853C49.8369 11.6853 49.4715 11.848 49.1942 12.1735C48.917 12.499 48.7784 13.0216 48.7784 13.7415V18.8866H44.9224V13.3941C44.9224 12.9559 44.8972 12.6586 44.8467 12.5021C44.7648 12.2517 44.6231 12.0499 44.4214 11.8965C44.2198 11.7432 43.9835 11.6665 43.7126 11.6665C43.2716 11.6665 42.9093 11.8324 42.6257 12.1641C42.3422 12.4959 42.2004 13.0404 42.2004 13.7978V18.8866H38.3444V8.91555ZM60.9257 12.1453L57.2493 11.7604C57.3879 11.1219 57.5879 10.6196 57.8494 10.2535C58.1109 9.8873 58.4874 9.56964 58.9788 9.30049C59.3317 9.10645 59.8168 8.95623 60.4343 8.84982C61.0518 8.74342 61.7196 8.69021 62.4379 8.69021C63.5909 8.69021 64.5171 8.75437 65.2165 8.88269C65.9159 9.011 66.4987 9.27858 66.965 9.68544C67.2926 9.96711 67.5509 10.3661 67.74 10.8825C67.929 11.3989 68.0235 11.8918 68.0235 12.3613V16.7647C68.0235 17.2341 68.0534 17.6019 68.1133 17.8679C68.1731 18.1339 68.3039 18.4735 68.5055 18.8866H64.8952C64.7503 18.63 64.6558 18.4344 64.6116 18.2998C64.5675 18.1652 64.5234 17.954 64.4793 17.666C63.9753 18.148 63.4744 18.4923 62.9766 18.6988C62.2961 18.9742 61.5054 19.1119 60.6044 19.1119C59.4073 19.1119 58.4984 18.8365 57.8778 18.2857C57.2571 17.7349 56.9468 17.0558 56.9468 16.2483C56.9468 15.4909 57.1705 14.8681 57.6179 14.3799C58.0333 13.9266 58.7746 13.5811 59.8419 13.3437L61.8779 12.9234C62.3458 12.8225 62.6868 12.7431 62.901 12.6852C63.3295 12.5694 63.7831 12.4176 64.262 12.2298C64.262 11.7604 64.1643 11.4318 63.969 11.244C63.7737 11.0562 63.4303 10.9623 62.9388 10.9623C62.3087 10.9623 61.8362 11.0625 61.5212 11.2628C61.2754 11.4193 61.077 11.7134 60.9257 12.1453ZM64.262 14.1546C63.865 14.2954 63.4557 14.4239 63.0339 14.5401L62.608 14.6522C61.8267 14.8587 61.3321 15.0622 61.1242 15.2625C60.91 15.469 60.8029 15.7037 60.8029 15.9666C60.8029 16.2671 60.9084 16.5128 61.1195 16.7037C61.3306 16.8946 61.6409 16.99 62.0504 16.99C62.4789 16.99 62.8774 16.8868 63.246 16.6802C63.6146 16.4736 63.876 16.2217 64.0304 15.9244C64.1848 15.6271 64.262 15.2406 64.262 14.7649V14.1546ZM70.0771 8.91555H73.659V10.5398C74.1946 9.87634 74.7365 9.40221 75.2846 9.11741C75.8328 8.83261 76.5007 8.69021 77.2883 8.69021C78.3531 8.69021 79.1863 9.00474 79.7881 9.6338C80.3898 10.2629 80.6906 11.2346 80.6906 12.5491V18.8866H76.8252V13.4035C76.8252 12.7775 76.7086 12.3347 76.4755 12.0749C76.2423 11.8152 75.9147 11.6853 75.4925 11.6853C75.0263 11.6853 74.6483 11.8605 74.3584 12.2111C74.0686 12.5616 73.9237 13.1906 73.9237 14.0982V18.8866H70.0771V8.91555ZM82.8765 5.12242H86.7231V7.72315H82.8765V5.12242ZM82.8765 8.91555H86.7231V18.8866H82.8765V8.91555ZM92.4343 12.1453L88.7578 11.7604C88.8964 11.1219 89.0965 10.6196 89.358 10.2535C89.6195 9.8873 89.9959 9.56964 90.4874 9.30049C90.8402 9.10645 91.3254 8.95623 91.9428 8.84982C92.5603 8.74342 93.2282 8.69021 93.9465 8.69021C95.0995 8.69021 96.0257 8.75437 96.7251 8.88269C97.4245 9.011 98.0073 9.27858 98.4735 9.68544C98.8012 9.96711 99.0595 10.3661 99.2485 10.8825C99.4375 11.3989 99.5321 11.8918 99.5321 12.3613V16.7647C99.5321 17.2341 99.562 17.6019 99.6218 17.8679C99.6817 18.1339 99.8124 18.4735 100.014 18.8866H96.4037L96.2756 18.6503C96.2014 18.5063 96.1496 18.3895 96.1202 18.2998C96.0761 18.1652 96.032 17.954 95.9879 17.666C95.4838 18.148 94.9829 18.4923 94.4852 18.6988C93.8047 18.9742 93.014 19.1119 92.113 19.1119C90.9158 19.1119 90.007 18.8365 89.3863 18.2857C88.7657 17.7349 88.4554 17.0558 88.4554 16.2483C88.4554 15.4909 88.6791 14.8681 89.1264 14.3799C89.5418 13.9266 90.2832 13.5811 91.3505 13.3437L93.3865 12.9234C93.8543 12.8225 94.1954 12.7431 94.4096 12.6852C94.838 12.5694 95.2917 12.4176 95.7705 12.2298C95.7705 11.7604 95.6729 11.4318 95.4775 11.244C95.2822 11.0562 94.9388 10.9623 94.4474 10.9623C93.8173 10.9623 93.3447 11.0625 93.0297 11.2628C92.784 11.4193 92.5855 11.7134 92.4343 12.1453ZM95.7705 14.1546C95.3736 14.2954 94.9642 14.4239 94.5425 14.5401L94.1166 14.6522C93.3353 14.8587 92.8407 15.0622 92.6328 15.2625C92.4185 15.469 92.3114 15.7037 92.3114 15.9666C92.3114 16.2671 92.417 16.5128 92.628 16.7037C92.8391 16.8946 93.1494 16.99 93.559 16.99C93.9874 16.99 94.3859 16.8868 94.7545 16.6802C95.1231 16.4736 95.3846 16.2217 95.539 15.9244C95.6933 15.6271 95.7705 15.2406 95.7705 14.7649V14.1546ZM101.586 5.12242H105.517V12.2205L108.39 8.91555H113.125L109.525 12.4082L113.333 18.8866H108.995L106.963 14.8869L105.517 16.2952V18.8866H101.586V5.12242Z" fill="white"/>
<line x1="124.667" y1="1.33301" x2="124.667" y2="22.6663" stroke="#E0E0E0" stroke-width="1.33333"/>
<rect x="134.667" width="24" height="24" rx="2.66667" fill="white"/>
<path opacity="0.5" fill-rule="evenodd" clip-rule="evenodd" d="M143.964 5.9496C143.964 5.49958 144.404 5.17796 144.839 5.31031L152.27 7.57419C152.553 7.66055 152.747 7.91985 152.747 8.21349V15.5092C152.747 15.9592 152.307 16.2809 151.872 16.1485L144.441 13.8846C144.158 13.7983 143.964 13.539 143.964 13.2453V5.9496Z" fill="#5AC78A"/>
<path opacity="0.8" fill-rule="evenodd" clip-rule="evenodd" d="M142.275 7.22011C142.275 6.77009 142.715 6.44847 143.15 6.58082L150.581 8.8447C150.864 8.93105 151.058 9.19036 151.058 9.484V16.7797C151.058 17.2297 150.618 17.5514 150.183 17.419L142.752 15.1551C142.469 15.0688 142.275 14.8095 142.275 14.5158V7.22011Z" fill="#4EC483"/>
<path fill-rule="evenodd" clip-rule="evenodd" d="M140.586 8.4916C140.586 8.04157 141.026 7.71995 141.461 7.8523L148.892 10.1162C149.175 10.2025 149.369 10.4618 149.369 10.7555V18.0512C149.369 18.5012 148.929 18.8229 148.494 18.6905L141.063 16.4266C140.78 16.3403 140.586 16.081 140.586 15.7873V8.4916Z" fill="#3BB471"/>
<path fill-rule="evenodd" clip-rule="evenodd" d="M145.936 10.9975C146 11.0511 146.052 11.1189 146.086 11.1927L147.417 15.918C147.517 16.1306 147.45 16.3395 147.267 16.3845C147.212 16.3982 147.15 16.3954 147.087 16.3765L145.879 16.014L145.936 14.3575L144.844 15.725L142.6 15.0303C142.392 14.968 142.224 14.7487 142.224 14.5405C142.224 14.4826 142.237 14.4294 142.263 14.3851L143.019 12.5263C143.111 12.3673 143.337 12.3585 143.523 12.5066C143.597 12.5655 143.657 12.6434 143.694 12.7285L144.106 13.424L145.426 10.9947C145.526 10.8418 145.754 10.8431 145.936 10.9975Z" fill="white"/>
<path d="M169.936 4.724C172.363 4.724 174.547 5.80667 175.069 8.42H173.221C172.755 6.852 171.224 6.32933 169.861 6.32933C168.816 6.32933 166.987 6.796 166.987 8.308C166.987 9.50267 167.939 10.1 169.189 10.38L170.757 10.7347C172.829 11.1827 175.312 11.9667 175.312 14.692C175.312 17.3427 172.848 18.7427 170.16 18.7427C166.968 18.7427 164.952 17.0067 164.597 14.3H166.464C166.819 16.1667 168.125 17.1373 170.197 17.1373C172.195 17.1373 173.352 16.1853 173.352 14.86C173.352 13.4413 172.139 12.844 170.44 12.4707L168.76 12.116C166.912 11.7053 165.045 10.6787 165.045 8.42C165.045 5.844 167.752 4.724 169.936 4.724ZM181.801 8.45733H183.556L185.553 15.8867L187.476 8.45733H189.305L186.412 18.5H184.862L182.641 10.4173L180.494 18.5H178.945L176.052 8.45733H177.881L179.804 15.8867L181.801 8.45733ZM192.436 4.96667V7.02H190.737V4.96667H192.436ZM192.436 8.45733V18.5H190.737V8.45733H192.436ZM200.88 11.388C200.618 10.1933 199.685 9.72667 198.509 9.72667C197.52 9.72667 196.4 10.0813 196.4 10.996C196.4 11.7987 196.96 12.172 197.93 12.3587L199.349 12.6387C201.178 12.9933 202.784 13.684 202.784 15.6253C202.784 17.604 200.992 18.7427 198.696 18.7427C196.064 18.7427 194.57 17.0067 194.384 15.252H196.176C196.437 16.54 197.24 17.3053 198.733 17.3053C200.021 17.3053 201.066 16.7453 201.066 15.812C201.066 14.804 200.114 14.3747 199.032 14.1507L197.538 13.852C196.176 13.572 194.682 12.9373 194.682 11.0707C194.682 9.29733 196.474 8.27067 198.696 8.27067C200.861 8.27067 202.336 9.484 202.653 11.388H200.88ZM210.687 11.388C210.426 10.1933 209.492 9.72667 208.316 9.72667C207.327 9.72667 206.207 10.0813 206.207 10.996C206.207 11.7987 206.767 12.172 207.738 12.3587L209.156 12.6387C210.986 12.9933 212.591 13.684 212.591 15.6253C212.591 17.604 210.799 18.7427 208.503 18.7427C205.871 18.7427 204.378 17.0067 204.191 15.252H205.983C206.244 16.54 207.047 17.3053 208.54 17.3053C209.828 17.3053 210.874 16.7453 210.874 15.812C210.874 14.804 209.922 14.3747 208.839 14.1507L207.346 13.852C205.983 13.572 204.49 12.9373 204.49 11.0707C204.49 9.29733 206.282 8.27067 208.503 8.27067C210.668 8.27067 212.143 9.484 212.46 11.388H210.687ZM217.806 6.60933H213.401V4.96667H224.116V6.60933H219.71V18.5H217.806V6.60933ZM228.972 10.2307C228.617 10.1933 228.3 10.156 228.02 10.156C226.452 10.156 225.668 11.0333 225.668 13.236V18.5H223.969V8.45733H225.63V10.212C226.134 9.07333 227.161 8.43867 228.468 8.40133C228.636 8.40133 228.785 8.40133 228.972 8.42V10.2307ZM229.643 15.8493C229.643 13.4787 232.312 12.788 236.437 12.3213V12.0787C236.437 10.2493 235.411 9.63333 234.16 9.63333C232.76 9.63333 231.939 10.3987 231.864 11.6307H230.109C230.277 9.46533 232.181 8.252 234.141 8.252C236.904 8.252 238.155 9.57733 238.136 12.396L238.117 14.7107C238.099 16.3907 238.192 17.548 238.379 18.5H236.661C236.605 18.1267 236.549 17.716 236.531 17.1187C235.915 18.1453 234.869 18.7427 233.096 18.7427C231.211 18.7427 229.643 17.6973 229.643 15.8493ZM236.568 13.6653C233.488 13.9827 231.528 14.4307 231.528 15.812C231.528 16.764 232.256 17.3987 233.469 17.3987C235.056 17.3987 236.568 16.6707 236.568 14.3V13.6653ZM242.366 9.96933C242.944 9.01733 243.915 8.28933 245.614 8.28933C248.04 8.28933 248.918 9.85733 248.918 12.1533V18.5H247.219V12.6573C247.219 11.108 246.958 9.764 245.016 9.764C243.374 9.764 242.366 10.9027 242.366 13.0493V18.5H240.667V8.45733H242.366V9.96933ZM257.208 11.388C256.947 10.1933 256.013 9.72667 254.837 9.72667C253.848 9.72667 252.728 10.0813 252.728 10.996C252.728 11.7987 253.288 12.172 254.259 12.3587L255.677 12.6387C257.507 12.9933 259.112 13.684 259.112 15.6253C259.112 17.604 257.32 18.7427 255.024 18.7427C252.392 18.7427 250.899 17.0067 250.712 15.252H252.504C252.765 16.54 253.568 17.3053 255.061 17.3053C256.349 17.3053 257.395 16.7453 257.395 15.812C257.395 14.804 256.443 14.3747 255.36 14.1507L253.867 13.852C252.504 13.572 251.011 12.9373 251.011 11.0707C251.011 9.29733 252.803 8.27067 255.024 8.27067C257.189 8.27067 258.664 9.484 258.981 11.388H257.208ZM261.695 7.72933C261.695 5.63867 262.125 4.96667 264.402 4.96667H265.279V6.38533H264.439C263.543 6.38533 263.394 6.59067 263.394 7.636V8.45733H265.279V9.82H263.394V18.5H261.695V9.82H260.295V8.45733H261.695V7.72933ZM267.892 14.0387C267.966 16.204 269.497 17.2493 270.99 17.2493C272.484 17.2493 273.305 16.5773 273.734 15.588H275.489C275.022 17.324 273.436 18.7427 270.99 18.7427C267.817 18.7427 266.062 16.4653 266.062 13.4973C266.062 10.324 268.19 8.28933 270.934 8.28933C273.996 8.28933 275.844 10.8653 275.62 14.0387H267.892ZM267.91 12.5827H273.828C273.79 11.164 272.726 9.74533 270.934 9.74533C269.422 9.74533 268.06 10.5667 267.91 12.5827ZM282.602 10.2307C282.247 10.1933 281.93 10.156 281.65 10.156C280.082 10.156 279.298 11.0333 279.298 13.236V18.5H277.599V8.45733H279.261V10.212C279.765 9.07333 280.791 8.43867 282.098 8.40133C282.266 8.40133 282.415 8.40133 282.602 8.42V10.2307Z" fill="white"/>
</svg>
