<svg width="307" height="24" viewBox="0 0 307 24" fill="none" xmlns="http://www.w3.org/2000/svg">
<path d="M0 4.26403H4.34438V7.18944H0V4.26403ZM0 8.53069H4.34438V19.7465H0V8.53069ZM6.83452 8.53069H10.88V10.3578C11.4849 9.61144 12.0969 9.07811 12.716 8.75776C13.3351 8.4374 14.0894 8.27723 14.9789 8.27723C16.1815 8.27723 17.1226 8.63102 17.8022 9.33861C18.4818 10.0462 18.8216 11.1393 18.8216 12.6178V19.7465H14.4559V13.5789C14.4559 12.8748 14.3242 12.3767 14.0609 12.0845C13.7976 11.7923 13.4276 11.6462 12.9508 11.6462C12.4242 11.6462 11.9973 11.8433 11.6699 12.2376C11.3426 12.6319 11.1789 13.3395 11.1789 14.3604V19.7465H6.83452V8.53069ZM25.9657 8.53069H28.0365V11.6779H25.9657V19.7465H21.6106V11.6779H19.9881V8.53069H21.6106V8.02376C21.6106 7.56611 21.6604 7.06271 21.7601 6.51353C21.8597 5.96435 22.0465 5.51551 22.3204 5.167C22.5944 4.81848 22.9787 4.53685 23.4733 4.32211C23.9678 4.10737 24.6919 4 25.6454 4L26.0214 4.00625C26.7555 4.02916 27.7368 4.11509 28.9651 4.26403L28.4848 6.86205C27.9653 6.77756 27.5454 6.73531 27.2252 6.73531C26.8338 6.73531 26.5527 6.80044 26.382 6.93069C26.2112 7.06095 26.0902 7.26689 26.019 7.54851C25.9835 7.70341 25.9657 8.0308 25.9657 8.53069ZM28.4451 14.1703C28.4451 12.4594 29.0286 11.0495 30.1957 9.94059C31.3627 8.83168 32.9389 8.27723 34.9243 8.27723C37.1944 8.27723 38.9094 8.92849 40.0693 10.231C41.0015 11.2801 41.4676 12.5721 41.4676 14.1069C41.4676 15.8319 40.8894 17.2453 39.7331 18.3472C38.5767 19.4491 36.9774 20 34.935 20C33.1133 20 31.6403 19.5424 30.5159 18.6271C29.1354 17.4935 28.4451 16.0079 28.4451 14.1703ZM32.8002 14.1597C32.8002 15.1595 33.0048 15.8988 33.414 16.3776C33.8231 16.8563 34.3373 17.0957 34.9564 17.0957C35.5826 17.0957 36.0967 16.8598 36.4988 16.3881C36.9008 15.9164 37.1019 15.1595 37.1019 14.1175C37.1019 13.1459 36.8991 12.4224 36.4935 11.9472C36.0878 11.4719 35.5861 11.2343 34.9884 11.2343C34.3551 11.2343 33.832 11.4755 33.4193 11.9578C33.0066 12.44 32.8002 13.174 32.8002 14.1597ZM43.3066 8.53069H47.3628V10.1677C47.9463 9.4847 48.5352 8.9989 49.1294 8.71023C49.7236 8.42156 50.4405 8.27723 51.2802 8.27723C52.184 8.27723 52.8991 8.43564 53.4257 8.75248C53.9523 9.06931 54.3828 9.54103 54.7173 10.1677C55.4004 9.43542 56.0231 8.93729 56.5853 8.67327C57.1474 8.40924 57.8413 8.27723 58.6667 8.27723C59.8836 8.27723 60.8336 8.63454 61.5167 9.34917C62.1999 10.0638 62.5414 11.1815 62.5414 12.7023V19.7465H58.1864V13.3571C58.1864 12.8502 58.0868 12.4735 57.8875 12.2271C57.5957 11.8398 57.2328 11.6462 56.7988 11.6462C56.2864 11.6462 55.8737 11.8293 55.5606 12.1954C55.2474 12.5615 55.0909 13.1494 55.0909 13.9591V19.7465H50.7358V13.5683C50.7358 13.0755 50.7074 12.741 50.6504 12.565C50.5579 12.2834 50.3978 12.0563 50.1701 11.8838C49.9424 11.7113 49.6755 11.6251 49.3695 11.6251C48.8714 11.6251 48.4622 11.8117 48.142 12.1848C47.8218 12.558 47.6617 13.1705 47.6617 14.0224V19.7465H43.3066V8.53069ZM68.8102 12.1637L64.658 11.7307C64.8145 11.0125 65.0405 10.4475 65.3358 10.0356C65.6311 9.62376 66.0563 9.26645 66.6114 8.9637C67.0099 8.74543 67.5578 8.57646 68.2552 8.45677C68.9526 8.33707 69.7069 8.27723 70.5181 8.27723C71.8204 8.27723 72.8664 8.34939 73.6563 8.49373C74.4462 8.63806 75.1044 8.93905 75.631 9.3967C76.0011 9.71353 76.2928 10.1624 76.5063 10.7432C76.7198 11.3241 76.8265 11.8785 76.8265 12.4066V17.3597C76.8265 17.8878 76.8603 18.3014 76.9279 18.6007C76.9955 18.8999 77.1432 19.2818 77.3709 19.7465H73.2934C73.1297 19.4579 73.023 19.2378 72.9732 19.0865C72.9233 18.9351 72.8735 18.6975 72.8237 18.3736C72.2544 18.9157 71.6887 19.303 71.1265 19.5353C70.358 19.8451 69.4649 20 68.4473 20C67.0953 20 66.0688 19.6902 65.3678 19.0706C64.6669 18.451 64.3164 17.6871 64.3164 16.7789C64.3164 15.9269 64.569 15.2264 65.0743 14.6772C65.5434 14.1673 66.3807 13.7787 67.5862 13.5116L69.8857 13.0389C70.414 12.9254 70.7992 12.8361 71.0411 12.771C71.525 12.6407 72.0374 12.47 72.5782 12.2587C72.5782 11.7307 72.4679 11.3611 72.2473 11.1498C72.0267 10.9386 71.6389 10.833 71.0838 10.833C70.3722 10.833 69.8385 10.9457 69.4827 11.171C69.2052 11.347 68.981 11.6779 68.8102 12.1637ZM72.5782 14.4238C72.1299 14.5822 71.6676 14.7267 71.1912 14.8574L70.7102 14.9835C69.8278 15.2158 69.2692 15.4447 69.0344 15.67C68.7924 15.9023 68.6715 16.1663 68.6715 16.462C68.6715 16.8 68.7907 17.0763 69.0291 17.2911C69.2674 17.5058 69.6179 17.6132 70.0805 17.6132C70.5644 17.6132 71.0145 17.497 71.4307 17.2647C71.847 17.0323 72.1423 16.749 72.3167 16.4145C72.491 16.0801 72.5782 15.6453 72.5782 15.1102V14.4238ZM79.1459 8.53069H83.1914V10.3578C83.7963 9.61144 84.4082 9.07811 85.0273 8.75776C85.6464 8.4374 86.4007 8.27723 87.2903 8.27723C88.4929 8.27723 89.434 8.63102 90.1136 9.33861C90.7932 10.0462 91.133 11.1393 91.133 12.6178V19.7465H86.7672V13.5789C86.7672 12.8748 86.6356 12.3767 86.3723 12.0845C86.109 11.7923 85.739 11.6462 85.2622 11.6462C84.7356 11.6462 84.3086 11.8433 83.9813 12.2376C83.6539 12.6319 83.4903 13.3395 83.4903 14.3604V19.7465H79.1459V8.53069ZM93.6018 4.26403H97.9461V7.18944H93.6018V4.26403ZM93.6018 8.53069H97.9461V19.7465H93.6018V8.53069ZM104.396 12.1637L100.244 11.7307C100.401 11.0125 100.627 10.4475 100.922 10.0356C101.217 9.62376 101.642 9.26645 102.198 8.9637C102.596 8.74543 103.144 8.57646 103.841 8.45677C104.539 8.33707 105.293 8.27723 106.104 8.27723C107.407 8.27723 108.453 8.34939 109.242 8.49373C110.032 8.63806 110.691 8.93905 111.217 9.3967C111.587 9.71353 111.879 10.1624 112.092 10.7432C112.306 11.3241 112.413 11.8785 112.413 12.4066V17.3597C112.413 17.8878 112.446 18.3014 112.514 18.6007C112.582 18.8999 112.729 19.2818 112.957 19.7465H108.88L108.735 19.4807C108.651 19.3188 108.593 19.1874 108.559 19.0865C108.509 18.9351 108.46 18.6975 108.41 18.3736C107.841 18.9157 107.275 19.303 106.713 19.5353C105.944 19.8451 105.051 20 104.033 20C102.681 20 101.655 19.6902 100.954 19.0706C100.253 18.451 99.9026 17.6871 99.9026 16.7789C99.9026 15.9269 100.155 15.2264 100.66 14.6772C101.13 14.1673 101.967 13.7787 103.172 13.5116L105.472 13.0389C106 12.9254 106.385 12.8361 106.627 12.771C107.111 12.6407 107.624 12.47 108.164 12.2587C108.164 11.7307 108.054 11.3611 107.833 11.1498C107.613 10.9386 107.225 10.833 106.67 10.833C105.958 10.833 105.425 10.9457 105.069 11.171C104.791 11.347 104.567 11.6779 104.396 12.1637ZM108.164 14.4238C107.716 14.5822 107.254 14.7267 106.777 14.8574L106.296 14.9835C105.414 15.2158 104.855 15.4447 104.621 15.67C104.379 15.9023 104.258 16.1663 104.258 16.462C104.258 16.8 104.377 17.0763 104.615 17.2911C104.854 17.5058 105.204 17.6132 105.667 17.6132C106.151 17.6132 106.601 17.497 107.017 17.2647C107.433 17.0323 107.728 16.749 107.903 16.4145C108.077 16.0801 108.164 15.6453 108.164 15.1102V14.4238ZM114.732 4.26403H119.172V12.2482L122.417 8.53069H127.765L123.698 12.4594L128 19.7465H123.101L120.806 15.2475L119.172 16.8317V19.7465H114.732V4.26403Z" fill="white"/>
<line x1="144.5" y1="-2.18557e-08" x2="144.5" y2="24" stroke="#E0E0E0"/>
<path d="M160 4C160 1.79086 161.791 0 164 0H180C182.209 0 184 1.79086 184 4V20C184 22.2091 182.209 24 180 24H164C161.791 24 160 22.2091 160 20V4Z" fill="white"/>
<path opacity="0.5" fill-rule="evenodd" clip-rule="evenodd" d="M168.783 4.79682C168.783 4.26108 169.306 3.8782 169.823 4.03575L178.67 6.73085C179.007 6.83366 179.238 7.14235 179.238 7.49192V16.1773C179.238 16.7131 178.714 17.0959 178.197 16.9384L169.35 14.2433C169.013 14.1405 168.783 13.8318 168.783 13.4822V4.79682Z" fill="#5AC78A"/>
<path opacity="0.8" fill-rule="evenodd" clip-rule="evenodd" d="M166.772 6.30952C166.772 5.77378 167.296 5.3909 167.813 5.54845L176.66 8.24355C176.997 8.34635 177.227 8.65505 177.227 9.00462V17.69C177.227 18.2258 176.704 18.6086 176.187 18.4511L167.34 15.756C167.003 15.6532 166.772 15.3445 166.772 14.9949V6.30952Z" fill="#4EC483"/>
<path fill-rule="evenodd" clip-rule="evenodd" d="M164.762 7.82221C164.762 7.28647 165.285 6.90359 165.802 7.06115L174.649 9.75625C174.986 9.85905 175.217 10.1677 175.217 10.5173V19.2027C175.217 19.7384 174.693 20.1213 174.176 19.9638L165.329 17.2687C164.992 17.1659 164.762 16.8572 164.762 16.5076V7.82221Z" fill="#3BB471"/>
<path fill-rule="evenodd" clip-rule="evenodd" d="M171.131 10.8059C171.206 10.8697 171.268 10.9504 171.309 11.0383L172.894 16.6636C173.012 16.9167 172.932 17.1653 172.715 17.219C172.65 17.2352 172.576 17.2319 172.501 17.2095L171.063 16.7779L171.131 14.8059L169.83 16.4338L167.159 15.6068C166.911 15.5326 166.711 15.2716 166.711 15.0238C166.711 14.9548 166.727 14.8915 166.757 14.8388L167.658 12.6258C167.768 12.4366 168.036 12.4261 168.258 12.6024C168.346 12.6725 168.417 12.7653 168.461 12.8666L168.952 13.6945L170.523 10.8025C170.642 10.6205 170.914 10.622 171.131 10.8059Z" fill="white"/>
<path d="M197.724 5.216C200.064 5.216 202.17 6.26 202.674 8.78H200.892C200.442 7.268 198.966 6.764 197.652 6.764C196.644 6.764 194.88 7.214 194.88 8.672C194.88 9.824 195.798 10.4 197.004 10.67L198.516 11.012C200.514 11.444 202.908 12.2 202.908 14.828C202.908 17.384 200.532 18.734 197.94 18.734C194.862 18.734 192.918 17.06 192.576 14.45H194.376C194.718 16.25 195.978 17.186 197.976 17.186C199.902 17.186 201.018 16.268 201.018 14.99C201.018 13.622 199.848 13.046 198.21 12.686L196.59 12.344C194.808 11.948 193.008 10.958 193.008 8.78C193.008 6.296 195.618 5.216 197.724 5.216ZM209.165 8.816H210.857L212.783 15.98L214.637 8.816H216.401L213.611 18.5H212.117L209.975 10.706L207.905 18.5H206.411L203.621 8.816H205.385L207.239 15.98L209.165 8.816ZM219.42 5.45V7.43H217.782V5.45H219.42ZM219.42 8.816V18.5H217.782V8.816H219.42ZM227.563 11.642C227.311 10.49 226.411 10.04 225.277 10.04C224.323 10.04 223.243 10.382 223.243 11.264C223.243 12.038 223.783 12.398 224.719 12.578L226.087 12.848C227.851 13.19 229.399 13.856 229.399 15.728C229.399 17.636 227.671 18.734 225.457 18.734C222.919 18.734 221.479 17.06 221.299 15.368H223.027C223.279 16.61 224.053 17.348 225.493 17.348C226.735 17.348 227.743 16.808 227.743 15.908C227.743 14.936 226.825 14.522 225.781 14.306L224.341 14.018C223.027 13.748 221.587 13.136 221.587 11.336C221.587 9.626 223.315 8.636 225.457 8.636C227.545 8.636 228.967 9.806 229.273 11.642H227.563ZM237.02 11.642C236.768 10.49 235.868 10.04 234.734 10.04C233.78 10.04 232.7 10.382 232.7 11.264C232.7 12.038 233.24 12.398 234.176 12.578L235.544 12.848C237.308 13.19 238.856 13.856 238.856 15.728C238.856 17.636 237.128 18.734 234.914 18.734C232.376 18.734 230.936 17.06 230.756 15.368H232.484C232.736 16.61 233.51 17.348 234.95 17.348C236.192 17.348 237.2 16.808 237.2 15.908C237.2 14.936 236.282 14.522 235.238 14.306L233.798 14.018C232.484 13.748 231.044 13.136 231.044 11.336C231.044 9.626 232.772 8.636 234.914 8.636C237.002 8.636 238.424 9.806 238.73 11.642H237.02ZM243.885 7.034H239.637V5.45H249.969V7.034H245.721V18.5H243.885V7.034ZM254.651 10.526C254.309 10.49 254.003 10.454 253.733 10.454C252.221 10.454 251.465 11.3 251.465 13.424V18.5H249.827V8.816H251.429V10.508C251.915 9.41 252.905 8.798 254.165 8.762C254.327 8.762 254.471 8.762 254.651 8.78V10.526ZM255.298 15.944C255.298 13.658 257.872 12.992 261.85 12.542V12.308C261.85 10.544 260.86 9.95 259.654 9.95C258.304 9.95 257.512 10.688 257.44 11.876H255.748C255.91 9.788 257.746 8.618 259.636 8.618C262.3 8.618 263.506 9.896 263.488 12.614L263.47 14.846C263.452 16.466 263.542 17.582 263.722 18.5H262.066C262.012 18.14 261.958 17.744 261.94 17.168C261.346 18.158 260.338 18.734 258.628 18.734C256.81 18.734 255.298 17.726 255.298 15.944ZM261.976 13.838C259.006 14.144 257.116 14.576 257.116 15.908C257.116 16.826 257.818 17.438 258.988 17.438C260.518 17.438 261.976 16.736 261.976 14.45V13.838ZM267.567 10.274C268.125 9.356 269.061 8.654 270.699 8.654C273.039 8.654 273.885 10.166 273.885 12.38V18.5H272.247V12.866C272.247 11.372 271.995 10.076 270.123 10.076C268.539 10.076 267.567 11.174 267.567 13.244V18.5H265.929V8.816H267.567V10.274ZM281.879 11.642C281.627 10.49 280.727 10.04 279.593 10.04C278.639 10.04 277.559 10.382 277.559 11.264C277.559 12.038 278.099 12.398 279.035 12.578L280.403 12.848C282.167 13.19 283.715 13.856 283.715 15.728C283.715 17.636 281.987 18.734 279.773 18.734C277.235 18.734 275.795 17.06 275.615 15.368H277.343C277.595 16.61 278.369 17.348 279.809 17.348C281.051 17.348 282.059 16.808 282.059 15.908C282.059 14.936 281.141 14.522 280.097 14.306L278.657 14.018C277.343 13.748 275.903 13.136 275.903 11.336C275.903 9.626 277.631 8.636 279.773 8.636C281.861 8.636 283.283 9.806 283.589 11.642H281.879ZM286.206 8.114C286.206 6.098 286.62 5.45 288.816 5.45H289.662V6.818H288.852C287.988 6.818 287.844 7.016 287.844 8.024V8.816H289.662V10.13H287.844V18.5H286.206V10.13H284.856V8.816H286.206V8.114ZM292.181 14.198C292.253 16.286 293.729 17.294 295.169 17.294C296.609 17.294 297.401 16.646 297.815 15.692H299.507C299.057 17.366 297.527 18.734 295.169 18.734C292.109 18.734 290.417 16.538 290.417 13.676C290.417 10.616 292.469 8.654 295.115 8.654C298.067 8.654 299.849 11.138 299.633 14.198H292.181ZM292.199 12.794H297.905C297.869 11.426 296.843 10.058 295.115 10.058C293.657 10.058 292.343 10.85 292.199 12.794ZM306.366 10.526C306.024 10.49 305.718 10.454 305.448 10.454C303.936 10.454 303.18 11.3 303.18 13.424V18.5H301.542V8.816H303.144V10.508C303.63 9.41 304.62 8.798 305.88 8.762C306.042 8.762 306.186 8.762 306.366 8.78V10.526Z" fill="white"/>
</svg>
